G04 #@! TF.GenerationSoftware,KiCad,Pcbnew,(5.1.5)-3*
G04 #@! TF.CreationDate,2020-03-19T13:13:49+01:00*
G04 #@! TF.ProjectId,buttons,62757474-6f6e-4732-9e6b-696361645f70,rev?*
G04 #@! TF.SameCoordinates,Original*
G04 #@! TF.FileFunction,Copper,L1,Top*
G04 #@! TF.FilePolarity,Positive*
%FSLAX46Y46*%
G04 Gerber Fmt 4.6, Leading zero omitted, Abs format (unit mm)*
G04 Created by KiCad (PCBNEW (5.1.5)-3) date 2020-03-19 13:13:49*
%MOMM*%
%LPD*%
G04 APERTURE LIST*
%ADD10R,1.800000X1.800000*%
%ADD11C,1.800000*%
%ADD12O,1.700000X3.000000*%
%ADD13C,0.100000*%
%ADD14R,1.700000X1.700000*%
%ADD15O,1.700000X1.700000*%
%ADD16C,0.800000*%
%ADD17C,0.400000*%
%ADD18C,1.000000*%
%ADD19C,0.254000*%
G04 APERTURE END LIST*
D10*
X101610000Y-41000000D03*
D11*
X101610000Y-38460000D03*
D12*
X132300000Y-38435000D03*
X152620000Y-38435000D03*
X147540000Y-38435000D03*
X127220000Y-38435000D03*
X129760000Y-38435000D03*
X157700000Y-38435000D03*
X124680000Y-38435000D03*
X150080000Y-38435000D03*
X134840000Y-38435000D03*
X137380000Y-38435000D03*
X142460000Y-38435000D03*
X145000000Y-38435000D03*
X139920000Y-38435000D03*
X122140000Y-38435000D03*
X155160000Y-38435000D03*
X157700000Y-54945000D03*
X155160000Y-54945000D03*
X152620000Y-54945000D03*
X150080000Y-54945000D03*
X147540000Y-54945000D03*
X145000000Y-54945000D03*
X142460000Y-54945000D03*
X139920000Y-54945000D03*
X137380000Y-54945000D03*
X134840000Y-54945000D03*
X132300000Y-54945000D03*
X129760000Y-54945000D03*
X127220000Y-54945000D03*
X124680000Y-54945000D03*
X122140000Y-54945000D03*
D11*
X101610000Y-45200000D03*
D10*
X101610000Y-47740000D03*
X101650000Y-54490000D03*
D11*
X101650000Y-51950000D03*
G04 #@! TA.AperFunction,SMDPad,CuDef*
D13*
G36*
X110254504Y-52716204D02*
G01*
X110278773Y-52719804D01*
X110302571Y-52725765D01*
X110325671Y-52734030D01*
X110347849Y-52744520D01*
X110368893Y-52757133D01*
X110388598Y-52771747D01*
X110406777Y-52788223D01*
X110423253Y-52806402D01*
X110437867Y-52826107D01*
X110450480Y-52847151D01*
X110460970Y-52869329D01*
X110469235Y-52892429D01*
X110475196Y-52916227D01*
X110478796Y-52940496D01*
X110480000Y-52965000D01*
X110480000Y-54215000D01*
X110478796Y-54239504D01*
X110475196Y-54263773D01*
X110469235Y-54287571D01*
X110460970Y-54310671D01*
X110450480Y-54332849D01*
X110437867Y-54353893D01*
X110423253Y-54373598D01*
X110406777Y-54391777D01*
X110388598Y-54408253D01*
X110368893Y-54422867D01*
X110347849Y-54435480D01*
X110325671Y-54445970D01*
X110302571Y-54454235D01*
X110278773Y-54460196D01*
X110254504Y-54463796D01*
X110230000Y-54465000D01*
X109305000Y-54465000D01*
X109280496Y-54463796D01*
X109256227Y-54460196D01*
X109232429Y-54454235D01*
X109209329Y-54445970D01*
X109187151Y-54435480D01*
X109166107Y-54422867D01*
X109146402Y-54408253D01*
X109128223Y-54391777D01*
X109111747Y-54373598D01*
X109097133Y-54353893D01*
X109084520Y-54332849D01*
X109074030Y-54310671D01*
X109065765Y-54287571D01*
X109059804Y-54263773D01*
X109056204Y-54239504D01*
X109055000Y-54215000D01*
X109055000Y-52965000D01*
X109056204Y-52940496D01*
X109059804Y-52916227D01*
X109065765Y-52892429D01*
X109074030Y-52869329D01*
X109084520Y-52847151D01*
X109097133Y-52826107D01*
X109111747Y-52806402D01*
X109128223Y-52788223D01*
X109146402Y-52771747D01*
X109166107Y-52757133D01*
X109187151Y-52744520D01*
X109209329Y-52734030D01*
X109232429Y-52725765D01*
X109256227Y-52719804D01*
X109280496Y-52716204D01*
X109305000Y-52715000D01*
X110230000Y-52715000D01*
X110254504Y-52716204D01*
G37*
G04 #@! TD.AperFunction*
G04 #@! TA.AperFunction,SMDPad,CuDef*
G36*
X107279504Y-52716204D02*
G01*
X107303773Y-52719804D01*
X107327571Y-52725765D01*
X107350671Y-52734030D01*
X107372849Y-52744520D01*
X107393893Y-52757133D01*
X107413598Y-52771747D01*
X107431777Y-52788223D01*
X107448253Y-52806402D01*
X107462867Y-52826107D01*
X107475480Y-52847151D01*
X107485970Y-52869329D01*
X107494235Y-52892429D01*
X107500196Y-52916227D01*
X107503796Y-52940496D01*
X107505000Y-52965000D01*
X107505000Y-54215000D01*
X107503796Y-54239504D01*
X107500196Y-54263773D01*
X107494235Y-54287571D01*
X107485970Y-54310671D01*
X107475480Y-54332849D01*
X107462867Y-54353893D01*
X107448253Y-54373598D01*
X107431777Y-54391777D01*
X107413598Y-54408253D01*
X107393893Y-54422867D01*
X107372849Y-54435480D01*
X107350671Y-54445970D01*
X107327571Y-54454235D01*
X107303773Y-54460196D01*
X107279504Y-54463796D01*
X107255000Y-54465000D01*
X106330000Y-54465000D01*
X106305496Y-54463796D01*
X106281227Y-54460196D01*
X106257429Y-54454235D01*
X106234329Y-54445970D01*
X106212151Y-54435480D01*
X106191107Y-54422867D01*
X106171402Y-54408253D01*
X106153223Y-54391777D01*
X106136747Y-54373598D01*
X106122133Y-54353893D01*
X106109520Y-54332849D01*
X106099030Y-54310671D01*
X106090765Y-54287571D01*
X106084804Y-54263773D01*
X106081204Y-54239504D01*
X106080000Y-54215000D01*
X106080000Y-52965000D01*
X106081204Y-52940496D01*
X106084804Y-52916227D01*
X106090765Y-52892429D01*
X106099030Y-52869329D01*
X106109520Y-52847151D01*
X106122133Y-52826107D01*
X106136747Y-52806402D01*
X106153223Y-52788223D01*
X106171402Y-52771747D01*
X106191107Y-52757133D01*
X106212151Y-52744520D01*
X106234329Y-52734030D01*
X106257429Y-52725765D01*
X106281227Y-52719804D01*
X106305496Y-52716204D01*
X106330000Y-52715000D01*
X107255000Y-52715000D01*
X107279504Y-52716204D01*
G37*
G04 #@! TD.AperFunction*
G04 #@! TA.AperFunction,SMDPad,CuDef*
G36*
X107299504Y-50106204D02*
G01*
X107323773Y-50109804D01*
X107347571Y-50115765D01*
X107370671Y-50124030D01*
X107392849Y-50134520D01*
X107413893Y-50147133D01*
X107433598Y-50161747D01*
X107451777Y-50178223D01*
X107468253Y-50196402D01*
X107482867Y-50216107D01*
X107495480Y-50237151D01*
X107505970Y-50259329D01*
X107514235Y-50282429D01*
X107520196Y-50306227D01*
X107523796Y-50330496D01*
X107525000Y-50355000D01*
X107525000Y-51605000D01*
X107523796Y-51629504D01*
X107520196Y-51653773D01*
X107514235Y-51677571D01*
X107505970Y-51700671D01*
X107495480Y-51722849D01*
X107482867Y-51743893D01*
X107468253Y-51763598D01*
X107451777Y-51781777D01*
X107433598Y-51798253D01*
X107413893Y-51812867D01*
X107392849Y-51825480D01*
X107370671Y-51835970D01*
X107347571Y-51844235D01*
X107323773Y-51850196D01*
X107299504Y-51853796D01*
X107275000Y-51855000D01*
X106350000Y-51855000D01*
X106325496Y-51853796D01*
X106301227Y-51850196D01*
X106277429Y-51844235D01*
X106254329Y-51835970D01*
X106232151Y-51825480D01*
X106211107Y-51812867D01*
X106191402Y-51798253D01*
X106173223Y-51781777D01*
X106156747Y-51763598D01*
X106142133Y-51743893D01*
X106129520Y-51722849D01*
X106119030Y-51700671D01*
X106110765Y-51677571D01*
X106104804Y-51653773D01*
X106101204Y-51629504D01*
X106100000Y-51605000D01*
X106100000Y-50355000D01*
X106101204Y-50330496D01*
X106104804Y-50306227D01*
X106110765Y-50282429D01*
X106119030Y-50259329D01*
X106129520Y-50237151D01*
X106142133Y-50216107D01*
X106156747Y-50196402D01*
X106173223Y-50178223D01*
X106191402Y-50161747D01*
X106211107Y-50147133D01*
X106232151Y-50134520D01*
X106254329Y-50124030D01*
X106277429Y-50115765D01*
X106301227Y-50109804D01*
X106325496Y-50106204D01*
X106350000Y-50105000D01*
X107275000Y-50105000D01*
X107299504Y-50106204D01*
G37*
G04 #@! TD.AperFunction*
G04 #@! TA.AperFunction,SMDPad,CuDef*
G36*
X110274504Y-50106204D02*
G01*
X110298773Y-50109804D01*
X110322571Y-50115765D01*
X110345671Y-50124030D01*
X110367849Y-50134520D01*
X110388893Y-50147133D01*
X110408598Y-50161747D01*
X110426777Y-50178223D01*
X110443253Y-50196402D01*
X110457867Y-50216107D01*
X110470480Y-50237151D01*
X110480970Y-50259329D01*
X110489235Y-50282429D01*
X110495196Y-50306227D01*
X110498796Y-50330496D01*
X110500000Y-50355000D01*
X110500000Y-51605000D01*
X110498796Y-51629504D01*
X110495196Y-51653773D01*
X110489235Y-51677571D01*
X110480970Y-51700671D01*
X110470480Y-51722849D01*
X110457867Y-51743893D01*
X110443253Y-51763598D01*
X110426777Y-51781777D01*
X110408598Y-51798253D01*
X110388893Y-51812867D01*
X110367849Y-51825480D01*
X110345671Y-51835970D01*
X110322571Y-51844235D01*
X110298773Y-51850196D01*
X110274504Y-51853796D01*
X110250000Y-51855000D01*
X109325000Y-51855000D01*
X109300496Y-51853796D01*
X109276227Y-51850196D01*
X109252429Y-51844235D01*
X109229329Y-51835970D01*
X109207151Y-51825480D01*
X109186107Y-51812867D01*
X109166402Y-51798253D01*
X109148223Y-51781777D01*
X109131747Y-51763598D01*
X109117133Y-51743893D01*
X109104520Y-51722849D01*
X109094030Y-51700671D01*
X109085765Y-51677571D01*
X109079804Y-51653773D01*
X109076204Y-51629504D01*
X109075000Y-51605000D01*
X109075000Y-50355000D01*
X109076204Y-50330496D01*
X109079804Y-50306227D01*
X109085765Y-50282429D01*
X109094030Y-50259329D01*
X109104520Y-50237151D01*
X109117133Y-50216107D01*
X109131747Y-50196402D01*
X109148223Y-50178223D01*
X109166402Y-50161747D01*
X109186107Y-50147133D01*
X109207151Y-50134520D01*
X109229329Y-50124030D01*
X109252429Y-50115765D01*
X109276227Y-50109804D01*
X109300496Y-50106204D01*
X109325000Y-50105000D01*
X110250000Y-50105000D01*
X110274504Y-50106204D01*
G37*
G04 #@! TD.AperFunction*
G04 #@! TA.AperFunction,SMDPad,CuDef*
G36*
X110324504Y-47456204D02*
G01*
X110348773Y-47459804D01*
X110372571Y-47465765D01*
X110395671Y-47474030D01*
X110417849Y-47484520D01*
X110438893Y-47497133D01*
X110458598Y-47511747D01*
X110476777Y-47528223D01*
X110493253Y-47546402D01*
X110507867Y-47566107D01*
X110520480Y-47587151D01*
X110530970Y-47609329D01*
X110539235Y-47632429D01*
X110545196Y-47656227D01*
X110548796Y-47680496D01*
X110550000Y-47705000D01*
X110550000Y-48955000D01*
X110548796Y-48979504D01*
X110545196Y-49003773D01*
X110539235Y-49027571D01*
X110530970Y-49050671D01*
X110520480Y-49072849D01*
X110507867Y-49093893D01*
X110493253Y-49113598D01*
X110476777Y-49131777D01*
X110458598Y-49148253D01*
X110438893Y-49162867D01*
X110417849Y-49175480D01*
X110395671Y-49185970D01*
X110372571Y-49194235D01*
X110348773Y-49200196D01*
X110324504Y-49203796D01*
X110300000Y-49205000D01*
X109375000Y-49205000D01*
X109350496Y-49203796D01*
X109326227Y-49200196D01*
X109302429Y-49194235D01*
X109279329Y-49185970D01*
X109257151Y-49175480D01*
X109236107Y-49162867D01*
X109216402Y-49148253D01*
X109198223Y-49131777D01*
X109181747Y-49113598D01*
X109167133Y-49093893D01*
X109154520Y-49072849D01*
X109144030Y-49050671D01*
X109135765Y-49027571D01*
X109129804Y-49003773D01*
X109126204Y-48979504D01*
X109125000Y-48955000D01*
X109125000Y-47705000D01*
X109126204Y-47680496D01*
X109129804Y-47656227D01*
X109135765Y-47632429D01*
X109144030Y-47609329D01*
X109154520Y-47587151D01*
X109167133Y-47566107D01*
X109181747Y-47546402D01*
X109198223Y-47528223D01*
X109216402Y-47511747D01*
X109236107Y-47497133D01*
X109257151Y-47484520D01*
X109279329Y-47474030D01*
X109302429Y-47465765D01*
X109326227Y-47459804D01*
X109350496Y-47456204D01*
X109375000Y-47455000D01*
X110300000Y-47455000D01*
X110324504Y-47456204D01*
G37*
G04 #@! TD.AperFunction*
G04 #@! TA.AperFunction,SMDPad,CuDef*
G36*
X107349504Y-47456204D02*
G01*
X107373773Y-47459804D01*
X107397571Y-47465765D01*
X107420671Y-47474030D01*
X107442849Y-47484520D01*
X107463893Y-47497133D01*
X107483598Y-47511747D01*
X107501777Y-47528223D01*
X107518253Y-47546402D01*
X107532867Y-47566107D01*
X107545480Y-47587151D01*
X107555970Y-47609329D01*
X107564235Y-47632429D01*
X107570196Y-47656227D01*
X107573796Y-47680496D01*
X107575000Y-47705000D01*
X107575000Y-48955000D01*
X107573796Y-48979504D01*
X107570196Y-49003773D01*
X107564235Y-49027571D01*
X107555970Y-49050671D01*
X107545480Y-49072849D01*
X107532867Y-49093893D01*
X107518253Y-49113598D01*
X107501777Y-49131777D01*
X107483598Y-49148253D01*
X107463893Y-49162867D01*
X107442849Y-49175480D01*
X107420671Y-49185970D01*
X107397571Y-49194235D01*
X107373773Y-49200196D01*
X107349504Y-49203796D01*
X107325000Y-49205000D01*
X106400000Y-49205000D01*
X106375496Y-49203796D01*
X106351227Y-49200196D01*
X106327429Y-49194235D01*
X106304329Y-49185970D01*
X106282151Y-49175480D01*
X106261107Y-49162867D01*
X106241402Y-49148253D01*
X106223223Y-49131777D01*
X106206747Y-49113598D01*
X106192133Y-49093893D01*
X106179520Y-49072849D01*
X106169030Y-49050671D01*
X106160765Y-49027571D01*
X106154804Y-49003773D01*
X106151204Y-48979504D01*
X106150000Y-48955000D01*
X106150000Y-47705000D01*
X106151204Y-47680496D01*
X106154804Y-47656227D01*
X106160765Y-47632429D01*
X106169030Y-47609329D01*
X106179520Y-47587151D01*
X106192133Y-47566107D01*
X106206747Y-47546402D01*
X106223223Y-47528223D01*
X106241402Y-47511747D01*
X106261107Y-47497133D01*
X106282151Y-47484520D01*
X106304329Y-47474030D01*
X106327429Y-47465765D01*
X106351227Y-47459804D01*
X106375496Y-47456204D01*
X106400000Y-47455000D01*
X107325000Y-47455000D01*
X107349504Y-47456204D01*
G37*
G04 #@! TD.AperFunction*
G04 #@! TA.AperFunction,SMDPad,CuDef*
G36*
X114049504Y-49266204D02*
G01*
X114073773Y-49269804D01*
X114097571Y-49275765D01*
X114120671Y-49284030D01*
X114142849Y-49294520D01*
X114163893Y-49307133D01*
X114183598Y-49321747D01*
X114201777Y-49338223D01*
X114218253Y-49356402D01*
X114232867Y-49376107D01*
X114245480Y-49397151D01*
X114255970Y-49419329D01*
X114264235Y-49442429D01*
X114270196Y-49466227D01*
X114273796Y-49490496D01*
X114275000Y-49515000D01*
X114275000Y-50765000D01*
X114273796Y-50789504D01*
X114270196Y-50813773D01*
X114264235Y-50837571D01*
X114255970Y-50860671D01*
X114245480Y-50882849D01*
X114232867Y-50903893D01*
X114218253Y-50923598D01*
X114201777Y-50941777D01*
X114183598Y-50958253D01*
X114163893Y-50972867D01*
X114142849Y-50985480D01*
X114120671Y-50995970D01*
X114097571Y-51004235D01*
X114073773Y-51010196D01*
X114049504Y-51013796D01*
X114025000Y-51015000D01*
X113100000Y-51015000D01*
X113075496Y-51013796D01*
X113051227Y-51010196D01*
X113027429Y-51004235D01*
X113004329Y-50995970D01*
X112982151Y-50985480D01*
X112961107Y-50972867D01*
X112941402Y-50958253D01*
X112923223Y-50941777D01*
X112906747Y-50923598D01*
X112892133Y-50903893D01*
X112879520Y-50882849D01*
X112869030Y-50860671D01*
X112860765Y-50837571D01*
X112854804Y-50813773D01*
X112851204Y-50789504D01*
X112850000Y-50765000D01*
X112850000Y-49515000D01*
X112851204Y-49490496D01*
X112854804Y-49466227D01*
X112860765Y-49442429D01*
X112869030Y-49419329D01*
X112879520Y-49397151D01*
X112892133Y-49376107D01*
X112906747Y-49356402D01*
X112923223Y-49338223D01*
X112941402Y-49321747D01*
X112961107Y-49307133D01*
X112982151Y-49294520D01*
X113004329Y-49284030D01*
X113027429Y-49275765D01*
X113051227Y-49269804D01*
X113075496Y-49266204D01*
X113100000Y-49265000D01*
X114025000Y-49265000D01*
X114049504Y-49266204D01*
G37*
G04 #@! TD.AperFunction*
G04 #@! TA.AperFunction,SMDPad,CuDef*
G36*
X117024504Y-49266204D02*
G01*
X117048773Y-49269804D01*
X117072571Y-49275765D01*
X117095671Y-49284030D01*
X117117849Y-49294520D01*
X117138893Y-49307133D01*
X117158598Y-49321747D01*
X117176777Y-49338223D01*
X117193253Y-49356402D01*
X117207867Y-49376107D01*
X117220480Y-49397151D01*
X117230970Y-49419329D01*
X117239235Y-49442429D01*
X117245196Y-49466227D01*
X117248796Y-49490496D01*
X117250000Y-49515000D01*
X117250000Y-50765000D01*
X117248796Y-50789504D01*
X117245196Y-50813773D01*
X117239235Y-50837571D01*
X117230970Y-50860671D01*
X117220480Y-50882849D01*
X117207867Y-50903893D01*
X117193253Y-50923598D01*
X117176777Y-50941777D01*
X117158598Y-50958253D01*
X117138893Y-50972867D01*
X117117849Y-50985480D01*
X117095671Y-50995970D01*
X117072571Y-51004235D01*
X117048773Y-51010196D01*
X117024504Y-51013796D01*
X117000000Y-51015000D01*
X116075000Y-51015000D01*
X116050496Y-51013796D01*
X116026227Y-51010196D01*
X116002429Y-51004235D01*
X115979329Y-50995970D01*
X115957151Y-50985480D01*
X115936107Y-50972867D01*
X115916402Y-50958253D01*
X115898223Y-50941777D01*
X115881747Y-50923598D01*
X115867133Y-50903893D01*
X115854520Y-50882849D01*
X115844030Y-50860671D01*
X115835765Y-50837571D01*
X115829804Y-50813773D01*
X115826204Y-50789504D01*
X115825000Y-50765000D01*
X115825000Y-49515000D01*
X115826204Y-49490496D01*
X115829804Y-49466227D01*
X115835765Y-49442429D01*
X115844030Y-49419329D01*
X115854520Y-49397151D01*
X115867133Y-49376107D01*
X115881747Y-49356402D01*
X115898223Y-49338223D01*
X115916402Y-49321747D01*
X115936107Y-49307133D01*
X115957151Y-49294520D01*
X115979329Y-49284030D01*
X116002429Y-49275765D01*
X116026227Y-49269804D01*
X116050496Y-49266204D01*
X116075000Y-49265000D01*
X117000000Y-49265000D01*
X117024504Y-49266204D01*
G37*
G04 #@! TD.AperFunction*
G04 #@! TA.AperFunction,SMDPad,CuDef*
G36*
X117004504Y-46666204D02*
G01*
X117028773Y-46669804D01*
X117052571Y-46675765D01*
X117075671Y-46684030D01*
X117097849Y-46694520D01*
X117118893Y-46707133D01*
X117138598Y-46721747D01*
X117156777Y-46738223D01*
X117173253Y-46756402D01*
X117187867Y-46776107D01*
X117200480Y-46797151D01*
X117210970Y-46819329D01*
X117219235Y-46842429D01*
X117225196Y-46866227D01*
X117228796Y-46890496D01*
X117230000Y-46915000D01*
X117230000Y-48165000D01*
X117228796Y-48189504D01*
X117225196Y-48213773D01*
X117219235Y-48237571D01*
X117210970Y-48260671D01*
X117200480Y-48282849D01*
X117187867Y-48303893D01*
X117173253Y-48323598D01*
X117156777Y-48341777D01*
X117138598Y-48358253D01*
X117118893Y-48372867D01*
X117097849Y-48385480D01*
X117075671Y-48395970D01*
X117052571Y-48404235D01*
X117028773Y-48410196D01*
X117004504Y-48413796D01*
X116980000Y-48415000D01*
X116055000Y-48415000D01*
X116030496Y-48413796D01*
X116006227Y-48410196D01*
X115982429Y-48404235D01*
X115959329Y-48395970D01*
X115937151Y-48385480D01*
X115916107Y-48372867D01*
X115896402Y-48358253D01*
X115878223Y-48341777D01*
X115861747Y-48323598D01*
X115847133Y-48303893D01*
X115834520Y-48282849D01*
X115824030Y-48260671D01*
X115815765Y-48237571D01*
X115809804Y-48213773D01*
X115806204Y-48189504D01*
X115805000Y-48165000D01*
X115805000Y-46915000D01*
X115806204Y-46890496D01*
X115809804Y-46866227D01*
X115815765Y-46842429D01*
X115824030Y-46819329D01*
X115834520Y-46797151D01*
X115847133Y-46776107D01*
X115861747Y-46756402D01*
X115878223Y-46738223D01*
X115896402Y-46721747D01*
X115916107Y-46707133D01*
X115937151Y-46694520D01*
X115959329Y-46684030D01*
X115982429Y-46675765D01*
X116006227Y-46669804D01*
X116030496Y-46666204D01*
X116055000Y-46665000D01*
X116980000Y-46665000D01*
X117004504Y-46666204D01*
G37*
G04 #@! TD.AperFunction*
G04 #@! TA.AperFunction,SMDPad,CuDef*
G36*
X114029504Y-46666204D02*
G01*
X114053773Y-46669804D01*
X114077571Y-46675765D01*
X114100671Y-46684030D01*
X114122849Y-46694520D01*
X114143893Y-46707133D01*
X114163598Y-46721747D01*
X114181777Y-46738223D01*
X114198253Y-46756402D01*
X114212867Y-46776107D01*
X114225480Y-46797151D01*
X114235970Y-46819329D01*
X114244235Y-46842429D01*
X114250196Y-46866227D01*
X114253796Y-46890496D01*
X114255000Y-46915000D01*
X114255000Y-48165000D01*
X114253796Y-48189504D01*
X114250196Y-48213773D01*
X114244235Y-48237571D01*
X114235970Y-48260671D01*
X114225480Y-48282849D01*
X114212867Y-48303893D01*
X114198253Y-48323598D01*
X114181777Y-48341777D01*
X114163598Y-48358253D01*
X114143893Y-48372867D01*
X114122849Y-48385480D01*
X114100671Y-48395970D01*
X114077571Y-48404235D01*
X114053773Y-48410196D01*
X114029504Y-48413796D01*
X114005000Y-48415000D01*
X113080000Y-48415000D01*
X113055496Y-48413796D01*
X113031227Y-48410196D01*
X113007429Y-48404235D01*
X112984329Y-48395970D01*
X112962151Y-48385480D01*
X112941107Y-48372867D01*
X112921402Y-48358253D01*
X112903223Y-48341777D01*
X112886747Y-48323598D01*
X112872133Y-48303893D01*
X112859520Y-48282849D01*
X112849030Y-48260671D01*
X112840765Y-48237571D01*
X112834804Y-48213773D01*
X112831204Y-48189504D01*
X112830000Y-48165000D01*
X112830000Y-46915000D01*
X112831204Y-46890496D01*
X112834804Y-46866227D01*
X112840765Y-46842429D01*
X112849030Y-46819329D01*
X112859520Y-46797151D01*
X112872133Y-46776107D01*
X112886747Y-46756402D01*
X112903223Y-46738223D01*
X112921402Y-46721747D01*
X112941107Y-46707133D01*
X112962151Y-46694520D01*
X112984329Y-46684030D01*
X113007429Y-46675765D01*
X113031227Y-46669804D01*
X113055496Y-46666204D01*
X113080000Y-46665000D01*
X114005000Y-46665000D01*
X114029504Y-46666204D01*
G37*
G04 #@! TD.AperFunction*
D14*
X107820000Y-44190000D03*
D15*
X107820000Y-41650000D03*
X107820000Y-39110000D03*
D14*
X111710000Y-39210000D03*
D15*
X111710000Y-41750000D03*
X111710000Y-44290000D03*
X115670000Y-44290000D03*
X115670000Y-41750000D03*
D14*
X115670000Y-39210000D03*
G04 #@! TA.AperFunction,SMDPad,CuDef*
D13*
G36*
X117044504Y-51776204D02*
G01*
X117068773Y-51779804D01*
X117092571Y-51785765D01*
X117115671Y-51794030D01*
X117137849Y-51804520D01*
X117158893Y-51817133D01*
X117178598Y-51831747D01*
X117196777Y-51848223D01*
X117213253Y-51866402D01*
X117227867Y-51886107D01*
X117240480Y-51907151D01*
X117250970Y-51929329D01*
X117259235Y-51952429D01*
X117265196Y-51976227D01*
X117268796Y-52000496D01*
X117270000Y-52025000D01*
X117270000Y-53275000D01*
X117268796Y-53299504D01*
X117265196Y-53323773D01*
X117259235Y-53347571D01*
X117250970Y-53370671D01*
X117240480Y-53392849D01*
X117227867Y-53413893D01*
X117213253Y-53433598D01*
X117196777Y-53451777D01*
X117178598Y-53468253D01*
X117158893Y-53482867D01*
X117137849Y-53495480D01*
X117115671Y-53505970D01*
X117092571Y-53514235D01*
X117068773Y-53520196D01*
X117044504Y-53523796D01*
X117020000Y-53525000D01*
X116095000Y-53525000D01*
X116070496Y-53523796D01*
X116046227Y-53520196D01*
X116022429Y-53514235D01*
X115999329Y-53505970D01*
X115977151Y-53495480D01*
X115956107Y-53482867D01*
X115936402Y-53468253D01*
X115918223Y-53451777D01*
X115901747Y-53433598D01*
X115887133Y-53413893D01*
X115874520Y-53392849D01*
X115864030Y-53370671D01*
X115855765Y-53347571D01*
X115849804Y-53323773D01*
X115846204Y-53299504D01*
X115845000Y-53275000D01*
X115845000Y-52025000D01*
X115846204Y-52000496D01*
X115849804Y-51976227D01*
X115855765Y-51952429D01*
X115864030Y-51929329D01*
X115874520Y-51907151D01*
X115887133Y-51886107D01*
X115901747Y-51866402D01*
X115918223Y-51848223D01*
X115936402Y-51831747D01*
X115956107Y-51817133D01*
X115977151Y-51804520D01*
X115999329Y-51794030D01*
X116022429Y-51785765D01*
X116046227Y-51779804D01*
X116070496Y-51776204D01*
X116095000Y-51775000D01*
X117020000Y-51775000D01*
X117044504Y-51776204D01*
G37*
G04 #@! TD.AperFunction*
G04 #@! TA.AperFunction,SMDPad,CuDef*
G36*
X114069504Y-51776204D02*
G01*
X114093773Y-51779804D01*
X114117571Y-51785765D01*
X114140671Y-51794030D01*
X114162849Y-51804520D01*
X114183893Y-51817133D01*
X114203598Y-51831747D01*
X114221777Y-51848223D01*
X114238253Y-51866402D01*
X114252867Y-51886107D01*
X114265480Y-51907151D01*
X114275970Y-51929329D01*
X114284235Y-51952429D01*
X114290196Y-51976227D01*
X114293796Y-52000496D01*
X114295000Y-52025000D01*
X114295000Y-53275000D01*
X114293796Y-53299504D01*
X114290196Y-53323773D01*
X114284235Y-53347571D01*
X114275970Y-53370671D01*
X114265480Y-53392849D01*
X114252867Y-53413893D01*
X114238253Y-53433598D01*
X114221777Y-53451777D01*
X114203598Y-53468253D01*
X114183893Y-53482867D01*
X114162849Y-53495480D01*
X114140671Y-53505970D01*
X114117571Y-53514235D01*
X114093773Y-53520196D01*
X114069504Y-53523796D01*
X114045000Y-53525000D01*
X113120000Y-53525000D01*
X113095496Y-53523796D01*
X113071227Y-53520196D01*
X113047429Y-53514235D01*
X113024329Y-53505970D01*
X113002151Y-53495480D01*
X112981107Y-53482867D01*
X112961402Y-53468253D01*
X112943223Y-53451777D01*
X112926747Y-53433598D01*
X112912133Y-53413893D01*
X112899520Y-53392849D01*
X112889030Y-53370671D01*
X112880765Y-53347571D01*
X112874804Y-53323773D01*
X112871204Y-53299504D01*
X112870000Y-53275000D01*
X112870000Y-52025000D01*
X112871204Y-52000496D01*
X112874804Y-51976227D01*
X112880765Y-51952429D01*
X112889030Y-51929329D01*
X112899520Y-51907151D01*
X112912133Y-51886107D01*
X112926747Y-51866402D01*
X112943223Y-51848223D01*
X112961402Y-51831747D01*
X112981107Y-51817133D01*
X113002151Y-51804520D01*
X113024329Y-51794030D01*
X113047429Y-51785765D01*
X113071227Y-51779804D01*
X113095496Y-51776204D01*
X113120000Y-51775000D01*
X114045000Y-51775000D01*
X114069504Y-51776204D01*
G37*
G04 #@! TD.AperFunction*
G04 #@! TA.AperFunction,SMDPad,CuDef*
G36*
X117074504Y-54246204D02*
G01*
X117098773Y-54249804D01*
X117122571Y-54255765D01*
X117145671Y-54264030D01*
X117167849Y-54274520D01*
X117188893Y-54287133D01*
X117208598Y-54301747D01*
X117226777Y-54318223D01*
X117243253Y-54336402D01*
X117257867Y-54356107D01*
X117270480Y-54377151D01*
X117280970Y-54399329D01*
X117289235Y-54422429D01*
X117295196Y-54446227D01*
X117298796Y-54470496D01*
X117300000Y-54495000D01*
X117300000Y-55745000D01*
X117298796Y-55769504D01*
X117295196Y-55793773D01*
X117289235Y-55817571D01*
X117280970Y-55840671D01*
X117270480Y-55862849D01*
X117257867Y-55883893D01*
X117243253Y-55903598D01*
X117226777Y-55921777D01*
X117208598Y-55938253D01*
X117188893Y-55952867D01*
X117167849Y-55965480D01*
X117145671Y-55975970D01*
X117122571Y-55984235D01*
X117098773Y-55990196D01*
X117074504Y-55993796D01*
X117050000Y-55995000D01*
X116125000Y-55995000D01*
X116100496Y-55993796D01*
X116076227Y-55990196D01*
X116052429Y-55984235D01*
X116029329Y-55975970D01*
X116007151Y-55965480D01*
X115986107Y-55952867D01*
X115966402Y-55938253D01*
X115948223Y-55921777D01*
X115931747Y-55903598D01*
X115917133Y-55883893D01*
X115904520Y-55862849D01*
X115894030Y-55840671D01*
X115885765Y-55817571D01*
X115879804Y-55793773D01*
X115876204Y-55769504D01*
X115875000Y-55745000D01*
X115875000Y-54495000D01*
X115876204Y-54470496D01*
X115879804Y-54446227D01*
X115885765Y-54422429D01*
X115894030Y-54399329D01*
X115904520Y-54377151D01*
X115917133Y-54356107D01*
X115931747Y-54336402D01*
X115948223Y-54318223D01*
X115966402Y-54301747D01*
X115986107Y-54287133D01*
X116007151Y-54274520D01*
X116029329Y-54264030D01*
X116052429Y-54255765D01*
X116076227Y-54249804D01*
X116100496Y-54246204D01*
X116125000Y-54245000D01*
X117050000Y-54245000D01*
X117074504Y-54246204D01*
G37*
G04 #@! TD.AperFunction*
G04 #@! TA.AperFunction,SMDPad,CuDef*
G36*
X114099504Y-54246204D02*
G01*
X114123773Y-54249804D01*
X114147571Y-54255765D01*
X114170671Y-54264030D01*
X114192849Y-54274520D01*
X114213893Y-54287133D01*
X114233598Y-54301747D01*
X114251777Y-54318223D01*
X114268253Y-54336402D01*
X114282867Y-54356107D01*
X114295480Y-54377151D01*
X114305970Y-54399329D01*
X114314235Y-54422429D01*
X114320196Y-54446227D01*
X114323796Y-54470496D01*
X114325000Y-54495000D01*
X114325000Y-55745000D01*
X114323796Y-55769504D01*
X114320196Y-55793773D01*
X114314235Y-55817571D01*
X114305970Y-55840671D01*
X114295480Y-55862849D01*
X114282867Y-55883893D01*
X114268253Y-55903598D01*
X114251777Y-55921777D01*
X114233598Y-55938253D01*
X114213893Y-55952867D01*
X114192849Y-55965480D01*
X114170671Y-55975970D01*
X114147571Y-55984235D01*
X114123773Y-55990196D01*
X114099504Y-55993796D01*
X114075000Y-55995000D01*
X113150000Y-55995000D01*
X113125496Y-55993796D01*
X113101227Y-55990196D01*
X113077429Y-55984235D01*
X113054329Y-55975970D01*
X113032151Y-55965480D01*
X113011107Y-55952867D01*
X112991402Y-55938253D01*
X112973223Y-55921777D01*
X112956747Y-55903598D01*
X112942133Y-55883893D01*
X112929520Y-55862849D01*
X112919030Y-55840671D01*
X112910765Y-55817571D01*
X112904804Y-55793773D01*
X112901204Y-55769504D01*
X112900000Y-55745000D01*
X112900000Y-54495000D01*
X112901204Y-54470496D01*
X112904804Y-54446227D01*
X112910765Y-54422429D01*
X112919030Y-54399329D01*
X112929520Y-54377151D01*
X112942133Y-54356107D01*
X112956747Y-54336402D01*
X112973223Y-54318223D01*
X112991402Y-54301747D01*
X113011107Y-54287133D01*
X113032151Y-54274520D01*
X113054329Y-54264030D01*
X113077429Y-54255765D01*
X113101227Y-54249804D01*
X113125496Y-54246204D01*
X113150000Y-54245000D01*
X114075000Y-54245000D01*
X114099504Y-54246204D01*
G37*
G04 #@! TD.AperFunction*
D16*
X150120000Y-41750000D03*
X150070000Y-44240000D03*
X154340000Y-51670000D03*
X120470000Y-48600000D03*
X140950000Y-47110000D03*
X121890002Y-47220000D03*
X139840000Y-46450000D03*
X138857414Y-45537726D03*
D17*
X116557500Y-55090000D02*
X116587500Y-55120000D01*
X116557500Y-52650000D02*
X116557500Y-55090000D01*
X118000000Y-51920000D02*
X117270000Y-52650000D01*
X128635000Y-51920000D02*
X118000000Y-51920000D01*
X117270000Y-52650000D02*
X116557500Y-52650000D01*
X129760000Y-54945000D02*
X129760000Y-53045000D01*
X129760000Y-53045000D02*
X128635000Y-51920000D01*
D18*
X150080000Y-38435000D02*
X150080000Y-41710000D01*
X150080000Y-41710000D02*
X150120000Y-41750000D01*
D17*
X150120000Y-41750000D02*
X150120000Y-44190000D01*
X150120000Y-44190000D02*
X150070000Y-44240000D01*
X107820000Y-44190000D02*
X107820000Y-45640000D01*
X109837500Y-47657500D02*
X109837500Y-48330000D01*
X107820000Y-45640000D02*
X109837500Y-47657500D01*
D18*
X154385000Y-51670000D02*
X154340000Y-51670000D01*
X155160000Y-52445000D02*
X154385000Y-51670000D01*
X155160000Y-54945000D02*
X155160000Y-52445000D01*
D17*
X127855000Y-48600000D02*
X120470000Y-48600000D01*
X132300000Y-54945000D02*
X132300000Y-53045000D01*
X132300000Y-53045000D02*
X127855000Y-48600000D01*
X147540000Y-38435000D02*
X147540000Y-40520000D01*
X141349999Y-46710001D02*
X140950000Y-47110000D01*
X147540000Y-40520000D02*
X141349999Y-46710001D01*
X129015000Y-47220000D02*
X122455687Y-47220000D01*
X122455687Y-47220000D02*
X121890002Y-47220000D01*
X134840000Y-53045000D02*
X129015000Y-47220000D01*
X134840000Y-54945000D02*
X134840000Y-53045000D01*
X145000000Y-38435000D02*
X145000000Y-41290000D01*
X145000000Y-41290000D02*
X140239999Y-46050001D01*
X140239999Y-46050001D02*
X139840000Y-46450000D01*
X139257413Y-45137727D02*
X138857414Y-45537726D01*
X142460000Y-38435000D02*
X142460000Y-41935140D01*
X142460000Y-41935140D02*
X139257413Y-45137727D01*
D18*
X148680000Y-51960000D02*
X150080000Y-53360000D01*
X117230000Y-47540000D02*
X118750001Y-46019999D01*
X150080000Y-53360000D02*
X150080000Y-54945000D01*
X116517500Y-47540000D02*
X117230000Y-47540000D01*
X118750001Y-46019999D02*
X132549999Y-46019999D01*
X132549999Y-46019999D02*
X138490000Y-51960000D01*
X138490000Y-51960000D02*
X148680000Y-51960000D01*
X116517500Y-50120000D02*
X116537500Y-50140000D01*
X116517500Y-47540000D02*
X116517500Y-50120000D01*
D17*
X112870000Y-52650000D02*
X113582500Y-52650000D01*
X111320000Y-51100000D02*
X112870000Y-52650000D01*
X108380000Y-41650000D02*
X109890000Y-43160000D01*
X107820000Y-41650000D02*
X108380000Y-41650000D01*
X111320000Y-47170000D02*
X111320000Y-51100000D01*
X109890000Y-43160000D02*
X109890000Y-45740000D01*
X109890000Y-45740000D02*
X111320000Y-47170000D01*
D18*
X153565001Y-48310001D02*
X136678491Y-48310001D01*
X136678491Y-48310001D02*
X129998490Y-41630000D01*
X105850000Y-40720000D02*
X106780000Y-41650000D01*
X157700000Y-54945000D02*
X157700000Y-52445000D01*
X157700000Y-52445000D02*
X153565001Y-48310001D01*
X129998490Y-41630000D02*
X121980000Y-41630000D01*
X106780000Y-41650000D02*
X107820000Y-41650000D01*
X121980000Y-41630000D02*
X117420000Y-37070000D01*
X117420000Y-37070000D02*
X107097999Y-37070000D01*
X107097999Y-37070000D02*
X105850000Y-38317999D01*
X105850000Y-38317999D02*
X105850000Y-40720000D01*
D17*
X111710000Y-45492081D02*
X111710000Y-44290000D01*
X112020010Y-45802091D02*
X111710000Y-45492081D01*
X112020010Y-49310010D02*
X112020010Y-45802091D01*
X112850000Y-50140000D02*
X112020010Y-49310010D01*
X113562500Y-50140000D02*
X112850000Y-50140000D01*
X114980000Y-44980000D02*
X115670000Y-44290000D01*
X114980000Y-47050000D02*
X114980000Y-44980000D01*
X113542500Y-47540000D02*
X114490000Y-47540000D01*
X114490000Y-47540000D02*
X114980000Y-47050000D01*
X104900000Y-54510000D02*
X105820000Y-53590000D01*
X105820000Y-53590000D02*
X106792500Y-53590000D01*
X101650000Y-54490000D02*
X101670000Y-54510000D01*
X101670000Y-54510000D02*
X104900000Y-54510000D01*
X103572500Y-47740000D02*
X106812500Y-50980000D01*
X101610000Y-47740000D02*
X103572500Y-47740000D01*
X106862500Y-46842500D02*
X106862500Y-48330000D01*
X101610000Y-41000000D02*
X101610000Y-41590000D01*
X101610000Y-41590000D02*
X106862500Y-46842500D01*
D19*
G36*
X105086865Y-37476003D02*
G01*
X105043551Y-37511550D01*
X104901716Y-37684376D01*
X104799052Y-37876449D01*
X104796324Y-37881553D01*
X104731423Y-38095501D01*
X104709509Y-38317999D01*
X104715000Y-38373751D01*
X104715001Y-40664239D01*
X104709509Y-40720000D01*
X104731423Y-40942498D01*
X104796324Y-41156446D01*
X104845384Y-41248230D01*
X104901717Y-41353623D01*
X105043552Y-41526449D01*
X105086859Y-41561991D01*
X105938013Y-42413145D01*
X105973551Y-42456449D01*
X106016854Y-42491987D01*
X106016856Y-42491989D01*
X106146377Y-42598284D01*
X106343553Y-42703676D01*
X106557501Y-42768577D01*
X106671071Y-42779763D01*
X106615506Y-42809463D01*
X106518815Y-42888815D01*
X106439463Y-42985506D01*
X106380498Y-43095820D01*
X106344188Y-43215518D01*
X106331928Y-43340000D01*
X106335000Y-43904250D01*
X106493750Y-44063000D01*
X107693000Y-44063000D01*
X107693000Y-44043000D01*
X107947000Y-44043000D01*
X107947000Y-44063000D01*
X107967000Y-44063000D01*
X107967000Y-44317000D01*
X107947000Y-44317000D01*
X107947000Y-44337000D01*
X107693000Y-44337000D01*
X107693000Y-44317000D01*
X106493750Y-44317000D01*
X106335000Y-44475750D01*
X106331928Y-45040000D01*
X106341876Y-45141007D01*
X103143840Y-41942972D01*
X103148072Y-41900000D01*
X103148072Y-40100000D01*
X103135812Y-39975518D01*
X103099502Y-39855820D01*
X103040537Y-39745506D01*
X102961185Y-39648815D01*
X102864494Y-39569463D01*
X102754180Y-39510498D01*
X102735873Y-39504944D01*
X102802312Y-39438505D01*
X102970299Y-39187095D01*
X103086011Y-38907743D01*
X103145000Y-38611184D01*
X103145000Y-38308816D01*
X103086011Y-38012257D01*
X102970299Y-37732905D01*
X102802312Y-37481495D01*
X102588505Y-37267688D01*
X102337095Y-37099701D01*
X102057743Y-36983989D01*
X101761184Y-36925000D01*
X101458816Y-36925000D01*
X101162257Y-36983989D01*
X100882905Y-37099701D01*
X100631495Y-37267688D01*
X100417688Y-37481495D01*
X100249701Y-37732905D01*
X100133989Y-38012257D01*
X100075000Y-38308816D01*
X100075000Y-38611184D01*
X100133989Y-38907743D01*
X100249701Y-39187095D01*
X100417688Y-39438505D01*
X100484127Y-39504944D01*
X100465820Y-39510498D01*
X100355506Y-39569463D01*
X100258815Y-39648815D01*
X100179463Y-39745506D01*
X100120498Y-39855820D01*
X100084188Y-39975518D01*
X100071928Y-40100000D01*
X100071928Y-41900000D01*
X100084188Y-42024482D01*
X100120498Y-42144180D01*
X100179463Y-42254494D01*
X100258815Y-42351185D01*
X100355506Y-42430537D01*
X100465820Y-42489502D01*
X100585518Y-42525812D01*
X100710000Y-42538072D01*
X101377205Y-42538072D01*
X105851202Y-47012070D01*
X105772038Y-47077038D01*
X105661595Y-47211614D01*
X105579528Y-47365150D01*
X105528992Y-47531746D01*
X105511928Y-47705000D01*
X105511928Y-48498560D01*
X104191946Y-47178579D01*
X104165791Y-47146709D01*
X104038646Y-47042364D01*
X103893587Y-46964828D01*
X103736189Y-46917082D01*
X103613519Y-46905000D01*
X103613518Y-46905000D01*
X103572500Y-46900960D01*
X103531482Y-46905000D01*
X103148072Y-46905000D01*
X103148072Y-46840000D01*
X103135812Y-46715518D01*
X103099502Y-46595820D01*
X103040537Y-46485506D01*
X102961185Y-46388815D01*
X102864494Y-46309463D01*
X102754180Y-46250498D01*
X102735873Y-46244944D01*
X102802312Y-46178505D01*
X102970299Y-45927095D01*
X103086011Y-45647743D01*
X103145000Y-45351184D01*
X103145000Y-45048816D01*
X103086011Y-44752257D01*
X102970299Y-44472905D01*
X102802312Y-44221495D01*
X102588505Y-44007688D01*
X102337095Y-43839701D01*
X102057743Y-43723989D01*
X101761184Y-43665000D01*
X101458816Y-43665000D01*
X101162257Y-43723989D01*
X100882905Y-43839701D01*
X100631495Y-44007688D01*
X100417688Y-44221495D01*
X100249701Y-44472905D01*
X100133989Y-44752257D01*
X100075000Y-45048816D01*
X100075000Y-45351184D01*
X100133989Y-45647743D01*
X100249701Y-45927095D01*
X100417688Y-46178505D01*
X100484127Y-46244944D01*
X100465820Y-46250498D01*
X100355506Y-46309463D01*
X100258815Y-46388815D01*
X100179463Y-46485506D01*
X100120498Y-46595820D01*
X100084188Y-46715518D01*
X100071928Y-46840000D01*
X100071928Y-48640000D01*
X100084188Y-48764482D01*
X100120498Y-48884180D01*
X100179463Y-48994494D01*
X100258815Y-49091185D01*
X100355506Y-49170537D01*
X100465820Y-49229502D01*
X100585518Y-49265812D01*
X100710000Y-49278072D01*
X102510000Y-49278072D01*
X102634482Y-49265812D01*
X102754180Y-49229502D01*
X102864494Y-49170537D01*
X102961185Y-49091185D01*
X103040537Y-48994494D01*
X103099502Y-48884180D01*
X103135812Y-48764482D01*
X103148072Y-48640000D01*
X103148072Y-48575000D01*
X103226633Y-48575000D01*
X105461928Y-50810297D01*
X105461928Y-51605000D01*
X105478992Y-51778254D01*
X105529528Y-51944850D01*
X105611595Y-52098386D01*
X105722038Y-52232962D01*
X105775447Y-52276793D01*
X105702038Y-52337038D01*
X105591595Y-52471614D01*
X105509528Y-52625150D01*
X105458992Y-52791746D01*
X105454374Y-52838635D01*
X105353854Y-52892364D01*
X105226709Y-52996709D01*
X105200558Y-53028574D01*
X104554133Y-53675000D01*
X103188072Y-53675000D01*
X103188072Y-53590000D01*
X103175812Y-53465518D01*
X103139502Y-53345820D01*
X103080537Y-53235506D01*
X103001185Y-53138815D01*
X102904494Y-53059463D01*
X102794180Y-53000498D01*
X102775873Y-52994944D01*
X102842312Y-52928505D01*
X103010299Y-52677095D01*
X103126011Y-52397743D01*
X103185000Y-52101184D01*
X103185000Y-51798816D01*
X103126011Y-51502257D01*
X103010299Y-51222905D01*
X102842312Y-50971495D01*
X102628505Y-50757688D01*
X102377095Y-50589701D01*
X102097743Y-50473989D01*
X101801184Y-50415000D01*
X101498816Y-50415000D01*
X101202257Y-50473989D01*
X100922905Y-50589701D01*
X100671495Y-50757688D01*
X100457688Y-50971495D01*
X100289701Y-51222905D01*
X100173989Y-51502257D01*
X100115000Y-51798816D01*
X100115000Y-52101184D01*
X100173989Y-52397743D01*
X100289701Y-52677095D01*
X100457688Y-52928505D01*
X100524127Y-52994944D01*
X100505820Y-53000498D01*
X100395506Y-53059463D01*
X100298815Y-53138815D01*
X100219463Y-53235506D01*
X100160498Y-53345820D01*
X100124188Y-53465518D01*
X100111928Y-53590000D01*
X100111928Y-55390000D01*
X100124188Y-55514482D01*
X100160498Y-55634180D01*
X100219463Y-55744494D01*
X100298815Y-55841185D01*
X100395506Y-55920537D01*
X100505820Y-55979502D01*
X100625518Y-56015812D01*
X100750000Y-56028072D01*
X102550000Y-56028072D01*
X102674482Y-56015812D01*
X102743089Y-55995000D01*
X112261928Y-55995000D01*
X112274188Y-56119482D01*
X112310498Y-56239180D01*
X112369463Y-56349494D01*
X112448815Y-56446185D01*
X112545506Y-56525537D01*
X112655820Y-56584502D01*
X112775518Y-56620812D01*
X112900000Y-56633072D01*
X113326750Y-56630000D01*
X113485500Y-56471250D01*
X113485500Y-55247000D01*
X113739500Y-55247000D01*
X113739500Y-56471250D01*
X113898250Y-56630000D01*
X114325000Y-56633072D01*
X114449482Y-56620812D01*
X114569180Y-56584502D01*
X114679494Y-56525537D01*
X114776185Y-56446185D01*
X114855537Y-56349494D01*
X114914502Y-56239180D01*
X114950812Y-56119482D01*
X114963072Y-55995000D01*
X114960000Y-55405750D01*
X114801250Y-55247000D01*
X113739500Y-55247000D01*
X113485500Y-55247000D01*
X112423750Y-55247000D01*
X112265000Y-55405750D01*
X112261928Y-55995000D01*
X102743089Y-55995000D01*
X102794180Y-55979502D01*
X102904494Y-55920537D01*
X103001185Y-55841185D01*
X103080537Y-55744494D01*
X103139502Y-55634180D01*
X103175812Y-55514482D01*
X103188072Y-55390000D01*
X103188072Y-55345000D01*
X104858982Y-55345000D01*
X104900000Y-55349040D01*
X104941018Y-55345000D01*
X104941019Y-55345000D01*
X105063689Y-55332918D01*
X105221087Y-55285172D01*
X105366146Y-55207636D01*
X105493291Y-55103291D01*
X105519446Y-55071421D01*
X105727230Y-54863637D01*
X105836614Y-54953405D01*
X105990150Y-55035472D01*
X106156746Y-55086008D01*
X106330000Y-55103072D01*
X107255000Y-55103072D01*
X107428254Y-55086008D01*
X107533825Y-55053983D01*
X108963537Y-55126835D01*
X108990963Y-55125258D01*
X109014997Y-55118761D01*
X109037302Y-55107701D01*
X109044632Y-55102051D01*
X109055000Y-55103072D01*
X109481750Y-55100000D01*
X109640500Y-54941250D01*
X109640500Y-53717000D01*
X109894500Y-53717000D01*
X109894500Y-54941250D01*
X110053250Y-55100000D01*
X110480000Y-55103072D01*
X110604482Y-55090812D01*
X110724180Y-55054502D01*
X110834494Y-54995537D01*
X110931185Y-54916185D01*
X111010537Y-54819494D01*
X111069502Y-54709180D01*
X111105812Y-54589482D01*
X111118072Y-54465000D01*
X111115000Y-53875750D01*
X110956250Y-53717000D01*
X109894500Y-53717000D01*
X109640500Y-53717000D01*
X109620500Y-53717000D01*
X109620500Y-53463000D01*
X109640500Y-53463000D01*
X109640500Y-52351250D01*
X109660500Y-52331250D01*
X109660500Y-51107000D01*
X109640500Y-51107000D01*
X109640500Y-50853000D01*
X109660500Y-50853000D01*
X109660500Y-49731250D01*
X109710500Y-49681250D01*
X109710500Y-48505524D01*
X109821758Y-48183000D01*
X109964500Y-48183000D01*
X109964500Y-48203000D01*
X109984500Y-48203000D01*
X109984500Y-48457000D01*
X109964500Y-48457000D01*
X109964500Y-49578750D01*
X109914500Y-49628750D01*
X109914500Y-50853000D01*
X109934500Y-50853000D01*
X109934500Y-51107000D01*
X109914500Y-51107000D01*
X109914500Y-52218750D01*
X109894500Y-52238750D01*
X109894500Y-53463000D01*
X110956250Y-53463000D01*
X111115000Y-53304250D01*
X111118072Y-52715000D01*
X111105812Y-52590518D01*
X111069502Y-52470820D01*
X111010537Y-52360506D01*
X110958571Y-52297185D01*
X111030537Y-52209494D01*
X111089502Y-52099180D01*
X111100862Y-52061730D01*
X112231928Y-53192796D01*
X112231928Y-53275000D01*
X112248992Y-53448254D01*
X112299528Y-53614850D01*
X112381595Y-53768386D01*
X112425639Y-53822055D01*
X112369463Y-53890506D01*
X112310498Y-54000820D01*
X112274188Y-54120518D01*
X112261928Y-54245000D01*
X112265000Y-54834250D01*
X112423750Y-54993000D01*
X113485500Y-54993000D01*
X113485500Y-54973000D01*
X113739500Y-54973000D01*
X113739500Y-54993000D01*
X114801250Y-54993000D01*
X114960000Y-54834250D01*
X114960883Y-54664962D01*
X115236928Y-54672226D01*
X115236928Y-55745000D01*
X115253992Y-55918254D01*
X115304528Y-56084850D01*
X115386595Y-56238386D01*
X115497038Y-56372962D01*
X115631614Y-56483405D01*
X115785150Y-56565472D01*
X115951746Y-56616008D01*
X116125000Y-56633072D01*
X117050000Y-56633072D01*
X117223254Y-56616008D01*
X117305949Y-56590923D01*
X117271152Y-56940000D01*
X98160000Y-56940000D01*
X98160000Y-36460000D01*
X106102867Y-36460000D01*
X105086865Y-37476003D01*
G37*
X105086865Y-37476003D02*
X105043551Y-37511550D01*
X104901716Y-37684376D01*
X104799052Y-37876449D01*
X104796324Y-37881553D01*
X104731423Y-38095501D01*
X104709509Y-38317999D01*
X104715000Y-38373751D01*
X104715001Y-40664239D01*
X104709509Y-40720000D01*
X104731423Y-40942498D01*
X104796324Y-41156446D01*
X104845384Y-41248230D01*
X104901717Y-41353623D01*
X105043552Y-41526449D01*
X105086859Y-41561991D01*
X105938013Y-42413145D01*
X105973551Y-42456449D01*
X106016854Y-42491987D01*
X106016856Y-42491989D01*
X106146377Y-42598284D01*
X106343553Y-42703676D01*
X106557501Y-42768577D01*
X106671071Y-42779763D01*
X106615506Y-42809463D01*
X106518815Y-42888815D01*
X106439463Y-42985506D01*
X106380498Y-43095820D01*
X106344188Y-43215518D01*
X106331928Y-43340000D01*
X106335000Y-43904250D01*
X106493750Y-44063000D01*
X107693000Y-44063000D01*
X107693000Y-44043000D01*
X107947000Y-44043000D01*
X107947000Y-44063000D01*
X107967000Y-44063000D01*
X107967000Y-44317000D01*
X107947000Y-44317000D01*
X107947000Y-44337000D01*
X107693000Y-44337000D01*
X107693000Y-44317000D01*
X106493750Y-44317000D01*
X106335000Y-44475750D01*
X106331928Y-45040000D01*
X106341876Y-45141007D01*
X103143840Y-41942972D01*
X103148072Y-41900000D01*
X103148072Y-40100000D01*
X103135812Y-39975518D01*
X103099502Y-39855820D01*
X103040537Y-39745506D01*
X102961185Y-39648815D01*
X102864494Y-39569463D01*
X102754180Y-39510498D01*
X102735873Y-39504944D01*
X102802312Y-39438505D01*
X102970299Y-39187095D01*
X103086011Y-38907743D01*
X103145000Y-38611184D01*
X103145000Y-38308816D01*
X103086011Y-38012257D01*
X102970299Y-37732905D01*
X102802312Y-37481495D01*
X102588505Y-37267688D01*
X102337095Y-37099701D01*
X102057743Y-36983989D01*
X101761184Y-36925000D01*
X101458816Y-36925000D01*
X101162257Y-36983989D01*
X100882905Y-37099701D01*
X100631495Y-37267688D01*
X100417688Y-37481495D01*
X100249701Y-37732905D01*
X100133989Y-38012257D01*
X100075000Y-38308816D01*
X100075000Y-38611184D01*
X100133989Y-38907743D01*
X100249701Y-39187095D01*
X100417688Y-39438505D01*
X100484127Y-39504944D01*
X100465820Y-39510498D01*
X100355506Y-39569463D01*
X100258815Y-39648815D01*
X100179463Y-39745506D01*
X100120498Y-39855820D01*
X100084188Y-39975518D01*
X100071928Y-40100000D01*
X100071928Y-41900000D01*
X100084188Y-42024482D01*
X100120498Y-42144180D01*
X100179463Y-42254494D01*
X100258815Y-42351185D01*
X100355506Y-42430537D01*
X100465820Y-42489502D01*
X100585518Y-42525812D01*
X100710000Y-42538072D01*
X101377205Y-42538072D01*
X105851202Y-47012070D01*
X105772038Y-47077038D01*
X105661595Y-47211614D01*
X105579528Y-47365150D01*
X105528992Y-47531746D01*
X105511928Y-47705000D01*
X105511928Y-48498560D01*
X104191946Y-47178579D01*
X104165791Y-47146709D01*
X104038646Y-47042364D01*
X103893587Y-46964828D01*
X103736189Y-46917082D01*
X103613519Y-46905000D01*
X103613518Y-46905000D01*
X103572500Y-46900960D01*
X103531482Y-46905000D01*
X103148072Y-46905000D01*
X103148072Y-46840000D01*
X103135812Y-46715518D01*
X103099502Y-46595820D01*
X103040537Y-46485506D01*
X102961185Y-46388815D01*
X102864494Y-46309463D01*
X102754180Y-46250498D01*
X102735873Y-46244944D01*
X102802312Y-46178505D01*
X102970299Y-45927095D01*
X103086011Y-45647743D01*
X103145000Y-45351184D01*
X103145000Y-45048816D01*
X103086011Y-44752257D01*
X102970299Y-44472905D01*
X102802312Y-44221495D01*
X102588505Y-44007688D01*
X102337095Y-43839701D01*
X102057743Y-43723989D01*
X101761184Y-43665000D01*
X101458816Y-43665000D01*
X101162257Y-43723989D01*
X100882905Y-43839701D01*
X100631495Y-44007688D01*
X100417688Y-44221495D01*
X100249701Y-44472905D01*
X100133989Y-44752257D01*
X100075000Y-45048816D01*
X100075000Y-45351184D01*
X100133989Y-45647743D01*
X100249701Y-45927095D01*
X100417688Y-46178505D01*
X100484127Y-46244944D01*
X100465820Y-46250498D01*
X100355506Y-46309463D01*
X100258815Y-46388815D01*
X100179463Y-46485506D01*
X100120498Y-46595820D01*
X100084188Y-46715518D01*
X100071928Y-46840000D01*
X100071928Y-48640000D01*
X100084188Y-48764482D01*
X100120498Y-48884180D01*
X100179463Y-48994494D01*
X100258815Y-49091185D01*
X100355506Y-49170537D01*
X100465820Y-49229502D01*
X100585518Y-49265812D01*
X100710000Y-49278072D01*
X102510000Y-49278072D01*
X102634482Y-49265812D01*
X102754180Y-49229502D01*
X102864494Y-49170537D01*
X102961185Y-49091185D01*
X103040537Y-48994494D01*
X103099502Y-48884180D01*
X103135812Y-48764482D01*
X103148072Y-48640000D01*
X103148072Y-48575000D01*
X103226633Y-48575000D01*
X105461928Y-50810297D01*
X105461928Y-51605000D01*
X105478992Y-51778254D01*
X105529528Y-51944850D01*
X105611595Y-52098386D01*
X105722038Y-52232962D01*
X105775447Y-52276793D01*
X105702038Y-52337038D01*
X105591595Y-52471614D01*
X105509528Y-52625150D01*
X105458992Y-52791746D01*
X105454374Y-52838635D01*
X105353854Y-52892364D01*
X105226709Y-52996709D01*
X105200558Y-53028574D01*
X104554133Y-53675000D01*
X103188072Y-53675000D01*
X103188072Y-53590000D01*
X103175812Y-53465518D01*
X103139502Y-53345820D01*
X103080537Y-53235506D01*
X103001185Y-53138815D01*
X102904494Y-53059463D01*
X102794180Y-53000498D01*
X102775873Y-52994944D01*
X102842312Y-52928505D01*
X103010299Y-52677095D01*
X103126011Y-52397743D01*
X103185000Y-52101184D01*
X103185000Y-51798816D01*
X103126011Y-51502257D01*
X103010299Y-51222905D01*
X102842312Y-50971495D01*
X102628505Y-50757688D01*
X102377095Y-50589701D01*
X102097743Y-50473989D01*
X101801184Y-50415000D01*
X101498816Y-50415000D01*
X101202257Y-50473989D01*
X100922905Y-50589701D01*
X100671495Y-50757688D01*
X100457688Y-50971495D01*
X100289701Y-51222905D01*
X100173989Y-51502257D01*
X100115000Y-51798816D01*
X100115000Y-52101184D01*
X100173989Y-52397743D01*
X100289701Y-52677095D01*
X100457688Y-52928505D01*
X100524127Y-52994944D01*
X100505820Y-53000498D01*
X100395506Y-53059463D01*
X100298815Y-53138815D01*
X100219463Y-53235506D01*
X100160498Y-53345820D01*
X100124188Y-53465518D01*
X100111928Y-53590000D01*
X100111928Y-55390000D01*
X100124188Y-55514482D01*
X100160498Y-55634180D01*
X100219463Y-55744494D01*
X100298815Y-55841185D01*
X100395506Y-55920537D01*
X100505820Y-55979502D01*
X100625518Y-56015812D01*
X100750000Y-56028072D01*
X102550000Y-56028072D01*
X102674482Y-56015812D01*
X102743089Y-55995000D01*
X112261928Y-55995000D01*
X112274188Y-56119482D01*
X112310498Y-56239180D01*
X112369463Y-56349494D01*
X112448815Y-56446185D01*
X112545506Y-56525537D01*
X112655820Y-56584502D01*
X112775518Y-56620812D01*
X112900000Y-56633072D01*
X113326750Y-56630000D01*
X113485500Y-56471250D01*
X113485500Y-55247000D01*
X113739500Y-55247000D01*
X113739500Y-56471250D01*
X113898250Y-56630000D01*
X114325000Y-56633072D01*
X114449482Y-56620812D01*
X114569180Y-56584502D01*
X114679494Y-56525537D01*
X114776185Y-56446185D01*
X114855537Y-56349494D01*
X114914502Y-56239180D01*
X114950812Y-56119482D01*
X114963072Y-55995000D01*
X114960000Y-55405750D01*
X114801250Y-55247000D01*
X113739500Y-55247000D01*
X113485500Y-55247000D01*
X112423750Y-55247000D01*
X112265000Y-55405750D01*
X112261928Y-55995000D01*
X102743089Y-55995000D01*
X102794180Y-55979502D01*
X102904494Y-55920537D01*
X103001185Y-55841185D01*
X103080537Y-55744494D01*
X103139502Y-55634180D01*
X103175812Y-55514482D01*
X103188072Y-55390000D01*
X103188072Y-55345000D01*
X104858982Y-55345000D01*
X104900000Y-55349040D01*
X104941018Y-55345000D01*
X104941019Y-55345000D01*
X105063689Y-55332918D01*
X105221087Y-55285172D01*
X105366146Y-55207636D01*
X105493291Y-55103291D01*
X105519446Y-55071421D01*
X105727230Y-54863637D01*
X105836614Y-54953405D01*
X105990150Y-55035472D01*
X106156746Y-55086008D01*
X106330000Y-55103072D01*
X107255000Y-55103072D01*
X107428254Y-55086008D01*
X107533825Y-55053983D01*
X108963537Y-55126835D01*
X108990963Y-55125258D01*
X109014997Y-55118761D01*
X109037302Y-55107701D01*
X109044632Y-55102051D01*
X109055000Y-55103072D01*
X109481750Y-55100000D01*
X109640500Y-54941250D01*
X109640500Y-53717000D01*
X109894500Y-53717000D01*
X109894500Y-54941250D01*
X110053250Y-55100000D01*
X110480000Y-55103072D01*
X110604482Y-55090812D01*
X110724180Y-55054502D01*
X110834494Y-54995537D01*
X110931185Y-54916185D01*
X111010537Y-54819494D01*
X111069502Y-54709180D01*
X111105812Y-54589482D01*
X111118072Y-54465000D01*
X111115000Y-53875750D01*
X110956250Y-53717000D01*
X109894500Y-53717000D01*
X109640500Y-53717000D01*
X109620500Y-53717000D01*
X109620500Y-53463000D01*
X109640500Y-53463000D01*
X109640500Y-52351250D01*
X109660500Y-52331250D01*
X109660500Y-51107000D01*
X109640500Y-51107000D01*
X109640500Y-50853000D01*
X109660500Y-50853000D01*
X109660500Y-49731250D01*
X109710500Y-49681250D01*
X109710500Y-48505524D01*
X109821758Y-48183000D01*
X109964500Y-48183000D01*
X109964500Y-48203000D01*
X109984500Y-48203000D01*
X109984500Y-48457000D01*
X109964500Y-48457000D01*
X109964500Y-49578750D01*
X109914500Y-49628750D01*
X109914500Y-50853000D01*
X109934500Y-50853000D01*
X109934500Y-51107000D01*
X109914500Y-51107000D01*
X109914500Y-52218750D01*
X109894500Y-52238750D01*
X109894500Y-53463000D01*
X110956250Y-53463000D01*
X111115000Y-53304250D01*
X111118072Y-52715000D01*
X111105812Y-52590518D01*
X111069502Y-52470820D01*
X111010537Y-52360506D01*
X110958571Y-52297185D01*
X111030537Y-52209494D01*
X111089502Y-52099180D01*
X111100862Y-52061730D01*
X112231928Y-53192796D01*
X112231928Y-53275000D01*
X112248992Y-53448254D01*
X112299528Y-53614850D01*
X112381595Y-53768386D01*
X112425639Y-53822055D01*
X112369463Y-53890506D01*
X112310498Y-54000820D01*
X112274188Y-54120518D01*
X112261928Y-54245000D01*
X112265000Y-54834250D01*
X112423750Y-54993000D01*
X113485500Y-54993000D01*
X113485500Y-54973000D01*
X113739500Y-54973000D01*
X113739500Y-54993000D01*
X114801250Y-54993000D01*
X114960000Y-54834250D01*
X114960883Y-54664962D01*
X115236928Y-54672226D01*
X115236928Y-55745000D01*
X115253992Y-55918254D01*
X115304528Y-56084850D01*
X115386595Y-56238386D01*
X115497038Y-56372962D01*
X115631614Y-56483405D01*
X115785150Y-56565472D01*
X115951746Y-56616008D01*
X116125000Y-56633072D01*
X117050000Y-56633072D01*
X117223254Y-56616008D01*
X117305949Y-56590923D01*
X117271152Y-56940000D01*
X98160000Y-56940000D01*
X98160000Y-36460000D01*
X106102867Y-36460000D01*
X105086865Y-37476003D01*
G36*
X160340000Y-56940000D02*
G01*
X158333893Y-56940000D01*
X158529014Y-56835706D01*
X158755134Y-56650134D01*
X158940706Y-56424014D01*
X159078599Y-56166034D01*
X159163513Y-55886111D01*
X159185000Y-55667950D01*
X159185000Y-54222050D01*
X159163513Y-54003889D01*
X159078599Y-53723966D01*
X158940706Y-53465986D01*
X158835000Y-53337183D01*
X158835000Y-52500752D01*
X158840491Y-52445000D01*
X158834635Y-52385537D01*
X158818577Y-52222501D01*
X158753676Y-52008553D01*
X158648284Y-51811377D01*
X158603093Y-51756312D01*
X158541989Y-51681856D01*
X158541987Y-51681854D01*
X158506449Y-51638551D01*
X158463146Y-51603013D01*
X154406997Y-47546866D01*
X154371450Y-47503552D01*
X154198624Y-47361717D01*
X154001448Y-47256325D01*
X153787500Y-47191424D01*
X153620753Y-47175001D01*
X153620752Y-47175001D01*
X153565001Y-47169510D01*
X153509250Y-47175001D01*
X142065866Y-47175001D01*
X148101427Y-41139441D01*
X148133291Y-41113291D01*
X148237636Y-40986146D01*
X148315172Y-40841087D01*
X148362918Y-40683689D01*
X148375000Y-40561019D01*
X148375000Y-40561009D01*
X148379039Y-40520001D01*
X148375000Y-40478993D01*
X148375000Y-40320793D01*
X148595134Y-40140134D01*
X148780706Y-39914014D01*
X148811895Y-39855663D01*
X148915824Y-40015619D01*
X149119748Y-40224857D01*
X149360574Y-40390291D01*
X149629047Y-40505563D01*
X149723110Y-40526476D01*
X149953000Y-40405155D01*
X149953000Y-38562000D01*
X149933000Y-38562000D01*
X149933000Y-38308000D01*
X149953000Y-38308000D01*
X149953000Y-38288000D01*
X150207000Y-38288000D01*
X150207000Y-38308000D01*
X150227000Y-38308000D01*
X150227000Y-38562000D01*
X150207000Y-38562000D01*
X150207000Y-40405155D01*
X150436890Y-40526476D01*
X150530953Y-40505563D01*
X150799426Y-40390291D01*
X151040252Y-40224857D01*
X151244176Y-40015619D01*
X151348105Y-39855662D01*
X151379294Y-39914013D01*
X151564866Y-40140134D01*
X151790986Y-40325706D01*
X152048966Y-40463599D01*
X152328889Y-40548513D01*
X152620000Y-40577185D01*
X152911110Y-40548513D01*
X153191033Y-40463599D01*
X153449013Y-40325706D01*
X153675134Y-40140134D01*
X153860706Y-39914014D01*
X153890000Y-39859208D01*
X153919294Y-39914013D01*
X154104866Y-40140134D01*
X154330986Y-40325706D01*
X154588966Y-40463599D01*
X154868889Y-40548513D01*
X155160000Y-40577185D01*
X155451110Y-40548513D01*
X155731033Y-40463599D01*
X155989013Y-40325706D01*
X156215134Y-40140134D01*
X156400706Y-39914014D01*
X156430000Y-39859208D01*
X156459294Y-39914013D01*
X156644866Y-40140134D01*
X156870986Y-40325706D01*
X157128966Y-40463599D01*
X157408889Y-40548513D01*
X157700000Y-40577185D01*
X157991110Y-40548513D01*
X158271033Y-40463599D01*
X158529013Y-40325706D01*
X158755134Y-40140134D01*
X158940706Y-39914014D01*
X159078599Y-39656034D01*
X159163513Y-39376111D01*
X159185000Y-39157950D01*
X159185000Y-37712050D01*
X159163513Y-37493889D01*
X159078599Y-37213966D01*
X158940706Y-36955986D01*
X158755134Y-36729866D01*
X158529014Y-36544294D01*
X158371311Y-36460000D01*
X160340001Y-36460000D01*
X160340000Y-56940000D01*
G37*
X160340000Y-56940000D02*
X158333893Y-56940000D01*
X158529014Y-56835706D01*
X158755134Y-56650134D01*
X158940706Y-56424014D01*
X159078599Y-56166034D01*
X159163513Y-55886111D01*
X159185000Y-55667950D01*
X159185000Y-54222050D01*
X159163513Y-54003889D01*
X159078599Y-53723966D01*
X158940706Y-53465986D01*
X158835000Y-53337183D01*
X158835000Y-52500752D01*
X158840491Y-52445000D01*
X158834635Y-52385537D01*
X158818577Y-52222501D01*
X158753676Y-52008553D01*
X158648284Y-51811377D01*
X158603093Y-51756312D01*
X158541989Y-51681856D01*
X158541987Y-51681854D01*
X158506449Y-51638551D01*
X158463146Y-51603013D01*
X154406997Y-47546866D01*
X154371450Y-47503552D01*
X154198624Y-47361717D01*
X154001448Y-47256325D01*
X153787500Y-47191424D01*
X153620753Y-47175001D01*
X153620752Y-47175001D01*
X153565001Y-47169510D01*
X153509250Y-47175001D01*
X142065866Y-47175001D01*
X148101427Y-41139441D01*
X148133291Y-41113291D01*
X148237636Y-40986146D01*
X148315172Y-40841087D01*
X148362918Y-40683689D01*
X148375000Y-40561019D01*
X148375000Y-40561009D01*
X148379039Y-40520001D01*
X148375000Y-40478993D01*
X148375000Y-40320793D01*
X148595134Y-40140134D01*
X148780706Y-39914014D01*
X148811895Y-39855663D01*
X148915824Y-40015619D01*
X149119748Y-40224857D01*
X149360574Y-40390291D01*
X149629047Y-40505563D01*
X149723110Y-40526476D01*
X149953000Y-40405155D01*
X149953000Y-38562000D01*
X149933000Y-38562000D01*
X149933000Y-38308000D01*
X149953000Y-38308000D01*
X149953000Y-38288000D01*
X150207000Y-38288000D01*
X150207000Y-38308000D01*
X150227000Y-38308000D01*
X150227000Y-38562000D01*
X150207000Y-38562000D01*
X150207000Y-40405155D01*
X150436890Y-40526476D01*
X150530953Y-40505563D01*
X150799426Y-40390291D01*
X151040252Y-40224857D01*
X151244176Y-40015619D01*
X151348105Y-39855662D01*
X151379294Y-39914013D01*
X151564866Y-40140134D01*
X151790986Y-40325706D01*
X152048966Y-40463599D01*
X152328889Y-40548513D01*
X152620000Y-40577185D01*
X152911110Y-40548513D01*
X153191033Y-40463599D01*
X153449013Y-40325706D01*
X153675134Y-40140134D01*
X153860706Y-39914014D01*
X153890000Y-39859208D01*
X153919294Y-39914013D01*
X154104866Y-40140134D01*
X154330986Y-40325706D01*
X154588966Y-40463599D01*
X154868889Y-40548513D01*
X155160000Y-40577185D01*
X155451110Y-40548513D01*
X155731033Y-40463599D01*
X155989013Y-40325706D01*
X156215134Y-40140134D01*
X156400706Y-39914014D01*
X156430000Y-39859208D01*
X156459294Y-39914013D01*
X156644866Y-40140134D01*
X156870986Y-40325706D01*
X157128966Y-40463599D01*
X157408889Y-40548513D01*
X157700000Y-40577185D01*
X157991110Y-40548513D01*
X158271033Y-40463599D01*
X158529013Y-40325706D01*
X158755134Y-40140134D01*
X158940706Y-39914014D01*
X159078599Y-39656034D01*
X159163513Y-39376111D01*
X159185000Y-39157950D01*
X159185000Y-37712050D01*
X159163513Y-37493889D01*
X159078599Y-37213966D01*
X158940706Y-36955986D01*
X158755134Y-36729866D01*
X158529014Y-36544294D01*
X158371311Y-36460000D01*
X160340001Y-36460000D01*
X160340000Y-56940000D01*
G36*
X110234188Y-38235518D02*
G01*
X110221928Y-38360000D01*
X110225000Y-38924250D01*
X110383750Y-39083000D01*
X111583000Y-39083000D01*
X111583000Y-39063000D01*
X111837000Y-39063000D01*
X111837000Y-39083000D01*
X113036250Y-39083000D01*
X113195000Y-38924250D01*
X113198072Y-38360000D01*
X113185812Y-38235518D01*
X113176554Y-38205000D01*
X114203446Y-38205000D01*
X114194188Y-38235518D01*
X114181928Y-38360000D01*
X114185000Y-38924250D01*
X114343750Y-39083000D01*
X115543000Y-39083000D01*
X115543000Y-39063000D01*
X115702075Y-39063000D01*
X115684356Y-39357000D01*
X115543000Y-39357000D01*
X115543000Y-39337000D01*
X114343750Y-39337000D01*
X114185000Y-39495750D01*
X114181928Y-40060000D01*
X114194188Y-40184482D01*
X114230498Y-40304180D01*
X114289463Y-40414494D01*
X114368815Y-40511185D01*
X114465506Y-40590537D01*
X114575820Y-40649502D01*
X114648380Y-40671513D01*
X114516525Y-40803368D01*
X114354010Y-41046589D01*
X114242068Y-41316842D01*
X114185000Y-41603740D01*
X114185000Y-41896260D01*
X114242068Y-42183158D01*
X114354010Y-42453411D01*
X114516525Y-42696632D01*
X114723368Y-42903475D01*
X114897760Y-43020000D01*
X114723368Y-43136525D01*
X114516525Y-43343368D01*
X114354010Y-43586589D01*
X114242068Y-43856842D01*
X114185000Y-44143740D01*
X114185000Y-44436260D01*
X114222655Y-44625562D01*
X114204828Y-44658914D01*
X114157082Y-44816312D01*
X114140960Y-44980000D01*
X114145001Y-45021028D01*
X114145000Y-46040717D01*
X114005000Y-46026928D01*
X113080000Y-46026928D01*
X112906746Y-46043992D01*
X112855010Y-46059686D01*
X112855010Y-45843098D01*
X112859049Y-45802090D01*
X112855010Y-45761082D01*
X112855010Y-45761072D01*
X112842928Y-45638402D01*
X112795182Y-45481004D01*
X112733849Y-45366258D01*
X112863475Y-45236632D01*
X113025990Y-44993411D01*
X113137932Y-44723158D01*
X113195000Y-44436260D01*
X113195000Y-44143740D01*
X113137932Y-43856842D01*
X113025990Y-43586589D01*
X112863475Y-43343368D01*
X112656632Y-43136525D01*
X112482240Y-43020000D01*
X112656632Y-42903475D01*
X112863475Y-42696632D01*
X113025990Y-42453411D01*
X113137932Y-42183158D01*
X113195000Y-41896260D01*
X113195000Y-41603740D01*
X113137932Y-41316842D01*
X113025990Y-41046589D01*
X112863475Y-40803368D01*
X112731620Y-40671513D01*
X112804180Y-40649502D01*
X112914494Y-40590537D01*
X113011185Y-40511185D01*
X113090537Y-40414494D01*
X113149502Y-40304180D01*
X113185812Y-40184482D01*
X113198072Y-40060000D01*
X113195000Y-39495750D01*
X113036250Y-39337000D01*
X111837000Y-39337000D01*
X111837000Y-39357000D01*
X111583000Y-39357000D01*
X111583000Y-39337000D01*
X110383750Y-39337000D01*
X110225000Y-39495750D01*
X110221928Y-40060000D01*
X110234188Y-40184482D01*
X110270498Y-40304180D01*
X110329463Y-40414494D01*
X110408815Y-40511185D01*
X110505506Y-40590537D01*
X110615820Y-40649502D01*
X110688380Y-40671513D01*
X110556525Y-40803368D01*
X110394010Y-41046589D01*
X110282068Y-41316842D01*
X110225000Y-41603740D01*
X110225000Y-41896260D01*
X110282068Y-42183158D01*
X110394010Y-42453411D01*
X110453228Y-42542037D01*
X110451428Y-42540560D01*
X109277784Y-41366917D01*
X109247932Y-41216842D01*
X109135990Y-40946589D01*
X108973475Y-40703368D01*
X108766632Y-40496525D01*
X108592240Y-40380000D01*
X108766632Y-40263475D01*
X108973475Y-40056632D01*
X109135990Y-39813411D01*
X109247932Y-39543158D01*
X109305000Y-39256260D01*
X109305000Y-38963740D01*
X109247932Y-38676842D01*
X109135990Y-38406589D01*
X109001293Y-38205000D01*
X110243446Y-38205000D01*
X110234188Y-38235518D01*
G37*
X110234188Y-38235518D02*
X110221928Y-38360000D01*
X110225000Y-38924250D01*
X110383750Y-39083000D01*
X111583000Y-39083000D01*
X111583000Y-39063000D01*
X111837000Y-39063000D01*
X111837000Y-39083000D01*
X113036250Y-39083000D01*
X113195000Y-38924250D01*
X113198072Y-38360000D01*
X113185812Y-38235518D01*
X113176554Y-38205000D01*
X114203446Y-38205000D01*
X114194188Y-38235518D01*
X114181928Y-38360000D01*
X114185000Y-38924250D01*
X114343750Y-39083000D01*
X115543000Y-39083000D01*
X115543000Y-39063000D01*
X115702075Y-39063000D01*
X115684356Y-39357000D01*
X115543000Y-39357000D01*
X115543000Y-39337000D01*
X114343750Y-39337000D01*
X114185000Y-39495750D01*
X114181928Y-40060000D01*
X114194188Y-40184482D01*
X114230498Y-40304180D01*
X114289463Y-40414494D01*
X114368815Y-40511185D01*
X114465506Y-40590537D01*
X114575820Y-40649502D01*
X114648380Y-40671513D01*
X114516525Y-40803368D01*
X114354010Y-41046589D01*
X114242068Y-41316842D01*
X114185000Y-41603740D01*
X114185000Y-41896260D01*
X114242068Y-42183158D01*
X114354010Y-42453411D01*
X114516525Y-42696632D01*
X114723368Y-42903475D01*
X114897760Y-43020000D01*
X114723368Y-43136525D01*
X114516525Y-43343368D01*
X114354010Y-43586589D01*
X114242068Y-43856842D01*
X114185000Y-44143740D01*
X114185000Y-44436260D01*
X114222655Y-44625562D01*
X114204828Y-44658914D01*
X114157082Y-44816312D01*
X114140960Y-44980000D01*
X114145001Y-45021028D01*
X114145000Y-46040717D01*
X114005000Y-46026928D01*
X113080000Y-46026928D01*
X112906746Y-46043992D01*
X112855010Y-46059686D01*
X112855010Y-45843098D01*
X112859049Y-45802090D01*
X112855010Y-45761082D01*
X112855010Y-45761072D01*
X112842928Y-45638402D01*
X112795182Y-45481004D01*
X112733849Y-45366258D01*
X112863475Y-45236632D01*
X113025990Y-44993411D01*
X113137932Y-44723158D01*
X113195000Y-44436260D01*
X113195000Y-44143740D01*
X113137932Y-43856842D01*
X113025990Y-43586589D01*
X112863475Y-43343368D01*
X112656632Y-43136525D01*
X112482240Y-43020000D01*
X112656632Y-42903475D01*
X112863475Y-42696632D01*
X113025990Y-42453411D01*
X113137932Y-42183158D01*
X113195000Y-41896260D01*
X113195000Y-41603740D01*
X113137932Y-41316842D01*
X113025990Y-41046589D01*
X112863475Y-40803368D01*
X112731620Y-40671513D01*
X112804180Y-40649502D01*
X112914494Y-40590537D01*
X113011185Y-40511185D01*
X113090537Y-40414494D01*
X113149502Y-40304180D01*
X113185812Y-40184482D01*
X113198072Y-40060000D01*
X113195000Y-39495750D01*
X113036250Y-39337000D01*
X111837000Y-39337000D01*
X111837000Y-39357000D01*
X111583000Y-39357000D01*
X111583000Y-39337000D01*
X110383750Y-39337000D01*
X110225000Y-39495750D01*
X110221928Y-40060000D01*
X110234188Y-40184482D01*
X110270498Y-40304180D01*
X110329463Y-40414494D01*
X110408815Y-40511185D01*
X110505506Y-40590537D01*
X110615820Y-40649502D01*
X110688380Y-40671513D01*
X110556525Y-40803368D01*
X110394010Y-41046589D01*
X110282068Y-41316842D01*
X110225000Y-41603740D01*
X110225000Y-41896260D01*
X110282068Y-42183158D01*
X110394010Y-42453411D01*
X110453228Y-42542037D01*
X110451428Y-42540560D01*
X109277784Y-41366917D01*
X109247932Y-41216842D01*
X109135990Y-40946589D01*
X108973475Y-40703368D01*
X108766632Y-40496525D01*
X108592240Y-40380000D01*
X108766632Y-40263475D01*
X108973475Y-40056632D01*
X109135990Y-39813411D01*
X109247932Y-39543158D01*
X109305000Y-39256260D01*
X109305000Y-38963740D01*
X109247932Y-38676842D01*
X109135990Y-38406589D01*
X109001293Y-38205000D01*
X110243446Y-38205000D01*
X110234188Y-38235518D01*
M02*
