M48
; DRILL file {KiCad (5.1.5)-3} date 19/03/2020 13:14:23
; FORMAT={-:-/ absolute / inch / decimal}
; #@! TF.CreationDate,2020-03-19T13:14:23+01:00
; #@! TF.GenerationSoftware,Kicad,Pcbnew,(5.1.5)-3
; #@! TF.FileFunction,Plated,1,2,PTH
FMAT,2
INCH
T1C0.0157
T2C0.0354
T3C0.0394
%
G90
G05
T1
X4.7429Y-1.9134
X4.7988Y-1.8591
X5.4668Y-1.7928
X5.5055Y-1.8287
X5.5492Y-1.8547
X5.9083Y-1.7417
X5.9102Y-1.6437
X6.0764Y-2.0343
T2
X4.002Y-2.0453
X4.002Y-2.1453
X4.0004Y-1.7795
X4.0004Y-1.8795
X4.0004Y-1.5142
X4.0004Y-1.6142
T3
X4.398Y-1.5437
X4.398Y-1.6437
X4.398Y-1.7437
X4.5539Y-1.5437
X4.5539Y-1.6437
X4.5539Y-1.7437
X4.2449Y-1.5398
X4.2449Y-1.6398
X4.2449Y-1.7398
T0
M30
