G04 #@! TF.GenerationSoftware,KiCad,Pcbnew,(5.1.5)-3*
G04 #@! TF.CreationDate,2020-03-19T13:13:49+01:00*
G04 #@! TF.ProjectId,buttons,62757474-6f6e-4732-9e6b-696361645f70,rev?*
G04 #@! TF.SameCoordinates,Original*
G04 #@! TF.FileFunction,Soldermask,Top*
G04 #@! TF.FilePolarity,Negative*
%FSLAX46Y46*%
G04 Gerber Fmt 4.6, Leading zero omitted, Abs format (unit mm)*
G04 Created by KiCad (PCBNEW (5.1.5)-3) date 2020-03-19 13:13:49*
%MOMM*%
%LPD*%
G04 APERTURE LIST*
%ADD10C,0.100000*%
G04 APERTURE END LIST*
D10*
G36*
X157876626Y-53407037D02*
G01*
X158046465Y-53458557D01*
X158046467Y-53458558D01*
X158202989Y-53542221D01*
X158340186Y-53654814D01*
X158423448Y-53756271D01*
X158452778Y-53792009D01*
X158536443Y-53948534D01*
X158587963Y-54118373D01*
X158587963Y-54118375D01*
X158595412Y-54194000D01*
X158601000Y-54250742D01*
X158601000Y-55639258D01*
X158587963Y-55771627D01*
X158536443Y-55941466D01*
X158452778Y-56097991D01*
X158423448Y-56133729D01*
X158340186Y-56235186D01*
X158238729Y-56318448D01*
X158202991Y-56347778D01*
X158046466Y-56431443D01*
X157876627Y-56482963D01*
X157700000Y-56500359D01*
X157523374Y-56482963D01*
X157353535Y-56431443D01*
X157197010Y-56347778D01*
X157161272Y-56318448D01*
X157059815Y-56235186D01*
X156976553Y-56133729D01*
X156947223Y-56097991D01*
X156863558Y-55941466D01*
X156812038Y-55771627D01*
X156799001Y-55639258D01*
X156799000Y-54250743D01*
X156803134Y-54208774D01*
X156812037Y-54118376D01*
X156812037Y-54118374D01*
X156863557Y-53948535D01*
X156947222Y-53792010D01*
X156947223Y-53792009D01*
X157059814Y-53654814D01*
X157161271Y-53571552D01*
X157197009Y-53542222D01*
X157353534Y-53458557D01*
X157523373Y-53407037D01*
X157700000Y-53389641D01*
X157876626Y-53407037D01*
G37*
G36*
X124856626Y-53407037D02*
G01*
X125026465Y-53458557D01*
X125026467Y-53458558D01*
X125182989Y-53542221D01*
X125320186Y-53654814D01*
X125403448Y-53756271D01*
X125432778Y-53792009D01*
X125516443Y-53948534D01*
X125567963Y-54118373D01*
X125567963Y-54118375D01*
X125575412Y-54194000D01*
X125581000Y-54250742D01*
X125581000Y-55639258D01*
X125567963Y-55771627D01*
X125516443Y-55941466D01*
X125432778Y-56097991D01*
X125403448Y-56133729D01*
X125320186Y-56235186D01*
X125218729Y-56318448D01*
X125182991Y-56347778D01*
X125026466Y-56431443D01*
X124856627Y-56482963D01*
X124680000Y-56500359D01*
X124503374Y-56482963D01*
X124333535Y-56431443D01*
X124177010Y-56347778D01*
X124141272Y-56318448D01*
X124039815Y-56235186D01*
X123956553Y-56133729D01*
X123927223Y-56097991D01*
X123843558Y-55941466D01*
X123792038Y-55771627D01*
X123779001Y-55639258D01*
X123779000Y-54250743D01*
X123783134Y-54208774D01*
X123792037Y-54118376D01*
X123792037Y-54118374D01*
X123843557Y-53948535D01*
X123927222Y-53792010D01*
X123927223Y-53792009D01*
X124039814Y-53654814D01*
X124141271Y-53571552D01*
X124177009Y-53542222D01*
X124333534Y-53458557D01*
X124503373Y-53407037D01*
X124680000Y-53389641D01*
X124856626Y-53407037D01*
G37*
G36*
X122316626Y-53407037D02*
G01*
X122486465Y-53458557D01*
X122486467Y-53458558D01*
X122642989Y-53542221D01*
X122780186Y-53654814D01*
X122863448Y-53756271D01*
X122892778Y-53792009D01*
X122976443Y-53948534D01*
X123027963Y-54118373D01*
X123027963Y-54118375D01*
X123035412Y-54194000D01*
X123041000Y-54250742D01*
X123041000Y-55639258D01*
X123027963Y-55771627D01*
X122976443Y-55941466D01*
X122892778Y-56097991D01*
X122863448Y-56133729D01*
X122780186Y-56235186D01*
X122678729Y-56318448D01*
X122642991Y-56347778D01*
X122486466Y-56431443D01*
X122316627Y-56482963D01*
X122140000Y-56500359D01*
X121963374Y-56482963D01*
X121793535Y-56431443D01*
X121637010Y-56347778D01*
X121601272Y-56318448D01*
X121499815Y-56235186D01*
X121416553Y-56133729D01*
X121387223Y-56097991D01*
X121303558Y-55941466D01*
X121252038Y-55771627D01*
X121239001Y-55639258D01*
X121239000Y-54250743D01*
X121243134Y-54208774D01*
X121252037Y-54118376D01*
X121252037Y-54118374D01*
X121303557Y-53948535D01*
X121387222Y-53792010D01*
X121387223Y-53792009D01*
X121499814Y-53654814D01*
X121601271Y-53571552D01*
X121637009Y-53542222D01*
X121793534Y-53458557D01*
X121963373Y-53407037D01*
X122140000Y-53389641D01*
X122316626Y-53407037D01*
G37*
G36*
X127396626Y-53407037D02*
G01*
X127566465Y-53458557D01*
X127566467Y-53458558D01*
X127722989Y-53542221D01*
X127860186Y-53654814D01*
X127943448Y-53756271D01*
X127972778Y-53792009D01*
X128056443Y-53948534D01*
X128107963Y-54118373D01*
X128107963Y-54118375D01*
X128115412Y-54194000D01*
X128121000Y-54250742D01*
X128121000Y-55639258D01*
X128107963Y-55771627D01*
X128056443Y-55941466D01*
X127972778Y-56097991D01*
X127943448Y-56133729D01*
X127860186Y-56235186D01*
X127758729Y-56318448D01*
X127722991Y-56347778D01*
X127566466Y-56431443D01*
X127396627Y-56482963D01*
X127220000Y-56500359D01*
X127043374Y-56482963D01*
X126873535Y-56431443D01*
X126717010Y-56347778D01*
X126681272Y-56318448D01*
X126579815Y-56235186D01*
X126496553Y-56133729D01*
X126467223Y-56097991D01*
X126383558Y-55941466D01*
X126332038Y-55771627D01*
X126319001Y-55639258D01*
X126319000Y-54250743D01*
X126323134Y-54208774D01*
X126332037Y-54118376D01*
X126332037Y-54118374D01*
X126383557Y-53948535D01*
X126467222Y-53792010D01*
X126467223Y-53792009D01*
X126579814Y-53654814D01*
X126681271Y-53571552D01*
X126717009Y-53542222D01*
X126873534Y-53458557D01*
X127043373Y-53407037D01*
X127220000Y-53389641D01*
X127396626Y-53407037D01*
G37*
G36*
X129936626Y-53407037D02*
G01*
X130106465Y-53458557D01*
X130106467Y-53458558D01*
X130262989Y-53542221D01*
X130400186Y-53654814D01*
X130483448Y-53756271D01*
X130512778Y-53792009D01*
X130596443Y-53948534D01*
X130647963Y-54118373D01*
X130647963Y-54118375D01*
X130655412Y-54194000D01*
X130661000Y-54250742D01*
X130661000Y-55639258D01*
X130647963Y-55771627D01*
X130596443Y-55941466D01*
X130512778Y-56097991D01*
X130483448Y-56133729D01*
X130400186Y-56235186D01*
X130298729Y-56318448D01*
X130262991Y-56347778D01*
X130106466Y-56431443D01*
X129936627Y-56482963D01*
X129760000Y-56500359D01*
X129583374Y-56482963D01*
X129413535Y-56431443D01*
X129257010Y-56347778D01*
X129221272Y-56318448D01*
X129119815Y-56235186D01*
X129036553Y-56133729D01*
X129007223Y-56097991D01*
X128923558Y-55941466D01*
X128872038Y-55771627D01*
X128859001Y-55639258D01*
X128859000Y-54250743D01*
X128863134Y-54208774D01*
X128872037Y-54118376D01*
X128872037Y-54118374D01*
X128923557Y-53948535D01*
X129007222Y-53792010D01*
X129007223Y-53792009D01*
X129119814Y-53654814D01*
X129221271Y-53571552D01*
X129257009Y-53542222D01*
X129413534Y-53458557D01*
X129583373Y-53407037D01*
X129760000Y-53389641D01*
X129936626Y-53407037D01*
G37*
G36*
X132476626Y-53407037D02*
G01*
X132646465Y-53458557D01*
X132646467Y-53458558D01*
X132802989Y-53542221D01*
X132940186Y-53654814D01*
X133023448Y-53756271D01*
X133052778Y-53792009D01*
X133136443Y-53948534D01*
X133187963Y-54118373D01*
X133187963Y-54118375D01*
X133195412Y-54194000D01*
X133201000Y-54250742D01*
X133201000Y-55639258D01*
X133187963Y-55771627D01*
X133136443Y-55941466D01*
X133052778Y-56097991D01*
X133023448Y-56133729D01*
X132940186Y-56235186D01*
X132838729Y-56318448D01*
X132802991Y-56347778D01*
X132646466Y-56431443D01*
X132476627Y-56482963D01*
X132300000Y-56500359D01*
X132123374Y-56482963D01*
X131953535Y-56431443D01*
X131797010Y-56347778D01*
X131761272Y-56318448D01*
X131659815Y-56235186D01*
X131576553Y-56133729D01*
X131547223Y-56097991D01*
X131463558Y-55941466D01*
X131412038Y-55771627D01*
X131399001Y-55639258D01*
X131399000Y-54250743D01*
X131403134Y-54208774D01*
X131412037Y-54118376D01*
X131412037Y-54118374D01*
X131463557Y-53948535D01*
X131547222Y-53792010D01*
X131547223Y-53792009D01*
X131659814Y-53654814D01*
X131761271Y-53571552D01*
X131797009Y-53542222D01*
X131953534Y-53458557D01*
X132123373Y-53407037D01*
X132300000Y-53389641D01*
X132476626Y-53407037D01*
G37*
G36*
X135016626Y-53407037D02*
G01*
X135186465Y-53458557D01*
X135186467Y-53458558D01*
X135342989Y-53542221D01*
X135480186Y-53654814D01*
X135563448Y-53756271D01*
X135592778Y-53792009D01*
X135676443Y-53948534D01*
X135727963Y-54118373D01*
X135727963Y-54118375D01*
X135735412Y-54194000D01*
X135741000Y-54250742D01*
X135741000Y-55639258D01*
X135727963Y-55771627D01*
X135676443Y-55941466D01*
X135592778Y-56097991D01*
X135563448Y-56133729D01*
X135480186Y-56235186D01*
X135378729Y-56318448D01*
X135342991Y-56347778D01*
X135186466Y-56431443D01*
X135016627Y-56482963D01*
X134840000Y-56500359D01*
X134663374Y-56482963D01*
X134493535Y-56431443D01*
X134337010Y-56347778D01*
X134301272Y-56318448D01*
X134199815Y-56235186D01*
X134116553Y-56133729D01*
X134087223Y-56097991D01*
X134003558Y-55941466D01*
X133952038Y-55771627D01*
X133939001Y-55639258D01*
X133939000Y-54250743D01*
X133943134Y-54208774D01*
X133952037Y-54118376D01*
X133952037Y-54118374D01*
X134003557Y-53948535D01*
X134087222Y-53792010D01*
X134087223Y-53792009D01*
X134199814Y-53654814D01*
X134301271Y-53571552D01*
X134337009Y-53542222D01*
X134493534Y-53458557D01*
X134663373Y-53407037D01*
X134840000Y-53389641D01*
X135016626Y-53407037D01*
G37*
G36*
X137556626Y-53407037D02*
G01*
X137726465Y-53458557D01*
X137726467Y-53458558D01*
X137882989Y-53542221D01*
X138020186Y-53654814D01*
X138103448Y-53756271D01*
X138132778Y-53792009D01*
X138216443Y-53948534D01*
X138267963Y-54118373D01*
X138267963Y-54118375D01*
X138275412Y-54194000D01*
X138281000Y-54250742D01*
X138281000Y-55639258D01*
X138267963Y-55771627D01*
X138216443Y-55941466D01*
X138132778Y-56097991D01*
X138103448Y-56133729D01*
X138020186Y-56235186D01*
X137918729Y-56318448D01*
X137882991Y-56347778D01*
X137726466Y-56431443D01*
X137556627Y-56482963D01*
X137380000Y-56500359D01*
X137203374Y-56482963D01*
X137033535Y-56431443D01*
X136877010Y-56347778D01*
X136841272Y-56318448D01*
X136739815Y-56235186D01*
X136656553Y-56133729D01*
X136627223Y-56097991D01*
X136543558Y-55941466D01*
X136492038Y-55771627D01*
X136479001Y-55639258D01*
X136479000Y-54250743D01*
X136483134Y-54208774D01*
X136492037Y-54118376D01*
X136492037Y-54118374D01*
X136543557Y-53948535D01*
X136627222Y-53792010D01*
X136627223Y-53792009D01*
X136739814Y-53654814D01*
X136841271Y-53571552D01*
X136877009Y-53542222D01*
X137033534Y-53458557D01*
X137203373Y-53407037D01*
X137380000Y-53389641D01*
X137556626Y-53407037D01*
G37*
G36*
X142636626Y-53407037D02*
G01*
X142806465Y-53458557D01*
X142806467Y-53458558D01*
X142962989Y-53542221D01*
X143100186Y-53654814D01*
X143183448Y-53756271D01*
X143212778Y-53792009D01*
X143296443Y-53948534D01*
X143347963Y-54118373D01*
X143347963Y-54118375D01*
X143355412Y-54194000D01*
X143361000Y-54250742D01*
X143361000Y-55639258D01*
X143347963Y-55771627D01*
X143296443Y-55941466D01*
X143212778Y-56097991D01*
X143183448Y-56133729D01*
X143100186Y-56235186D01*
X142998729Y-56318448D01*
X142962991Y-56347778D01*
X142806466Y-56431443D01*
X142636627Y-56482963D01*
X142460000Y-56500359D01*
X142283374Y-56482963D01*
X142113535Y-56431443D01*
X141957010Y-56347778D01*
X141921272Y-56318448D01*
X141819815Y-56235186D01*
X141736553Y-56133729D01*
X141707223Y-56097991D01*
X141623558Y-55941466D01*
X141572038Y-55771627D01*
X141559001Y-55639258D01*
X141559000Y-54250743D01*
X141563134Y-54208774D01*
X141572037Y-54118376D01*
X141572037Y-54118374D01*
X141623557Y-53948535D01*
X141707222Y-53792010D01*
X141707223Y-53792009D01*
X141819814Y-53654814D01*
X141921271Y-53571552D01*
X141957009Y-53542222D01*
X142113534Y-53458557D01*
X142283373Y-53407037D01*
X142460000Y-53389641D01*
X142636626Y-53407037D01*
G37*
G36*
X145176626Y-53407037D02*
G01*
X145346465Y-53458557D01*
X145346467Y-53458558D01*
X145502989Y-53542221D01*
X145640186Y-53654814D01*
X145723448Y-53756271D01*
X145752778Y-53792009D01*
X145836443Y-53948534D01*
X145887963Y-54118373D01*
X145887963Y-54118375D01*
X145895412Y-54194000D01*
X145901000Y-54250742D01*
X145901000Y-55639258D01*
X145887963Y-55771627D01*
X145836443Y-55941466D01*
X145752778Y-56097991D01*
X145723448Y-56133729D01*
X145640186Y-56235186D01*
X145538729Y-56318448D01*
X145502991Y-56347778D01*
X145346466Y-56431443D01*
X145176627Y-56482963D01*
X145000000Y-56500359D01*
X144823374Y-56482963D01*
X144653535Y-56431443D01*
X144497010Y-56347778D01*
X144461272Y-56318448D01*
X144359815Y-56235186D01*
X144276553Y-56133729D01*
X144247223Y-56097991D01*
X144163558Y-55941466D01*
X144112038Y-55771627D01*
X144099001Y-55639258D01*
X144099000Y-54250743D01*
X144103134Y-54208774D01*
X144112037Y-54118376D01*
X144112037Y-54118374D01*
X144163557Y-53948535D01*
X144247222Y-53792010D01*
X144247223Y-53792009D01*
X144359814Y-53654814D01*
X144461271Y-53571552D01*
X144497009Y-53542222D01*
X144653534Y-53458557D01*
X144823373Y-53407037D01*
X145000000Y-53389641D01*
X145176626Y-53407037D01*
G37*
G36*
X147716626Y-53407037D02*
G01*
X147886465Y-53458557D01*
X147886467Y-53458558D01*
X148042989Y-53542221D01*
X148180186Y-53654814D01*
X148263448Y-53756271D01*
X148292778Y-53792009D01*
X148376443Y-53948534D01*
X148427963Y-54118373D01*
X148427963Y-54118375D01*
X148435412Y-54194000D01*
X148441000Y-54250742D01*
X148441000Y-55639258D01*
X148427963Y-55771627D01*
X148376443Y-55941466D01*
X148292778Y-56097991D01*
X148263448Y-56133729D01*
X148180186Y-56235186D01*
X148078729Y-56318448D01*
X148042991Y-56347778D01*
X147886466Y-56431443D01*
X147716627Y-56482963D01*
X147540000Y-56500359D01*
X147363374Y-56482963D01*
X147193535Y-56431443D01*
X147037010Y-56347778D01*
X147001272Y-56318448D01*
X146899815Y-56235186D01*
X146816553Y-56133729D01*
X146787223Y-56097991D01*
X146703558Y-55941466D01*
X146652038Y-55771627D01*
X146639001Y-55639258D01*
X146639000Y-54250743D01*
X146643134Y-54208774D01*
X146652037Y-54118376D01*
X146652037Y-54118374D01*
X146703557Y-53948535D01*
X146787222Y-53792010D01*
X146787223Y-53792009D01*
X146899814Y-53654814D01*
X147001271Y-53571552D01*
X147037009Y-53542222D01*
X147193534Y-53458557D01*
X147363373Y-53407037D01*
X147540000Y-53389641D01*
X147716626Y-53407037D01*
G37*
G36*
X150256626Y-53407037D02*
G01*
X150426465Y-53458557D01*
X150426467Y-53458558D01*
X150582989Y-53542221D01*
X150720186Y-53654814D01*
X150803448Y-53756271D01*
X150832778Y-53792009D01*
X150916443Y-53948534D01*
X150967963Y-54118373D01*
X150967963Y-54118375D01*
X150975412Y-54194000D01*
X150981000Y-54250742D01*
X150981000Y-55639258D01*
X150967963Y-55771627D01*
X150916443Y-55941466D01*
X150832778Y-56097991D01*
X150803448Y-56133729D01*
X150720186Y-56235186D01*
X150618729Y-56318448D01*
X150582991Y-56347778D01*
X150426466Y-56431443D01*
X150256627Y-56482963D01*
X150080000Y-56500359D01*
X149903374Y-56482963D01*
X149733535Y-56431443D01*
X149577010Y-56347778D01*
X149541272Y-56318448D01*
X149439815Y-56235186D01*
X149356553Y-56133729D01*
X149327223Y-56097991D01*
X149243558Y-55941466D01*
X149192038Y-55771627D01*
X149179001Y-55639258D01*
X149179000Y-54250743D01*
X149183134Y-54208774D01*
X149192037Y-54118376D01*
X149192037Y-54118374D01*
X149243557Y-53948535D01*
X149327222Y-53792010D01*
X149327223Y-53792009D01*
X149439814Y-53654814D01*
X149541271Y-53571552D01*
X149577009Y-53542222D01*
X149733534Y-53458557D01*
X149903373Y-53407037D01*
X150080000Y-53389641D01*
X150256626Y-53407037D01*
G37*
G36*
X152796626Y-53407037D02*
G01*
X152966465Y-53458557D01*
X152966467Y-53458558D01*
X153122989Y-53542221D01*
X153260186Y-53654814D01*
X153343448Y-53756271D01*
X153372778Y-53792009D01*
X153456443Y-53948534D01*
X153507963Y-54118373D01*
X153507963Y-54118375D01*
X153515412Y-54194000D01*
X153521000Y-54250742D01*
X153521000Y-55639258D01*
X153507963Y-55771627D01*
X153456443Y-55941466D01*
X153372778Y-56097991D01*
X153343448Y-56133729D01*
X153260186Y-56235186D01*
X153158729Y-56318448D01*
X153122991Y-56347778D01*
X152966466Y-56431443D01*
X152796627Y-56482963D01*
X152620000Y-56500359D01*
X152443374Y-56482963D01*
X152273535Y-56431443D01*
X152117010Y-56347778D01*
X152081272Y-56318448D01*
X151979815Y-56235186D01*
X151896553Y-56133729D01*
X151867223Y-56097991D01*
X151783558Y-55941466D01*
X151732038Y-55771627D01*
X151719001Y-55639258D01*
X151719000Y-54250743D01*
X151723134Y-54208774D01*
X151732037Y-54118376D01*
X151732037Y-54118374D01*
X151783557Y-53948535D01*
X151867222Y-53792010D01*
X151867223Y-53792009D01*
X151979814Y-53654814D01*
X152081271Y-53571552D01*
X152117009Y-53542222D01*
X152273534Y-53458557D01*
X152443373Y-53407037D01*
X152620000Y-53389641D01*
X152796626Y-53407037D01*
G37*
G36*
X155336626Y-53407037D02*
G01*
X155506465Y-53458557D01*
X155506467Y-53458558D01*
X155662989Y-53542221D01*
X155800186Y-53654814D01*
X155883448Y-53756271D01*
X155912778Y-53792009D01*
X155996443Y-53948534D01*
X156047963Y-54118373D01*
X156047963Y-54118375D01*
X156055412Y-54194000D01*
X156061000Y-54250742D01*
X156061000Y-55639258D01*
X156047963Y-55771627D01*
X155996443Y-55941466D01*
X155912778Y-56097991D01*
X155883448Y-56133729D01*
X155800186Y-56235186D01*
X155698729Y-56318448D01*
X155662991Y-56347778D01*
X155506466Y-56431443D01*
X155336627Y-56482963D01*
X155160000Y-56500359D01*
X154983374Y-56482963D01*
X154813535Y-56431443D01*
X154657010Y-56347778D01*
X154621272Y-56318448D01*
X154519815Y-56235186D01*
X154436553Y-56133729D01*
X154407223Y-56097991D01*
X154323558Y-55941466D01*
X154272038Y-55771627D01*
X154259001Y-55639258D01*
X154259000Y-54250743D01*
X154263134Y-54208774D01*
X154272037Y-54118376D01*
X154272037Y-54118374D01*
X154323557Y-53948535D01*
X154407222Y-53792010D01*
X154407223Y-53792009D01*
X154519814Y-53654814D01*
X154621271Y-53571552D01*
X154657009Y-53542222D01*
X154813534Y-53458557D01*
X154983373Y-53407037D01*
X155160000Y-53389641D01*
X155336626Y-53407037D01*
G37*
G36*
X140096626Y-53407037D02*
G01*
X140266465Y-53458557D01*
X140266467Y-53458558D01*
X140422989Y-53542221D01*
X140560186Y-53654814D01*
X140643448Y-53756271D01*
X140672778Y-53792009D01*
X140756443Y-53948534D01*
X140807963Y-54118373D01*
X140807963Y-54118375D01*
X140815412Y-54194000D01*
X140821000Y-54250742D01*
X140821000Y-55639258D01*
X140807963Y-55771627D01*
X140756443Y-55941466D01*
X140672778Y-56097991D01*
X140643448Y-56133729D01*
X140560186Y-56235186D01*
X140458729Y-56318448D01*
X140422991Y-56347778D01*
X140266466Y-56431443D01*
X140096627Y-56482963D01*
X139920000Y-56500359D01*
X139743374Y-56482963D01*
X139573535Y-56431443D01*
X139417010Y-56347778D01*
X139381272Y-56318448D01*
X139279815Y-56235186D01*
X139196553Y-56133729D01*
X139167223Y-56097991D01*
X139083558Y-55941466D01*
X139032038Y-55771627D01*
X139019001Y-55639258D01*
X139019000Y-54250743D01*
X139023134Y-54208774D01*
X139032037Y-54118376D01*
X139032037Y-54118374D01*
X139083557Y-53948535D01*
X139167222Y-53792010D01*
X139167223Y-53792009D01*
X139279814Y-53654814D01*
X139381271Y-53571552D01*
X139417009Y-53542222D01*
X139573534Y-53458557D01*
X139743373Y-53407037D01*
X139920000Y-53389641D01*
X140096626Y-53407037D01*
G37*
G36*
X117200562Y-54198181D02*
G01*
X117235481Y-54208774D01*
X117267663Y-54225976D01*
X117295873Y-54249127D01*
X117319024Y-54277337D01*
X117336226Y-54309519D01*
X117346819Y-54344438D01*
X117351000Y-54386895D01*
X117351000Y-55853105D01*
X117346819Y-55895562D01*
X117336226Y-55930481D01*
X117319024Y-55962663D01*
X117295873Y-55990873D01*
X117267663Y-56014024D01*
X117235481Y-56031226D01*
X117200562Y-56041819D01*
X117158105Y-56046000D01*
X116016895Y-56046000D01*
X115974438Y-56041819D01*
X115939519Y-56031226D01*
X115907337Y-56014024D01*
X115879127Y-55990873D01*
X115855976Y-55962663D01*
X115838774Y-55930481D01*
X115828181Y-55895562D01*
X115824000Y-55853105D01*
X115824000Y-54386895D01*
X115828181Y-54344438D01*
X115838774Y-54309519D01*
X115855976Y-54277337D01*
X115879127Y-54249127D01*
X115907337Y-54225976D01*
X115939519Y-54208774D01*
X115974438Y-54198181D01*
X116016895Y-54194000D01*
X117158105Y-54194000D01*
X117200562Y-54198181D01*
G37*
G36*
X114225562Y-54198181D02*
G01*
X114260481Y-54208774D01*
X114292663Y-54225976D01*
X114320873Y-54249127D01*
X114344024Y-54277337D01*
X114361226Y-54309519D01*
X114371819Y-54344438D01*
X114376000Y-54386895D01*
X114376000Y-55853105D01*
X114371819Y-55895562D01*
X114361226Y-55930481D01*
X114344024Y-55962663D01*
X114320873Y-55990873D01*
X114292663Y-56014024D01*
X114260481Y-56031226D01*
X114225562Y-56041819D01*
X114183105Y-56046000D01*
X113041895Y-56046000D01*
X112999438Y-56041819D01*
X112964519Y-56031226D01*
X112932337Y-56014024D01*
X112904127Y-55990873D01*
X112880976Y-55962663D01*
X112863774Y-55930481D01*
X112853181Y-55895562D01*
X112849000Y-55853105D01*
X112849000Y-54386895D01*
X112853181Y-54344438D01*
X112863774Y-54309519D01*
X112880976Y-54277337D01*
X112904127Y-54249127D01*
X112932337Y-54225976D01*
X112964519Y-54208774D01*
X112999438Y-54198181D01*
X113041895Y-54194000D01*
X114183105Y-54194000D01*
X114225562Y-54198181D01*
G37*
G36*
X102601000Y-55441000D02*
G01*
X100699000Y-55441000D01*
X100699000Y-53539000D01*
X102601000Y-53539000D01*
X102601000Y-55441000D01*
G37*
G36*
X110380562Y-52668181D02*
G01*
X110415481Y-52678774D01*
X110447663Y-52695976D01*
X110475873Y-52719127D01*
X110499024Y-52747337D01*
X110516226Y-52779519D01*
X110526819Y-52814438D01*
X110531000Y-52856895D01*
X110531000Y-54323105D01*
X110526819Y-54365562D01*
X110516226Y-54400481D01*
X110499024Y-54432663D01*
X110475873Y-54460873D01*
X110447663Y-54484024D01*
X110415481Y-54501226D01*
X110380562Y-54511819D01*
X110338105Y-54516000D01*
X109196895Y-54516000D01*
X109154438Y-54511819D01*
X109119519Y-54501226D01*
X109087337Y-54484024D01*
X109059127Y-54460873D01*
X109035976Y-54432663D01*
X109018774Y-54400481D01*
X109008181Y-54365562D01*
X109004000Y-54323105D01*
X109004000Y-52856895D01*
X109008181Y-52814438D01*
X109018774Y-52779519D01*
X109035976Y-52747337D01*
X109059127Y-52719127D01*
X109087337Y-52695976D01*
X109119519Y-52678774D01*
X109154438Y-52668181D01*
X109196895Y-52664000D01*
X110338105Y-52664000D01*
X110380562Y-52668181D01*
G37*
G36*
X107405562Y-52668181D02*
G01*
X107440481Y-52678774D01*
X107472663Y-52695976D01*
X107500873Y-52719127D01*
X107524024Y-52747337D01*
X107541226Y-52779519D01*
X107551819Y-52814438D01*
X107556000Y-52856895D01*
X107556000Y-54323105D01*
X107551819Y-54365562D01*
X107541226Y-54400481D01*
X107524024Y-54432663D01*
X107500873Y-54460873D01*
X107472663Y-54484024D01*
X107440481Y-54501226D01*
X107405562Y-54511819D01*
X107363105Y-54516000D01*
X106221895Y-54516000D01*
X106179438Y-54511819D01*
X106144519Y-54501226D01*
X106112337Y-54484024D01*
X106084127Y-54460873D01*
X106060976Y-54432663D01*
X106043774Y-54400481D01*
X106033181Y-54365562D01*
X106029000Y-54323105D01*
X106029000Y-52856895D01*
X106033181Y-52814438D01*
X106043774Y-52779519D01*
X106060976Y-52747337D01*
X106084127Y-52719127D01*
X106112337Y-52695976D01*
X106144519Y-52678774D01*
X106179438Y-52668181D01*
X106221895Y-52664000D01*
X107363105Y-52664000D01*
X107405562Y-52668181D01*
G37*
G36*
X114195562Y-51728181D02*
G01*
X114230481Y-51738774D01*
X114262663Y-51755976D01*
X114290873Y-51779127D01*
X114314024Y-51807337D01*
X114331226Y-51839519D01*
X114341819Y-51874438D01*
X114346000Y-51916895D01*
X114346000Y-53383105D01*
X114341819Y-53425562D01*
X114331226Y-53460481D01*
X114314024Y-53492663D01*
X114290873Y-53520873D01*
X114262663Y-53544024D01*
X114230481Y-53561226D01*
X114195562Y-53571819D01*
X114153105Y-53576000D01*
X113011895Y-53576000D01*
X112969438Y-53571819D01*
X112934519Y-53561226D01*
X112902337Y-53544024D01*
X112874127Y-53520873D01*
X112850976Y-53492663D01*
X112833774Y-53460481D01*
X112823181Y-53425562D01*
X112819000Y-53383105D01*
X112819000Y-51916895D01*
X112823181Y-51874438D01*
X112833774Y-51839519D01*
X112850976Y-51807337D01*
X112874127Y-51779127D01*
X112902337Y-51755976D01*
X112934519Y-51738774D01*
X112969438Y-51728181D01*
X113011895Y-51724000D01*
X114153105Y-51724000D01*
X114195562Y-51728181D01*
G37*
G36*
X117170562Y-51728181D02*
G01*
X117205481Y-51738774D01*
X117237663Y-51755976D01*
X117265873Y-51779127D01*
X117289024Y-51807337D01*
X117306226Y-51839519D01*
X117316819Y-51874438D01*
X117321000Y-51916895D01*
X117321000Y-53383105D01*
X117316819Y-53425562D01*
X117306226Y-53460481D01*
X117289024Y-53492663D01*
X117265873Y-53520873D01*
X117237663Y-53544024D01*
X117205481Y-53561226D01*
X117170562Y-53571819D01*
X117128105Y-53576000D01*
X115986895Y-53576000D01*
X115944438Y-53571819D01*
X115909519Y-53561226D01*
X115877337Y-53544024D01*
X115849127Y-53520873D01*
X115825976Y-53492663D01*
X115808774Y-53460481D01*
X115798181Y-53425562D01*
X115794000Y-53383105D01*
X115794000Y-51916895D01*
X115798181Y-51874438D01*
X115808774Y-51839519D01*
X115825976Y-51807337D01*
X115849127Y-51779127D01*
X115877337Y-51755976D01*
X115909519Y-51738774D01*
X115944438Y-51728181D01*
X115986895Y-51724000D01*
X117128105Y-51724000D01*
X117170562Y-51728181D01*
G37*
G36*
X101927395Y-51035546D02*
G01*
X102100466Y-51107234D01*
X102100467Y-51107235D01*
X102256227Y-51211310D01*
X102388690Y-51343773D01*
X102388691Y-51343775D01*
X102492766Y-51499534D01*
X102564454Y-51672605D01*
X102601000Y-51856333D01*
X102601000Y-52043667D01*
X102564454Y-52227395D01*
X102492766Y-52400466D01*
X102492765Y-52400467D01*
X102388690Y-52556227D01*
X102256227Y-52688690D01*
X102177818Y-52741081D01*
X102100466Y-52792766D01*
X101927395Y-52864454D01*
X101743667Y-52901000D01*
X101556333Y-52901000D01*
X101372605Y-52864454D01*
X101199534Y-52792766D01*
X101122182Y-52741081D01*
X101043773Y-52688690D01*
X100911310Y-52556227D01*
X100807235Y-52400467D01*
X100807234Y-52400466D01*
X100735546Y-52227395D01*
X100699000Y-52043667D01*
X100699000Y-51856333D01*
X100735546Y-51672605D01*
X100807234Y-51499534D01*
X100911309Y-51343775D01*
X100911310Y-51343773D01*
X101043773Y-51211310D01*
X101199533Y-51107235D01*
X101199534Y-51107234D01*
X101372605Y-51035546D01*
X101556333Y-50999000D01*
X101743667Y-50999000D01*
X101927395Y-51035546D01*
G37*
G36*
X107425562Y-50058181D02*
G01*
X107460481Y-50068774D01*
X107492663Y-50085976D01*
X107520873Y-50109127D01*
X107544024Y-50137337D01*
X107561226Y-50169519D01*
X107571819Y-50204438D01*
X107576000Y-50246895D01*
X107576000Y-51713105D01*
X107571819Y-51755562D01*
X107561226Y-51790481D01*
X107544024Y-51822663D01*
X107520873Y-51850873D01*
X107492663Y-51874024D01*
X107460481Y-51891226D01*
X107425562Y-51901819D01*
X107383105Y-51906000D01*
X106241895Y-51906000D01*
X106199438Y-51901819D01*
X106164519Y-51891226D01*
X106132337Y-51874024D01*
X106104127Y-51850873D01*
X106080976Y-51822663D01*
X106063774Y-51790481D01*
X106053181Y-51755562D01*
X106049000Y-51713105D01*
X106049000Y-50246895D01*
X106053181Y-50204438D01*
X106063774Y-50169519D01*
X106080976Y-50137337D01*
X106104127Y-50109127D01*
X106132337Y-50085976D01*
X106164519Y-50068774D01*
X106199438Y-50058181D01*
X106241895Y-50054000D01*
X107383105Y-50054000D01*
X107425562Y-50058181D01*
G37*
G36*
X110400562Y-50058181D02*
G01*
X110435481Y-50068774D01*
X110467663Y-50085976D01*
X110495873Y-50109127D01*
X110519024Y-50137337D01*
X110536226Y-50169519D01*
X110546819Y-50204438D01*
X110551000Y-50246895D01*
X110551000Y-51713105D01*
X110546819Y-51755562D01*
X110536226Y-51790481D01*
X110519024Y-51822663D01*
X110495873Y-51850873D01*
X110467663Y-51874024D01*
X110435481Y-51891226D01*
X110400562Y-51901819D01*
X110358105Y-51906000D01*
X109216895Y-51906000D01*
X109174438Y-51901819D01*
X109139519Y-51891226D01*
X109107337Y-51874024D01*
X109079127Y-51850873D01*
X109055976Y-51822663D01*
X109038774Y-51790481D01*
X109028181Y-51755562D01*
X109024000Y-51713105D01*
X109024000Y-50246895D01*
X109028181Y-50204438D01*
X109038774Y-50169519D01*
X109055976Y-50137337D01*
X109079127Y-50109127D01*
X109107337Y-50085976D01*
X109139519Y-50068774D01*
X109174438Y-50058181D01*
X109216895Y-50054000D01*
X110358105Y-50054000D01*
X110400562Y-50058181D01*
G37*
G36*
X117150562Y-49218181D02*
G01*
X117185481Y-49228774D01*
X117217663Y-49245976D01*
X117245873Y-49269127D01*
X117269024Y-49297337D01*
X117286226Y-49329519D01*
X117296819Y-49364438D01*
X117301000Y-49406895D01*
X117301000Y-50873105D01*
X117296819Y-50915562D01*
X117286226Y-50950481D01*
X117269024Y-50982663D01*
X117245873Y-51010873D01*
X117217663Y-51034024D01*
X117185481Y-51051226D01*
X117150562Y-51061819D01*
X117108105Y-51066000D01*
X115966895Y-51066000D01*
X115924438Y-51061819D01*
X115889519Y-51051226D01*
X115857337Y-51034024D01*
X115829127Y-51010873D01*
X115805976Y-50982663D01*
X115788774Y-50950481D01*
X115778181Y-50915562D01*
X115774000Y-50873105D01*
X115774000Y-49406895D01*
X115778181Y-49364438D01*
X115788774Y-49329519D01*
X115805976Y-49297337D01*
X115829127Y-49269127D01*
X115857337Y-49245976D01*
X115889519Y-49228774D01*
X115924438Y-49218181D01*
X115966895Y-49214000D01*
X117108105Y-49214000D01*
X117150562Y-49218181D01*
G37*
G36*
X114175562Y-49218181D02*
G01*
X114210481Y-49228774D01*
X114242663Y-49245976D01*
X114270873Y-49269127D01*
X114294024Y-49297337D01*
X114311226Y-49329519D01*
X114321819Y-49364438D01*
X114326000Y-49406895D01*
X114326000Y-50873105D01*
X114321819Y-50915562D01*
X114311226Y-50950481D01*
X114294024Y-50982663D01*
X114270873Y-51010873D01*
X114242663Y-51034024D01*
X114210481Y-51051226D01*
X114175562Y-51061819D01*
X114133105Y-51066000D01*
X112991895Y-51066000D01*
X112949438Y-51061819D01*
X112914519Y-51051226D01*
X112882337Y-51034024D01*
X112854127Y-51010873D01*
X112830976Y-50982663D01*
X112813774Y-50950481D01*
X112803181Y-50915562D01*
X112799000Y-50873105D01*
X112799000Y-49406895D01*
X112803181Y-49364438D01*
X112813774Y-49329519D01*
X112830976Y-49297337D01*
X112854127Y-49269127D01*
X112882337Y-49245976D01*
X112914519Y-49228774D01*
X112949438Y-49218181D01*
X112991895Y-49214000D01*
X114133105Y-49214000D01*
X114175562Y-49218181D01*
G37*
G36*
X110450562Y-47408181D02*
G01*
X110485481Y-47418774D01*
X110517663Y-47435976D01*
X110545873Y-47459127D01*
X110569024Y-47487337D01*
X110586226Y-47519519D01*
X110596819Y-47554438D01*
X110601000Y-47596895D01*
X110601000Y-49063105D01*
X110596819Y-49105562D01*
X110586226Y-49140481D01*
X110569024Y-49172663D01*
X110545873Y-49200873D01*
X110517663Y-49224024D01*
X110485481Y-49241226D01*
X110450562Y-49251819D01*
X110408105Y-49256000D01*
X109266895Y-49256000D01*
X109224438Y-49251819D01*
X109189519Y-49241226D01*
X109157337Y-49224024D01*
X109129127Y-49200873D01*
X109105976Y-49172663D01*
X109088774Y-49140481D01*
X109078181Y-49105562D01*
X109074000Y-49063105D01*
X109074000Y-47596895D01*
X109078181Y-47554438D01*
X109088774Y-47519519D01*
X109105976Y-47487337D01*
X109129127Y-47459127D01*
X109157337Y-47435976D01*
X109189519Y-47418774D01*
X109224438Y-47408181D01*
X109266895Y-47404000D01*
X110408105Y-47404000D01*
X110450562Y-47408181D01*
G37*
G36*
X107475562Y-47408181D02*
G01*
X107510481Y-47418774D01*
X107542663Y-47435976D01*
X107570873Y-47459127D01*
X107594024Y-47487337D01*
X107611226Y-47519519D01*
X107621819Y-47554438D01*
X107626000Y-47596895D01*
X107626000Y-49063105D01*
X107621819Y-49105562D01*
X107611226Y-49140481D01*
X107594024Y-49172663D01*
X107570873Y-49200873D01*
X107542663Y-49224024D01*
X107510481Y-49241226D01*
X107475562Y-49251819D01*
X107433105Y-49256000D01*
X106291895Y-49256000D01*
X106249438Y-49251819D01*
X106214519Y-49241226D01*
X106182337Y-49224024D01*
X106154127Y-49200873D01*
X106130976Y-49172663D01*
X106113774Y-49140481D01*
X106103181Y-49105562D01*
X106099000Y-49063105D01*
X106099000Y-47596895D01*
X106103181Y-47554438D01*
X106113774Y-47519519D01*
X106130976Y-47487337D01*
X106154127Y-47459127D01*
X106182337Y-47435976D01*
X106214519Y-47418774D01*
X106249438Y-47408181D01*
X106291895Y-47404000D01*
X107433105Y-47404000D01*
X107475562Y-47408181D01*
G37*
G36*
X102561000Y-48691000D02*
G01*
X100659000Y-48691000D01*
X100659000Y-46789000D01*
X102561000Y-46789000D01*
X102561000Y-48691000D01*
G37*
G36*
X117130562Y-46618181D02*
G01*
X117165481Y-46628774D01*
X117197663Y-46645976D01*
X117225873Y-46669127D01*
X117249024Y-46697337D01*
X117266226Y-46729519D01*
X117276819Y-46764438D01*
X117281000Y-46806895D01*
X117281000Y-48273105D01*
X117276819Y-48315562D01*
X117266226Y-48350481D01*
X117249024Y-48382663D01*
X117225873Y-48410873D01*
X117197663Y-48434024D01*
X117165481Y-48451226D01*
X117130562Y-48461819D01*
X117088105Y-48466000D01*
X115946895Y-48466000D01*
X115904438Y-48461819D01*
X115869519Y-48451226D01*
X115837337Y-48434024D01*
X115809127Y-48410873D01*
X115785976Y-48382663D01*
X115768774Y-48350481D01*
X115758181Y-48315562D01*
X115754000Y-48273105D01*
X115754000Y-46806895D01*
X115758181Y-46764438D01*
X115768774Y-46729519D01*
X115785976Y-46697337D01*
X115809127Y-46669127D01*
X115837337Y-46645976D01*
X115869519Y-46628774D01*
X115904438Y-46618181D01*
X115946895Y-46614000D01*
X117088105Y-46614000D01*
X117130562Y-46618181D01*
G37*
G36*
X114155562Y-46618181D02*
G01*
X114190481Y-46628774D01*
X114222663Y-46645976D01*
X114250873Y-46669127D01*
X114274024Y-46697337D01*
X114291226Y-46729519D01*
X114301819Y-46764438D01*
X114306000Y-46806895D01*
X114306000Y-48273105D01*
X114301819Y-48315562D01*
X114291226Y-48350481D01*
X114274024Y-48382663D01*
X114250873Y-48410873D01*
X114222663Y-48434024D01*
X114190481Y-48451226D01*
X114155562Y-48461819D01*
X114113105Y-48466000D01*
X112971895Y-48466000D01*
X112929438Y-48461819D01*
X112894519Y-48451226D01*
X112862337Y-48434024D01*
X112834127Y-48410873D01*
X112810976Y-48382663D01*
X112793774Y-48350481D01*
X112783181Y-48315562D01*
X112779000Y-48273105D01*
X112779000Y-46806895D01*
X112783181Y-46764438D01*
X112793774Y-46729519D01*
X112810976Y-46697337D01*
X112834127Y-46669127D01*
X112862337Y-46645976D01*
X112894519Y-46628774D01*
X112929438Y-46618181D01*
X112971895Y-46614000D01*
X114113105Y-46614000D01*
X114155562Y-46618181D01*
G37*
G36*
X101887395Y-44285546D02*
G01*
X102060466Y-44357234D01*
X102060467Y-44357235D01*
X102216227Y-44461310D01*
X102348690Y-44593773D01*
X102348691Y-44593775D01*
X102452766Y-44749534D01*
X102524454Y-44922605D01*
X102561000Y-45106333D01*
X102561000Y-45293667D01*
X102524454Y-45477395D01*
X102452766Y-45650466D01*
X102452765Y-45650467D01*
X102348690Y-45806227D01*
X102216227Y-45938690D01*
X102137818Y-45991081D01*
X102060466Y-46042766D01*
X101887395Y-46114454D01*
X101703667Y-46151000D01*
X101516333Y-46151000D01*
X101332605Y-46114454D01*
X101159534Y-46042766D01*
X101082182Y-45991081D01*
X101003773Y-45938690D01*
X100871310Y-45806227D01*
X100767235Y-45650467D01*
X100767234Y-45650466D01*
X100695546Y-45477395D01*
X100659000Y-45293667D01*
X100659000Y-45106333D01*
X100695546Y-44922605D01*
X100767234Y-44749534D01*
X100871309Y-44593775D01*
X100871310Y-44593773D01*
X101003773Y-44461310D01*
X101159533Y-44357235D01*
X101159534Y-44357234D01*
X101332605Y-44285546D01*
X101516333Y-44249000D01*
X101703667Y-44249000D01*
X101887395Y-44285546D01*
G37*
G36*
X111823512Y-43393927D02*
G01*
X111972812Y-43423624D01*
X112136784Y-43491544D01*
X112284354Y-43590147D01*
X112409853Y-43715646D01*
X112508456Y-43863216D01*
X112576376Y-44027188D01*
X112611000Y-44201259D01*
X112611000Y-44378741D01*
X112576376Y-44552812D01*
X112508456Y-44716784D01*
X112409853Y-44864354D01*
X112284354Y-44989853D01*
X112136784Y-45088456D01*
X111972812Y-45156376D01*
X111823512Y-45186073D01*
X111798742Y-45191000D01*
X111621258Y-45191000D01*
X111596488Y-45186073D01*
X111447188Y-45156376D01*
X111283216Y-45088456D01*
X111135646Y-44989853D01*
X111010147Y-44864354D01*
X110911544Y-44716784D01*
X110843624Y-44552812D01*
X110809000Y-44378741D01*
X110809000Y-44201259D01*
X110843624Y-44027188D01*
X110911544Y-43863216D01*
X111010147Y-43715646D01*
X111135646Y-43590147D01*
X111283216Y-43491544D01*
X111447188Y-43423624D01*
X111596488Y-43393927D01*
X111621258Y-43389000D01*
X111798742Y-43389000D01*
X111823512Y-43393927D01*
G37*
G36*
X115783512Y-43393927D02*
G01*
X115932812Y-43423624D01*
X116096784Y-43491544D01*
X116244354Y-43590147D01*
X116369853Y-43715646D01*
X116468456Y-43863216D01*
X116536376Y-44027188D01*
X116571000Y-44201259D01*
X116571000Y-44378741D01*
X116536376Y-44552812D01*
X116468456Y-44716784D01*
X116369853Y-44864354D01*
X116244354Y-44989853D01*
X116096784Y-45088456D01*
X115932812Y-45156376D01*
X115783512Y-45186073D01*
X115758742Y-45191000D01*
X115581258Y-45191000D01*
X115556488Y-45186073D01*
X115407188Y-45156376D01*
X115243216Y-45088456D01*
X115095646Y-44989853D01*
X114970147Y-44864354D01*
X114871544Y-44716784D01*
X114803624Y-44552812D01*
X114769000Y-44378741D01*
X114769000Y-44201259D01*
X114803624Y-44027188D01*
X114871544Y-43863216D01*
X114970147Y-43715646D01*
X115095646Y-43590147D01*
X115243216Y-43491544D01*
X115407188Y-43423624D01*
X115556488Y-43393927D01*
X115581258Y-43389000D01*
X115758742Y-43389000D01*
X115783512Y-43393927D01*
G37*
G36*
X108721000Y-45091000D02*
G01*
X106919000Y-45091000D01*
X106919000Y-43289000D01*
X108721000Y-43289000D01*
X108721000Y-45091000D01*
G37*
G36*
X115771531Y-40851544D02*
G01*
X115932812Y-40883624D01*
X116096784Y-40951544D01*
X116244354Y-41050147D01*
X116369853Y-41175646D01*
X116468456Y-41323216D01*
X116536376Y-41487188D01*
X116571000Y-41661259D01*
X116571000Y-41838741D01*
X116536376Y-42012812D01*
X116468456Y-42176784D01*
X116369853Y-42324354D01*
X116244354Y-42449853D01*
X116096784Y-42548456D01*
X115932812Y-42616376D01*
X115783512Y-42646073D01*
X115758742Y-42651000D01*
X115581258Y-42651000D01*
X115556488Y-42646073D01*
X115407188Y-42616376D01*
X115243216Y-42548456D01*
X115095646Y-42449853D01*
X114970147Y-42324354D01*
X114871544Y-42176784D01*
X114803624Y-42012812D01*
X114769000Y-41838741D01*
X114769000Y-41661259D01*
X114803624Y-41487188D01*
X114871544Y-41323216D01*
X114970147Y-41175646D01*
X115095646Y-41050147D01*
X115243216Y-40951544D01*
X115407188Y-40883624D01*
X115568469Y-40851544D01*
X115581258Y-40849000D01*
X115758742Y-40849000D01*
X115771531Y-40851544D01*
G37*
G36*
X111811531Y-40851544D02*
G01*
X111972812Y-40883624D01*
X112136784Y-40951544D01*
X112284354Y-41050147D01*
X112409853Y-41175646D01*
X112508456Y-41323216D01*
X112576376Y-41487188D01*
X112611000Y-41661259D01*
X112611000Y-41838741D01*
X112576376Y-42012812D01*
X112508456Y-42176784D01*
X112409853Y-42324354D01*
X112284354Y-42449853D01*
X112136784Y-42548456D01*
X111972812Y-42616376D01*
X111823512Y-42646073D01*
X111798742Y-42651000D01*
X111621258Y-42651000D01*
X111596488Y-42646073D01*
X111447188Y-42616376D01*
X111283216Y-42548456D01*
X111135646Y-42449853D01*
X111010147Y-42324354D01*
X110911544Y-42176784D01*
X110843624Y-42012812D01*
X110809000Y-41838741D01*
X110809000Y-41661259D01*
X110843624Y-41487188D01*
X110911544Y-41323216D01*
X111010147Y-41175646D01*
X111135646Y-41050147D01*
X111283216Y-40951544D01*
X111447188Y-40883624D01*
X111608469Y-40851544D01*
X111621258Y-40849000D01*
X111798742Y-40849000D01*
X111811531Y-40851544D01*
G37*
G36*
X107933512Y-40753927D02*
G01*
X108082812Y-40783624D01*
X108246784Y-40851544D01*
X108394354Y-40950147D01*
X108519853Y-41075646D01*
X108618456Y-41223216D01*
X108686376Y-41387188D01*
X108721000Y-41561259D01*
X108721000Y-41738741D01*
X108686376Y-41912812D01*
X108618456Y-42076784D01*
X108519853Y-42224354D01*
X108394354Y-42349853D01*
X108246784Y-42448456D01*
X108082812Y-42516376D01*
X107933512Y-42546073D01*
X107908742Y-42551000D01*
X107731258Y-42551000D01*
X107706488Y-42546073D01*
X107557188Y-42516376D01*
X107393216Y-42448456D01*
X107245646Y-42349853D01*
X107120147Y-42224354D01*
X107021544Y-42076784D01*
X106953624Y-41912812D01*
X106919000Y-41738741D01*
X106919000Y-41561259D01*
X106953624Y-41387188D01*
X107021544Y-41223216D01*
X107120147Y-41075646D01*
X107245646Y-40950147D01*
X107393216Y-40851544D01*
X107557188Y-40783624D01*
X107706488Y-40753927D01*
X107731258Y-40749000D01*
X107908742Y-40749000D01*
X107933512Y-40753927D01*
G37*
G36*
X102561000Y-41951000D02*
G01*
X100659000Y-41951000D01*
X100659000Y-40049000D01*
X102561000Y-40049000D01*
X102561000Y-41951000D01*
G37*
G36*
X116571000Y-40111000D02*
G01*
X114769000Y-40111000D01*
X114769000Y-38309000D01*
X116571000Y-38309000D01*
X116571000Y-40111000D01*
G37*
G36*
X112611000Y-40111000D02*
G01*
X110809000Y-40111000D01*
X110809000Y-38309000D01*
X112611000Y-38309000D01*
X112611000Y-40111000D01*
G37*
G36*
X107933512Y-38213927D02*
G01*
X108082812Y-38243624D01*
X108246784Y-38311544D01*
X108394354Y-38410147D01*
X108519853Y-38535646D01*
X108618456Y-38683216D01*
X108686376Y-38847188D01*
X108721000Y-39021259D01*
X108721000Y-39198741D01*
X108686376Y-39372812D01*
X108618456Y-39536784D01*
X108519853Y-39684354D01*
X108394354Y-39809853D01*
X108246784Y-39908456D01*
X108082812Y-39976376D01*
X107933512Y-40006073D01*
X107908742Y-40011000D01*
X107731258Y-40011000D01*
X107706488Y-40006073D01*
X107557188Y-39976376D01*
X107393216Y-39908456D01*
X107245646Y-39809853D01*
X107120147Y-39684354D01*
X107021544Y-39536784D01*
X106953624Y-39372812D01*
X106919000Y-39198741D01*
X106919000Y-39021259D01*
X106953624Y-38847188D01*
X107021544Y-38683216D01*
X107120147Y-38535646D01*
X107245646Y-38410147D01*
X107393216Y-38311544D01*
X107557188Y-38243624D01*
X107706488Y-38213927D01*
X107731258Y-38209000D01*
X107908742Y-38209000D01*
X107933512Y-38213927D01*
G37*
G36*
X152796627Y-36897037D02*
G01*
X152966466Y-36948557D01*
X153122991Y-37032222D01*
X153158729Y-37061552D01*
X153260186Y-37144814D01*
X153343448Y-37246271D01*
X153372778Y-37282009D01*
X153456443Y-37438534D01*
X153507963Y-37608373D01*
X153521000Y-37740742D01*
X153521000Y-39129258D01*
X153507963Y-39261627D01*
X153456443Y-39431466D01*
X153372778Y-39587991D01*
X153343448Y-39623729D01*
X153260186Y-39725186D01*
X153122989Y-39837779D01*
X152990762Y-39908456D01*
X152966465Y-39921443D01*
X152796626Y-39972963D01*
X152620000Y-39990359D01*
X152443373Y-39972963D01*
X152273534Y-39921443D01*
X152117009Y-39837778D01*
X152081271Y-39808448D01*
X151979814Y-39725186D01*
X151867221Y-39587989D01*
X151783558Y-39431467D01*
X151744517Y-39302766D01*
X151732037Y-39261626D01*
X151719000Y-39129257D01*
X151719001Y-37740742D01*
X151732038Y-37608373D01*
X151783558Y-37438534D01*
X151867223Y-37282009D01*
X151896553Y-37246271D01*
X151979815Y-37144814D01*
X152081272Y-37061552D01*
X152117010Y-37032222D01*
X152273535Y-36948557D01*
X152443374Y-36897037D01*
X152620000Y-36879641D01*
X152796627Y-36897037D01*
G37*
G36*
X122316627Y-36897037D02*
G01*
X122486466Y-36948557D01*
X122642991Y-37032222D01*
X122678729Y-37061552D01*
X122780186Y-37144814D01*
X122863448Y-37246271D01*
X122892778Y-37282009D01*
X122976443Y-37438534D01*
X123027963Y-37608373D01*
X123041000Y-37740742D01*
X123041000Y-39129258D01*
X123027963Y-39261627D01*
X122976443Y-39431466D01*
X122892778Y-39587991D01*
X122863448Y-39623729D01*
X122780186Y-39725186D01*
X122642989Y-39837779D01*
X122510762Y-39908456D01*
X122486465Y-39921443D01*
X122316626Y-39972963D01*
X122140000Y-39990359D01*
X121963373Y-39972963D01*
X121793534Y-39921443D01*
X121637009Y-39837778D01*
X121601271Y-39808448D01*
X121499814Y-39725186D01*
X121387221Y-39587989D01*
X121303558Y-39431467D01*
X121264517Y-39302766D01*
X121252037Y-39261626D01*
X121239000Y-39129257D01*
X121239001Y-37740742D01*
X121252038Y-37608373D01*
X121303558Y-37438534D01*
X121387223Y-37282009D01*
X121416553Y-37246271D01*
X121499815Y-37144814D01*
X121601272Y-37061552D01*
X121637010Y-37032222D01*
X121793535Y-36948557D01*
X121963374Y-36897037D01*
X122140000Y-36879641D01*
X122316627Y-36897037D01*
G37*
G36*
X157876627Y-36897037D02*
G01*
X158046466Y-36948557D01*
X158202991Y-37032222D01*
X158238729Y-37061552D01*
X158340186Y-37144814D01*
X158423448Y-37246271D01*
X158452778Y-37282009D01*
X158536443Y-37438534D01*
X158587963Y-37608373D01*
X158601000Y-37740742D01*
X158601000Y-39129258D01*
X158587963Y-39261627D01*
X158536443Y-39431466D01*
X158452778Y-39587991D01*
X158423448Y-39623729D01*
X158340186Y-39725186D01*
X158202989Y-39837779D01*
X158070762Y-39908456D01*
X158046465Y-39921443D01*
X157876626Y-39972963D01*
X157700000Y-39990359D01*
X157523373Y-39972963D01*
X157353534Y-39921443D01*
X157197009Y-39837778D01*
X157161271Y-39808448D01*
X157059814Y-39725186D01*
X156947221Y-39587989D01*
X156863558Y-39431467D01*
X156824517Y-39302766D01*
X156812037Y-39261626D01*
X156799000Y-39129257D01*
X156799001Y-37740742D01*
X156812038Y-37608373D01*
X156863558Y-37438534D01*
X156947223Y-37282009D01*
X156976553Y-37246271D01*
X157059815Y-37144814D01*
X157161272Y-37061552D01*
X157197010Y-37032222D01*
X157353535Y-36948557D01*
X157523374Y-36897037D01*
X157700000Y-36879641D01*
X157876627Y-36897037D01*
G37*
G36*
X150256627Y-36897037D02*
G01*
X150426466Y-36948557D01*
X150582991Y-37032222D01*
X150618729Y-37061552D01*
X150720186Y-37144814D01*
X150803448Y-37246271D01*
X150832778Y-37282009D01*
X150916443Y-37438534D01*
X150967963Y-37608373D01*
X150981000Y-37740742D01*
X150981000Y-39129258D01*
X150967963Y-39261627D01*
X150916443Y-39431466D01*
X150832778Y-39587991D01*
X150803448Y-39623729D01*
X150720186Y-39725186D01*
X150582989Y-39837779D01*
X150450762Y-39908456D01*
X150426465Y-39921443D01*
X150256626Y-39972963D01*
X150080000Y-39990359D01*
X149903373Y-39972963D01*
X149733534Y-39921443D01*
X149577009Y-39837778D01*
X149541271Y-39808448D01*
X149439814Y-39725186D01*
X149327221Y-39587989D01*
X149243558Y-39431467D01*
X149204517Y-39302766D01*
X149192037Y-39261626D01*
X149179000Y-39129257D01*
X149179001Y-37740742D01*
X149192038Y-37608373D01*
X149243558Y-37438534D01*
X149327223Y-37282009D01*
X149356553Y-37246271D01*
X149439815Y-37144814D01*
X149541272Y-37061552D01*
X149577010Y-37032222D01*
X149733535Y-36948557D01*
X149903374Y-36897037D01*
X150080000Y-36879641D01*
X150256627Y-36897037D01*
G37*
G36*
X155336627Y-36897037D02*
G01*
X155506466Y-36948557D01*
X155662991Y-37032222D01*
X155698729Y-37061552D01*
X155800186Y-37144814D01*
X155883448Y-37246271D01*
X155912778Y-37282009D01*
X155996443Y-37438534D01*
X156047963Y-37608373D01*
X156061000Y-37740742D01*
X156061000Y-39129258D01*
X156047963Y-39261627D01*
X155996443Y-39431466D01*
X155912778Y-39587991D01*
X155883448Y-39623729D01*
X155800186Y-39725186D01*
X155662989Y-39837779D01*
X155530762Y-39908456D01*
X155506465Y-39921443D01*
X155336626Y-39972963D01*
X155160000Y-39990359D01*
X154983373Y-39972963D01*
X154813534Y-39921443D01*
X154657009Y-39837778D01*
X154621271Y-39808448D01*
X154519814Y-39725186D01*
X154407221Y-39587989D01*
X154323558Y-39431467D01*
X154284517Y-39302766D01*
X154272037Y-39261626D01*
X154259000Y-39129257D01*
X154259001Y-37740742D01*
X154272038Y-37608373D01*
X154323558Y-37438534D01*
X154407223Y-37282009D01*
X154436553Y-37246271D01*
X154519815Y-37144814D01*
X154621272Y-37061552D01*
X154657010Y-37032222D01*
X154813535Y-36948557D01*
X154983374Y-36897037D01*
X155160000Y-36879641D01*
X155336627Y-36897037D01*
G37*
G36*
X140096627Y-36897037D02*
G01*
X140266466Y-36948557D01*
X140422991Y-37032222D01*
X140458729Y-37061552D01*
X140560186Y-37144814D01*
X140643448Y-37246271D01*
X140672778Y-37282009D01*
X140756443Y-37438534D01*
X140807963Y-37608373D01*
X140821000Y-37740742D01*
X140821000Y-39129258D01*
X140807963Y-39261627D01*
X140756443Y-39431466D01*
X140672778Y-39587991D01*
X140643448Y-39623729D01*
X140560186Y-39725186D01*
X140422989Y-39837779D01*
X140290762Y-39908456D01*
X140266465Y-39921443D01*
X140096626Y-39972963D01*
X139920000Y-39990359D01*
X139743373Y-39972963D01*
X139573534Y-39921443D01*
X139417009Y-39837778D01*
X139381271Y-39808448D01*
X139279814Y-39725186D01*
X139167221Y-39587989D01*
X139083558Y-39431467D01*
X139044517Y-39302766D01*
X139032037Y-39261626D01*
X139019000Y-39129257D01*
X139019001Y-37740742D01*
X139032038Y-37608373D01*
X139083558Y-37438534D01*
X139167223Y-37282009D01*
X139196553Y-37246271D01*
X139279815Y-37144814D01*
X139381272Y-37061552D01*
X139417010Y-37032222D01*
X139573535Y-36948557D01*
X139743374Y-36897037D01*
X139920000Y-36879641D01*
X140096627Y-36897037D01*
G37*
G36*
X145176627Y-36897037D02*
G01*
X145346466Y-36948557D01*
X145502991Y-37032222D01*
X145538729Y-37061552D01*
X145640186Y-37144814D01*
X145723448Y-37246271D01*
X145752778Y-37282009D01*
X145836443Y-37438534D01*
X145887963Y-37608373D01*
X145901000Y-37740742D01*
X145901000Y-39129258D01*
X145887963Y-39261627D01*
X145836443Y-39431466D01*
X145752778Y-39587991D01*
X145723448Y-39623729D01*
X145640186Y-39725186D01*
X145502989Y-39837779D01*
X145370762Y-39908456D01*
X145346465Y-39921443D01*
X145176626Y-39972963D01*
X145000000Y-39990359D01*
X144823373Y-39972963D01*
X144653534Y-39921443D01*
X144497009Y-39837778D01*
X144461271Y-39808448D01*
X144359814Y-39725186D01*
X144247221Y-39587989D01*
X144163558Y-39431467D01*
X144124517Y-39302766D01*
X144112037Y-39261626D01*
X144099000Y-39129257D01*
X144099001Y-37740742D01*
X144112038Y-37608373D01*
X144163558Y-37438534D01*
X144247223Y-37282009D01*
X144276553Y-37246271D01*
X144359815Y-37144814D01*
X144461272Y-37061552D01*
X144497010Y-37032222D01*
X144653535Y-36948557D01*
X144823374Y-36897037D01*
X145000000Y-36879641D01*
X145176627Y-36897037D01*
G37*
G36*
X147716627Y-36897037D02*
G01*
X147886466Y-36948557D01*
X148042991Y-37032222D01*
X148078729Y-37061552D01*
X148180186Y-37144814D01*
X148263448Y-37246271D01*
X148292778Y-37282009D01*
X148376443Y-37438534D01*
X148427963Y-37608373D01*
X148441000Y-37740742D01*
X148441000Y-39129258D01*
X148427963Y-39261627D01*
X148376443Y-39431466D01*
X148292778Y-39587991D01*
X148263448Y-39623729D01*
X148180186Y-39725186D01*
X148042989Y-39837779D01*
X147910762Y-39908456D01*
X147886465Y-39921443D01*
X147716626Y-39972963D01*
X147540000Y-39990359D01*
X147363373Y-39972963D01*
X147193534Y-39921443D01*
X147037009Y-39837778D01*
X147001271Y-39808448D01*
X146899814Y-39725186D01*
X146787221Y-39587989D01*
X146703558Y-39431467D01*
X146664517Y-39302766D01*
X146652037Y-39261626D01*
X146639000Y-39129257D01*
X146639001Y-37740742D01*
X146652038Y-37608373D01*
X146703558Y-37438534D01*
X146787223Y-37282009D01*
X146816553Y-37246271D01*
X146899815Y-37144814D01*
X147001272Y-37061552D01*
X147037010Y-37032222D01*
X147193535Y-36948557D01*
X147363374Y-36897037D01*
X147540000Y-36879641D01*
X147716627Y-36897037D01*
G37*
G36*
X137556627Y-36897037D02*
G01*
X137726466Y-36948557D01*
X137882991Y-37032222D01*
X137918729Y-37061552D01*
X138020186Y-37144814D01*
X138103448Y-37246271D01*
X138132778Y-37282009D01*
X138216443Y-37438534D01*
X138267963Y-37608373D01*
X138281000Y-37740742D01*
X138281000Y-39129258D01*
X138267963Y-39261627D01*
X138216443Y-39431466D01*
X138132778Y-39587991D01*
X138103448Y-39623729D01*
X138020186Y-39725186D01*
X137882989Y-39837779D01*
X137750762Y-39908456D01*
X137726465Y-39921443D01*
X137556626Y-39972963D01*
X137380000Y-39990359D01*
X137203373Y-39972963D01*
X137033534Y-39921443D01*
X136877009Y-39837778D01*
X136841271Y-39808448D01*
X136739814Y-39725186D01*
X136627221Y-39587989D01*
X136543558Y-39431467D01*
X136504517Y-39302766D01*
X136492037Y-39261626D01*
X136479000Y-39129257D01*
X136479001Y-37740742D01*
X136492038Y-37608373D01*
X136543558Y-37438534D01*
X136627223Y-37282009D01*
X136656553Y-37246271D01*
X136739815Y-37144814D01*
X136841272Y-37061552D01*
X136877010Y-37032222D01*
X137033535Y-36948557D01*
X137203374Y-36897037D01*
X137380000Y-36879641D01*
X137556627Y-36897037D01*
G37*
G36*
X135016627Y-36897037D02*
G01*
X135186466Y-36948557D01*
X135342991Y-37032222D01*
X135378729Y-37061552D01*
X135480186Y-37144814D01*
X135563448Y-37246271D01*
X135592778Y-37282009D01*
X135676443Y-37438534D01*
X135727963Y-37608373D01*
X135741000Y-37740742D01*
X135741000Y-39129258D01*
X135727963Y-39261627D01*
X135676443Y-39431466D01*
X135592778Y-39587991D01*
X135563448Y-39623729D01*
X135480186Y-39725186D01*
X135342989Y-39837779D01*
X135210762Y-39908456D01*
X135186465Y-39921443D01*
X135016626Y-39972963D01*
X134840000Y-39990359D01*
X134663373Y-39972963D01*
X134493534Y-39921443D01*
X134337009Y-39837778D01*
X134301271Y-39808448D01*
X134199814Y-39725186D01*
X134087221Y-39587989D01*
X134003558Y-39431467D01*
X133964517Y-39302766D01*
X133952037Y-39261626D01*
X133939000Y-39129257D01*
X133939001Y-37740742D01*
X133952038Y-37608373D01*
X134003558Y-37438534D01*
X134087223Y-37282009D01*
X134116553Y-37246271D01*
X134199815Y-37144814D01*
X134301272Y-37061552D01*
X134337010Y-37032222D01*
X134493535Y-36948557D01*
X134663374Y-36897037D01*
X134840000Y-36879641D01*
X135016627Y-36897037D01*
G37*
G36*
X132476627Y-36897037D02*
G01*
X132646466Y-36948557D01*
X132802991Y-37032222D01*
X132838729Y-37061552D01*
X132940186Y-37144814D01*
X133023448Y-37246271D01*
X133052778Y-37282009D01*
X133136443Y-37438534D01*
X133187963Y-37608373D01*
X133201000Y-37740742D01*
X133201000Y-39129258D01*
X133187963Y-39261627D01*
X133136443Y-39431466D01*
X133052778Y-39587991D01*
X133023448Y-39623729D01*
X132940186Y-39725186D01*
X132802989Y-39837779D01*
X132670762Y-39908456D01*
X132646465Y-39921443D01*
X132476626Y-39972963D01*
X132300000Y-39990359D01*
X132123373Y-39972963D01*
X131953534Y-39921443D01*
X131797009Y-39837778D01*
X131761271Y-39808448D01*
X131659814Y-39725186D01*
X131547221Y-39587989D01*
X131463558Y-39431467D01*
X131424517Y-39302766D01*
X131412037Y-39261626D01*
X131399000Y-39129257D01*
X131399001Y-37740742D01*
X131412038Y-37608373D01*
X131463558Y-37438534D01*
X131547223Y-37282009D01*
X131576553Y-37246271D01*
X131659815Y-37144814D01*
X131761272Y-37061552D01*
X131797010Y-37032222D01*
X131953535Y-36948557D01*
X132123374Y-36897037D01*
X132300000Y-36879641D01*
X132476627Y-36897037D01*
G37*
G36*
X129936627Y-36897037D02*
G01*
X130106466Y-36948557D01*
X130262991Y-37032222D01*
X130298729Y-37061552D01*
X130400186Y-37144814D01*
X130483448Y-37246271D01*
X130512778Y-37282009D01*
X130596443Y-37438534D01*
X130647963Y-37608373D01*
X130661000Y-37740742D01*
X130661000Y-39129258D01*
X130647963Y-39261627D01*
X130596443Y-39431466D01*
X130512778Y-39587991D01*
X130483448Y-39623729D01*
X130400186Y-39725186D01*
X130262989Y-39837779D01*
X130130762Y-39908456D01*
X130106465Y-39921443D01*
X129936626Y-39972963D01*
X129760000Y-39990359D01*
X129583373Y-39972963D01*
X129413534Y-39921443D01*
X129257009Y-39837778D01*
X129221271Y-39808448D01*
X129119814Y-39725186D01*
X129007221Y-39587989D01*
X128923558Y-39431467D01*
X128884517Y-39302766D01*
X128872037Y-39261626D01*
X128859000Y-39129257D01*
X128859001Y-37740742D01*
X128872038Y-37608373D01*
X128923558Y-37438534D01*
X129007223Y-37282009D01*
X129036553Y-37246271D01*
X129119815Y-37144814D01*
X129221272Y-37061552D01*
X129257010Y-37032222D01*
X129413535Y-36948557D01*
X129583374Y-36897037D01*
X129760000Y-36879641D01*
X129936627Y-36897037D01*
G37*
G36*
X127396627Y-36897037D02*
G01*
X127566466Y-36948557D01*
X127722991Y-37032222D01*
X127758729Y-37061552D01*
X127860186Y-37144814D01*
X127943448Y-37246271D01*
X127972778Y-37282009D01*
X128056443Y-37438534D01*
X128107963Y-37608373D01*
X128121000Y-37740742D01*
X128121000Y-39129258D01*
X128107963Y-39261627D01*
X128056443Y-39431466D01*
X127972778Y-39587991D01*
X127943448Y-39623729D01*
X127860186Y-39725186D01*
X127722989Y-39837779D01*
X127590762Y-39908456D01*
X127566465Y-39921443D01*
X127396626Y-39972963D01*
X127220000Y-39990359D01*
X127043373Y-39972963D01*
X126873534Y-39921443D01*
X126717009Y-39837778D01*
X126681271Y-39808448D01*
X126579814Y-39725186D01*
X126467221Y-39587989D01*
X126383558Y-39431467D01*
X126344517Y-39302766D01*
X126332037Y-39261626D01*
X126319000Y-39129257D01*
X126319001Y-37740742D01*
X126332038Y-37608373D01*
X126383558Y-37438534D01*
X126467223Y-37282009D01*
X126496553Y-37246271D01*
X126579815Y-37144814D01*
X126681272Y-37061552D01*
X126717010Y-37032222D01*
X126873535Y-36948557D01*
X127043374Y-36897037D01*
X127220000Y-36879641D01*
X127396627Y-36897037D01*
G37*
G36*
X124856627Y-36897037D02*
G01*
X125026466Y-36948557D01*
X125182991Y-37032222D01*
X125218729Y-37061552D01*
X125320186Y-37144814D01*
X125403448Y-37246271D01*
X125432778Y-37282009D01*
X125516443Y-37438534D01*
X125567963Y-37608373D01*
X125581000Y-37740742D01*
X125581000Y-39129258D01*
X125567963Y-39261627D01*
X125516443Y-39431466D01*
X125432778Y-39587991D01*
X125403448Y-39623729D01*
X125320186Y-39725186D01*
X125182989Y-39837779D01*
X125050762Y-39908456D01*
X125026465Y-39921443D01*
X124856626Y-39972963D01*
X124680000Y-39990359D01*
X124503373Y-39972963D01*
X124333534Y-39921443D01*
X124177009Y-39837778D01*
X124141271Y-39808448D01*
X124039814Y-39725186D01*
X123927221Y-39587989D01*
X123843558Y-39431467D01*
X123804517Y-39302766D01*
X123792037Y-39261626D01*
X123779000Y-39129257D01*
X123779001Y-37740742D01*
X123792038Y-37608373D01*
X123843558Y-37438534D01*
X123927223Y-37282009D01*
X123956553Y-37246271D01*
X124039815Y-37144814D01*
X124141272Y-37061552D01*
X124177010Y-37032222D01*
X124333535Y-36948557D01*
X124503374Y-36897037D01*
X124680000Y-36879641D01*
X124856627Y-36897037D01*
G37*
G36*
X142636627Y-36897037D02*
G01*
X142806466Y-36948557D01*
X142962991Y-37032222D01*
X142998729Y-37061552D01*
X143100186Y-37144814D01*
X143183448Y-37246271D01*
X143212778Y-37282009D01*
X143296443Y-37438534D01*
X143347963Y-37608373D01*
X143361000Y-37740742D01*
X143361000Y-39129258D01*
X143347963Y-39261627D01*
X143296443Y-39431466D01*
X143212778Y-39587991D01*
X143183448Y-39623729D01*
X143100186Y-39725186D01*
X142962989Y-39837779D01*
X142830762Y-39908456D01*
X142806465Y-39921443D01*
X142636626Y-39972963D01*
X142460000Y-39990359D01*
X142283373Y-39972963D01*
X142113534Y-39921443D01*
X141957009Y-39837778D01*
X141921271Y-39808448D01*
X141819814Y-39725186D01*
X141707221Y-39587989D01*
X141623558Y-39431467D01*
X141584517Y-39302766D01*
X141572037Y-39261626D01*
X141559000Y-39129257D01*
X141559001Y-37740742D01*
X141572038Y-37608373D01*
X141623558Y-37438534D01*
X141707223Y-37282009D01*
X141736553Y-37246271D01*
X141819815Y-37144814D01*
X141921272Y-37061552D01*
X141957010Y-37032222D01*
X142113535Y-36948557D01*
X142283374Y-36897037D01*
X142460000Y-36879641D01*
X142636627Y-36897037D01*
G37*
G36*
X101887395Y-37545546D02*
G01*
X102060466Y-37617234D01*
X102060467Y-37617235D01*
X102216227Y-37721310D01*
X102348690Y-37853773D01*
X102348691Y-37853775D01*
X102452766Y-38009534D01*
X102524454Y-38182605D01*
X102561000Y-38366333D01*
X102561000Y-38553667D01*
X102524454Y-38737395D01*
X102452766Y-38910466D01*
X102452765Y-38910467D01*
X102348690Y-39066227D01*
X102216227Y-39198690D01*
X102216149Y-39198742D01*
X102060466Y-39302766D01*
X101887395Y-39374454D01*
X101703667Y-39411000D01*
X101516333Y-39411000D01*
X101332605Y-39374454D01*
X101159534Y-39302766D01*
X101003851Y-39198742D01*
X101003773Y-39198690D01*
X100871310Y-39066227D01*
X100767235Y-38910467D01*
X100767234Y-38910466D01*
X100695546Y-38737395D01*
X100659000Y-38553667D01*
X100659000Y-38366333D01*
X100695546Y-38182605D01*
X100767234Y-38009534D01*
X100871309Y-37853775D01*
X100871310Y-37853773D01*
X101003773Y-37721310D01*
X101159533Y-37617235D01*
X101159534Y-37617234D01*
X101332605Y-37545546D01*
X101516333Y-37509000D01*
X101703667Y-37509000D01*
X101887395Y-37545546D01*
G37*
M02*
