G04 #@! TF.GenerationSoftware,KiCad,Pcbnew,(5.1.5)-3*
G04 #@! TF.CreationDate,2020-03-19T13:13:49+01:00*
G04 #@! TF.ProjectId,buttons,62757474-6f6e-4732-9e6b-696361645f70,rev?*
G04 #@! TF.SameCoordinates,Original*
G04 #@! TF.FileFunction,Copper,L2,Bot*
G04 #@! TF.FilePolarity,Positive*
%FSLAX46Y46*%
G04 Gerber Fmt 4.6, Leading zero omitted, Abs format (unit mm)*
G04 Created by KiCad (PCBNEW (5.1.5)-3) date 2020-03-19 13:13:49*
%MOMM*%
%LPD*%
G04 APERTURE LIST*
%ADD10R,1.800000X1.800000*%
%ADD11C,1.800000*%
%ADD12R,1.700000X1.700000*%
%ADD13O,1.700000X1.700000*%
%ADD14C,0.800000*%
%ADD15C,0.400000*%
%ADD16C,0.254000*%
G04 APERTURE END LIST*
D10*
X101610000Y-41000000D03*
D11*
X101610000Y-38460000D03*
X101610000Y-45200000D03*
D10*
X101610000Y-47740000D03*
X101650000Y-54490000D03*
D11*
X101650000Y-51950000D03*
D12*
X107820000Y-44190000D03*
D13*
X107820000Y-41650000D03*
X107820000Y-39110000D03*
D12*
X111710000Y-39210000D03*
D13*
X111710000Y-41750000D03*
X111710000Y-44290000D03*
X115670000Y-44290000D03*
X115670000Y-41750000D03*
D12*
X115670000Y-39210000D03*
D14*
X150120000Y-41750000D03*
X150070000Y-44240000D03*
X154340000Y-51670000D03*
X120470000Y-48600000D03*
X140950000Y-47110000D03*
X121890002Y-47220000D03*
X139840000Y-46450000D03*
X138857414Y-45537726D03*
D15*
X111710000Y-41750000D02*
X113660000Y-43700000D01*
X117000000Y-48600000D02*
X119904315Y-48600000D01*
X113660000Y-43700000D02*
X113660000Y-45260000D01*
X119904315Y-48600000D02*
X120470000Y-48600000D01*
X113660000Y-45260000D02*
X117000000Y-48600000D01*
X135210001Y-52849999D02*
X140550001Y-47509999D01*
X140550001Y-47509999D02*
X140950000Y-47110000D01*
X102549999Y-52849999D02*
X135210001Y-52849999D01*
X101650000Y-51950000D02*
X102549999Y-52849999D01*
X115670000Y-41750000D02*
X121140000Y-47220000D01*
X121140000Y-47220000D02*
X121890002Y-47220000D01*
X101610000Y-45200000D02*
X107850000Y-51440000D01*
X134850000Y-51440000D02*
X139440001Y-46849999D01*
X107850000Y-51440000D02*
X134850000Y-51440000D01*
X139440001Y-46849999D02*
X139840000Y-46450000D01*
X138457415Y-45937725D02*
X138857414Y-45537726D01*
X134535140Y-49860000D02*
X138457415Y-45937725D01*
X102450000Y-38460000D02*
X103730000Y-39740000D01*
X103730000Y-45990000D02*
X107600000Y-49860000D01*
X107600000Y-49860000D02*
X134535140Y-49860000D01*
X101610000Y-38460000D02*
X102450000Y-38460000D01*
X103730000Y-39740000D02*
X103730000Y-45990000D01*
D16*
G36*
X160340000Y-56940000D02*
G01*
X98160000Y-56940000D01*
X98160000Y-40100000D01*
X100071928Y-40100000D01*
X100071928Y-41900000D01*
X100084188Y-42024482D01*
X100120498Y-42144180D01*
X100179463Y-42254494D01*
X100258815Y-42351185D01*
X100355506Y-42430537D01*
X100465820Y-42489502D01*
X100585518Y-42525812D01*
X100710000Y-42538072D01*
X102510000Y-42538072D01*
X102634482Y-42525812D01*
X102754180Y-42489502D01*
X102864494Y-42430537D01*
X102895000Y-42405501D01*
X102895001Y-44360213D01*
X102802312Y-44221495D01*
X102588505Y-44007688D01*
X102337095Y-43839701D01*
X102057743Y-43723989D01*
X101761184Y-43665000D01*
X101458816Y-43665000D01*
X101162257Y-43723989D01*
X100882905Y-43839701D01*
X100631495Y-44007688D01*
X100417688Y-44221495D01*
X100249701Y-44472905D01*
X100133989Y-44752257D01*
X100075000Y-45048816D01*
X100075000Y-45351184D01*
X100133989Y-45647743D01*
X100249701Y-45927095D01*
X100417688Y-46178505D01*
X100484127Y-46244944D01*
X100465820Y-46250498D01*
X100355506Y-46309463D01*
X100258815Y-46388815D01*
X100179463Y-46485506D01*
X100120498Y-46595820D01*
X100084188Y-46715518D01*
X100071928Y-46840000D01*
X100071928Y-48640000D01*
X100084188Y-48764482D01*
X100120498Y-48884180D01*
X100179463Y-48994494D01*
X100258815Y-49091185D01*
X100355506Y-49170537D01*
X100465820Y-49229502D01*
X100585518Y-49265812D01*
X100710000Y-49278072D01*
X102510000Y-49278072D01*
X102634482Y-49265812D01*
X102754180Y-49229502D01*
X102864494Y-49170537D01*
X102961185Y-49091185D01*
X103040537Y-48994494D01*
X103099502Y-48884180D01*
X103135812Y-48764482D01*
X103148072Y-48640000D01*
X103148072Y-47918940D01*
X107230563Y-52001432D01*
X107241697Y-52014999D01*
X103185000Y-52014999D01*
X103185000Y-51798816D01*
X103126011Y-51502257D01*
X103010299Y-51222905D01*
X102842312Y-50971495D01*
X102628505Y-50757688D01*
X102377095Y-50589701D01*
X102097743Y-50473989D01*
X101801184Y-50415000D01*
X101498816Y-50415000D01*
X101202257Y-50473989D01*
X100922905Y-50589701D01*
X100671495Y-50757688D01*
X100457688Y-50971495D01*
X100289701Y-51222905D01*
X100173989Y-51502257D01*
X100115000Y-51798816D01*
X100115000Y-52101184D01*
X100173989Y-52397743D01*
X100289701Y-52677095D01*
X100457688Y-52928505D01*
X100524127Y-52994944D01*
X100505820Y-53000498D01*
X100395506Y-53059463D01*
X100298815Y-53138815D01*
X100219463Y-53235506D01*
X100160498Y-53345820D01*
X100124188Y-53465518D01*
X100111928Y-53590000D01*
X100111928Y-55390000D01*
X100124188Y-55514482D01*
X100160498Y-55634180D01*
X100219463Y-55744494D01*
X100298815Y-55841185D01*
X100395506Y-55920537D01*
X100505820Y-55979502D01*
X100625518Y-56015812D01*
X100750000Y-56028072D01*
X102550000Y-56028072D01*
X102674482Y-56015812D01*
X102794180Y-55979502D01*
X102904494Y-55920537D01*
X103001185Y-55841185D01*
X103080537Y-55744494D01*
X103139502Y-55634180D01*
X103175812Y-55514482D01*
X103188072Y-55390000D01*
X103188072Y-53684999D01*
X135168983Y-53684999D01*
X135210001Y-53689039D01*
X135251019Y-53684999D01*
X135251020Y-53684999D01*
X135373690Y-53672917D01*
X135531088Y-53625171D01*
X135676147Y-53547635D01*
X135803292Y-53443290D01*
X135829447Y-53411420D01*
X141106776Y-48134092D01*
X141251898Y-48105226D01*
X141440256Y-48027205D01*
X141609774Y-47913937D01*
X141753937Y-47769774D01*
X141867205Y-47600256D01*
X141945226Y-47411898D01*
X141985000Y-47211939D01*
X141985000Y-47008061D01*
X141945226Y-46808102D01*
X141867205Y-46619744D01*
X141753937Y-46450226D01*
X141609774Y-46306063D01*
X141440256Y-46192795D01*
X141251898Y-46114774D01*
X141051939Y-46075000D01*
X140848061Y-46075000D01*
X140808228Y-46082923D01*
X140757205Y-45959744D01*
X140643937Y-45790226D01*
X140499774Y-45646063D01*
X140330256Y-45532795D01*
X140141898Y-45454774D01*
X139941939Y-45415000D01*
X139888279Y-45415000D01*
X139852640Y-45235828D01*
X139774619Y-45047470D01*
X139661351Y-44877952D01*
X139517188Y-44733789D01*
X139347670Y-44620521D01*
X139159312Y-44542500D01*
X138959353Y-44502726D01*
X138755475Y-44502726D01*
X138555516Y-44542500D01*
X138367158Y-44620521D01*
X138197640Y-44733789D01*
X138053477Y-44877952D01*
X137940209Y-45047470D01*
X137862188Y-45235828D01*
X137833322Y-45380950D01*
X134189273Y-49025000D01*
X121414235Y-49025000D01*
X121465226Y-48901898D01*
X121505000Y-48701939D01*
X121505000Y-48498061D01*
X121465226Y-48298102D01*
X121398134Y-48136128D01*
X121399746Y-48137205D01*
X121588104Y-48215226D01*
X121788063Y-48255000D01*
X121991941Y-48255000D01*
X122191900Y-48215226D01*
X122380258Y-48137205D01*
X122549776Y-48023937D01*
X122693939Y-47879774D01*
X122807207Y-47710256D01*
X122885228Y-47521898D01*
X122925002Y-47321939D01*
X122925002Y-47118061D01*
X122885228Y-46918102D01*
X122807207Y-46729744D01*
X122693939Y-46560226D01*
X122549776Y-46416063D01*
X122380258Y-46302795D01*
X122191900Y-46224774D01*
X121991941Y-46185000D01*
X121788063Y-46185000D01*
X121588104Y-46224774D01*
X121402516Y-46301648D01*
X117128807Y-42027940D01*
X117155000Y-41896260D01*
X117155000Y-41603740D01*
X117097932Y-41316842D01*
X116985990Y-41046589D01*
X116823475Y-40803368D01*
X116691620Y-40671513D01*
X116764180Y-40649502D01*
X116874494Y-40590537D01*
X116971185Y-40511185D01*
X117050537Y-40414494D01*
X117109502Y-40304180D01*
X117145812Y-40184482D01*
X117158072Y-40060000D01*
X117155000Y-39495750D01*
X116996250Y-39337000D01*
X115797000Y-39337000D01*
X115797000Y-39357000D01*
X115543000Y-39357000D01*
X115543000Y-39337000D01*
X114343750Y-39337000D01*
X114185000Y-39495750D01*
X114181928Y-40060000D01*
X114194188Y-40184482D01*
X114230498Y-40304180D01*
X114289463Y-40414494D01*
X114368815Y-40511185D01*
X114465506Y-40590537D01*
X114575820Y-40649502D01*
X114648380Y-40671513D01*
X114516525Y-40803368D01*
X114354010Y-41046589D01*
X114242068Y-41316842D01*
X114185000Y-41603740D01*
X114185000Y-41896260D01*
X114242068Y-42183158D01*
X114354010Y-42453411D01*
X114516525Y-42696632D01*
X114723368Y-42903475D01*
X114897760Y-43020000D01*
X114723368Y-43136525D01*
X114516525Y-43343368D01*
X114453158Y-43438204D01*
X114435172Y-43378913D01*
X114357636Y-43233854D01*
X114253291Y-43106709D01*
X114221428Y-43080560D01*
X113168807Y-42027940D01*
X113195000Y-41896260D01*
X113195000Y-41603740D01*
X113137932Y-41316842D01*
X113025990Y-41046589D01*
X112863475Y-40803368D01*
X112731620Y-40671513D01*
X112804180Y-40649502D01*
X112914494Y-40590537D01*
X113011185Y-40511185D01*
X113090537Y-40414494D01*
X113149502Y-40304180D01*
X113185812Y-40184482D01*
X113198072Y-40060000D01*
X113195000Y-39495750D01*
X113036250Y-39337000D01*
X111837000Y-39337000D01*
X111837000Y-39357000D01*
X111583000Y-39357000D01*
X111583000Y-39337000D01*
X110383750Y-39337000D01*
X110225000Y-39495750D01*
X110221928Y-40060000D01*
X110234188Y-40184482D01*
X110270498Y-40304180D01*
X110329463Y-40414494D01*
X110408815Y-40511185D01*
X110505506Y-40590537D01*
X110615820Y-40649502D01*
X110688380Y-40671513D01*
X110556525Y-40803368D01*
X110394010Y-41046589D01*
X110282068Y-41316842D01*
X110225000Y-41603740D01*
X110225000Y-41896260D01*
X110282068Y-42183158D01*
X110394010Y-42453411D01*
X110556525Y-42696632D01*
X110763368Y-42903475D01*
X110937760Y-43020000D01*
X110763368Y-43136525D01*
X110556525Y-43343368D01*
X110394010Y-43586589D01*
X110282068Y-43856842D01*
X110225000Y-44143740D01*
X110225000Y-44436260D01*
X110282068Y-44723158D01*
X110394010Y-44993411D01*
X110556525Y-45236632D01*
X110763368Y-45443475D01*
X111006589Y-45605990D01*
X111276842Y-45717932D01*
X111563740Y-45775000D01*
X111856260Y-45775000D01*
X112143158Y-45717932D01*
X112413411Y-45605990D01*
X112656632Y-45443475D01*
X112822677Y-45277430D01*
X112837082Y-45423688D01*
X112884828Y-45581086D01*
X112962364Y-45726145D01*
X112985907Y-45754832D01*
X113066710Y-45853291D01*
X113098574Y-45879441D01*
X116244132Y-49025000D01*
X107945868Y-49025000D01*
X104565000Y-45644133D01*
X104565000Y-45040000D01*
X106331928Y-45040000D01*
X106344188Y-45164482D01*
X106380498Y-45284180D01*
X106439463Y-45394494D01*
X106518815Y-45491185D01*
X106615506Y-45570537D01*
X106725820Y-45629502D01*
X106845518Y-45665812D01*
X106970000Y-45678072D01*
X107534250Y-45675000D01*
X107693000Y-45516250D01*
X107693000Y-44317000D01*
X107947000Y-44317000D01*
X107947000Y-45516250D01*
X108105750Y-45675000D01*
X108670000Y-45678072D01*
X108794482Y-45665812D01*
X108914180Y-45629502D01*
X109024494Y-45570537D01*
X109121185Y-45491185D01*
X109200537Y-45394494D01*
X109259502Y-45284180D01*
X109295812Y-45164482D01*
X109308072Y-45040000D01*
X109305000Y-44475750D01*
X109146250Y-44317000D01*
X107947000Y-44317000D01*
X107693000Y-44317000D01*
X106493750Y-44317000D01*
X106335000Y-44475750D01*
X106331928Y-45040000D01*
X104565000Y-45040000D01*
X104565000Y-43340000D01*
X106331928Y-43340000D01*
X106335000Y-43904250D01*
X106493750Y-44063000D01*
X107693000Y-44063000D01*
X107693000Y-44043000D01*
X107947000Y-44043000D01*
X107947000Y-44063000D01*
X109146250Y-44063000D01*
X109305000Y-43904250D01*
X109308072Y-43340000D01*
X109295812Y-43215518D01*
X109259502Y-43095820D01*
X109200537Y-42985506D01*
X109121185Y-42888815D01*
X109024494Y-42809463D01*
X108914180Y-42750498D01*
X108841620Y-42728487D01*
X108973475Y-42596632D01*
X109135990Y-42353411D01*
X109247932Y-42083158D01*
X109305000Y-41796260D01*
X109305000Y-41503740D01*
X109247932Y-41216842D01*
X109135990Y-40946589D01*
X108973475Y-40703368D01*
X108766632Y-40496525D01*
X108592240Y-40380000D01*
X108766632Y-40263475D01*
X108973475Y-40056632D01*
X109135990Y-39813411D01*
X109247932Y-39543158D01*
X109305000Y-39256260D01*
X109305000Y-38963740D01*
X109247932Y-38676842D01*
X109135990Y-38406589D01*
X109104861Y-38360000D01*
X110221928Y-38360000D01*
X110225000Y-38924250D01*
X110383750Y-39083000D01*
X111583000Y-39083000D01*
X111583000Y-37883750D01*
X111837000Y-37883750D01*
X111837000Y-39083000D01*
X113036250Y-39083000D01*
X113195000Y-38924250D01*
X113198072Y-38360000D01*
X114181928Y-38360000D01*
X114185000Y-38924250D01*
X114343750Y-39083000D01*
X115543000Y-39083000D01*
X115543000Y-37883750D01*
X115797000Y-37883750D01*
X115797000Y-39083000D01*
X116996250Y-39083000D01*
X117155000Y-38924250D01*
X117158072Y-38360000D01*
X117145812Y-38235518D01*
X117109502Y-38115820D01*
X117050537Y-38005506D01*
X116971185Y-37908815D01*
X116874494Y-37829463D01*
X116764180Y-37770498D01*
X116644482Y-37734188D01*
X116520000Y-37721928D01*
X115955750Y-37725000D01*
X115797000Y-37883750D01*
X115543000Y-37883750D01*
X115384250Y-37725000D01*
X114820000Y-37721928D01*
X114695518Y-37734188D01*
X114575820Y-37770498D01*
X114465506Y-37829463D01*
X114368815Y-37908815D01*
X114289463Y-38005506D01*
X114230498Y-38115820D01*
X114194188Y-38235518D01*
X114181928Y-38360000D01*
X113198072Y-38360000D01*
X113185812Y-38235518D01*
X113149502Y-38115820D01*
X113090537Y-38005506D01*
X113011185Y-37908815D01*
X112914494Y-37829463D01*
X112804180Y-37770498D01*
X112684482Y-37734188D01*
X112560000Y-37721928D01*
X111995750Y-37725000D01*
X111837000Y-37883750D01*
X111583000Y-37883750D01*
X111424250Y-37725000D01*
X110860000Y-37721928D01*
X110735518Y-37734188D01*
X110615820Y-37770498D01*
X110505506Y-37829463D01*
X110408815Y-37908815D01*
X110329463Y-38005506D01*
X110270498Y-38115820D01*
X110234188Y-38235518D01*
X110221928Y-38360000D01*
X109104861Y-38360000D01*
X108973475Y-38163368D01*
X108766632Y-37956525D01*
X108523411Y-37794010D01*
X108253158Y-37682068D01*
X107966260Y-37625000D01*
X107673740Y-37625000D01*
X107386842Y-37682068D01*
X107116589Y-37794010D01*
X106873368Y-37956525D01*
X106666525Y-38163368D01*
X106504010Y-38406589D01*
X106392068Y-38676842D01*
X106335000Y-38963740D01*
X106335000Y-39256260D01*
X106392068Y-39543158D01*
X106504010Y-39813411D01*
X106666525Y-40056632D01*
X106873368Y-40263475D01*
X107047760Y-40380000D01*
X106873368Y-40496525D01*
X106666525Y-40703368D01*
X106504010Y-40946589D01*
X106392068Y-41216842D01*
X106335000Y-41503740D01*
X106335000Y-41796260D01*
X106392068Y-42083158D01*
X106504010Y-42353411D01*
X106666525Y-42596632D01*
X106798380Y-42728487D01*
X106725820Y-42750498D01*
X106615506Y-42809463D01*
X106518815Y-42888815D01*
X106439463Y-42985506D01*
X106380498Y-43095820D01*
X106344188Y-43215518D01*
X106331928Y-43340000D01*
X104565000Y-43340000D01*
X104565000Y-39781007D01*
X104569039Y-39739999D01*
X104565000Y-39698991D01*
X104565000Y-39698981D01*
X104552918Y-39576311D01*
X104505172Y-39418913D01*
X104427636Y-39273854D01*
X104323291Y-39146709D01*
X104291428Y-39120560D01*
X103069446Y-37898579D01*
X103043291Y-37866709D01*
X103016675Y-37844866D01*
X102970299Y-37732905D01*
X102802312Y-37481495D01*
X102588505Y-37267688D01*
X102337095Y-37099701D01*
X102057743Y-36983989D01*
X101761184Y-36925000D01*
X101458816Y-36925000D01*
X101162257Y-36983989D01*
X100882905Y-37099701D01*
X100631495Y-37267688D01*
X100417688Y-37481495D01*
X100249701Y-37732905D01*
X100133989Y-38012257D01*
X100075000Y-38308816D01*
X100075000Y-38611184D01*
X100133989Y-38907743D01*
X100249701Y-39187095D01*
X100417688Y-39438505D01*
X100484127Y-39504944D01*
X100465820Y-39510498D01*
X100355506Y-39569463D01*
X100258815Y-39648815D01*
X100179463Y-39745506D01*
X100120498Y-39855820D01*
X100084188Y-39975518D01*
X100071928Y-40100000D01*
X98160000Y-40100000D01*
X98160000Y-36460000D01*
X160340001Y-36460000D01*
X160340000Y-56940000D01*
G37*
X160340000Y-56940000D02*
X98160000Y-56940000D01*
X98160000Y-40100000D01*
X100071928Y-40100000D01*
X100071928Y-41900000D01*
X100084188Y-42024482D01*
X100120498Y-42144180D01*
X100179463Y-42254494D01*
X100258815Y-42351185D01*
X100355506Y-42430537D01*
X100465820Y-42489502D01*
X100585518Y-42525812D01*
X100710000Y-42538072D01*
X102510000Y-42538072D01*
X102634482Y-42525812D01*
X102754180Y-42489502D01*
X102864494Y-42430537D01*
X102895000Y-42405501D01*
X102895001Y-44360213D01*
X102802312Y-44221495D01*
X102588505Y-44007688D01*
X102337095Y-43839701D01*
X102057743Y-43723989D01*
X101761184Y-43665000D01*
X101458816Y-43665000D01*
X101162257Y-43723989D01*
X100882905Y-43839701D01*
X100631495Y-44007688D01*
X100417688Y-44221495D01*
X100249701Y-44472905D01*
X100133989Y-44752257D01*
X100075000Y-45048816D01*
X100075000Y-45351184D01*
X100133989Y-45647743D01*
X100249701Y-45927095D01*
X100417688Y-46178505D01*
X100484127Y-46244944D01*
X100465820Y-46250498D01*
X100355506Y-46309463D01*
X100258815Y-46388815D01*
X100179463Y-46485506D01*
X100120498Y-46595820D01*
X100084188Y-46715518D01*
X100071928Y-46840000D01*
X100071928Y-48640000D01*
X100084188Y-48764482D01*
X100120498Y-48884180D01*
X100179463Y-48994494D01*
X100258815Y-49091185D01*
X100355506Y-49170537D01*
X100465820Y-49229502D01*
X100585518Y-49265812D01*
X100710000Y-49278072D01*
X102510000Y-49278072D01*
X102634482Y-49265812D01*
X102754180Y-49229502D01*
X102864494Y-49170537D01*
X102961185Y-49091185D01*
X103040537Y-48994494D01*
X103099502Y-48884180D01*
X103135812Y-48764482D01*
X103148072Y-48640000D01*
X103148072Y-47918940D01*
X107230563Y-52001432D01*
X107241697Y-52014999D01*
X103185000Y-52014999D01*
X103185000Y-51798816D01*
X103126011Y-51502257D01*
X103010299Y-51222905D01*
X102842312Y-50971495D01*
X102628505Y-50757688D01*
X102377095Y-50589701D01*
X102097743Y-50473989D01*
X101801184Y-50415000D01*
X101498816Y-50415000D01*
X101202257Y-50473989D01*
X100922905Y-50589701D01*
X100671495Y-50757688D01*
X100457688Y-50971495D01*
X100289701Y-51222905D01*
X100173989Y-51502257D01*
X100115000Y-51798816D01*
X100115000Y-52101184D01*
X100173989Y-52397743D01*
X100289701Y-52677095D01*
X100457688Y-52928505D01*
X100524127Y-52994944D01*
X100505820Y-53000498D01*
X100395506Y-53059463D01*
X100298815Y-53138815D01*
X100219463Y-53235506D01*
X100160498Y-53345820D01*
X100124188Y-53465518D01*
X100111928Y-53590000D01*
X100111928Y-55390000D01*
X100124188Y-55514482D01*
X100160498Y-55634180D01*
X100219463Y-55744494D01*
X100298815Y-55841185D01*
X100395506Y-55920537D01*
X100505820Y-55979502D01*
X100625518Y-56015812D01*
X100750000Y-56028072D01*
X102550000Y-56028072D01*
X102674482Y-56015812D01*
X102794180Y-55979502D01*
X102904494Y-55920537D01*
X103001185Y-55841185D01*
X103080537Y-55744494D01*
X103139502Y-55634180D01*
X103175812Y-55514482D01*
X103188072Y-55390000D01*
X103188072Y-53684999D01*
X135168983Y-53684999D01*
X135210001Y-53689039D01*
X135251019Y-53684999D01*
X135251020Y-53684999D01*
X135373690Y-53672917D01*
X135531088Y-53625171D01*
X135676147Y-53547635D01*
X135803292Y-53443290D01*
X135829447Y-53411420D01*
X141106776Y-48134092D01*
X141251898Y-48105226D01*
X141440256Y-48027205D01*
X141609774Y-47913937D01*
X141753937Y-47769774D01*
X141867205Y-47600256D01*
X141945226Y-47411898D01*
X141985000Y-47211939D01*
X141985000Y-47008061D01*
X141945226Y-46808102D01*
X141867205Y-46619744D01*
X141753937Y-46450226D01*
X141609774Y-46306063D01*
X141440256Y-46192795D01*
X141251898Y-46114774D01*
X141051939Y-46075000D01*
X140848061Y-46075000D01*
X140808228Y-46082923D01*
X140757205Y-45959744D01*
X140643937Y-45790226D01*
X140499774Y-45646063D01*
X140330256Y-45532795D01*
X140141898Y-45454774D01*
X139941939Y-45415000D01*
X139888279Y-45415000D01*
X139852640Y-45235828D01*
X139774619Y-45047470D01*
X139661351Y-44877952D01*
X139517188Y-44733789D01*
X139347670Y-44620521D01*
X139159312Y-44542500D01*
X138959353Y-44502726D01*
X138755475Y-44502726D01*
X138555516Y-44542500D01*
X138367158Y-44620521D01*
X138197640Y-44733789D01*
X138053477Y-44877952D01*
X137940209Y-45047470D01*
X137862188Y-45235828D01*
X137833322Y-45380950D01*
X134189273Y-49025000D01*
X121414235Y-49025000D01*
X121465226Y-48901898D01*
X121505000Y-48701939D01*
X121505000Y-48498061D01*
X121465226Y-48298102D01*
X121398134Y-48136128D01*
X121399746Y-48137205D01*
X121588104Y-48215226D01*
X121788063Y-48255000D01*
X121991941Y-48255000D01*
X122191900Y-48215226D01*
X122380258Y-48137205D01*
X122549776Y-48023937D01*
X122693939Y-47879774D01*
X122807207Y-47710256D01*
X122885228Y-47521898D01*
X122925002Y-47321939D01*
X122925002Y-47118061D01*
X122885228Y-46918102D01*
X122807207Y-46729744D01*
X122693939Y-46560226D01*
X122549776Y-46416063D01*
X122380258Y-46302795D01*
X122191900Y-46224774D01*
X121991941Y-46185000D01*
X121788063Y-46185000D01*
X121588104Y-46224774D01*
X121402516Y-46301648D01*
X117128807Y-42027940D01*
X117155000Y-41896260D01*
X117155000Y-41603740D01*
X117097932Y-41316842D01*
X116985990Y-41046589D01*
X116823475Y-40803368D01*
X116691620Y-40671513D01*
X116764180Y-40649502D01*
X116874494Y-40590537D01*
X116971185Y-40511185D01*
X117050537Y-40414494D01*
X117109502Y-40304180D01*
X117145812Y-40184482D01*
X117158072Y-40060000D01*
X117155000Y-39495750D01*
X116996250Y-39337000D01*
X115797000Y-39337000D01*
X115797000Y-39357000D01*
X115543000Y-39357000D01*
X115543000Y-39337000D01*
X114343750Y-39337000D01*
X114185000Y-39495750D01*
X114181928Y-40060000D01*
X114194188Y-40184482D01*
X114230498Y-40304180D01*
X114289463Y-40414494D01*
X114368815Y-40511185D01*
X114465506Y-40590537D01*
X114575820Y-40649502D01*
X114648380Y-40671513D01*
X114516525Y-40803368D01*
X114354010Y-41046589D01*
X114242068Y-41316842D01*
X114185000Y-41603740D01*
X114185000Y-41896260D01*
X114242068Y-42183158D01*
X114354010Y-42453411D01*
X114516525Y-42696632D01*
X114723368Y-42903475D01*
X114897760Y-43020000D01*
X114723368Y-43136525D01*
X114516525Y-43343368D01*
X114453158Y-43438204D01*
X114435172Y-43378913D01*
X114357636Y-43233854D01*
X114253291Y-43106709D01*
X114221428Y-43080560D01*
X113168807Y-42027940D01*
X113195000Y-41896260D01*
X113195000Y-41603740D01*
X113137932Y-41316842D01*
X113025990Y-41046589D01*
X112863475Y-40803368D01*
X112731620Y-40671513D01*
X112804180Y-40649502D01*
X112914494Y-40590537D01*
X113011185Y-40511185D01*
X113090537Y-40414494D01*
X113149502Y-40304180D01*
X113185812Y-40184482D01*
X113198072Y-40060000D01*
X113195000Y-39495750D01*
X113036250Y-39337000D01*
X111837000Y-39337000D01*
X111837000Y-39357000D01*
X111583000Y-39357000D01*
X111583000Y-39337000D01*
X110383750Y-39337000D01*
X110225000Y-39495750D01*
X110221928Y-40060000D01*
X110234188Y-40184482D01*
X110270498Y-40304180D01*
X110329463Y-40414494D01*
X110408815Y-40511185D01*
X110505506Y-40590537D01*
X110615820Y-40649502D01*
X110688380Y-40671513D01*
X110556525Y-40803368D01*
X110394010Y-41046589D01*
X110282068Y-41316842D01*
X110225000Y-41603740D01*
X110225000Y-41896260D01*
X110282068Y-42183158D01*
X110394010Y-42453411D01*
X110556525Y-42696632D01*
X110763368Y-42903475D01*
X110937760Y-43020000D01*
X110763368Y-43136525D01*
X110556525Y-43343368D01*
X110394010Y-43586589D01*
X110282068Y-43856842D01*
X110225000Y-44143740D01*
X110225000Y-44436260D01*
X110282068Y-44723158D01*
X110394010Y-44993411D01*
X110556525Y-45236632D01*
X110763368Y-45443475D01*
X111006589Y-45605990D01*
X111276842Y-45717932D01*
X111563740Y-45775000D01*
X111856260Y-45775000D01*
X112143158Y-45717932D01*
X112413411Y-45605990D01*
X112656632Y-45443475D01*
X112822677Y-45277430D01*
X112837082Y-45423688D01*
X112884828Y-45581086D01*
X112962364Y-45726145D01*
X112985907Y-45754832D01*
X113066710Y-45853291D01*
X113098574Y-45879441D01*
X116244132Y-49025000D01*
X107945868Y-49025000D01*
X104565000Y-45644133D01*
X104565000Y-45040000D01*
X106331928Y-45040000D01*
X106344188Y-45164482D01*
X106380498Y-45284180D01*
X106439463Y-45394494D01*
X106518815Y-45491185D01*
X106615506Y-45570537D01*
X106725820Y-45629502D01*
X106845518Y-45665812D01*
X106970000Y-45678072D01*
X107534250Y-45675000D01*
X107693000Y-45516250D01*
X107693000Y-44317000D01*
X107947000Y-44317000D01*
X107947000Y-45516250D01*
X108105750Y-45675000D01*
X108670000Y-45678072D01*
X108794482Y-45665812D01*
X108914180Y-45629502D01*
X109024494Y-45570537D01*
X109121185Y-45491185D01*
X109200537Y-45394494D01*
X109259502Y-45284180D01*
X109295812Y-45164482D01*
X109308072Y-45040000D01*
X109305000Y-44475750D01*
X109146250Y-44317000D01*
X107947000Y-44317000D01*
X107693000Y-44317000D01*
X106493750Y-44317000D01*
X106335000Y-44475750D01*
X106331928Y-45040000D01*
X104565000Y-45040000D01*
X104565000Y-43340000D01*
X106331928Y-43340000D01*
X106335000Y-43904250D01*
X106493750Y-44063000D01*
X107693000Y-44063000D01*
X107693000Y-44043000D01*
X107947000Y-44043000D01*
X107947000Y-44063000D01*
X109146250Y-44063000D01*
X109305000Y-43904250D01*
X109308072Y-43340000D01*
X109295812Y-43215518D01*
X109259502Y-43095820D01*
X109200537Y-42985506D01*
X109121185Y-42888815D01*
X109024494Y-42809463D01*
X108914180Y-42750498D01*
X108841620Y-42728487D01*
X108973475Y-42596632D01*
X109135990Y-42353411D01*
X109247932Y-42083158D01*
X109305000Y-41796260D01*
X109305000Y-41503740D01*
X109247932Y-41216842D01*
X109135990Y-40946589D01*
X108973475Y-40703368D01*
X108766632Y-40496525D01*
X108592240Y-40380000D01*
X108766632Y-40263475D01*
X108973475Y-40056632D01*
X109135990Y-39813411D01*
X109247932Y-39543158D01*
X109305000Y-39256260D01*
X109305000Y-38963740D01*
X109247932Y-38676842D01*
X109135990Y-38406589D01*
X109104861Y-38360000D01*
X110221928Y-38360000D01*
X110225000Y-38924250D01*
X110383750Y-39083000D01*
X111583000Y-39083000D01*
X111583000Y-37883750D01*
X111837000Y-37883750D01*
X111837000Y-39083000D01*
X113036250Y-39083000D01*
X113195000Y-38924250D01*
X113198072Y-38360000D01*
X114181928Y-38360000D01*
X114185000Y-38924250D01*
X114343750Y-39083000D01*
X115543000Y-39083000D01*
X115543000Y-37883750D01*
X115797000Y-37883750D01*
X115797000Y-39083000D01*
X116996250Y-39083000D01*
X117155000Y-38924250D01*
X117158072Y-38360000D01*
X117145812Y-38235518D01*
X117109502Y-38115820D01*
X117050537Y-38005506D01*
X116971185Y-37908815D01*
X116874494Y-37829463D01*
X116764180Y-37770498D01*
X116644482Y-37734188D01*
X116520000Y-37721928D01*
X115955750Y-37725000D01*
X115797000Y-37883750D01*
X115543000Y-37883750D01*
X115384250Y-37725000D01*
X114820000Y-37721928D01*
X114695518Y-37734188D01*
X114575820Y-37770498D01*
X114465506Y-37829463D01*
X114368815Y-37908815D01*
X114289463Y-38005506D01*
X114230498Y-38115820D01*
X114194188Y-38235518D01*
X114181928Y-38360000D01*
X113198072Y-38360000D01*
X113185812Y-38235518D01*
X113149502Y-38115820D01*
X113090537Y-38005506D01*
X113011185Y-37908815D01*
X112914494Y-37829463D01*
X112804180Y-37770498D01*
X112684482Y-37734188D01*
X112560000Y-37721928D01*
X111995750Y-37725000D01*
X111837000Y-37883750D01*
X111583000Y-37883750D01*
X111424250Y-37725000D01*
X110860000Y-37721928D01*
X110735518Y-37734188D01*
X110615820Y-37770498D01*
X110505506Y-37829463D01*
X110408815Y-37908815D01*
X110329463Y-38005506D01*
X110270498Y-38115820D01*
X110234188Y-38235518D01*
X110221928Y-38360000D01*
X109104861Y-38360000D01*
X108973475Y-38163368D01*
X108766632Y-37956525D01*
X108523411Y-37794010D01*
X108253158Y-37682068D01*
X107966260Y-37625000D01*
X107673740Y-37625000D01*
X107386842Y-37682068D01*
X107116589Y-37794010D01*
X106873368Y-37956525D01*
X106666525Y-38163368D01*
X106504010Y-38406589D01*
X106392068Y-38676842D01*
X106335000Y-38963740D01*
X106335000Y-39256260D01*
X106392068Y-39543158D01*
X106504010Y-39813411D01*
X106666525Y-40056632D01*
X106873368Y-40263475D01*
X107047760Y-40380000D01*
X106873368Y-40496525D01*
X106666525Y-40703368D01*
X106504010Y-40946589D01*
X106392068Y-41216842D01*
X106335000Y-41503740D01*
X106335000Y-41796260D01*
X106392068Y-42083158D01*
X106504010Y-42353411D01*
X106666525Y-42596632D01*
X106798380Y-42728487D01*
X106725820Y-42750498D01*
X106615506Y-42809463D01*
X106518815Y-42888815D01*
X106439463Y-42985506D01*
X106380498Y-43095820D01*
X106344188Y-43215518D01*
X106331928Y-43340000D01*
X104565000Y-43340000D01*
X104565000Y-39781007D01*
X104569039Y-39739999D01*
X104565000Y-39698991D01*
X104565000Y-39698981D01*
X104552918Y-39576311D01*
X104505172Y-39418913D01*
X104427636Y-39273854D01*
X104323291Y-39146709D01*
X104291428Y-39120560D01*
X103069446Y-37898579D01*
X103043291Y-37866709D01*
X103016675Y-37844866D01*
X102970299Y-37732905D01*
X102802312Y-37481495D01*
X102588505Y-37267688D01*
X102337095Y-37099701D01*
X102057743Y-36983989D01*
X101761184Y-36925000D01*
X101458816Y-36925000D01*
X101162257Y-36983989D01*
X100882905Y-37099701D01*
X100631495Y-37267688D01*
X100417688Y-37481495D01*
X100249701Y-37732905D01*
X100133989Y-38012257D01*
X100075000Y-38308816D01*
X100075000Y-38611184D01*
X100133989Y-38907743D01*
X100249701Y-39187095D01*
X100417688Y-39438505D01*
X100484127Y-39504944D01*
X100465820Y-39510498D01*
X100355506Y-39569463D01*
X100258815Y-39648815D01*
X100179463Y-39745506D01*
X100120498Y-39855820D01*
X100084188Y-39975518D01*
X100071928Y-40100000D01*
X98160000Y-40100000D01*
X98160000Y-36460000D01*
X160340001Y-36460000D01*
X160340000Y-56940000D01*
M02*
