M48
; DRILL file {KiCad (5.1.2)-2} date 25/01/2020 22:12:14
; FORMAT={-:-/ absolute / metric / decimal}
; #@! TF.CreationDate,2020-01-25T22:12:14+00:00
; #@! TF.GenerationSoftware,Kicad,Pcbnew,(5.1.2)-2
; #@! TF.FileFunction,Plated,1,2,PTH
FMAT,2
METRIC
T1C0.400
T2C0.800
T3C0.950
T4C1.000
T5C2.600
%
G90
G05
T1
X5.476Y-14.272
X8.301Y-9.398
X20.818Y-13.343
X42.608Y-15.918
T2
X5.519Y-3.289
X5.519Y-18.529
X8.059Y-3.289
X8.059Y-18.529
X10.599Y-3.289
X10.599Y-18.529
X13.139Y-3.289
X13.139Y-18.529
X15.679Y-3.289
X15.679Y-18.529
X18.219Y-3.289
X18.219Y-18.529
X20.759Y-3.289
X20.759Y-18.529
X23.299Y-3.289
X23.299Y-18.529
X25.839Y-3.289
X25.839Y-18.529
X28.379Y-3.289
X28.379Y-18.529
X30.919Y-3.289
X30.919Y-18.529
X33.459Y-3.289
X33.459Y-18.529
X35.999Y-3.289
X35.999Y-18.529
X38.539Y-3.289
X38.539Y-18.529
X41.079Y-3.289
X41.079Y-18.529
T3
X85.626Y-2.76
X85.626Y-5.26
X85.626Y-7.76
X77.473Y-2.795
X77.473Y-5.295
X77.473Y-7.795
X72.702Y-14.133
X72.702Y-16.633
X72.702Y-19.133
X96.373Y-14.122
X96.373Y-16.622
X96.373Y-19.122
X88.219Y-14.122
X88.219Y-16.622
X88.219Y-19.122
X80.244Y-14.158
X80.244Y-16.658
X80.244Y-19.158
T4
X91.89Y-1.895
X48.108Y-9.581
X48.108Y-12.121
X48.108Y-16.759
X48.108Y-19.299
X48.067Y-2.616
X48.067Y-5.156
T5
X59.593Y-10.612
X64.593Y-10.612
X53.028Y-2.958
X53.028Y-7.958
X71.356Y-3.024
X71.356Y-8.024
X59.745Y-3.432
X64.745Y-3.432
X96.609Y-2.798
X96.609Y-7.798
X53.03Y-13.738
X53.03Y-18.738
X59.875Y-18.56
X64.875Y-18.56
T0
M30
