G04 #@! TF.GenerationSoftware,KiCad,Pcbnew,(5.1.2)-2*
G04 #@! TF.CreationDate,2020-01-25T22:11:55+00:00*
G04 #@! TF.ProjectId,rowing_steerting,726f7769-6e67-45f7-9374-65657274696e,rev?*
G04 #@! TF.SameCoordinates,Original*
G04 #@! TF.FileFunction,Legend,Top*
G04 #@! TF.FilePolarity,Positive*
%FSLAX46Y46*%
G04 Gerber Fmt 4.6, Leading zero omitted, Abs format (unit mm)*
G04 Created by KiCad (PCBNEW (5.1.2)-2) date 2020-01-25 22:11:55*
%MOMM*%
%LPD*%
G04 APERTURE LIST*
%ADD10C,0.150000*%
%ADD11C,0.120000*%
G04 APERTURE END LIST*
D10*
X83509811Y-18558236D02*
X83557430Y-18415379D01*
X83605049Y-18367760D01*
X83700287Y-18320140D01*
X83843144Y-18320140D01*
X83938382Y-18367760D01*
X83986001Y-18415379D01*
X84033620Y-18510617D01*
X84033620Y-18891569D01*
X83033620Y-18891569D01*
X83033620Y-18558236D01*
X83081240Y-18462998D01*
X83128859Y-18415379D01*
X83224097Y-18367760D01*
X83319335Y-18367760D01*
X83414573Y-18415379D01*
X83462192Y-18462998D01*
X83509811Y-18558236D01*
X83509811Y-18891569D01*
X84033620Y-17891569D02*
X83366954Y-17891569D01*
X83033620Y-17891569D02*
X83081240Y-17939188D01*
X83128859Y-17891569D01*
X83081240Y-17843950D01*
X83033620Y-17891569D01*
X83128859Y-17891569D01*
X83366954Y-16986807D02*
X84176478Y-16986807D01*
X84271716Y-17034426D01*
X84319335Y-17082045D01*
X84366954Y-17177283D01*
X84366954Y-17320140D01*
X84319335Y-17415379D01*
X83986001Y-16986807D02*
X84033620Y-17082045D01*
X84033620Y-17272521D01*
X83986001Y-17367760D01*
X83938382Y-17415379D01*
X83843144Y-17462998D01*
X83557430Y-17462998D01*
X83462192Y-17415379D01*
X83414573Y-17367760D01*
X83366954Y-17272521D01*
X83366954Y-17082045D01*
X83414573Y-16986807D01*
X84128859Y-16748712D02*
X84128859Y-15986807D01*
X84033620Y-15748712D02*
X83033620Y-15748712D01*
X83414573Y-15748712D02*
X83366954Y-15653474D01*
X83366954Y-15462998D01*
X83414573Y-15367760D01*
X83462192Y-15320140D01*
X83557430Y-15272521D01*
X83843144Y-15272521D01*
X83938382Y-15320140D01*
X83986001Y-15367760D01*
X84033620Y-15462998D01*
X84033620Y-15653474D01*
X83986001Y-15748712D01*
X84033620Y-14415379D02*
X83509811Y-14415379D01*
X83414573Y-14462998D01*
X83366954Y-14558236D01*
X83366954Y-14748712D01*
X83414573Y-14843950D01*
X83986001Y-14415379D02*
X84033620Y-14510617D01*
X84033620Y-14748712D01*
X83986001Y-14843950D01*
X83890763Y-14891569D01*
X83795525Y-14891569D01*
X83700287Y-14843950D01*
X83652668Y-14748712D01*
X83652668Y-14510617D01*
X83605049Y-14415379D01*
X83366954Y-14082045D02*
X83366954Y-13701093D01*
X83033620Y-13939188D02*
X83890763Y-13939188D01*
X83986001Y-13891569D01*
X84033620Y-13796331D01*
X84033620Y-13701093D01*
X82345161Y-8783200D02*
X82392780Y-8640342D01*
X82392780Y-8402247D01*
X82345161Y-8307009D01*
X82297542Y-8259390D01*
X82202304Y-8211771D01*
X82107066Y-8211771D01*
X82011828Y-8259390D01*
X81964209Y-8307009D01*
X81916590Y-8402247D01*
X81868971Y-8592723D01*
X81821352Y-8687961D01*
X81773733Y-8735580D01*
X81678495Y-8783200D01*
X81583257Y-8783200D01*
X81488019Y-8735580D01*
X81440400Y-8687961D01*
X81392780Y-8592723D01*
X81392780Y-8354628D01*
X81440400Y-8211771D01*
X82392780Y-7783200D02*
X81726114Y-7783200D01*
X81821352Y-7783200D02*
X81773733Y-7735580D01*
X81726114Y-7640342D01*
X81726114Y-7497485D01*
X81773733Y-7402247D01*
X81868971Y-7354628D01*
X82392780Y-7354628D01*
X81868971Y-7354628D02*
X81773733Y-7307009D01*
X81726114Y-7211771D01*
X81726114Y-7068914D01*
X81773733Y-6973676D01*
X81868971Y-6926057D01*
X82392780Y-6926057D01*
X82392780Y-6021295D02*
X81868971Y-6021295D01*
X81773733Y-6068914D01*
X81726114Y-6164152D01*
X81726114Y-6354628D01*
X81773733Y-6449866D01*
X82345161Y-6021295D02*
X82392780Y-6116533D01*
X82392780Y-6354628D01*
X82345161Y-6449866D01*
X82249923Y-6497485D01*
X82154685Y-6497485D01*
X82059447Y-6449866D01*
X82011828Y-6354628D01*
X82011828Y-6116533D01*
X81964209Y-6021295D01*
X82392780Y-5402247D02*
X82345161Y-5497485D01*
X82249923Y-5545104D01*
X81392780Y-5545104D01*
X82392780Y-4878438D02*
X82345161Y-4973676D01*
X82249923Y-5021295D01*
X81392780Y-5021295D01*
X82488019Y-4735580D02*
X82488019Y-3973676D01*
X82392780Y-3735580D02*
X81392780Y-3735580D01*
X81773733Y-3735580D02*
X81726114Y-3640342D01*
X81726114Y-3449866D01*
X81773733Y-3354628D01*
X81821352Y-3307009D01*
X81916590Y-3259390D01*
X82202304Y-3259390D01*
X82297542Y-3307009D01*
X82345161Y-3354628D01*
X82392780Y-3449866D01*
X82392780Y-3640342D01*
X82345161Y-3735580D01*
X82392780Y-2402247D02*
X81868971Y-2402247D01*
X81773733Y-2449866D01*
X81726114Y-2545104D01*
X81726114Y-2735580D01*
X81773733Y-2830819D01*
X82345161Y-2402247D02*
X82392780Y-2497485D01*
X82392780Y-2735580D01*
X82345161Y-2830819D01*
X82249923Y-2878438D01*
X82154685Y-2878438D01*
X82059447Y-2830819D01*
X82011828Y-2735580D01*
X82011828Y-2497485D01*
X81964209Y-2402247D01*
X81726114Y-2068914D02*
X81726114Y-1687961D01*
X81392780Y-1926057D02*
X82249923Y-1926057D01*
X82345161Y-1878438D01*
X82392780Y-1783200D01*
X82392780Y-1687961D01*
D11*
X39809420Y-4559300D02*
X42349420Y-4559300D01*
X42349420Y-4559300D02*
X42349420Y-1889300D01*
X39809420Y-1889300D02*
X1579420Y-1889300D01*
X45019420Y-1889300D02*
X42349420Y-1889300D01*
X42349420Y-17259300D02*
X42349420Y-19929300D01*
X42349420Y-17259300D02*
X4249420Y-17259300D01*
X4249420Y-17259300D02*
X4249420Y-19929300D01*
X39809420Y-4559300D02*
X39809420Y-1889300D01*
X39809420Y-4559300D02*
X4249420Y-4559300D01*
X4249420Y-4559300D02*
X4249420Y-1889300D01*
X1579420Y-1889300D02*
X1579420Y-19929300D01*
X1579420Y-19929300D02*
X45019420Y-19929300D01*
X45019420Y-19929300D02*
X45019420Y-1889300D01*
D10*
X71356220Y-524500D02*
X73956220Y-524500D01*
X73956220Y-524500D02*
X73956220Y-5524500D01*
X68756220Y-5424500D02*
X68756220Y-524500D01*
X68756220Y-524500D02*
X71256220Y-524500D01*
X71256220Y-10524500D02*
X68756220Y-10524500D01*
X68756220Y-10524500D02*
X68756220Y-7924500D01*
X73956220Y-8424500D02*
X73956220Y-10524500D01*
X73956220Y-10524500D02*
X71356220Y-10524500D01*
X68756220Y-5424500D02*
X68756220Y-7924500D01*
X73956220Y-5524500D02*
X73956220Y-8424500D01*
X71356220Y-524500D02*
X71256220Y-524500D01*
X71356220Y-10524500D02*
X71256220Y-10524500D01*
X67374780Y-18559780D02*
X67374780Y-21159780D01*
X67374780Y-21159780D02*
X62374780Y-21159780D01*
X62474780Y-15959780D02*
X67374780Y-15959780D01*
X67374780Y-15959780D02*
X67374780Y-18459780D01*
X57374780Y-18459780D02*
X57374780Y-15959780D01*
X57374780Y-15959780D02*
X59974780Y-15959780D01*
X59474780Y-21159780D02*
X57374780Y-21159780D01*
X57374780Y-21159780D02*
X57374780Y-18559780D01*
X62474780Y-15959780D02*
X59974780Y-15959780D01*
X62374780Y-21159780D02*
X59474780Y-21159780D01*
X67374780Y-18559780D02*
X67374780Y-18459780D01*
X57374780Y-18559780D02*
X57374780Y-18459780D01*
X57092840Y-10612120D02*
X57092840Y-10512120D01*
X67092840Y-10612120D02*
X67092840Y-10512120D01*
X62092840Y-13212120D02*
X59192840Y-13212120D01*
X62192840Y-8012120D02*
X59692840Y-8012120D01*
X57092840Y-13212120D02*
X57092840Y-10612120D01*
X59192840Y-13212120D02*
X57092840Y-13212120D01*
X57092840Y-8012120D02*
X59692840Y-8012120D01*
X57092840Y-10512120D02*
X57092840Y-8012120D01*
X67092840Y-8012120D02*
X67092840Y-10512120D01*
X62192840Y-8012120D02*
X67092840Y-8012120D01*
X67092840Y-13212120D02*
X62092840Y-13212120D01*
X67092840Y-10612120D02*
X67092840Y-13212120D01*
X67245240Y-3431540D02*
X67245240Y-6031540D01*
X67245240Y-6031540D02*
X62245240Y-6031540D01*
X62345240Y-831540D02*
X67245240Y-831540D01*
X67245240Y-831540D02*
X67245240Y-3331540D01*
X57245240Y-3331540D02*
X57245240Y-831540D01*
X57245240Y-831540D02*
X59845240Y-831540D01*
X59345240Y-6031540D02*
X57245240Y-6031540D01*
X57245240Y-6031540D02*
X57245240Y-3431540D01*
X62345240Y-831540D02*
X59845240Y-831540D01*
X62245240Y-6031540D02*
X59345240Y-6031540D01*
X67245240Y-3431540D02*
X67245240Y-3331540D01*
X57245240Y-3431540D02*
X57245240Y-3331540D01*
X96608900Y-298440D02*
X99208900Y-298440D01*
X99208900Y-298440D02*
X99208900Y-5298440D01*
X94008900Y-5198440D02*
X94008900Y-298440D01*
X94008900Y-298440D02*
X96508900Y-298440D01*
X96508900Y-10298440D02*
X94008900Y-10298440D01*
X94008900Y-10298440D02*
X94008900Y-7698440D01*
X99208900Y-8198440D02*
X99208900Y-10298440D01*
X99208900Y-10298440D02*
X96608900Y-10298440D01*
X94008900Y-5198440D02*
X94008900Y-7698440D01*
X99208900Y-5298440D02*
X99208900Y-8198440D01*
X96608900Y-298440D02*
X96508900Y-298440D01*
X96608900Y-10298440D02*
X96508900Y-10298440D01*
D11*
X74722540Y-10645260D02*
X75972540Y-10645260D01*
X74722540Y-9395260D02*
X74722540Y-10645260D01*
X80222540Y-995260D02*
X80222540Y-5295260D01*
X77272540Y-995260D02*
X80222540Y-995260D01*
X77272540Y-245260D02*
X77272540Y-995260D01*
X80222540Y-9595260D02*
X80222540Y-5295260D01*
X77272540Y-9595260D02*
X80222540Y-9595260D01*
X77272540Y-10345260D02*
X77272540Y-9595260D01*
X75022540Y-245260D02*
X75022540Y-2045260D01*
X75772540Y-245260D02*
X75022540Y-245260D01*
X75772540Y-2045260D02*
X75772540Y-245260D01*
X75022540Y-2045260D02*
X75772540Y-2045260D01*
X75022540Y-8545260D02*
X75022540Y-10345260D01*
X75772540Y-8545260D02*
X75022540Y-8545260D01*
X75772540Y-10345260D02*
X75772540Y-8545260D01*
X75022540Y-10345260D02*
X75772540Y-10345260D01*
X75022540Y-3545260D02*
X75022540Y-7045260D01*
X75772540Y-3545260D02*
X75022540Y-3545260D01*
X75772540Y-7045260D02*
X75772540Y-3545260D01*
X75022540Y-7045260D02*
X75772540Y-7045260D01*
X75012540Y-235260D02*
X75012540Y-10355260D01*
X80982540Y-235260D02*
X75012540Y-235260D01*
X80982540Y-10355260D02*
X80982540Y-235260D01*
X75012540Y-10355260D02*
X80982540Y-10355260D01*
X90679280Y-11562400D02*
X84709280Y-11562400D01*
X84709280Y-11562400D02*
X84709280Y-21682400D01*
X84709280Y-21682400D02*
X90679280Y-21682400D01*
X90679280Y-21682400D02*
X90679280Y-11562400D01*
X90669280Y-14872400D02*
X89919280Y-14872400D01*
X89919280Y-14872400D02*
X89919280Y-18372400D01*
X89919280Y-18372400D02*
X90669280Y-18372400D01*
X90669280Y-18372400D02*
X90669280Y-14872400D01*
X90669280Y-11572400D02*
X89919280Y-11572400D01*
X89919280Y-11572400D02*
X89919280Y-13372400D01*
X89919280Y-13372400D02*
X90669280Y-13372400D01*
X90669280Y-13372400D02*
X90669280Y-11572400D01*
X90669280Y-19872400D02*
X89919280Y-19872400D01*
X89919280Y-19872400D02*
X89919280Y-21672400D01*
X89919280Y-21672400D02*
X90669280Y-21672400D01*
X90669280Y-21672400D02*
X90669280Y-19872400D01*
X88419280Y-11572400D02*
X88419280Y-12322400D01*
X88419280Y-12322400D02*
X85469280Y-12322400D01*
X85469280Y-12322400D02*
X85469280Y-16622400D01*
X88419280Y-21672400D02*
X88419280Y-20922400D01*
X88419280Y-20922400D02*
X85469280Y-20922400D01*
X85469280Y-20922400D02*
X85469280Y-16622400D01*
X90969280Y-12522400D02*
X90969280Y-11272400D01*
X90969280Y-11272400D02*
X89719280Y-11272400D01*
X83165940Y-10319700D02*
X89135940Y-10319700D01*
X89135940Y-10319700D02*
X89135940Y-199700D01*
X89135940Y-199700D02*
X83165940Y-199700D01*
X83165940Y-199700D02*
X83165940Y-10319700D01*
X83175940Y-7009700D02*
X83925940Y-7009700D01*
X83925940Y-7009700D02*
X83925940Y-3509700D01*
X83925940Y-3509700D02*
X83175940Y-3509700D01*
X83175940Y-3509700D02*
X83175940Y-7009700D01*
X83175940Y-10309700D02*
X83925940Y-10309700D01*
X83925940Y-10309700D02*
X83925940Y-8509700D01*
X83925940Y-8509700D02*
X83175940Y-8509700D01*
X83175940Y-8509700D02*
X83175940Y-10309700D01*
X83175940Y-2009700D02*
X83925940Y-2009700D01*
X83925940Y-2009700D02*
X83925940Y-209700D01*
X83925940Y-209700D02*
X83175940Y-209700D01*
X83175940Y-209700D02*
X83175940Y-2009700D01*
X85425940Y-10309700D02*
X85425940Y-9559700D01*
X85425940Y-9559700D02*
X88375940Y-9559700D01*
X88375940Y-9559700D02*
X88375940Y-5259700D01*
X85425940Y-209700D02*
X85425940Y-959700D01*
X85425940Y-959700D02*
X88375940Y-959700D01*
X88375940Y-959700D02*
X88375940Y-5259700D01*
X82875940Y-9359700D02*
X82875940Y-10609700D01*
X82875940Y-10609700D02*
X84125940Y-10609700D01*
X75452420Y-11282560D02*
X74202420Y-11282560D01*
X75452420Y-12532560D02*
X75452420Y-11282560D01*
X69952420Y-20932560D02*
X69952420Y-16632560D01*
X72902420Y-20932560D02*
X69952420Y-20932560D01*
X72902420Y-21682560D02*
X72902420Y-20932560D01*
X69952420Y-12332560D02*
X69952420Y-16632560D01*
X72902420Y-12332560D02*
X69952420Y-12332560D01*
X72902420Y-11582560D02*
X72902420Y-12332560D01*
X75152420Y-21682560D02*
X75152420Y-19882560D01*
X74402420Y-21682560D02*
X75152420Y-21682560D01*
X74402420Y-19882560D02*
X74402420Y-21682560D01*
X75152420Y-19882560D02*
X74402420Y-19882560D01*
X75152420Y-13382560D02*
X75152420Y-11582560D01*
X74402420Y-13382560D02*
X75152420Y-13382560D01*
X74402420Y-11582560D02*
X74402420Y-13382560D01*
X75152420Y-11582560D02*
X74402420Y-11582560D01*
X75152420Y-18382560D02*
X75152420Y-14882560D01*
X74402420Y-18382560D02*
X75152420Y-18382560D01*
X74402420Y-14882560D02*
X74402420Y-18382560D01*
X75152420Y-14882560D02*
X74402420Y-14882560D01*
X75162420Y-21692560D02*
X75162420Y-11572560D01*
X69192420Y-21692560D02*
X75162420Y-21692560D01*
X69192420Y-11572560D02*
X69192420Y-21692560D01*
X75162420Y-11572560D02*
X69192420Y-11572560D01*
X82703680Y-11597960D02*
X76733680Y-11597960D01*
X76733680Y-11597960D02*
X76733680Y-21717960D01*
X76733680Y-21717960D02*
X82703680Y-21717960D01*
X82703680Y-21717960D02*
X82703680Y-11597960D01*
X82693680Y-14907960D02*
X81943680Y-14907960D01*
X81943680Y-14907960D02*
X81943680Y-18407960D01*
X81943680Y-18407960D02*
X82693680Y-18407960D01*
X82693680Y-18407960D02*
X82693680Y-14907960D01*
X82693680Y-11607960D02*
X81943680Y-11607960D01*
X81943680Y-11607960D02*
X81943680Y-13407960D01*
X81943680Y-13407960D02*
X82693680Y-13407960D01*
X82693680Y-13407960D02*
X82693680Y-11607960D01*
X82693680Y-19907960D02*
X81943680Y-19907960D01*
X81943680Y-19907960D02*
X81943680Y-21707960D01*
X81943680Y-21707960D02*
X82693680Y-21707960D01*
X82693680Y-21707960D02*
X82693680Y-19907960D01*
X80443680Y-11607960D02*
X80443680Y-12357960D01*
X80443680Y-12357960D02*
X77493680Y-12357960D01*
X77493680Y-12357960D02*
X77493680Y-16657960D01*
X80443680Y-21707960D02*
X80443680Y-20957960D01*
X80443680Y-20957960D02*
X77493680Y-20957960D01*
X77493680Y-20957960D02*
X77493680Y-16657960D01*
X82993680Y-12557960D02*
X82993680Y-11307960D01*
X82993680Y-11307960D02*
X81743680Y-11307960D01*
X99122680Y-11272400D02*
X97872680Y-11272400D01*
X99122680Y-12522400D02*
X99122680Y-11272400D01*
X93622680Y-20922400D02*
X93622680Y-16622400D01*
X96572680Y-20922400D02*
X93622680Y-20922400D01*
X96572680Y-21672400D02*
X96572680Y-20922400D01*
X93622680Y-12322400D02*
X93622680Y-16622400D01*
X96572680Y-12322400D02*
X93622680Y-12322400D01*
X96572680Y-11572400D02*
X96572680Y-12322400D01*
X98822680Y-21672400D02*
X98822680Y-19872400D01*
X98072680Y-21672400D02*
X98822680Y-21672400D01*
X98072680Y-19872400D02*
X98072680Y-21672400D01*
X98822680Y-19872400D02*
X98072680Y-19872400D01*
X98822680Y-13372400D02*
X98822680Y-11572400D01*
X98072680Y-13372400D02*
X98822680Y-13372400D01*
X98072680Y-11572400D02*
X98072680Y-13372400D01*
X98822680Y-11572400D02*
X98072680Y-11572400D01*
X98822680Y-18372400D02*
X98822680Y-14872400D01*
X98072680Y-18372400D02*
X98822680Y-18372400D01*
X98072680Y-14872400D02*
X98072680Y-18372400D01*
X98822680Y-14872400D02*
X98072680Y-14872400D01*
X98832680Y-21682400D02*
X98832680Y-11562400D01*
X92862680Y-21682400D02*
X98832680Y-21682400D01*
X92862680Y-11562400D02*
X92862680Y-21682400D01*
X98832680Y-11562400D02*
X92862680Y-11562400D01*
X93219580Y-3224840D02*
X93219580Y-564840D01*
X93099580Y-3224840D02*
X93219580Y-3224840D01*
X93099580Y-564840D02*
X93219580Y-564840D01*
X90559580Y-564840D02*
X91889580Y-564840D01*
X90559580Y-1894840D02*
X90559580Y-564840D01*
X16522616Y-14173880D02*
X17726744Y-14173880D01*
X16522616Y-12353880D02*
X17726744Y-12353880D01*
X8755296Y-11386140D02*
X9959424Y-11386140D01*
X8755296Y-13206140D02*
X9959424Y-13206140D01*
X15031636Y-14937060D02*
X16235764Y-14937060D01*
X15031636Y-16757060D02*
X16235764Y-16757060D01*
X8790856Y-16340500D02*
X9994984Y-16340500D01*
X8790856Y-14520500D02*
X9994984Y-14520500D01*
D10*
X53030120Y-11238220D02*
X53130120Y-11238220D01*
X53030120Y-21238220D02*
X53130120Y-21238220D01*
X50430120Y-16238220D02*
X50430120Y-13338220D01*
X55630120Y-16338220D02*
X55630120Y-13838220D01*
X50430120Y-11238220D02*
X53030120Y-11238220D01*
X50430120Y-13338220D02*
X50430120Y-11238220D01*
X55630120Y-11238220D02*
X55630120Y-13838220D01*
X53130120Y-11238220D02*
X55630120Y-11238220D01*
X55630120Y-21238220D02*
X53130120Y-21238220D01*
X55630120Y-16338220D02*
X55630120Y-21238220D01*
X50430120Y-21238220D02*
X50430120Y-16238220D01*
X53030120Y-21238220D02*
X50430120Y-21238220D01*
X53027580Y-458460D02*
X53127580Y-458460D01*
X53027580Y-10458460D02*
X53127580Y-10458460D01*
X50427580Y-5458460D02*
X50427580Y-2558460D01*
X55627580Y-5558460D02*
X55627580Y-3058460D01*
X50427580Y-458460D02*
X53027580Y-458460D01*
X50427580Y-2558460D02*
X50427580Y-458460D01*
X55627580Y-458460D02*
X55627580Y-3058460D01*
X53127580Y-458460D02*
X55627580Y-458460D01*
X55627580Y-10458460D02*
X53127580Y-10458460D01*
X55627580Y-5558460D02*
X55627580Y-10458460D01*
X50427580Y-10458460D02*
X50427580Y-5458460D01*
X53027580Y-10458460D02*
X50427580Y-10458460D01*
D11*
X30126260Y-6827436D02*
X30126260Y-8031564D01*
X31946260Y-6827436D02*
X31946260Y-8031564D01*
X29393560Y-6850296D02*
X29393560Y-8054424D01*
X27573560Y-6850296D02*
X27573560Y-8054424D01*
X26782440Y-6814736D02*
X26782440Y-8018864D01*
X24962440Y-6814736D02*
X24962440Y-8018864D01*
X48066960Y-1286200D02*
X49396960Y-1286200D01*
X49396960Y-1286200D02*
X49396960Y-2616200D01*
X49396960Y-3886200D02*
X49396960Y-6486200D01*
X46736960Y-6486200D02*
X49396960Y-6486200D01*
X46736960Y-3886200D02*
X46736960Y-6486200D01*
X46736960Y-3886200D02*
X49396960Y-3886200D01*
X46777600Y-10850880D02*
X49437600Y-10850880D01*
X46777600Y-10850880D02*
X46777600Y-13450880D01*
X46777600Y-13450880D02*
X49437600Y-13450880D01*
X49437600Y-10850880D02*
X49437600Y-13450880D01*
X49437600Y-8250880D02*
X49437600Y-9580880D01*
X48107600Y-8250880D02*
X49437600Y-8250880D01*
X46777600Y-18028920D02*
X49437600Y-18028920D01*
X46777600Y-18028920D02*
X46777600Y-20628920D01*
X46777600Y-20628920D02*
X49437600Y-20628920D01*
X49437600Y-18028920D02*
X49437600Y-20628920D01*
X49437600Y-15428920D02*
X49437600Y-16758920D01*
X48107600Y-15428920D02*
X49437600Y-15428920D01*
D10*
X40159394Y-11144546D02*
X40635584Y-11144546D01*
X40064156Y-11430260D02*
X40397489Y-10430260D01*
X40730822Y-11430260D01*
X41587965Y-11430260D02*
X41016537Y-11430260D01*
X41302251Y-11430260D02*
X41302251Y-10430260D01*
X41207013Y-10573118D01*
X41111775Y-10668356D01*
X41016537Y-10715975D01*
X68878200Y-5817193D02*
X69592486Y-5817193D01*
X69735343Y-5864812D01*
X69830581Y-5960050D01*
X69878200Y-6102907D01*
X69878200Y-6198145D01*
X69878200Y-4817193D02*
X69878200Y-5388621D01*
X69878200Y-5102907D02*
X68878200Y-5102907D01*
X69021058Y-5198145D01*
X69116296Y-5293383D01*
X69163915Y-5388621D01*
X61988106Y-16168120D02*
X61988106Y-16882406D01*
X61940487Y-17025263D01*
X61845249Y-17120501D01*
X61702392Y-17168120D01*
X61607154Y-17168120D01*
X62416678Y-16263359D02*
X62464297Y-16215740D01*
X62559535Y-16168120D01*
X62797630Y-16168120D01*
X62892868Y-16215740D01*
X62940487Y-16263359D01*
X62988106Y-16358597D01*
X62988106Y-16453835D01*
X62940487Y-16596692D01*
X62369059Y-17168120D01*
X62988106Y-17168120D01*
X61772206Y-8200140D02*
X61772206Y-8914426D01*
X61724587Y-9057283D01*
X61629349Y-9152521D01*
X61486492Y-9200140D01*
X61391254Y-9200140D01*
X62153159Y-8200140D02*
X62772206Y-8200140D01*
X62438873Y-8581093D01*
X62581730Y-8581093D01*
X62676968Y-8628712D01*
X62724587Y-8676331D01*
X62772206Y-8771569D01*
X62772206Y-9009664D01*
X62724587Y-9104902D01*
X62676968Y-9152521D01*
X62581730Y-9200140D01*
X62296016Y-9200140D01*
X62200778Y-9152521D01*
X62153159Y-9104902D01*
X61878886Y-986540D02*
X61878886Y-1700826D01*
X61831267Y-1843683D01*
X61736029Y-1938921D01*
X61593172Y-1986540D01*
X61497934Y-1986540D01*
X62783648Y-1319874D02*
X62783648Y-1986540D01*
X62545553Y-938921D02*
X62307458Y-1653207D01*
X62926505Y-1653207D01*
X94217240Y-5672413D02*
X94931526Y-5672413D01*
X95074383Y-5720032D01*
X95169621Y-5815270D01*
X95217240Y-5958127D01*
X95217240Y-6053365D01*
X94217240Y-4720032D02*
X94217240Y-5196222D01*
X94693431Y-5243841D01*
X94645812Y-5196222D01*
X94598193Y-5100984D01*
X94598193Y-4862889D01*
X94645812Y-4767651D01*
X94693431Y-4720032D01*
X94788669Y-4672413D01*
X95026764Y-4672413D01*
X95122002Y-4720032D01*
X95169621Y-4767651D01*
X95217240Y-4862889D01*
X95217240Y-5100984D01*
X95169621Y-5196222D01*
X95122002Y-5243841D01*
X78893420Y-2400893D02*
X79607706Y-2400893D01*
X79750563Y-2448512D01*
X79845801Y-2543750D01*
X79893420Y-2686607D01*
X79893420Y-2781845D01*
X78893420Y-1496131D02*
X78893420Y-1686607D01*
X78941040Y-1781845D01*
X78988659Y-1829464D01*
X79131516Y-1924702D01*
X79321992Y-1972321D01*
X79702944Y-1972321D01*
X79798182Y-1924702D01*
X79845801Y-1877083D01*
X79893420Y-1781845D01*
X79893420Y-1591369D01*
X79845801Y-1496131D01*
X79798182Y-1448512D01*
X79702944Y-1400893D01*
X79464849Y-1400893D01*
X79369611Y-1448512D01*
X79321992Y-1496131D01*
X79274373Y-1591369D01*
X79274373Y-1781845D01*
X79321992Y-1877083D01*
X79369611Y-1924702D01*
X79464849Y-1972321D01*
X85756500Y-13932493D02*
X86470786Y-13932493D01*
X86613643Y-13980112D01*
X86708881Y-14075350D01*
X86756500Y-14218207D01*
X86756500Y-14313445D01*
X85756500Y-13551540D02*
X85756500Y-12884874D01*
X86756500Y-13313445D01*
X87100160Y-2337393D02*
X87814446Y-2337393D01*
X87957303Y-2385012D01*
X88052541Y-2480250D01*
X88100160Y-2623107D01*
X88100160Y-2718345D01*
X87528732Y-1718345D02*
X87481113Y-1813583D01*
X87433494Y-1861202D01*
X87338256Y-1908821D01*
X87290637Y-1908821D01*
X87195399Y-1861202D01*
X87147780Y-1813583D01*
X87100160Y-1718345D01*
X87100160Y-1527869D01*
X87147780Y-1432631D01*
X87195399Y-1385012D01*
X87290637Y-1337393D01*
X87338256Y-1337393D01*
X87433494Y-1385012D01*
X87481113Y-1432631D01*
X87528732Y-1527869D01*
X87528732Y-1718345D01*
X87576351Y-1813583D01*
X87623970Y-1861202D01*
X87719208Y-1908821D01*
X87909684Y-1908821D01*
X88004922Y-1861202D01*
X88052541Y-1813583D01*
X88100160Y-1718345D01*
X88100160Y-1527869D01*
X88052541Y-1432631D01*
X88004922Y-1385012D01*
X87909684Y-1337393D01*
X87719208Y-1337393D01*
X87623970Y-1385012D01*
X87576351Y-1432631D01*
X87528732Y-1527869D01*
X70277740Y-13754693D02*
X70992026Y-13754693D01*
X71134883Y-13802312D01*
X71230121Y-13897550D01*
X71277740Y-14040407D01*
X71277740Y-14135645D01*
X71277740Y-13230883D02*
X71277740Y-13040407D01*
X71230121Y-12945169D01*
X71182502Y-12897550D01*
X71039645Y-12802312D01*
X70849169Y-12754693D01*
X70468217Y-12754693D01*
X70372979Y-12802312D01*
X70325360Y-12849931D01*
X70277740Y-12945169D01*
X70277740Y-13135645D01*
X70325360Y-13230883D01*
X70372979Y-13278502D01*
X70468217Y-13326121D01*
X70706312Y-13326121D01*
X70801550Y-13278502D01*
X70849169Y-13230883D01*
X70896788Y-13135645D01*
X70896788Y-12945169D01*
X70849169Y-12849931D01*
X70801550Y-12802312D01*
X70706312Y-12754693D01*
X77704700Y-14881123D02*
X78418986Y-14881123D01*
X78561843Y-14928742D01*
X78657081Y-15023980D01*
X78704700Y-15166838D01*
X78704700Y-15262076D01*
X78704700Y-13881123D02*
X78704700Y-14452552D01*
X78704700Y-14166838D02*
X77704700Y-14166838D01*
X77847558Y-14262076D01*
X77942796Y-14357314D01*
X77990415Y-14452552D01*
X77704700Y-13262076D02*
X77704700Y-13166838D01*
X77752320Y-13071600D01*
X77799939Y-13023980D01*
X77895177Y-12976361D01*
X78085653Y-12928742D01*
X78323748Y-12928742D01*
X78514224Y-12976361D01*
X78609462Y-13023980D01*
X78657081Y-13071600D01*
X78704700Y-13166838D01*
X78704700Y-13262076D01*
X78657081Y-13357314D01*
X78609462Y-13404933D01*
X78514224Y-13452552D01*
X78323748Y-13500171D01*
X78085653Y-13500171D01*
X77895177Y-13452552D01*
X77799939Y-13404933D01*
X77752320Y-13357314D01*
X77704700Y-13262076D01*
X93917520Y-14517903D02*
X94631806Y-14517903D01*
X94774663Y-14565522D01*
X94869901Y-14660760D01*
X94917520Y-14803618D01*
X94917520Y-14898856D01*
X94917520Y-13517903D02*
X94917520Y-14089332D01*
X94917520Y-13803618D02*
X93917520Y-13803618D01*
X94060378Y-13898856D01*
X94155616Y-13994094D01*
X94203235Y-14089332D01*
X94917520Y-12565522D02*
X94917520Y-13136951D01*
X94917520Y-12851237D02*
X93917520Y-12851237D01*
X94060378Y-12946475D01*
X94155616Y-13041713D01*
X94203235Y-13136951D01*
X92294341Y-7135262D02*
X92341960Y-6992405D01*
X92341960Y-6754310D01*
X92294341Y-6659072D01*
X92246722Y-6611453D01*
X92151484Y-6563834D01*
X92056246Y-6563834D01*
X91961008Y-6611453D01*
X91913389Y-6659072D01*
X91865770Y-6754310D01*
X91818151Y-6944786D01*
X91770532Y-7040024D01*
X91722913Y-7087643D01*
X91627675Y-7135262D01*
X91532437Y-7135262D01*
X91437199Y-7087643D01*
X91389580Y-7040024D01*
X91341960Y-6944786D01*
X91341960Y-6706691D01*
X91389580Y-6563834D01*
X92294341Y-5754310D02*
X92341960Y-5849548D01*
X92341960Y-6040024D01*
X92294341Y-6135262D01*
X92199103Y-6182881D01*
X91818151Y-6182881D01*
X91722913Y-6135262D01*
X91675294Y-6040024D01*
X91675294Y-5849548D01*
X91722913Y-5754310D01*
X91818151Y-5706691D01*
X91913389Y-5706691D01*
X92008627Y-6182881D01*
X92341960Y-5278120D02*
X91675294Y-5278120D01*
X91865770Y-5278120D02*
X91770532Y-5230500D01*
X91722913Y-5182881D01*
X91675294Y-5087643D01*
X91675294Y-4992405D01*
X91675294Y-4754310D02*
X92341960Y-4516215D01*
X91675294Y-4278120D01*
X92341960Y-3754310D02*
X92294341Y-3849548D01*
X92246722Y-3897167D01*
X92151484Y-3944786D01*
X91865770Y-3944786D01*
X91770532Y-3897167D01*
X91722913Y-3849548D01*
X91675294Y-3754310D01*
X91675294Y-3611453D01*
X91722913Y-3516215D01*
X91770532Y-3468596D01*
X91865770Y-3420977D01*
X92151484Y-3420977D01*
X92246722Y-3468596D01*
X92294341Y-3516215D01*
X92341960Y-3611453D01*
X92341960Y-3754310D01*
X16958013Y-11896260D02*
X16624680Y-11420070D01*
X16386584Y-11896260D02*
X16386584Y-10896260D01*
X16767537Y-10896260D01*
X16862775Y-10943880D01*
X16910394Y-10991499D01*
X16958013Y-11086737D01*
X16958013Y-11229594D01*
X16910394Y-11324832D01*
X16862775Y-11372451D01*
X16767537Y-11420070D01*
X16386584Y-11420070D01*
X17815156Y-11229594D02*
X17815156Y-11896260D01*
X17577060Y-10848641D02*
X17338965Y-11562927D01*
X17958013Y-11562927D01*
X9190693Y-10928520D02*
X8857360Y-10452330D01*
X8619264Y-10928520D02*
X8619264Y-9928520D01*
X9000217Y-9928520D01*
X9095455Y-9976140D01*
X9143074Y-10023759D01*
X9190693Y-10118997D01*
X9190693Y-10261854D01*
X9143074Y-10357092D01*
X9095455Y-10404711D01*
X9000217Y-10452330D01*
X8619264Y-10452330D01*
X10095455Y-9928520D02*
X9619264Y-9928520D01*
X9571645Y-10404711D01*
X9619264Y-10357092D01*
X9714502Y-10309473D01*
X9952598Y-10309473D01*
X10047836Y-10357092D01*
X10095455Y-10404711D01*
X10143074Y-10499949D01*
X10143074Y-10738044D01*
X10095455Y-10833282D01*
X10047836Y-10880901D01*
X9952598Y-10928520D01*
X9714502Y-10928520D01*
X9619264Y-10880901D01*
X9571645Y-10833282D01*
X15467033Y-14479440D02*
X15133700Y-14003250D01*
X14895604Y-14479440D02*
X14895604Y-13479440D01*
X15276557Y-13479440D01*
X15371795Y-13527060D01*
X15419414Y-13574679D01*
X15467033Y-13669917D01*
X15467033Y-13812774D01*
X15419414Y-13908012D01*
X15371795Y-13955631D01*
X15276557Y-14003250D01*
X14895604Y-14003250D01*
X16324176Y-13479440D02*
X16133700Y-13479440D01*
X16038461Y-13527060D01*
X15990842Y-13574679D01*
X15895604Y-13717536D01*
X15847985Y-13908012D01*
X15847985Y-14288964D01*
X15895604Y-14384202D01*
X15943223Y-14431821D01*
X16038461Y-14479440D01*
X16228938Y-14479440D01*
X16324176Y-14431821D01*
X16371795Y-14384202D01*
X16419414Y-14288964D01*
X16419414Y-14050869D01*
X16371795Y-13955631D01*
X16324176Y-13908012D01*
X16228938Y-13860393D01*
X16038461Y-13860393D01*
X15943223Y-13908012D01*
X15895604Y-13955631D01*
X15847985Y-14050869D01*
X9226253Y-14062880D02*
X8892920Y-13586690D01*
X8654824Y-14062880D02*
X8654824Y-13062880D01*
X9035777Y-13062880D01*
X9131015Y-13110500D01*
X9178634Y-13158119D01*
X9226253Y-13253357D01*
X9226253Y-13396214D01*
X9178634Y-13491452D01*
X9131015Y-13539071D01*
X9035777Y-13586690D01*
X8654824Y-13586690D01*
X9559586Y-13062880D02*
X10226253Y-13062880D01*
X9797681Y-14062880D01*
X55634521Y-17586793D02*
X55682140Y-17443936D01*
X55682140Y-17205840D01*
X55634521Y-17110602D01*
X55586902Y-17062983D01*
X55491664Y-17015364D01*
X55396426Y-17015364D01*
X55301188Y-17062983D01*
X55253569Y-17110602D01*
X55205950Y-17205840D01*
X55158331Y-17396317D01*
X55110712Y-17491555D01*
X55063093Y-17539174D01*
X54967855Y-17586793D01*
X54872617Y-17586793D01*
X54777379Y-17539174D01*
X54729760Y-17491555D01*
X54682140Y-17396317D01*
X54682140Y-17158221D01*
X54729760Y-17015364D01*
X54682140Y-16682031D02*
X55682140Y-16443936D01*
X54967855Y-16253460D01*
X55682140Y-16062983D01*
X54682140Y-15824888D01*
X55682140Y-14920126D02*
X55682140Y-15491555D01*
X55682140Y-15205840D02*
X54682140Y-15205840D01*
X54824998Y-15301079D01*
X54920236Y-15396317D01*
X54967855Y-15491555D01*
X55563401Y-6890853D02*
X55611020Y-6747996D01*
X55611020Y-6509900D01*
X55563401Y-6414662D01*
X55515782Y-6367043D01*
X55420544Y-6319424D01*
X55325306Y-6319424D01*
X55230068Y-6367043D01*
X55182449Y-6414662D01*
X55134830Y-6509900D01*
X55087211Y-6700377D01*
X55039592Y-6795615D01*
X54991973Y-6843234D01*
X54896735Y-6890853D01*
X54801497Y-6890853D01*
X54706259Y-6843234D01*
X54658640Y-6795615D01*
X54611020Y-6700377D01*
X54611020Y-6462281D01*
X54658640Y-6319424D01*
X54611020Y-5986091D02*
X55611020Y-5747996D01*
X54896735Y-5557520D01*
X55611020Y-5367043D01*
X54611020Y-5128948D01*
X54706259Y-4795615D02*
X54658640Y-4747996D01*
X54611020Y-4652758D01*
X54611020Y-4414662D01*
X54658640Y-4319424D01*
X54706259Y-4271805D01*
X54801497Y-4224186D01*
X54896735Y-4224186D01*
X55039592Y-4271805D01*
X55611020Y-4843234D01*
X55611020Y-4224186D01*
X33308640Y-7596166D02*
X32832450Y-7929500D01*
X33308640Y-8167595D02*
X32308640Y-8167595D01*
X32308640Y-7786642D01*
X32356260Y-7691404D01*
X32403879Y-7643785D01*
X32499117Y-7596166D01*
X32641974Y-7596166D01*
X32737212Y-7643785D01*
X32784831Y-7691404D01*
X32832450Y-7786642D01*
X32832450Y-8167595D01*
X33308640Y-6643785D02*
X33308640Y-7215214D01*
X33308640Y-6929500D02*
X32308640Y-6929500D01*
X32451498Y-7024738D01*
X32546736Y-7119976D01*
X32594355Y-7215214D01*
X30755940Y-7619026D02*
X30279750Y-7952360D01*
X30755940Y-8190455D02*
X29755940Y-8190455D01*
X29755940Y-7809502D01*
X29803560Y-7714264D01*
X29851179Y-7666645D01*
X29946417Y-7619026D01*
X30089274Y-7619026D01*
X30184512Y-7666645D01*
X30232131Y-7714264D01*
X30279750Y-7809502D01*
X30279750Y-8190455D01*
X29851179Y-7238074D02*
X29803560Y-7190455D01*
X29755940Y-7095217D01*
X29755940Y-6857121D01*
X29803560Y-6761883D01*
X29851179Y-6714264D01*
X29946417Y-6666645D01*
X30041655Y-6666645D01*
X30184512Y-6714264D01*
X30755940Y-7285693D01*
X30755940Y-6666645D01*
X28144820Y-7583466D02*
X27668630Y-7916800D01*
X28144820Y-8154895D02*
X27144820Y-8154895D01*
X27144820Y-7773942D01*
X27192440Y-7678704D01*
X27240059Y-7631085D01*
X27335297Y-7583466D01*
X27478154Y-7583466D01*
X27573392Y-7631085D01*
X27621011Y-7678704D01*
X27668630Y-7773942D01*
X27668630Y-8154895D01*
X27144820Y-7250133D02*
X27144820Y-6631085D01*
X27525773Y-6964419D01*
X27525773Y-6821561D01*
X27573392Y-6726323D01*
X27621011Y-6678704D01*
X27716249Y-6631085D01*
X27954344Y-6631085D01*
X28049582Y-6678704D01*
X28097201Y-6726323D01*
X28144820Y-6821561D01*
X28144820Y-7107276D01*
X28097201Y-7202514D01*
X28049582Y-7250133D01*
X46462380Y-4468095D02*
X45462380Y-4468095D01*
X45462380Y-4230000D01*
X45510000Y-4087142D01*
X45605238Y-3991904D01*
X45700476Y-3944285D01*
X45890952Y-3896666D01*
X46033809Y-3896666D01*
X46224285Y-3944285D01*
X46319523Y-3991904D01*
X46414761Y-4087142D01*
X46462380Y-4230000D01*
X46462380Y-4468095D01*
X46462380Y-2944285D02*
X46462380Y-3515714D01*
X46462380Y-3230000D02*
X45462380Y-3230000D01*
X45605238Y-3325238D01*
X45700476Y-3420476D01*
X45748095Y-3515714D01*
X46532380Y-11498095D02*
X45532380Y-11498095D01*
X45532380Y-11260000D01*
X45580000Y-11117142D01*
X45675238Y-11021904D01*
X45770476Y-10974285D01*
X45960952Y-10926666D01*
X46103809Y-10926666D01*
X46294285Y-10974285D01*
X46389523Y-11021904D01*
X46484761Y-11117142D01*
X46532380Y-11260000D01*
X46532380Y-11498095D01*
X45627619Y-10545714D02*
X45580000Y-10498095D01*
X45532380Y-10402857D01*
X45532380Y-10164761D01*
X45580000Y-10069523D01*
X45627619Y-10021904D01*
X45722857Y-9974285D01*
X45818095Y-9974285D01*
X45960952Y-10021904D01*
X46532380Y-10593333D01*
X46532380Y-9974285D01*
X46494960Y-18787335D02*
X45494960Y-18787335D01*
X45494960Y-18549240D01*
X45542580Y-18406382D01*
X45637818Y-18311144D01*
X45733056Y-18263525D01*
X45923532Y-18215906D01*
X46066389Y-18215906D01*
X46256865Y-18263525D01*
X46352103Y-18311144D01*
X46447341Y-18406382D01*
X46494960Y-18549240D01*
X46494960Y-18787335D01*
X45494960Y-17882573D02*
X45494960Y-17263525D01*
X45875913Y-17596859D01*
X45875913Y-17454001D01*
X45923532Y-17358763D01*
X45971151Y-17311144D01*
X46066389Y-17263525D01*
X46304484Y-17263525D01*
X46399722Y-17311144D01*
X46447341Y-17358763D01*
X46494960Y-17454001D01*
X46494960Y-17739716D01*
X46447341Y-17834954D01*
X46399722Y-17882573D01*
M02*
