G04 #@! TF.GenerationSoftware,KiCad,Pcbnew,(5.1.2)-2*
G04 #@! TF.CreationDate,2020-01-25T22:11:55+00:00*
G04 #@! TF.ProjectId,rowing_steerting,726f7769-6e67-45f7-9374-65657274696e,rev?*
G04 #@! TF.SameCoordinates,Original*
G04 #@! TF.FileFunction,Copper,L2,Bot*
G04 #@! TF.FilePolarity,Positive*
%FSLAX46Y46*%
G04 Gerber Fmt 4.6, Leading zero omitted, Abs format (unit mm)*
G04 Created by KiCad (PCBNEW (5.1.2)-2) date 2020-01-25 22:11:55*
%MOMM*%
%LPD*%
G04 APERTURE LIST*
%ADD10R,1.600000X1.600000*%
%ADD11O,1.600000X1.600000*%
%ADD12C,4.000000*%
%ADD13O,1.950000X1.700000*%
%ADD14C,0.100000*%
%ADD15C,1.700000*%
%ADD16R,1.700000X1.700000*%
%ADD17O,1.700000X1.700000*%
%ADD18C,0.800000*%
%ADD19C,1.000000*%
%ADD20C,0.400000*%
%ADD21C,2.000000*%
%ADD22C,0.300000*%
G04 APERTURE END LIST*
D10*
X41079420Y-3289300D03*
D11*
X8059420Y-18529300D03*
X38539420Y-3289300D03*
X10599420Y-18529300D03*
X35999420Y-3289300D03*
X13139420Y-18529300D03*
X33459420Y-3289300D03*
X15679420Y-18529300D03*
X30919420Y-3289300D03*
X18219420Y-18529300D03*
X28379420Y-3289300D03*
X20759420Y-18529300D03*
X25839420Y-3289300D03*
X23299420Y-18529300D03*
X23299420Y-3289300D03*
X25839420Y-18529300D03*
X20759420Y-3289300D03*
X28379420Y-18529300D03*
X18219420Y-3289300D03*
X30919420Y-18529300D03*
X15679420Y-3289300D03*
X33459420Y-18529300D03*
X13139420Y-3289300D03*
X35999420Y-18529300D03*
X10599420Y-3289300D03*
X38539420Y-18529300D03*
X8059420Y-3289300D03*
X41079420Y-18529300D03*
X5519420Y-3289300D03*
X5519420Y-18529300D03*
D12*
X71356220Y-3024500D03*
X71356220Y-8024500D03*
X64874780Y-18559780D03*
X59874780Y-18559780D03*
X59592840Y-10612120D03*
X64592840Y-10612120D03*
X64745240Y-3431540D03*
X59745240Y-3431540D03*
X96608900Y-2798440D03*
X96608900Y-7798440D03*
D13*
X77472540Y-2795260D03*
X77472540Y-5295260D03*
D14*
G36*
X78222044Y-6946464D02*
G01*
X78246313Y-6950064D01*
X78270111Y-6956025D01*
X78293211Y-6964290D01*
X78315389Y-6974780D01*
X78336433Y-6987393D01*
X78356138Y-7002007D01*
X78374317Y-7018483D01*
X78390793Y-7036662D01*
X78405407Y-7056367D01*
X78418020Y-7077411D01*
X78428510Y-7099589D01*
X78436775Y-7122689D01*
X78442736Y-7146487D01*
X78446336Y-7170756D01*
X78447540Y-7195260D01*
X78447540Y-8395260D01*
X78446336Y-8419764D01*
X78442736Y-8444033D01*
X78436775Y-8467831D01*
X78428510Y-8490931D01*
X78418020Y-8513109D01*
X78405407Y-8534153D01*
X78390793Y-8553858D01*
X78374317Y-8572037D01*
X78356138Y-8588513D01*
X78336433Y-8603127D01*
X78315389Y-8615740D01*
X78293211Y-8626230D01*
X78270111Y-8634495D01*
X78246313Y-8640456D01*
X78222044Y-8644056D01*
X78197540Y-8645260D01*
X76747540Y-8645260D01*
X76723036Y-8644056D01*
X76698767Y-8640456D01*
X76674969Y-8634495D01*
X76651869Y-8626230D01*
X76629691Y-8615740D01*
X76608647Y-8603127D01*
X76588942Y-8588513D01*
X76570763Y-8572037D01*
X76554287Y-8553858D01*
X76539673Y-8534153D01*
X76527060Y-8513109D01*
X76516570Y-8490931D01*
X76508305Y-8467831D01*
X76502344Y-8444033D01*
X76498744Y-8419764D01*
X76497540Y-8395260D01*
X76497540Y-7195260D01*
X76498744Y-7170756D01*
X76502344Y-7146487D01*
X76508305Y-7122689D01*
X76516570Y-7099589D01*
X76527060Y-7077411D01*
X76539673Y-7056367D01*
X76554287Y-7036662D01*
X76570763Y-7018483D01*
X76588942Y-7002007D01*
X76608647Y-6987393D01*
X76629691Y-6974780D01*
X76651869Y-6964290D01*
X76674969Y-6956025D01*
X76698767Y-6950064D01*
X76723036Y-6946464D01*
X76747540Y-6945260D01*
X78197540Y-6945260D01*
X78222044Y-6946464D01*
X78222044Y-6946464D01*
G37*
D15*
X77472540Y-7795260D03*
D14*
G36*
X88968784Y-13273604D02*
G01*
X88993053Y-13277204D01*
X89016851Y-13283165D01*
X89039951Y-13291430D01*
X89062129Y-13301920D01*
X89083173Y-13314533D01*
X89102878Y-13329147D01*
X89121057Y-13345623D01*
X89137533Y-13363802D01*
X89152147Y-13383507D01*
X89164760Y-13404551D01*
X89175250Y-13426729D01*
X89183515Y-13449829D01*
X89189476Y-13473627D01*
X89193076Y-13497896D01*
X89194280Y-13522400D01*
X89194280Y-14722400D01*
X89193076Y-14746904D01*
X89189476Y-14771173D01*
X89183515Y-14794971D01*
X89175250Y-14818071D01*
X89164760Y-14840249D01*
X89152147Y-14861293D01*
X89137533Y-14880998D01*
X89121057Y-14899177D01*
X89102878Y-14915653D01*
X89083173Y-14930267D01*
X89062129Y-14942880D01*
X89039951Y-14953370D01*
X89016851Y-14961635D01*
X88993053Y-14967596D01*
X88968784Y-14971196D01*
X88944280Y-14972400D01*
X87494280Y-14972400D01*
X87469776Y-14971196D01*
X87445507Y-14967596D01*
X87421709Y-14961635D01*
X87398609Y-14953370D01*
X87376431Y-14942880D01*
X87355387Y-14930267D01*
X87335682Y-14915653D01*
X87317503Y-14899177D01*
X87301027Y-14880998D01*
X87286413Y-14861293D01*
X87273800Y-14840249D01*
X87263310Y-14818071D01*
X87255045Y-14794971D01*
X87249084Y-14771173D01*
X87245484Y-14746904D01*
X87244280Y-14722400D01*
X87244280Y-13522400D01*
X87245484Y-13497896D01*
X87249084Y-13473627D01*
X87255045Y-13449829D01*
X87263310Y-13426729D01*
X87273800Y-13404551D01*
X87286413Y-13383507D01*
X87301027Y-13363802D01*
X87317503Y-13345623D01*
X87335682Y-13329147D01*
X87355387Y-13314533D01*
X87376431Y-13301920D01*
X87398609Y-13291430D01*
X87421709Y-13283165D01*
X87445507Y-13277204D01*
X87469776Y-13273604D01*
X87494280Y-13272400D01*
X88944280Y-13272400D01*
X88968784Y-13273604D01*
X88968784Y-13273604D01*
G37*
D15*
X88219280Y-14122400D03*
D13*
X88219280Y-16622400D03*
X88219280Y-19122400D03*
D14*
G36*
X86375444Y-6910904D02*
G01*
X86399713Y-6914504D01*
X86423511Y-6920465D01*
X86446611Y-6928730D01*
X86468789Y-6939220D01*
X86489833Y-6951833D01*
X86509538Y-6966447D01*
X86527717Y-6982923D01*
X86544193Y-7001102D01*
X86558807Y-7020807D01*
X86571420Y-7041851D01*
X86581910Y-7064029D01*
X86590175Y-7087129D01*
X86596136Y-7110927D01*
X86599736Y-7135196D01*
X86600940Y-7159700D01*
X86600940Y-8359700D01*
X86599736Y-8384204D01*
X86596136Y-8408473D01*
X86590175Y-8432271D01*
X86581910Y-8455371D01*
X86571420Y-8477549D01*
X86558807Y-8498593D01*
X86544193Y-8518298D01*
X86527717Y-8536477D01*
X86509538Y-8552953D01*
X86489833Y-8567567D01*
X86468789Y-8580180D01*
X86446611Y-8590670D01*
X86423511Y-8598935D01*
X86399713Y-8604896D01*
X86375444Y-8608496D01*
X86350940Y-8609700D01*
X84900940Y-8609700D01*
X84876436Y-8608496D01*
X84852167Y-8604896D01*
X84828369Y-8598935D01*
X84805269Y-8590670D01*
X84783091Y-8580180D01*
X84762047Y-8567567D01*
X84742342Y-8552953D01*
X84724163Y-8536477D01*
X84707687Y-8518298D01*
X84693073Y-8498593D01*
X84680460Y-8477549D01*
X84669970Y-8455371D01*
X84661705Y-8432271D01*
X84655744Y-8408473D01*
X84652144Y-8384204D01*
X84650940Y-8359700D01*
X84650940Y-7159700D01*
X84652144Y-7135196D01*
X84655744Y-7110927D01*
X84661705Y-7087129D01*
X84669970Y-7064029D01*
X84680460Y-7041851D01*
X84693073Y-7020807D01*
X84707687Y-7001102D01*
X84724163Y-6982923D01*
X84742342Y-6966447D01*
X84762047Y-6951833D01*
X84783091Y-6939220D01*
X84805269Y-6928730D01*
X84828369Y-6920465D01*
X84852167Y-6914504D01*
X84876436Y-6910904D01*
X84900940Y-6909700D01*
X86350940Y-6909700D01*
X86375444Y-6910904D01*
X86375444Y-6910904D01*
G37*
D15*
X85625940Y-7759700D03*
D13*
X85625940Y-5259700D03*
X85625940Y-2759700D03*
X72702420Y-19132560D03*
X72702420Y-16632560D03*
D14*
G36*
X73451924Y-13283764D02*
G01*
X73476193Y-13287364D01*
X73499991Y-13293325D01*
X73523091Y-13301590D01*
X73545269Y-13312080D01*
X73566313Y-13324693D01*
X73586018Y-13339307D01*
X73604197Y-13355783D01*
X73620673Y-13373962D01*
X73635287Y-13393667D01*
X73647900Y-13414711D01*
X73658390Y-13436889D01*
X73666655Y-13459989D01*
X73672616Y-13483787D01*
X73676216Y-13508056D01*
X73677420Y-13532560D01*
X73677420Y-14732560D01*
X73676216Y-14757064D01*
X73672616Y-14781333D01*
X73666655Y-14805131D01*
X73658390Y-14828231D01*
X73647900Y-14850409D01*
X73635287Y-14871453D01*
X73620673Y-14891158D01*
X73604197Y-14909337D01*
X73586018Y-14925813D01*
X73566313Y-14940427D01*
X73545269Y-14953040D01*
X73523091Y-14963530D01*
X73499991Y-14971795D01*
X73476193Y-14977756D01*
X73451924Y-14981356D01*
X73427420Y-14982560D01*
X71977420Y-14982560D01*
X71952916Y-14981356D01*
X71928647Y-14977756D01*
X71904849Y-14971795D01*
X71881749Y-14963530D01*
X71859571Y-14953040D01*
X71838527Y-14940427D01*
X71818822Y-14925813D01*
X71800643Y-14909337D01*
X71784167Y-14891158D01*
X71769553Y-14871453D01*
X71756940Y-14850409D01*
X71746450Y-14828231D01*
X71738185Y-14805131D01*
X71732224Y-14781333D01*
X71728624Y-14757064D01*
X71727420Y-14732560D01*
X71727420Y-13532560D01*
X71728624Y-13508056D01*
X71732224Y-13483787D01*
X71738185Y-13459989D01*
X71746450Y-13436889D01*
X71756940Y-13414711D01*
X71769553Y-13393667D01*
X71784167Y-13373962D01*
X71800643Y-13355783D01*
X71818822Y-13339307D01*
X71838527Y-13324693D01*
X71859571Y-13312080D01*
X71881749Y-13301590D01*
X71904849Y-13293325D01*
X71928647Y-13287364D01*
X71952916Y-13283764D01*
X71977420Y-13282560D01*
X73427420Y-13282560D01*
X73451924Y-13283764D01*
X73451924Y-13283764D01*
G37*
D15*
X72702420Y-14132560D03*
D14*
G36*
X80993184Y-13309164D02*
G01*
X81017453Y-13312764D01*
X81041251Y-13318725D01*
X81064351Y-13326990D01*
X81086529Y-13337480D01*
X81107573Y-13350093D01*
X81127278Y-13364707D01*
X81145457Y-13381183D01*
X81161933Y-13399362D01*
X81176547Y-13419067D01*
X81189160Y-13440111D01*
X81199650Y-13462289D01*
X81207915Y-13485389D01*
X81213876Y-13509187D01*
X81217476Y-13533456D01*
X81218680Y-13557960D01*
X81218680Y-14757960D01*
X81217476Y-14782464D01*
X81213876Y-14806733D01*
X81207915Y-14830531D01*
X81199650Y-14853631D01*
X81189160Y-14875809D01*
X81176547Y-14896853D01*
X81161933Y-14916558D01*
X81145457Y-14934737D01*
X81127278Y-14951213D01*
X81107573Y-14965827D01*
X81086529Y-14978440D01*
X81064351Y-14988930D01*
X81041251Y-14997195D01*
X81017453Y-15003156D01*
X80993184Y-15006756D01*
X80968680Y-15007960D01*
X79518680Y-15007960D01*
X79494176Y-15006756D01*
X79469907Y-15003156D01*
X79446109Y-14997195D01*
X79423009Y-14988930D01*
X79400831Y-14978440D01*
X79379787Y-14965827D01*
X79360082Y-14951213D01*
X79341903Y-14934737D01*
X79325427Y-14916558D01*
X79310813Y-14896853D01*
X79298200Y-14875809D01*
X79287710Y-14853631D01*
X79279445Y-14830531D01*
X79273484Y-14806733D01*
X79269884Y-14782464D01*
X79268680Y-14757960D01*
X79268680Y-13557960D01*
X79269884Y-13533456D01*
X79273484Y-13509187D01*
X79279445Y-13485389D01*
X79287710Y-13462289D01*
X79298200Y-13440111D01*
X79310813Y-13419067D01*
X79325427Y-13399362D01*
X79341903Y-13381183D01*
X79360082Y-13364707D01*
X79379787Y-13350093D01*
X79400831Y-13337480D01*
X79423009Y-13326990D01*
X79446109Y-13318725D01*
X79469907Y-13312764D01*
X79494176Y-13309164D01*
X79518680Y-13307960D01*
X80968680Y-13307960D01*
X80993184Y-13309164D01*
X80993184Y-13309164D01*
G37*
D15*
X80243680Y-14157960D03*
D13*
X80243680Y-16657960D03*
X80243680Y-19157960D03*
X96372680Y-19122400D03*
X96372680Y-16622400D03*
D14*
G36*
X97122184Y-13273604D02*
G01*
X97146453Y-13277204D01*
X97170251Y-13283165D01*
X97193351Y-13291430D01*
X97215529Y-13301920D01*
X97236573Y-13314533D01*
X97256278Y-13329147D01*
X97274457Y-13345623D01*
X97290933Y-13363802D01*
X97305547Y-13383507D01*
X97318160Y-13404551D01*
X97328650Y-13426729D01*
X97336915Y-13449829D01*
X97342876Y-13473627D01*
X97346476Y-13497896D01*
X97347680Y-13522400D01*
X97347680Y-14722400D01*
X97346476Y-14746904D01*
X97342876Y-14771173D01*
X97336915Y-14794971D01*
X97328650Y-14818071D01*
X97318160Y-14840249D01*
X97305547Y-14861293D01*
X97290933Y-14880998D01*
X97274457Y-14899177D01*
X97256278Y-14915653D01*
X97236573Y-14930267D01*
X97215529Y-14942880D01*
X97193351Y-14953370D01*
X97170251Y-14961635D01*
X97146453Y-14967596D01*
X97122184Y-14971196D01*
X97097680Y-14972400D01*
X95647680Y-14972400D01*
X95623176Y-14971196D01*
X95598907Y-14967596D01*
X95575109Y-14961635D01*
X95552009Y-14953370D01*
X95529831Y-14942880D01*
X95508787Y-14930267D01*
X95489082Y-14915653D01*
X95470903Y-14899177D01*
X95454427Y-14880998D01*
X95439813Y-14861293D01*
X95427200Y-14840249D01*
X95416710Y-14818071D01*
X95408445Y-14794971D01*
X95402484Y-14771173D01*
X95398884Y-14746904D01*
X95397680Y-14722400D01*
X95397680Y-13522400D01*
X95398884Y-13497896D01*
X95402484Y-13473627D01*
X95408445Y-13449829D01*
X95416710Y-13426729D01*
X95427200Y-13404551D01*
X95439813Y-13383507D01*
X95454427Y-13363802D01*
X95470903Y-13345623D01*
X95489082Y-13329147D01*
X95508787Y-13314533D01*
X95529831Y-13301920D01*
X95552009Y-13291430D01*
X95575109Y-13283165D01*
X95598907Y-13277204D01*
X95623176Y-13273604D01*
X95647680Y-13272400D01*
X97097680Y-13272400D01*
X97122184Y-13273604D01*
X97122184Y-13273604D01*
G37*
D15*
X96372680Y-14122400D03*
D16*
X91889580Y-1894840D03*
D12*
X53030120Y-13738220D03*
X53030120Y-18738220D03*
X53027580Y-2958460D03*
X53027580Y-7958460D03*
D17*
X48066960Y-5156200D03*
D16*
X48066960Y-2616200D03*
X48107600Y-9580880D03*
D17*
X48107600Y-12120880D03*
D16*
X48107600Y-16758920D03*
D17*
X48107600Y-19298920D03*
D18*
X8300720Y-9398000D03*
X5476240Y-14272260D03*
X20817840Y-13342620D03*
X42608500Y-15918180D03*
D19*
X41079420Y-17397930D02*
X41079420Y-18529300D01*
X41079420Y-12174220D02*
X41079420Y-17397930D01*
X45913040Y-7340600D02*
X41079420Y-12174220D01*
X53027580Y-7958460D02*
X52409720Y-7340600D01*
X52409720Y-7340600D02*
X45913040Y-7340600D01*
D20*
X40797480Y-12174220D02*
X40704770Y-12081510D01*
X41079420Y-12174220D02*
X40797480Y-12174220D01*
X40704770Y-12081510D02*
X39979600Y-12806680D01*
X39979600Y-12806680D02*
X21353780Y-12806680D01*
X21353780Y-12806680D02*
X20817840Y-13342620D01*
D19*
X68527793Y-8024500D02*
X71356220Y-8024500D01*
X67597513Y-7094220D02*
X68527793Y-8024500D01*
X53027580Y-2958460D02*
X57163340Y-7094220D01*
X57163340Y-7094220D02*
X67597513Y-7094220D01*
D21*
X59110240Y-10779760D02*
X59155960Y-10825480D01*
D20*
X52546880Y-14221460D02*
X53030120Y-13738220D01*
X45844460Y-14221460D02*
X52546880Y-14221460D01*
X42608500Y-15918180D02*
X44147740Y-15918180D01*
X44147740Y-15918180D02*
X45844460Y-14221460D01*
D21*
X94608901Y-9798439D02*
X96608900Y-7798440D01*
X72946482Y-11569700D02*
X92837640Y-11569700D01*
X53030120Y-13738220D02*
X53562781Y-14270881D01*
X92837640Y-11569700D02*
X94608901Y-9798439D01*
X53562781Y-14270881D02*
X67039599Y-14270881D01*
X67039599Y-14270881D02*
X69727969Y-11582511D01*
X69727969Y-11582511D02*
X69746819Y-11601361D01*
X69746819Y-11601361D02*
X72914821Y-11601361D01*
X72914821Y-11601361D02*
X72946482Y-11569700D01*
D22*
G36*
X51819702Y-698680D02*
G01*
X51402050Y-977746D01*
X51046866Y-1332930D01*
X50767800Y-1750582D01*
X50575575Y-2214653D01*
X50477580Y-2707307D01*
X50477580Y-3209613D01*
X50575575Y-3702267D01*
X50767800Y-4166338D01*
X51046866Y-4583990D01*
X51402050Y-4939174D01*
X51819702Y-5218240D01*
X52283773Y-5410465D01*
X52525060Y-5458460D01*
X52283773Y-5506455D01*
X51819702Y-5698680D01*
X51402050Y-5977746D01*
X51089196Y-6290600D01*
X48891523Y-6290600D01*
X49061699Y-6150939D01*
X49236650Y-5937762D01*
X49366650Y-5694549D01*
X49446703Y-5430648D01*
X49473734Y-5156200D01*
X49446703Y-4881752D01*
X49366650Y-4617851D01*
X49236650Y-4374638D01*
X49061699Y-4161461D01*
X49009117Y-4118308D01*
X49045951Y-4114680D01*
X49169984Y-4077054D01*
X49284294Y-4015954D01*
X49384488Y-3933728D01*
X49466714Y-3833534D01*
X49527814Y-3719224D01*
X49565440Y-3595191D01*
X49578144Y-3466200D01*
X49574960Y-2884700D01*
X49410460Y-2720200D01*
X48170960Y-2720200D01*
X48170960Y-2740200D01*
X47962960Y-2740200D01*
X47962960Y-2720200D01*
X46723460Y-2720200D01*
X46558960Y-2884700D01*
X46555776Y-3466200D01*
X46568480Y-3595191D01*
X46606106Y-3719224D01*
X46667206Y-3833534D01*
X46749432Y-3933728D01*
X46849626Y-4015954D01*
X46963936Y-4077054D01*
X47087969Y-4114680D01*
X47124803Y-4118308D01*
X47072221Y-4161461D01*
X46897270Y-4374638D01*
X46767270Y-4617851D01*
X46687217Y-4881752D01*
X46660186Y-5156200D01*
X46687217Y-5430648D01*
X46767270Y-5694549D01*
X46897270Y-5937762D01*
X47072221Y-6150939D01*
X47242397Y-6290600D01*
X45964608Y-6290600D01*
X45913040Y-6285521D01*
X45861472Y-6290600D01*
X45861462Y-6290600D01*
X45707204Y-6305793D01*
X45509278Y-6365833D01*
X45326869Y-6463333D01*
X45166986Y-6594546D01*
X45134107Y-6634609D01*
X40373434Y-11395283D01*
X40333366Y-11428166D01*
X40331247Y-11430748D01*
X40286077Y-11454892D01*
X40200486Y-11525134D01*
X40200482Y-11525138D01*
X40171875Y-11548615D01*
X40148398Y-11577222D01*
X39668941Y-12056680D01*
X21390608Y-12056680D01*
X21353780Y-12053053D01*
X21316952Y-12056680D01*
X21316945Y-12056680D01*
X21206754Y-12067533D01*
X21065379Y-12110419D01*
X20935087Y-12180061D01*
X20876022Y-12228535D01*
X20820885Y-12273785D01*
X20797406Y-12302395D01*
X20702936Y-12396864D01*
X20540735Y-12429128D01*
X20367846Y-12500741D01*
X20212250Y-12604707D01*
X20079927Y-12737030D01*
X19975961Y-12892626D01*
X19904348Y-13065515D01*
X19867840Y-13249053D01*
X19867840Y-13436187D01*
X19904348Y-13619725D01*
X19975961Y-13792614D01*
X20079927Y-13948210D01*
X20212250Y-14080533D01*
X20367846Y-14184499D01*
X20540735Y-14256112D01*
X20724273Y-14292620D01*
X20911407Y-14292620D01*
X21094945Y-14256112D01*
X21267834Y-14184499D01*
X21423430Y-14080533D01*
X21555753Y-13948210D01*
X21659719Y-13792614D01*
X21731332Y-13619725D01*
X21743872Y-13556680D01*
X39942773Y-13556680D01*
X39979600Y-13560307D01*
X40016427Y-13556680D01*
X40016435Y-13556680D01*
X40029420Y-13555401D01*
X40029421Y-17346343D01*
X40029420Y-17346353D01*
X40029420Y-17680711D01*
X39951505Y-17775651D01*
X39868620Y-17930718D01*
X39867826Y-17928373D01*
X39725066Y-17680760D01*
X39536742Y-17465756D01*
X39310092Y-17291624D01*
X39053825Y-17165055D01*
X38869640Y-17109188D01*
X38643420Y-17239988D01*
X38643420Y-18425300D01*
X38663420Y-18425300D01*
X38663420Y-18633300D01*
X38643420Y-18633300D01*
X38643420Y-19818612D01*
X38869640Y-19949412D01*
X39053825Y-19893545D01*
X39310092Y-19766976D01*
X39536742Y-19592844D01*
X39725066Y-19377840D01*
X39867826Y-19130227D01*
X39868620Y-19127882D01*
X39951505Y-19282949D01*
X40120207Y-19488513D01*
X40325771Y-19657215D01*
X40560298Y-19782572D01*
X40814774Y-19859767D01*
X41013099Y-19879300D01*
X41145741Y-19879300D01*
X41344066Y-19859767D01*
X41598542Y-19782572D01*
X41833069Y-19657215D01*
X42038633Y-19488513D01*
X42207335Y-19282949D01*
X42332692Y-19048422D01*
X42409887Y-18793946D01*
X42435952Y-18529300D01*
X42409887Y-18264654D01*
X42332692Y-18010178D01*
X42207335Y-17775651D01*
X42129420Y-17680711D01*
X42129420Y-17608920D01*
X46596416Y-17608920D01*
X46609120Y-17737911D01*
X46646746Y-17861944D01*
X46707846Y-17976254D01*
X46790072Y-18076448D01*
X46890266Y-18158674D01*
X47004576Y-18219774D01*
X47128609Y-18257400D01*
X47165443Y-18261028D01*
X47112861Y-18304181D01*
X46937910Y-18517358D01*
X46807910Y-18760571D01*
X46727857Y-19024472D01*
X46700826Y-19298920D01*
X46727857Y-19573368D01*
X46807910Y-19837269D01*
X46937910Y-20080482D01*
X47112861Y-20293659D01*
X47326038Y-20468610D01*
X47569251Y-20598610D01*
X47833152Y-20678663D01*
X48038823Y-20698920D01*
X48176377Y-20698920D01*
X48382048Y-20678663D01*
X48645949Y-20598610D01*
X48889162Y-20468610D01*
X49102339Y-20293659D01*
X49277290Y-20080482D01*
X49407290Y-19837269D01*
X49487343Y-19573368D01*
X49514374Y-19298920D01*
X49487343Y-19024472D01*
X49407290Y-18760571D01*
X49277290Y-18517358D01*
X49102339Y-18304181D01*
X49049757Y-18261028D01*
X49086591Y-18257400D01*
X49210624Y-18219774D01*
X49324934Y-18158674D01*
X49425128Y-18076448D01*
X49507354Y-17976254D01*
X49568454Y-17861944D01*
X49606080Y-17737911D01*
X49618784Y-17608920D01*
X49615600Y-17027420D01*
X49451100Y-16862920D01*
X48211600Y-16862920D01*
X48211600Y-16882920D01*
X48003600Y-16882920D01*
X48003600Y-16862920D01*
X46764100Y-16862920D01*
X46599600Y-17027420D01*
X46596416Y-17608920D01*
X42129420Y-17608920D01*
X42129420Y-16740624D01*
X42158506Y-16760059D01*
X42331395Y-16831672D01*
X42514933Y-16868180D01*
X42702067Y-16868180D01*
X42885605Y-16831672D01*
X43058494Y-16760059D01*
X43196001Y-16668180D01*
X44110913Y-16668180D01*
X44147740Y-16671807D01*
X44184567Y-16668180D01*
X44184575Y-16668180D01*
X44294766Y-16657327D01*
X44436141Y-16614441D01*
X44566433Y-16544799D01*
X44680635Y-16451075D01*
X44704118Y-16422461D01*
X45217659Y-15908920D01*
X46596416Y-15908920D01*
X46599600Y-16490420D01*
X46764100Y-16654920D01*
X48003600Y-16654920D01*
X48003600Y-15415420D01*
X48211600Y-15415420D01*
X48211600Y-16654920D01*
X49451100Y-16654920D01*
X49615600Y-16490420D01*
X49618784Y-15908920D01*
X49606080Y-15779929D01*
X49568454Y-15655896D01*
X49507354Y-15541586D01*
X49425128Y-15441392D01*
X49324934Y-15359166D01*
X49210624Y-15298066D01*
X49086591Y-15260440D01*
X48957600Y-15247736D01*
X48376100Y-15250920D01*
X48211600Y-15415420D01*
X48003600Y-15415420D01*
X47839100Y-15250920D01*
X47257600Y-15247736D01*
X47128609Y-15260440D01*
X47004576Y-15298066D01*
X46890266Y-15359166D01*
X46790072Y-15441392D01*
X46707846Y-15541586D01*
X46646746Y-15655896D01*
X46609120Y-15779929D01*
X46596416Y-15908920D01*
X45217659Y-15908920D01*
X46155121Y-14971460D01*
X50787286Y-14971460D01*
X51049406Y-15363750D01*
X51404590Y-15718934D01*
X51822242Y-15998000D01*
X52286313Y-16190225D01*
X52527600Y-16238220D01*
X52286313Y-16286215D01*
X51822242Y-16478440D01*
X51404590Y-16757506D01*
X51049406Y-17112690D01*
X50770340Y-17530342D01*
X50578115Y-17994413D01*
X50480120Y-18487067D01*
X50480120Y-18989373D01*
X50578115Y-19482027D01*
X50770340Y-19946098D01*
X51049406Y-20363750D01*
X51404590Y-20718934D01*
X51822242Y-20998000D01*
X52286313Y-21190225D01*
X52778967Y-21288220D01*
X53281273Y-21288220D01*
X53773927Y-21190225D01*
X54237998Y-20998000D01*
X54655650Y-20718934D01*
X55010834Y-20363750D01*
X55289900Y-19946098D01*
X55482125Y-19482027D01*
X55580120Y-18989373D01*
X55580120Y-18487067D01*
X55544627Y-18308627D01*
X57324780Y-18308627D01*
X57324780Y-18810933D01*
X57422775Y-19303587D01*
X57615000Y-19767658D01*
X57894066Y-20185310D01*
X58249250Y-20540494D01*
X58666902Y-20819560D01*
X59130973Y-21011785D01*
X59623627Y-21109780D01*
X60125933Y-21109780D01*
X60618587Y-21011785D01*
X61082658Y-20819560D01*
X61500310Y-20540494D01*
X61636747Y-20404057D01*
X63177581Y-20404057D01*
X63390216Y-20780042D01*
X63851893Y-21027005D01*
X64352879Y-21179153D01*
X64873922Y-21230640D01*
X65394998Y-21179488D01*
X65896081Y-21027662D01*
X66357917Y-20780996D01*
X66359344Y-20780042D01*
X66571979Y-20404057D01*
X64874780Y-18706858D01*
X63177581Y-20404057D01*
X61636747Y-20404057D01*
X61855494Y-20185310D01*
X62134560Y-19767658D01*
X62324494Y-19309117D01*
X62406898Y-19581081D01*
X62653564Y-20042917D01*
X62654518Y-20044344D01*
X63030503Y-20256979D01*
X64727702Y-18559780D01*
X65021858Y-18559780D01*
X66719057Y-20256979D01*
X67095042Y-20044344D01*
X67342005Y-19582667D01*
X67494153Y-19081681D01*
X67545640Y-18560638D01*
X67494488Y-18039562D01*
X67342662Y-17538479D01*
X67095996Y-17076643D01*
X67095042Y-17075216D01*
X66719057Y-16862581D01*
X65021858Y-18559780D01*
X64727702Y-18559780D01*
X63030503Y-16862581D01*
X62654518Y-17075216D01*
X62407555Y-17536893D01*
X62324485Y-17810421D01*
X62134560Y-17351902D01*
X61855494Y-16934250D01*
X61636747Y-16715503D01*
X63177581Y-16715503D01*
X64874780Y-18412702D01*
X66571979Y-16715503D01*
X66359344Y-16339518D01*
X65897667Y-16092555D01*
X65396681Y-15940407D01*
X64875638Y-15888920D01*
X64354562Y-15940072D01*
X63853479Y-16091898D01*
X63391643Y-16338564D01*
X63390216Y-16339518D01*
X63177581Y-16715503D01*
X61636747Y-16715503D01*
X61500310Y-16579066D01*
X61082658Y-16300000D01*
X60618587Y-16107775D01*
X60125933Y-16009780D01*
X59623627Y-16009780D01*
X59130973Y-16107775D01*
X58666902Y-16300000D01*
X58249250Y-16579066D01*
X57894066Y-16934250D01*
X57615000Y-17351902D01*
X57422775Y-17815973D01*
X57324780Y-18308627D01*
X55544627Y-18308627D01*
X55482125Y-17994413D01*
X55289900Y-17530342D01*
X55010834Y-17112690D01*
X54655650Y-16757506D01*
X54237998Y-16478440D01*
X53773927Y-16286215D01*
X53532640Y-16238220D01*
X53773927Y-16190225D01*
X54237998Y-15998000D01*
X54503075Y-15820881D01*
X66963471Y-15820881D01*
X67039599Y-15828379D01*
X67115727Y-15820881D01*
X67115737Y-15820881D01*
X67343452Y-15798453D01*
X67635628Y-15709822D01*
X67904899Y-15565894D01*
X68140917Y-15372199D01*
X68189456Y-15313054D01*
X70351150Y-13151361D01*
X71275430Y-13151361D01*
X71235858Y-13225395D01*
X71190182Y-13375969D01*
X71174759Y-13532560D01*
X71174759Y-14732560D01*
X71190182Y-14889151D01*
X71235858Y-15039725D01*
X71310032Y-15178495D01*
X71409853Y-15300127D01*
X71531485Y-15399948D01*
X71670255Y-15474122D01*
X71751951Y-15498904D01*
X71582681Y-15637821D01*
X71407730Y-15850998D01*
X71277730Y-16094211D01*
X71197677Y-16358112D01*
X71170646Y-16632560D01*
X71197677Y-16907008D01*
X71277730Y-17170909D01*
X71407730Y-17414122D01*
X71582681Y-17627299D01*
X71795858Y-17802250D01*
X71946108Y-17882560D01*
X71795858Y-17962870D01*
X71582681Y-18137821D01*
X71407730Y-18350998D01*
X71277730Y-18594211D01*
X71197677Y-18858112D01*
X71170646Y-19132560D01*
X71197677Y-19407008D01*
X71277730Y-19670909D01*
X71407730Y-19914122D01*
X71582681Y-20127299D01*
X71795858Y-20302250D01*
X72039071Y-20432250D01*
X72302972Y-20512303D01*
X72508643Y-20532560D01*
X72896197Y-20532560D01*
X73101868Y-20512303D01*
X73365769Y-20432250D01*
X73608982Y-20302250D01*
X73822159Y-20127299D01*
X73997110Y-19914122D01*
X74127110Y-19670909D01*
X74207163Y-19407008D01*
X74234194Y-19132560D01*
X74207163Y-18858112D01*
X74127110Y-18594211D01*
X73997110Y-18350998D01*
X73822159Y-18137821D01*
X73608982Y-17962870D01*
X73458732Y-17882560D01*
X73608982Y-17802250D01*
X73822159Y-17627299D01*
X73997110Y-17414122D01*
X74127110Y-17170909D01*
X74207163Y-16907008D01*
X74234194Y-16632560D01*
X74207163Y-16358112D01*
X74127110Y-16094211D01*
X73997110Y-15850998D01*
X73822159Y-15637821D01*
X73652889Y-15498904D01*
X73734585Y-15474122D01*
X73873355Y-15399948D01*
X73994987Y-15300127D01*
X74094808Y-15178495D01*
X74168982Y-15039725D01*
X74214658Y-14889151D01*
X74230081Y-14732560D01*
X74230081Y-13532560D01*
X74214658Y-13375969D01*
X74168982Y-13225395D01*
X74112487Y-13119700D01*
X78847190Y-13119700D01*
X78777118Y-13250795D01*
X78731442Y-13401369D01*
X78716019Y-13557960D01*
X78716019Y-14757960D01*
X78731442Y-14914551D01*
X78777118Y-15065125D01*
X78851292Y-15203895D01*
X78951113Y-15325527D01*
X79072745Y-15425348D01*
X79211515Y-15499522D01*
X79293211Y-15524304D01*
X79123941Y-15663221D01*
X78948990Y-15876398D01*
X78818990Y-16119611D01*
X78738937Y-16383512D01*
X78711906Y-16657960D01*
X78738937Y-16932408D01*
X78818990Y-17196309D01*
X78948990Y-17439522D01*
X79123941Y-17652699D01*
X79337118Y-17827650D01*
X79487368Y-17907960D01*
X79337118Y-17988270D01*
X79123941Y-18163221D01*
X78948990Y-18376398D01*
X78818990Y-18619611D01*
X78738937Y-18883512D01*
X78711906Y-19157960D01*
X78738937Y-19432408D01*
X78818990Y-19696309D01*
X78948990Y-19939522D01*
X79123941Y-20152699D01*
X79337118Y-20327650D01*
X79580331Y-20457650D01*
X79844232Y-20537703D01*
X80049903Y-20557960D01*
X80437457Y-20557960D01*
X80643128Y-20537703D01*
X80907029Y-20457650D01*
X81150242Y-20327650D01*
X81363419Y-20152699D01*
X81538370Y-19939522D01*
X81668370Y-19696309D01*
X81748423Y-19432408D01*
X81775454Y-19157960D01*
X81748423Y-18883512D01*
X81668370Y-18619611D01*
X81538370Y-18376398D01*
X81363419Y-18163221D01*
X81150242Y-17988270D01*
X80999992Y-17907960D01*
X81150242Y-17827650D01*
X81363419Y-17652699D01*
X81538370Y-17439522D01*
X81668370Y-17196309D01*
X81748423Y-16932408D01*
X81775454Y-16657960D01*
X81748423Y-16383512D01*
X81668370Y-16119611D01*
X81538370Y-15876398D01*
X81363419Y-15663221D01*
X81194149Y-15524304D01*
X81275845Y-15499522D01*
X81414615Y-15425348D01*
X81536247Y-15325527D01*
X81636068Y-15203895D01*
X81710242Y-15065125D01*
X81755918Y-14914551D01*
X81771341Y-14757960D01*
X81771341Y-13557960D01*
X81755918Y-13401369D01*
X81710242Y-13250795D01*
X81640170Y-13119700D01*
X86803782Y-13119700D01*
X86752718Y-13215235D01*
X86707042Y-13365809D01*
X86691619Y-13522400D01*
X86691619Y-14722400D01*
X86707042Y-14878991D01*
X86752718Y-15029565D01*
X86826892Y-15168335D01*
X86926713Y-15289967D01*
X87048345Y-15389788D01*
X87187115Y-15463962D01*
X87268811Y-15488744D01*
X87099541Y-15627661D01*
X86924590Y-15840838D01*
X86794590Y-16084051D01*
X86714537Y-16347952D01*
X86687506Y-16622400D01*
X86714537Y-16896848D01*
X86794590Y-17160749D01*
X86924590Y-17403962D01*
X87099541Y-17617139D01*
X87312718Y-17792090D01*
X87462968Y-17872400D01*
X87312718Y-17952710D01*
X87099541Y-18127661D01*
X86924590Y-18340838D01*
X86794590Y-18584051D01*
X86714537Y-18847952D01*
X86687506Y-19122400D01*
X86714537Y-19396848D01*
X86794590Y-19660749D01*
X86924590Y-19903962D01*
X87099541Y-20117139D01*
X87312718Y-20292090D01*
X87555931Y-20422090D01*
X87819832Y-20502143D01*
X88025503Y-20522400D01*
X88413057Y-20522400D01*
X88618728Y-20502143D01*
X88882629Y-20422090D01*
X89125842Y-20292090D01*
X89339019Y-20117139D01*
X89513970Y-19903962D01*
X89643970Y-19660749D01*
X89724023Y-19396848D01*
X89751054Y-19122400D01*
X89724023Y-18847952D01*
X89643970Y-18584051D01*
X89513970Y-18340838D01*
X89339019Y-18127661D01*
X89125842Y-17952710D01*
X88975592Y-17872400D01*
X89125842Y-17792090D01*
X89339019Y-17617139D01*
X89513970Y-17403962D01*
X89643970Y-17160749D01*
X89724023Y-16896848D01*
X89751054Y-16622400D01*
X94840906Y-16622400D01*
X94867937Y-16896848D01*
X94947990Y-17160749D01*
X95077990Y-17403962D01*
X95252941Y-17617139D01*
X95466118Y-17792090D01*
X95616368Y-17872400D01*
X95466118Y-17952710D01*
X95252941Y-18127661D01*
X95077990Y-18340838D01*
X94947990Y-18584051D01*
X94867937Y-18847952D01*
X94840906Y-19122400D01*
X94867937Y-19396848D01*
X94947990Y-19660749D01*
X95077990Y-19903962D01*
X95252941Y-20117139D01*
X95466118Y-20292090D01*
X95709331Y-20422090D01*
X95973232Y-20502143D01*
X96178903Y-20522400D01*
X96566457Y-20522400D01*
X96772128Y-20502143D01*
X97036029Y-20422090D01*
X97279242Y-20292090D01*
X97492419Y-20117139D01*
X97667370Y-19903962D01*
X97797370Y-19660749D01*
X97877423Y-19396848D01*
X97904454Y-19122400D01*
X97877423Y-18847952D01*
X97797370Y-18584051D01*
X97667370Y-18340838D01*
X97492419Y-18127661D01*
X97279242Y-17952710D01*
X97128992Y-17872400D01*
X97279242Y-17792090D01*
X97492419Y-17617139D01*
X97667370Y-17403962D01*
X97797370Y-17160749D01*
X97877423Y-16896848D01*
X97904454Y-16622400D01*
X97877423Y-16347952D01*
X97797370Y-16084051D01*
X97667370Y-15840838D01*
X97492419Y-15627661D01*
X97323149Y-15488744D01*
X97404845Y-15463962D01*
X97543615Y-15389788D01*
X97665247Y-15289967D01*
X97765068Y-15168335D01*
X97839242Y-15029565D01*
X97884918Y-14878991D01*
X97900341Y-14722400D01*
X97900341Y-13522400D01*
X97884918Y-13365809D01*
X97839242Y-13215235D01*
X97765068Y-13076465D01*
X97665247Y-12954833D01*
X97543615Y-12855012D01*
X97404845Y-12780838D01*
X97254271Y-12735162D01*
X97097680Y-12719739D01*
X95647680Y-12719739D01*
X95491089Y-12735162D01*
X95340515Y-12780838D01*
X95201745Y-12855012D01*
X95080113Y-12954833D01*
X94980292Y-13076465D01*
X94906118Y-13215235D01*
X94860442Y-13365809D01*
X94845019Y-13522400D01*
X94845019Y-14722400D01*
X94860442Y-14878991D01*
X94906118Y-15029565D01*
X94980292Y-15168335D01*
X95080113Y-15289967D01*
X95201745Y-15389788D01*
X95340515Y-15463962D01*
X95422211Y-15488744D01*
X95252941Y-15627661D01*
X95077990Y-15840838D01*
X94947990Y-16084051D01*
X94867937Y-16347952D01*
X94840906Y-16622400D01*
X89751054Y-16622400D01*
X89724023Y-16347952D01*
X89643970Y-16084051D01*
X89513970Y-15840838D01*
X89339019Y-15627661D01*
X89169749Y-15488744D01*
X89251445Y-15463962D01*
X89390215Y-15389788D01*
X89511847Y-15289967D01*
X89611668Y-15168335D01*
X89685842Y-15029565D01*
X89731518Y-14878991D01*
X89746941Y-14722400D01*
X89746941Y-13522400D01*
X89731518Y-13365809D01*
X89685842Y-13215235D01*
X89634778Y-13119700D01*
X92761512Y-13119700D01*
X92837640Y-13127198D01*
X92913768Y-13119700D01*
X92913778Y-13119700D01*
X93141493Y-13097272D01*
X93433669Y-13008641D01*
X93702940Y-12864713D01*
X93938958Y-12671018D01*
X93987497Y-12611873D01*
X95758753Y-10840618D01*
X95758757Y-10840613D01*
X96268652Y-10330718D01*
X96357747Y-10348440D01*
X96860053Y-10348440D01*
X97352707Y-10250445D01*
X97816778Y-10058220D01*
X98234430Y-9779154D01*
X98589614Y-9423970D01*
X98868680Y-9006318D01*
X99060905Y-8542247D01*
X99158900Y-8049593D01*
X99158900Y-7547287D01*
X99060905Y-7054633D01*
X98868680Y-6590562D01*
X98589614Y-6172910D01*
X98234430Y-5817726D01*
X97816778Y-5538660D01*
X97358237Y-5348726D01*
X97630201Y-5266322D01*
X98092037Y-5019656D01*
X98093464Y-5018702D01*
X98306099Y-4642717D01*
X96608900Y-2945518D01*
X94911701Y-4642717D01*
X95124336Y-5018702D01*
X95586013Y-5265665D01*
X95859541Y-5348735D01*
X95401022Y-5538660D01*
X94983370Y-5817726D01*
X94628186Y-6172910D01*
X94349120Y-6590562D01*
X94156895Y-7054633D01*
X94058900Y-7547287D01*
X94058900Y-8049593D01*
X94076622Y-8138688D01*
X93566727Y-8648583D01*
X93566722Y-8648587D01*
X92195610Y-10019700D01*
X73022609Y-10019700D01*
X72968104Y-10014332D01*
X72981750Y-10005214D01*
X73336934Y-9650030D01*
X73616000Y-9232378D01*
X73808225Y-8768307D01*
X73906220Y-8275653D01*
X73906220Y-7773347D01*
X73808225Y-7280693D01*
X73616000Y-6816622D01*
X73336934Y-6398970D01*
X72981750Y-6043786D01*
X72564098Y-5764720D01*
X72105557Y-5574786D01*
X72377521Y-5492382D01*
X72839357Y-5245716D01*
X72840784Y-5244762D01*
X73053419Y-4868777D01*
X71356220Y-3171578D01*
X69659021Y-4868777D01*
X69871656Y-5244762D01*
X70333333Y-5491725D01*
X70606861Y-5574795D01*
X70148342Y-5764720D01*
X69730690Y-6043786D01*
X69375506Y-6398970D01*
X69096440Y-6816622D01*
X69031045Y-6974500D01*
X68962717Y-6974500D01*
X68376450Y-6388234D01*
X68343567Y-6348166D01*
X68183684Y-6216953D01*
X68001275Y-6119453D01*
X67803349Y-6059413D01*
X67649091Y-6044220D01*
X67649081Y-6044220D01*
X67597513Y-6039141D01*
X67545945Y-6044220D01*
X65288653Y-6044220D01*
X65766541Y-5899422D01*
X66228377Y-5652756D01*
X66229804Y-5651802D01*
X66442439Y-5275817D01*
X64745240Y-3578618D01*
X63048041Y-5275817D01*
X63260676Y-5651802D01*
X63722353Y-5898765D01*
X64201301Y-6044220D01*
X57598264Y-6044220D01*
X55414189Y-3860146D01*
X55479585Y-3702267D01*
X55577580Y-3209613D01*
X55577580Y-3180387D01*
X57195240Y-3180387D01*
X57195240Y-3682693D01*
X57293235Y-4175347D01*
X57485460Y-4639418D01*
X57764526Y-5057070D01*
X58119710Y-5412254D01*
X58537362Y-5691320D01*
X59001433Y-5883545D01*
X59494087Y-5981540D01*
X59996393Y-5981540D01*
X60489047Y-5883545D01*
X60953118Y-5691320D01*
X61370770Y-5412254D01*
X61725954Y-5057070D01*
X62005020Y-4639418D01*
X62194954Y-4180877D01*
X62277358Y-4452841D01*
X62524024Y-4914677D01*
X62524978Y-4916104D01*
X62900963Y-5128739D01*
X64598162Y-3431540D01*
X64892318Y-3431540D01*
X66589517Y-5128739D01*
X66965502Y-4916104D01*
X67212465Y-4454427D01*
X67364613Y-3953441D01*
X67416100Y-3432398D01*
X67375975Y-3023642D01*
X68685360Y-3023642D01*
X68736512Y-3544718D01*
X68888338Y-4045801D01*
X69135004Y-4507637D01*
X69135958Y-4509064D01*
X69511943Y-4721699D01*
X71209142Y-3024500D01*
X71503298Y-3024500D01*
X73200497Y-4721699D01*
X73576482Y-4509064D01*
X73823445Y-4047387D01*
X73975593Y-3546401D01*
X74027080Y-3025358D01*
X74004493Y-2795260D01*
X75940766Y-2795260D01*
X75967797Y-3069708D01*
X76047850Y-3333609D01*
X76177850Y-3576822D01*
X76352801Y-3789999D01*
X76565978Y-3964950D01*
X76716228Y-4045260D01*
X76565978Y-4125570D01*
X76352801Y-4300521D01*
X76177850Y-4513698D01*
X76047850Y-4756911D01*
X75967797Y-5020812D01*
X75940766Y-5295260D01*
X75967797Y-5569708D01*
X76047850Y-5833609D01*
X76177850Y-6076822D01*
X76352801Y-6289999D01*
X76522071Y-6428916D01*
X76440375Y-6453698D01*
X76301605Y-6527872D01*
X76179973Y-6627693D01*
X76080152Y-6749325D01*
X76005978Y-6888095D01*
X75960302Y-7038669D01*
X75944879Y-7195260D01*
X75944879Y-8395260D01*
X75960302Y-8551851D01*
X76005978Y-8702425D01*
X76080152Y-8841195D01*
X76179973Y-8962827D01*
X76301605Y-9062648D01*
X76440375Y-9136822D01*
X76590949Y-9182498D01*
X76747540Y-9197921D01*
X78197540Y-9197921D01*
X78354131Y-9182498D01*
X78504705Y-9136822D01*
X78643475Y-9062648D01*
X78765107Y-8962827D01*
X78864928Y-8841195D01*
X78939102Y-8702425D01*
X78984778Y-8551851D01*
X79000201Y-8395260D01*
X79000201Y-7195260D01*
X78984778Y-7038669D01*
X78939102Y-6888095D01*
X78864928Y-6749325D01*
X78765107Y-6627693D01*
X78643475Y-6527872D01*
X78504705Y-6453698D01*
X78423009Y-6428916D01*
X78592279Y-6289999D01*
X78767230Y-6076822D01*
X78897230Y-5833609D01*
X78977283Y-5569708D01*
X79004314Y-5295260D01*
X78977283Y-5020812D01*
X78897230Y-4756911D01*
X78767230Y-4513698D01*
X78592279Y-4300521D01*
X78379102Y-4125570D01*
X78228852Y-4045260D01*
X78379102Y-3964950D01*
X78592279Y-3789999D01*
X78767230Y-3576822D01*
X78897230Y-3333609D01*
X78977283Y-3069708D01*
X79004314Y-2795260D01*
X79000812Y-2759700D01*
X84094166Y-2759700D01*
X84121197Y-3034148D01*
X84201250Y-3298049D01*
X84331250Y-3541262D01*
X84506201Y-3754439D01*
X84719378Y-3929390D01*
X84869628Y-4009700D01*
X84719378Y-4090010D01*
X84506201Y-4264961D01*
X84331250Y-4478138D01*
X84201250Y-4721351D01*
X84121197Y-4985252D01*
X84094166Y-5259700D01*
X84121197Y-5534148D01*
X84201250Y-5798049D01*
X84331250Y-6041262D01*
X84506201Y-6254439D01*
X84675471Y-6393356D01*
X84593775Y-6418138D01*
X84455005Y-6492312D01*
X84333373Y-6592133D01*
X84233552Y-6713765D01*
X84159378Y-6852535D01*
X84113702Y-7003109D01*
X84098279Y-7159700D01*
X84098279Y-8359700D01*
X84113702Y-8516291D01*
X84159378Y-8666865D01*
X84233552Y-8805635D01*
X84333373Y-8927267D01*
X84455005Y-9027088D01*
X84593775Y-9101262D01*
X84744349Y-9146938D01*
X84900940Y-9162361D01*
X86350940Y-9162361D01*
X86507531Y-9146938D01*
X86658105Y-9101262D01*
X86796875Y-9027088D01*
X86918507Y-8927267D01*
X87018328Y-8805635D01*
X87092502Y-8666865D01*
X87138178Y-8516291D01*
X87153601Y-8359700D01*
X87153601Y-7159700D01*
X87138178Y-7003109D01*
X87092502Y-6852535D01*
X87018328Y-6713765D01*
X86918507Y-6592133D01*
X86796875Y-6492312D01*
X86658105Y-6418138D01*
X86576409Y-6393356D01*
X86745679Y-6254439D01*
X86920630Y-6041262D01*
X87050630Y-5798049D01*
X87130683Y-5534148D01*
X87157714Y-5259700D01*
X87130683Y-4985252D01*
X87050630Y-4721351D01*
X86920630Y-4478138D01*
X86745679Y-4264961D01*
X86532502Y-4090010D01*
X86382252Y-4009700D01*
X86532502Y-3929390D01*
X86745679Y-3754439D01*
X86920630Y-3541262D01*
X87050630Y-3298049D01*
X87130683Y-3034148D01*
X87157714Y-2759700D01*
X87130683Y-2485252D01*
X87050630Y-2221351D01*
X86920630Y-1978138D01*
X86745679Y-1764961D01*
X86532502Y-1590010D01*
X86289289Y-1460010D01*
X86025388Y-1379957D01*
X85819717Y-1359700D01*
X85432163Y-1359700D01*
X85226492Y-1379957D01*
X84962591Y-1460010D01*
X84719378Y-1590010D01*
X84506201Y-1764961D01*
X84331250Y-1978138D01*
X84201250Y-2221351D01*
X84121197Y-2485252D01*
X84094166Y-2759700D01*
X79000812Y-2759700D01*
X78977283Y-2520812D01*
X78897230Y-2256911D01*
X78767230Y-2013698D01*
X78592279Y-1800521D01*
X78379102Y-1625570D01*
X78135889Y-1495570D01*
X77871988Y-1415517D01*
X77666317Y-1395260D01*
X77278763Y-1395260D01*
X77073092Y-1415517D01*
X76809191Y-1495570D01*
X76565978Y-1625570D01*
X76352801Y-1800521D01*
X76177850Y-2013698D01*
X76047850Y-2256911D01*
X75967797Y-2520812D01*
X75940766Y-2795260D01*
X74004493Y-2795260D01*
X73975928Y-2504282D01*
X73824102Y-2003199D01*
X73577436Y-1541363D01*
X73576482Y-1539936D01*
X73200497Y-1327301D01*
X71503298Y-3024500D01*
X71209142Y-3024500D01*
X69511943Y-1327301D01*
X69135958Y-1539936D01*
X68888995Y-2001613D01*
X68736847Y-2502599D01*
X68685360Y-3023642D01*
X67375975Y-3023642D01*
X67364948Y-2911322D01*
X67213122Y-2410239D01*
X66966456Y-1948403D01*
X66965502Y-1946976D01*
X66589517Y-1734341D01*
X64892318Y-3431540D01*
X64598162Y-3431540D01*
X62900963Y-1734341D01*
X62524978Y-1946976D01*
X62278015Y-2408653D01*
X62194945Y-2682181D01*
X62005020Y-2223662D01*
X61725954Y-1806010D01*
X61507207Y-1587263D01*
X63048041Y-1587263D01*
X64745240Y-3284462D01*
X66442439Y-1587263D01*
X66229804Y-1211278D01*
X65768127Y-964315D01*
X65267141Y-812167D01*
X64746098Y-760680D01*
X64225022Y-811832D01*
X63723939Y-963658D01*
X63262103Y-1210324D01*
X63260676Y-1211278D01*
X63048041Y-1587263D01*
X61507207Y-1587263D01*
X61370770Y-1450826D01*
X60953118Y-1171760D01*
X60489047Y-979535D01*
X59996393Y-881540D01*
X59494087Y-881540D01*
X59001433Y-979535D01*
X58537362Y-1171760D01*
X58119710Y-1450826D01*
X57764526Y-1806010D01*
X57485460Y-2223662D01*
X57293235Y-2687733D01*
X57195240Y-3180387D01*
X55577580Y-3180387D01*
X55577580Y-2707307D01*
X55479585Y-2214653D01*
X55287360Y-1750582D01*
X55008294Y-1332930D01*
X54653110Y-977746D01*
X54235458Y-698680D01*
X53936869Y-575000D01*
X70300502Y-575000D01*
X69873083Y-803284D01*
X69871656Y-804238D01*
X69659021Y-1180223D01*
X71356220Y-2877422D01*
X73053419Y-1180223D01*
X72840784Y-804238D01*
X72412242Y-575000D01*
X90751844Y-575000D01*
X90732538Y-585319D01*
X90648790Y-654050D01*
X90580059Y-737798D01*
X90528988Y-833346D01*
X90497538Y-937021D01*
X90486919Y-1044840D01*
X90486919Y-2744840D01*
X90497538Y-2852659D01*
X90528988Y-2956334D01*
X90580059Y-3051882D01*
X90648790Y-3135630D01*
X90732538Y-3204361D01*
X90828086Y-3255432D01*
X90931761Y-3286882D01*
X91039580Y-3297501D01*
X92739580Y-3297501D01*
X92847399Y-3286882D01*
X92951074Y-3255432D01*
X93046622Y-3204361D01*
X93130370Y-3135630D01*
X93199101Y-3051882D01*
X93250172Y-2956334D01*
X93281622Y-2852659D01*
X93287046Y-2797582D01*
X93938040Y-2797582D01*
X93989192Y-3318658D01*
X94141018Y-3819741D01*
X94387684Y-4281577D01*
X94388638Y-4283004D01*
X94764623Y-4495639D01*
X96461822Y-2798440D01*
X96755978Y-2798440D01*
X98453177Y-4495639D01*
X98829162Y-4283004D01*
X99076125Y-3821327D01*
X99228273Y-3320341D01*
X99279760Y-2799298D01*
X99228608Y-2278222D01*
X99076782Y-1777139D01*
X98830116Y-1315303D01*
X98829162Y-1313876D01*
X98453177Y-1101241D01*
X96755978Y-2798440D01*
X96461822Y-2798440D01*
X94764623Y-1101241D01*
X94388638Y-1313876D01*
X94141675Y-1775553D01*
X93989527Y-2276539D01*
X93938040Y-2797582D01*
X93287046Y-2797582D01*
X93292241Y-2744840D01*
X93292241Y-1044840D01*
X93281622Y-937021D01*
X93250172Y-833346D01*
X93199101Y-737798D01*
X93130370Y-654050D01*
X93046622Y-585319D01*
X93027316Y-575000D01*
X95129927Y-575000D01*
X95125763Y-577224D01*
X95124336Y-578178D01*
X94911701Y-954163D01*
X96608900Y-2651362D01*
X98306099Y-954163D01*
X98093464Y-578178D01*
X98087523Y-575000D01*
X99425000Y-575000D01*
X99425001Y-21425000D01*
X575000Y-21425000D01*
X575000Y-18529300D01*
X4162888Y-18529300D01*
X4188953Y-18793946D01*
X4266148Y-19048422D01*
X4391505Y-19282949D01*
X4560207Y-19488513D01*
X4765771Y-19657215D01*
X5000298Y-19782572D01*
X5254774Y-19859767D01*
X5453099Y-19879300D01*
X5585741Y-19879300D01*
X5784066Y-19859767D01*
X6038542Y-19782572D01*
X6273069Y-19657215D01*
X6478633Y-19488513D01*
X6647335Y-19282949D01*
X6772692Y-19048422D01*
X6789420Y-18993278D01*
X6806148Y-19048422D01*
X6931505Y-19282949D01*
X7100207Y-19488513D01*
X7305771Y-19657215D01*
X7540298Y-19782572D01*
X7794774Y-19859767D01*
X7993099Y-19879300D01*
X8125741Y-19879300D01*
X8324066Y-19859767D01*
X8578542Y-19782572D01*
X8813069Y-19657215D01*
X9018633Y-19488513D01*
X9187335Y-19282949D01*
X9312692Y-19048422D01*
X9329420Y-18993278D01*
X9346148Y-19048422D01*
X9471505Y-19282949D01*
X9640207Y-19488513D01*
X9845771Y-19657215D01*
X10080298Y-19782572D01*
X10334774Y-19859767D01*
X10533099Y-19879300D01*
X10665741Y-19879300D01*
X10864066Y-19859767D01*
X11118542Y-19782572D01*
X11353069Y-19657215D01*
X11558633Y-19488513D01*
X11727335Y-19282949D01*
X11852692Y-19048422D01*
X11869420Y-18993278D01*
X11886148Y-19048422D01*
X12011505Y-19282949D01*
X12180207Y-19488513D01*
X12385771Y-19657215D01*
X12620298Y-19782572D01*
X12874774Y-19859767D01*
X13073099Y-19879300D01*
X13205741Y-19879300D01*
X13404066Y-19859767D01*
X13658542Y-19782572D01*
X13893069Y-19657215D01*
X14098633Y-19488513D01*
X14267335Y-19282949D01*
X14392692Y-19048422D01*
X14409420Y-18993278D01*
X14426148Y-19048422D01*
X14551505Y-19282949D01*
X14720207Y-19488513D01*
X14925771Y-19657215D01*
X15160298Y-19782572D01*
X15414774Y-19859767D01*
X15613099Y-19879300D01*
X15745741Y-19879300D01*
X15944066Y-19859767D01*
X16198542Y-19782572D01*
X16433069Y-19657215D01*
X16638633Y-19488513D01*
X16807335Y-19282949D01*
X16932692Y-19048422D01*
X16949420Y-18993278D01*
X16966148Y-19048422D01*
X17091505Y-19282949D01*
X17260207Y-19488513D01*
X17465771Y-19657215D01*
X17700298Y-19782572D01*
X17954774Y-19859767D01*
X18153099Y-19879300D01*
X18285741Y-19879300D01*
X18484066Y-19859767D01*
X18738542Y-19782572D01*
X18973069Y-19657215D01*
X19178633Y-19488513D01*
X19347335Y-19282949D01*
X19472692Y-19048422D01*
X19489420Y-18993278D01*
X19506148Y-19048422D01*
X19631505Y-19282949D01*
X19800207Y-19488513D01*
X20005771Y-19657215D01*
X20240298Y-19782572D01*
X20494774Y-19859767D01*
X20693099Y-19879300D01*
X20825741Y-19879300D01*
X21024066Y-19859767D01*
X21278542Y-19782572D01*
X21513069Y-19657215D01*
X21718633Y-19488513D01*
X21887335Y-19282949D01*
X22012692Y-19048422D01*
X22029420Y-18993278D01*
X22046148Y-19048422D01*
X22171505Y-19282949D01*
X22340207Y-19488513D01*
X22545771Y-19657215D01*
X22780298Y-19782572D01*
X23034774Y-19859767D01*
X23233099Y-19879300D01*
X23365741Y-19879300D01*
X23564066Y-19859767D01*
X23818542Y-19782572D01*
X24053069Y-19657215D01*
X24258633Y-19488513D01*
X24427335Y-19282949D01*
X24552692Y-19048422D01*
X24569420Y-18993278D01*
X24586148Y-19048422D01*
X24711505Y-19282949D01*
X24880207Y-19488513D01*
X25085771Y-19657215D01*
X25320298Y-19782572D01*
X25574774Y-19859767D01*
X25773099Y-19879300D01*
X25905741Y-19879300D01*
X26104066Y-19859767D01*
X26358542Y-19782572D01*
X26593069Y-19657215D01*
X26798633Y-19488513D01*
X26967335Y-19282949D01*
X27092692Y-19048422D01*
X27109420Y-18993278D01*
X27126148Y-19048422D01*
X27251505Y-19282949D01*
X27420207Y-19488513D01*
X27625771Y-19657215D01*
X27860298Y-19782572D01*
X28114774Y-19859767D01*
X28313099Y-19879300D01*
X28445741Y-19879300D01*
X28644066Y-19859767D01*
X28898542Y-19782572D01*
X29133069Y-19657215D01*
X29338633Y-19488513D01*
X29507335Y-19282949D01*
X29632692Y-19048422D01*
X29649420Y-18993278D01*
X29666148Y-19048422D01*
X29791505Y-19282949D01*
X29960207Y-19488513D01*
X30165771Y-19657215D01*
X30400298Y-19782572D01*
X30654774Y-19859767D01*
X30853099Y-19879300D01*
X30985741Y-19879300D01*
X31184066Y-19859767D01*
X31438542Y-19782572D01*
X31673069Y-19657215D01*
X31878633Y-19488513D01*
X32047335Y-19282949D01*
X32172692Y-19048422D01*
X32189420Y-18993278D01*
X32206148Y-19048422D01*
X32331505Y-19282949D01*
X32500207Y-19488513D01*
X32705771Y-19657215D01*
X32940298Y-19782572D01*
X33194774Y-19859767D01*
X33393099Y-19879300D01*
X33525741Y-19879300D01*
X33724066Y-19859767D01*
X33978542Y-19782572D01*
X34213069Y-19657215D01*
X34418633Y-19488513D01*
X34587335Y-19282949D01*
X34712692Y-19048422D01*
X34729420Y-18993278D01*
X34746148Y-19048422D01*
X34871505Y-19282949D01*
X35040207Y-19488513D01*
X35245771Y-19657215D01*
X35480298Y-19782572D01*
X35734774Y-19859767D01*
X35933099Y-19879300D01*
X36065741Y-19879300D01*
X36264066Y-19859767D01*
X36518542Y-19782572D01*
X36753069Y-19657215D01*
X36958633Y-19488513D01*
X37127335Y-19282949D01*
X37210220Y-19127882D01*
X37211014Y-19130227D01*
X37353774Y-19377840D01*
X37542098Y-19592844D01*
X37768748Y-19766976D01*
X38025015Y-19893545D01*
X38209200Y-19949412D01*
X38435420Y-19818612D01*
X38435420Y-18633300D01*
X38415420Y-18633300D01*
X38415420Y-18425300D01*
X38435420Y-18425300D01*
X38435420Y-17239988D01*
X38209200Y-17109188D01*
X38025015Y-17165055D01*
X37768748Y-17291624D01*
X37542098Y-17465756D01*
X37353774Y-17680760D01*
X37211014Y-17928373D01*
X37210220Y-17930718D01*
X37127335Y-17775651D01*
X36958633Y-17570087D01*
X36753069Y-17401385D01*
X36518542Y-17276028D01*
X36264066Y-17198833D01*
X36065741Y-17179300D01*
X35933099Y-17179300D01*
X35734774Y-17198833D01*
X35480298Y-17276028D01*
X35245771Y-17401385D01*
X35040207Y-17570087D01*
X34871505Y-17775651D01*
X34746148Y-18010178D01*
X34729420Y-18065322D01*
X34712692Y-18010178D01*
X34587335Y-17775651D01*
X34418633Y-17570087D01*
X34213069Y-17401385D01*
X33978542Y-17276028D01*
X33724066Y-17198833D01*
X33525741Y-17179300D01*
X33393099Y-17179300D01*
X33194774Y-17198833D01*
X32940298Y-17276028D01*
X32705771Y-17401385D01*
X32500207Y-17570087D01*
X32331505Y-17775651D01*
X32206148Y-18010178D01*
X32189420Y-18065322D01*
X32172692Y-18010178D01*
X32047335Y-17775651D01*
X31878633Y-17570087D01*
X31673069Y-17401385D01*
X31438542Y-17276028D01*
X31184066Y-17198833D01*
X30985741Y-17179300D01*
X30853099Y-17179300D01*
X30654774Y-17198833D01*
X30400298Y-17276028D01*
X30165771Y-17401385D01*
X29960207Y-17570087D01*
X29791505Y-17775651D01*
X29666148Y-18010178D01*
X29649420Y-18065322D01*
X29632692Y-18010178D01*
X29507335Y-17775651D01*
X29338633Y-17570087D01*
X29133069Y-17401385D01*
X28898542Y-17276028D01*
X28644066Y-17198833D01*
X28445741Y-17179300D01*
X28313099Y-17179300D01*
X28114774Y-17198833D01*
X27860298Y-17276028D01*
X27625771Y-17401385D01*
X27420207Y-17570087D01*
X27251505Y-17775651D01*
X27126148Y-18010178D01*
X27109420Y-18065322D01*
X27092692Y-18010178D01*
X26967335Y-17775651D01*
X26798633Y-17570087D01*
X26593069Y-17401385D01*
X26358542Y-17276028D01*
X26104066Y-17198833D01*
X25905741Y-17179300D01*
X25773099Y-17179300D01*
X25574774Y-17198833D01*
X25320298Y-17276028D01*
X25085771Y-17401385D01*
X24880207Y-17570087D01*
X24711505Y-17775651D01*
X24586148Y-18010178D01*
X24569420Y-18065322D01*
X24552692Y-18010178D01*
X24427335Y-17775651D01*
X24258633Y-17570087D01*
X24053069Y-17401385D01*
X23818542Y-17276028D01*
X23564066Y-17198833D01*
X23365741Y-17179300D01*
X23233099Y-17179300D01*
X23034774Y-17198833D01*
X22780298Y-17276028D01*
X22545771Y-17401385D01*
X22340207Y-17570087D01*
X22171505Y-17775651D01*
X22046148Y-18010178D01*
X22029420Y-18065322D01*
X22012692Y-18010178D01*
X21887335Y-17775651D01*
X21718633Y-17570087D01*
X21513069Y-17401385D01*
X21278542Y-17276028D01*
X21024066Y-17198833D01*
X20825741Y-17179300D01*
X20693099Y-17179300D01*
X20494774Y-17198833D01*
X20240298Y-17276028D01*
X20005771Y-17401385D01*
X19800207Y-17570087D01*
X19631505Y-17775651D01*
X19506148Y-18010178D01*
X19489420Y-18065322D01*
X19472692Y-18010178D01*
X19347335Y-17775651D01*
X19178633Y-17570087D01*
X18973069Y-17401385D01*
X18738542Y-17276028D01*
X18484066Y-17198833D01*
X18285741Y-17179300D01*
X18153099Y-17179300D01*
X17954774Y-17198833D01*
X17700298Y-17276028D01*
X17465771Y-17401385D01*
X17260207Y-17570087D01*
X17091505Y-17775651D01*
X16966148Y-18010178D01*
X16949420Y-18065322D01*
X16932692Y-18010178D01*
X16807335Y-17775651D01*
X16638633Y-17570087D01*
X16433069Y-17401385D01*
X16198542Y-17276028D01*
X15944066Y-17198833D01*
X15745741Y-17179300D01*
X15613099Y-17179300D01*
X15414774Y-17198833D01*
X15160298Y-17276028D01*
X14925771Y-17401385D01*
X14720207Y-17570087D01*
X14551505Y-17775651D01*
X14426148Y-18010178D01*
X14409420Y-18065322D01*
X14392692Y-18010178D01*
X14267335Y-17775651D01*
X14098633Y-17570087D01*
X13893069Y-17401385D01*
X13658542Y-17276028D01*
X13404066Y-17198833D01*
X13205741Y-17179300D01*
X13073099Y-17179300D01*
X12874774Y-17198833D01*
X12620298Y-17276028D01*
X12385771Y-17401385D01*
X12180207Y-17570087D01*
X12011505Y-17775651D01*
X11886148Y-18010178D01*
X11869420Y-18065322D01*
X11852692Y-18010178D01*
X11727335Y-17775651D01*
X11558633Y-17570087D01*
X11353069Y-17401385D01*
X11118542Y-17276028D01*
X10864066Y-17198833D01*
X10665741Y-17179300D01*
X10533099Y-17179300D01*
X10334774Y-17198833D01*
X10080298Y-17276028D01*
X9845771Y-17401385D01*
X9640207Y-17570087D01*
X9471505Y-17775651D01*
X9346148Y-18010178D01*
X9329420Y-18065322D01*
X9312692Y-18010178D01*
X9187335Y-17775651D01*
X9018633Y-17570087D01*
X8813069Y-17401385D01*
X8578542Y-17276028D01*
X8324066Y-17198833D01*
X8125741Y-17179300D01*
X7993099Y-17179300D01*
X7794774Y-17198833D01*
X7540298Y-17276028D01*
X7305771Y-17401385D01*
X7100207Y-17570087D01*
X6931505Y-17775651D01*
X6806148Y-18010178D01*
X6789420Y-18065322D01*
X6772692Y-18010178D01*
X6647335Y-17775651D01*
X6478633Y-17570087D01*
X6273069Y-17401385D01*
X6038542Y-17276028D01*
X5784066Y-17198833D01*
X5585741Y-17179300D01*
X5453099Y-17179300D01*
X5254774Y-17198833D01*
X5000298Y-17276028D01*
X4765771Y-17401385D01*
X4560207Y-17570087D01*
X4391505Y-17775651D01*
X4266148Y-18010178D01*
X4188953Y-18264654D01*
X4162888Y-18529300D01*
X575000Y-18529300D01*
X575000Y-3289300D01*
X4162888Y-3289300D01*
X4188953Y-3553946D01*
X4266148Y-3808422D01*
X4391505Y-4042949D01*
X4560207Y-4248513D01*
X4765771Y-4417215D01*
X5000298Y-4542572D01*
X5254774Y-4619767D01*
X5453099Y-4639300D01*
X5585741Y-4639300D01*
X5784066Y-4619767D01*
X6038542Y-4542572D01*
X6273069Y-4417215D01*
X6478633Y-4248513D01*
X6647335Y-4042949D01*
X6772692Y-3808422D01*
X6789420Y-3753278D01*
X6806148Y-3808422D01*
X6931505Y-4042949D01*
X7100207Y-4248513D01*
X7305771Y-4417215D01*
X7540298Y-4542572D01*
X7794774Y-4619767D01*
X7993099Y-4639300D01*
X8125741Y-4639300D01*
X8324066Y-4619767D01*
X8578542Y-4542572D01*
X8813069Y-4417215D01*
X9018633Y-4248513D01*
X9187335Y-4042949D01*
X9312692Y-3808422D01*
X9329420Y-3753278D01*
X9346148Y-3808422D01*
X9471505Y-4042949D01*
X9640207Y-4248513D01*
X9845771Y-4417215D01*
X10080298Y-4542572D01*
X10334774Y-4619767D01*
X10533099Y-4639300D01*
X10665741Y-4639300D01*
X10864066Y-4619767D01*
X11118542Y-4542572D01*
X11353069Y-4417215D01*
X11558633Y-4248513D01*
X11727335Y-4042949D01*
X11852692Y-3808422D01*
X11869420Y-3753278D01*
X11886148Y-3808422D01*
X12011505Y-4042949D01*
X12180207Y-4248513D01*
X12385771Y-4417215D01*
X12620298Y-4542572D01*
X12874774Y-4619767D01*
X13073099Y-4639300D01*
X13205741Y-4639300D01*
X13404066Y-4619767D01*
X13658542Y-4542572D01*
X13893069Y-4417215D01*
X14098633Y-4248513D01*
X14267335Y-4042949D01*
X14392692Y-3808422D01*
X14409420Y-3753278D01*
X14426148Y-3808422D01*
X14551505Y-4042949D01*
X14720207Y-4248513D01*
X14925771Y-4417215D01*
X15160298Y-4542572D01*
X15414774Y-4619767D01*
X15613099Y-4639300D01*
X15745741Y-4639300D01*
X15944066Y-4619767D01*
X16198542Y-4542572D01*
X16433069Y-4417215D01*
X16638633Y-4248513D01*
X16807335Y-4042949D01*
X16932692Y-3808422D01*
X16949420Y-3753278D01*
X16966148Y-3808422D01*
X17091505Y-4042949D01*
X17260207Y-4248513D01*
X17465771Y-4417215D01*
X17700298Y-4542572D01*
X17954774Y-4619767D01*
X18153099Y-4639300D01*
X18285741Y-4639300D01*
X18484066Y-4619767D01*
X18738542Y-4542572D01*
X18973069Y-4417215D01*
X19178633Y-4248513D01*
X19347335Y-4042949D01*
X19472692Y-3808422D01*
X19489420Y-3753278D01*
X19506148Y-3808422D01*
X19631505Y-4042949D01*
X19800207Y-4248513D01*
X20005771Y-4417215D01*
X20240298Y-4542572D01*
X20494774Y-4619767D01*
X20693099Y-4639300D01*
X20825741Y-4639300D01*
X21024066Y-4619767D01*
X21278542Y-4542572D01*
X21513069Y-4417215D01*
X21718633Y-4248513D01*
X21887335Y-4042949D01*
X22012692Y-3808422D01*
X22029420Y-3753278D01*
X22046148Y-3808422D01*
X22171505Y-4042949D01*
X22340207Y-4248513D01*
X22545771Y-4417215D01*
X22780298Y-4542572D01*
X23034774Y-4619767D01*
X23233099Y-4639300D01*
X23365741Y-4639300D01*
X23564066Y-4619767D01*
X23818542Y-4542572D01*
X24053069Y-4417215D01*
X24258633Y-4248513D01*
X24427335Y-4042949D01*
X24552692Y-3808422D01*
X24569420Y-3753278D01*
X24586148Y-3808422D01*
X24711505Y-4042949D01*
X24880207Y-4248513D01*
X25085771Y-4417215D01*
X25320298Y-4542572D01*
X25574774Y-4619767D01*
X25773099Y-4639300D01*
X25905741Y-4639300D01*
X26104066Y-4619767D01*
X26358542Y-4542572D01*
X26593069Y-4417215D01*
X26798633Y-4248513D01*
X26967335Y-4042949D01*
X27092692Y-3808422D01*
X27109420Y-3753278D01*
X27126148Y-3808422D01*
X27251505Y-4042949D01*
X27420207Y-4248513D01*
X27625771Y-4417215D01*
X27860298Y-4542572D01*
X28114774Y-4619767D01*
X28313099Y-4639300D01*
X28445741Y-4639300D01*
X28644066Y-4619767D01*
X28898542Y-4542572D01*
X29133069Y-4417215D01*
X29338633Y-4248513D01*
X29507335Y-4042949D01*
X29632692Y-3808422D01*
X29649420Y-3753278D01*
X29666148Y-3808422D01*
X29791505Y-4042949D01*
X29960207Y-4248513D01*
X30165771Y-4417215D01*
X30400298Y-4542572D01*
X30654774Y-4619767D01*
X30853099Y-4639300D01*
X30985741Y-4639300D01*
X31184066Y-4619767D01*
X31438542Y-4542572D01*
X31673069Y-4417215D01*
X31878633Y-4248513D01*
X32047335Y-4042949D01*
X32130220Y-3887882D01*
X32131014Y-3890227D01*
X32273774Y-4137840D01*
X32462098Y-4352844D01*
X32688748Y-4526976D01*
X32945015Y-4653545D01*
X33129200Y-4709412D01*
X33355420Y-4578612D01*
X33355420Y-3393300D01*
X33335420Y-3393300D01*
X33335420Y-3185300D01*
X33355420Y-3185300D01*
X33355420Y-1999988D01*
X33563420Y-1999988D01*
X33563420Y-3185300D01*
X33583420Y-3185300D01*
X33583420Y-3393300D01*
X33563420Y-3393300D01*
X33563420Y-4578612D01*
X33789640Y-4709412D01*
X33973825Y-4653545D01*
X34230092Y-4526976D01*
X34456742Y-4352844D01*
X34645066Y-4137840D01*
X34787826Y-3890227D01*
X34788620Y-3887882D01*
X34871505Y-4042949D01*
X35040207Y-4248513D01*
X35245771Y-4417215D01*
X35480298Y-4542572D01*
X35734774Y-4619767D01*
X35933099Y-4639300D01*
X36065741Y-4639300D01*
X36264066Y-4619767D01*
X36518542Y-4542572D01*
X36753069Y-4417215D01*
X36958633Y-4248513D01*
X37127335Y-4042949D01*
X37252692Y-3808422D01*
X37269420Y-3753278D01*
X37286148Y-3808422D01*
X37411505Y-4042949D01*
X37580207Y-4248513D01*
X37785771Y-4417215D01*
X38020298Y-4542572D01*
X38274774Y-4619767D01*
X38473099Y-4639300D01*
X38605741Y-4639300D01*
X38804066Y-4619767D01*
X39058542Y-4542572D01*
X39293069Y-4417215D01*
X39498633Y-4248513D01*
X39667335Y-4042949D01*
X39726759Y-3931774D01*
X39726759Y-4089300D01*
X39737378Y-4197119D01*
X39768828Y-4300794D01*
X39819899Y-4396342D01*
X39888630Y-4480090D01*
X39972378Y-4548821D01*
X40067926Y-4599892D01*
X40171601Y-4631342D01*
X40279420Y-4641961D01*
X41879420Y-4641961D01*
X41987239Y-4631342D01*
X42090914Y-4599892D01*
X42186462Y-4548821D01*
X42270210Y-4480090D01*
X42338941Y-4396342D01*
X42390012Y-4300794D01*
X42421462Y-4197119D01*
X42432081Y-4089300D01*
X42432081Y-2489300D01*
X42421462Y-2381481D01*
X42390012Y-2277806D01*
X42338941Y-2182258D01*
X42270210Y-2098510D01*
X42186462Y-2029779D01*
X42090914Y-1978708D01*
X41987239Y-1947258D01*
X41879420Y-1936639D01*
X40279420Y-1936639D01*
X40171601Y-1947258D01*
X40067926Y-1978708D01*
X39972378Y-2029779D01*
X39888630Y-2098510D01*
X39819899Y-2182258D01*
X39768828Y-2277806D01*
X39737378Y-2381481D01*
X39726759Y-2489300D01*
X39726759Y-2646826D01*
X39667335Y-2535651D01*
X39498633Y-2330087D01*
X39293069Y-2161385D01*
X39058542Y-2036028D01*
X38804066Y-1958833D01*
X38605741Y-1939300D01*
X38473099Y-1939300D01*
X38274774Y-1958833D01*
X38020298Y-2036028D01*
X37785771Y-2161385D01*
X37580207Y-2330087D01*
X37411505Y-2535651D01*
X37286148Y-2770178D01*
X37269420Y-2825322D01*
X37252692Y-2770178D01*
X37127335Y-2535651D01*
X36958633Y-2330087D01*
X36753069Y-2161385D01*
X36518542Y-2036028D01*
X36264066Y-1958833D01*
X36065741Y-1939300D01*
X35933099Y-1939300D01*
X35734774Y-1958833D01*
X35480298Y-2036028D01*
X35245771Y-2161385D01*
X35040207Y-2330087D01*
X34871505Y-2535651D01*
X34788620Y-2690718D01*
X34787826Y-2688373D01*
X34645066Y-2440760D01*
X34456742Y-2225756D01*
X34230092Y-2051624D01*
X33973825Y-1925055D01*
X33789640Y-1869188D01*
X33563420Y-1999988D01*
X33355420Y-1999988D01*
X33129200Y-1869188D01*
X32945015Y-1925055D01*
X32688748Y-2051624D01*
X32462098Y-2225756D01*
X32273774Y-2440760D01*
X32131014Y-2688373D01*
X32130220Y-2690718D01*
X32047335Y-2535651D01*
X31878633Y-2330087D01*
X31673069Y-2161385D01*
X31438542Y-2036028D01*
X31184066Y-1958833D01*
X30985741Y-1939300D01*
X30853099Y-1939300D01*
X30654774Y-1958833D01*
X30400298Y-2036028D01*
X30165771Y-2161385D01*
X29960207Y-2330087D01*
X29791505Y-2535651D01*
X29666148Y-2770178D01*
X29649420Y-2825322D01*
X29632692Y-2770178D01*
X29507335Y-2535651D01*
X29338633Y-2330087D01*
X29133069Y-2161385D01*
X28898542Y-2036028D01*
X28644066Y-1958833D01*
X28445741Y-1939300D01*
X28313099Y-1939300D01*
X28114774Y-1958833D01*
X27860298Y-2036028D01*
X27625771Y-2161385D01*
X27420207Y-2330087D01*
X27251505Y-2535651D01*
X27126148Y-2770178D01*
X27109420Y-2825322D01*
X27092692Y-2770178D01*
X26967335Y-2535651D01*
X26798633Y-2330087D01*
X26593069Y-2161385D01*
X26358542Y-2036028D01*
X26104066Y-1958833D01*
X25905741Y-1939300D01*
X25773099Y-1939300D01*
X25574774Y-1958833D01*
X25320298Y-2036028D01*
X25085771Y-2161385D01*
X24880207Y-2330087D01*
X24711505Y-2535651D01*
X24586148Y-2770178D01*
X24569420Y-2825322D01*
X24552692Y-2770178D01*
X24427335Y-2535651D01*
X24258633Y-2330087D01*
X24053069Y-2161385D01*
X23818542Y-2036028D01*
X23564066Y-1958833D01*
X23365741Y-1939300D01*
X23233099Y-1939300D01*
X23034774Y-1958833D01*
X22780298Y-2036028D01*
X22545771Y-2161385D01*
X22340207Y-2330087D01*
X22171505Y-2535651D01*
X22046148Y-2770178D01*
X22029420Y-2825322D01*
X22012692Y-2770178D01*
X21887335Y-2535651D01*
X21718633Y-2330087D01*
X21513069Y-2161385D01*
X21278542Y-2036028D01*
X21024066Y-1958833D01*
X20825741Y-1939300D01*
X20693099Y-1939300D01*
X20494774Y-1958833D01*
X20240298Y-2036028D01*
X20005771Y-2161385D01*
X19800207Y-2330087D01*
X19631505Y-2535651D01*
X19506148Y-2770178D01*
X19489420Y-2825322D01*
X19472692Y-2770178D01*
X19347335Y-2535651D01*
X19178633Y-2330087D01*
X18973069Y-2161385D01*
X18738542Y-2036028D01*
X18484066Y-1958833D01*
X18285741Y-1939300D01*
X18153099Y-1939300D01*
X17954774Y-1958833D01*
X17700298Y-2036028D01*
X17465771Y-2161385D01*
X17260207Y-2330087D01*
X17091505Y-2535651D01*
X16966148Y-2770178D01*
X16949420Y-2825322D01*
X16932692Y-2770178D01*
X16807335Y-2535651D01*
X16638633Y-2330087D01*
X16433069Y-2161385D01*
X16198542Y-2036028D01*
X15944066Y-1958833D01*
X15745741Y-1939300D01*
X15613099Y-1939300D01*
X15414774Y-1958833D01*
X15160298Y-2036028D01*
X14925771Y-2161385D01*
X14720207Y-2330087D01*
X14551505Y-2535651D01*
X14426148Y-2770178D01*
X14409420Y-2825322D01*
X14392692Y-2770178D01*
X14267335Y-2535651D01*
X14098633Y-2330087D01*
X13893069Y-2161385D01*
X13658542Y-2036028D01*
X13404066Y-1958833D01*
X13205741Y-1939300D01*
X13073099Y-1939300D01*
X12874774Y-1958833D01*
X12620298Y-2036028D01*
X12385771Y-2161385D01*
X12180207Y-2330087D01*
X12011505Y-2535651D01*
X11886148Y-2770178D01*
X11869420Y-2825322D01*
X11852692Y-2770178D01*
X11727335Y-2535651D01*
X11558633Y-2330087D01*
X11353069Y-2161385D01*
X11118542Y-2036028D01*
X10864066Y-1958833D01*
X10665741Y-1939300D01*
X10533099Y-1939300D01*
X10334774Y-1958833D01*
X10080298Y-2036028D01*
X9845771Y-2161385D01*
X9640207Y-2330087D01*
X9471505Y-2535651D01*
X9346148Y-2770178D01*
X9329420Y-2825322D01*
X9312692Y-2770178D01*
X9187335Y-2535651D01*
X9018633Y-2330087D01*
X8813069Y-2161385D01*
X8578542Y-2036028D01*
X8324066Y-1958833D01*
X8125741Y-1939300D01*
X7993099Y-1939300D01*
X7794774Y-1958833D01*
X7540298Y-2036028D01*
X7305771Y-2161385D01*
X7100207Y-2330087D01*
X6931505Y-2535651D01*
X6806148Y-2770178D01*
X6789420Y-2825322D01*
X6772692Y-2770178D01*
X6647335Y-2535651D01*
X6478633Y-2330087D01*
X6273069Y-2161385D01*
X6038542Y-2036028D01*
X5784066Y-1958833D01*
X5585741Y-1939300D01*
X5453099Y-1939300D01*
X5254774Y-1958833D01*
X5000298Y-2036028D01*
X4765771Y-2161385D01*
X4560207Y-2330087D01*
X4391505Y-2535651D01*
X4266148Y-2770178D01*
X4188953Y-3024654D01*
X4162888Y-3289300D01*
X575000Y-3289300D01*
X575000Y-1766200D01*
X46555776Y-1766200D01*
X46558960Y-2347700D01*
X46723460Y-2512200D01*
X47962960Y-2512200D01*
X47962960Y-1272700D01*
X48170960Y-1272700D01*
X48170960Y-2512200D01*
X49410460Y-2512200D01*
X49574960Y-2347700D01*
X49578144Y-1766200D01*
X49565440Y-1637209D01*
X49527814Y-1513176D01*
X49466714Y-1398866D01*
X49384488Y-1298672D01*
X49284294Y-1216446D01*
X49169984Y-1155346D01*
X49045951Y-1117720D01*
X48916960Y-1105016D01*
X48335460Y-1108200D01*
X48170960Y-1272700D01*
X47962960Y-1272700D01*
X47798460Y-1108200D01*
X47216960Y-1105016D01*
X47087969Y-1117720D01*
X46963936Y-1155346D01*
X46849626Y-1216446D01*
X46749432Y-1298672D01*
X46667206Y-1398866D01*
X46606106Y-1513176D01*
X46568480Y-1637209D01*
X46555776Y-1766200D01*
X575000Y-1766200D01*
X575000Y-575000D01*
X52118291Y-575000D01*
X51819702Y-698680D01*
X51819702Y-698680D01*
G37*
X51819702Y-698680D02*
X51402050Y-977746D01*
X51046866Y-1332930D01*
X50767800Y-1750582D01*
X50575575Y-2214653D01*
X50477580Y-2707307D01*
X50477580Y-3209613D01*
X50575575Y-3702267D01*
X50767800Y-4166338D01*
X51046866Y-4583990D01*
X51402050Y-4939174D01*
X51819702Y-5218240D01*
X52283773Y-5410465D01*
X52525060Y-5458460D01*
X52283773Y-5506455D01*
X51819702Y-5698680D01*
X51402050Y-5977746D01*
X51089196Y-6290600D01*
X48891523Y-6290600D01*
X49061699Y-6150939D01*
X49236650Y-5937762D01*
X49366650Y-5694549D01*
X49446703Y-5430648D01*
X49473734Y-5156200D01*
X49446703Y-4881752D01*
X49366650Y-4617851D01*
X49236650Y-4374638D01*
X49061699Y-4161461D01*
X49009117Y-4118308D01*
X49045951Y-4114680D01*
X49169984Y-4077054D01*
X49284294Y-4015954D01*
X49384488Y-3933728D01*
X49466714Y-3833534D01*
X49527814Y-3719224D01*
X49565440Y-3595191D01*
X49578144Y-3466200D01*
X49574960Y-2884700D01*
X49410460Y-2720200D01*
X48170960Y-2720200D01*
X48170960Y-2740200D01*
X47962960Y-2740200D01*
X47962960Y-2720200D01*
X46723460Y-2720200D01*
X46558960Y-2884700D01*
X46555776Y-3466200D01*
X46568480Y-3595191D01*
X46606106Y-3719224D01*
X46667206Y-3833534D01*
X46749432Y-3933728D01*
X46849626Y-4015954D01*
X46963936Y-4077054D01*
X47087969Y-4114680D01*
X47124803Y-4118308D01*
X47072221Y-4161461D01*
X46897270Y-4374638D01*
X46767270Y-4617851D01*
X46687217Y-4881752D01*
X46660186Y-5156200D01*
X46687217Y-5430648D01*
X46767270Y-5694549D01*
X46897270Y-5937762D01*
X47072221Y-6150939D01*
X47242397Y-6290600D01*
X45964608Y-6290600D01*
X45913040Y-6285521D01*
X45861472Y-6290600D01*
X45861462Y-6290600D01*
X45707204Y-6305793D01*
X45509278Y-6365833D01*
X45326869Y-6463333D01*
X45166986Y-6594546D01*
X45134107Y-6634609D01*
X40373434Y-11395283D01*
X40333366Y-11428166D01*
X40331247Y-11430748D01*
X40286077Y-11454892D01*
X40200486Y-11525134D01*
X40200482Y-11525138D01*
X40171875Y-11548615D01*
X40148398Y-11577222D01*
X39668941Y-12056680D01*
X21390608Y-12056680D01*
X21353780Y-12053053D01*
X21316952Y-12056680D01*
X21316945Y-12056680D01*
X21206754Y-12067533D01*
X21065379Y-12110419D01*
X20935087Y-12180061D01*
X20876022Y-12228535D01*
X20820885Y-12273785D01*
X20797406Y-12302395D01*
X20702936Y-12396864D01*
X20540735Y-12429128D01*
X20367846Y-12500741D01*
X20212250Y-12604707D01*
X20079927Y-12737030D01*
X19975961Y-12892626D01*
X19904348Y-13065515D01*
X19867840Y-13249053D01*
X19867840Y-13436187D01*
X19904348Y-13619725D01*
X19975961Y-13792614D01*
X20079927Y-13948210D01*
X20212250Y-14080533D01*
X20367846Y-14184499D01*
X20540735Y-14256112D01*
X20724273Y-14292620D01*
X20911407Y-14292620D01*
X21094945Y-14256112D01*
X21267834Y-14184499D01*
X21423430Y-14080533D01*
X21555753Y-13948210D01*
X21659719Y-13792614D01*
X21731332Y-13619725D01*
X21743872Y-13556680D01*
X39942773Y-13556680D01*
X39979600Y-13560307D01*
X40016427Y-13556680D01*
X40016435Y-13556680D01*
X40029420Y-13555401D01*
X40029421Y-17346343D01*
X40029420Y-17346353D01*
X40029420Y-17680711D01*
X39951505Y-17775651D01*
X39868620Y-17930718D01*
X39867826Y-17928373D01*
X39725066Y-17680760D01*
X39536742Y-17465756D01*
X39310092Y-17291624D01*
X39053825Y-17165055D01*
X38869640Y-17109188D01*
X38643420Y-17239988D01*
X38643420Y-18425300D01*
X38663420Y-18425300D01*
X38663420Y-18633300D01*
X38643420Y-18633300D01*
X38643420Y-19818612D01*
X38869640Y-19949412D01*
X39053825Y-19893545D01*
X39310092Y-19766976D01*
X39536742Y-19592844D01*
X39725066Y-19377840D01*
X39867826Y-19130227D01*
X39868620Y-19127882D01*
X39951505Y-19282949D01*
X40120207Y-19488513D01*
X40325771Y-19657215D01*
X40560298Y-19782572D01*
X40814774Y-19859767D01*
X41013099Y-19879300D01*
X41145741Y-19879300D01*
X41344066Y-19859767D01*
X41598542Y-19782572D01*
X41833069Y-19657215D01*
X42038633Y-19488513D01*
X42207335Y-19282949D01*
X42332692Y-19048422D01*
X42409887Y-18793946D01*
X42435952Y-18529300D01*
X42409887Y-18264654D01*
X42332692Y-18010178D01*
X42207335Y-17775651D01*
X42129420Y-17680711D01*
X42129420Y-17608920D01*
X46596416Y-17608920D01*
X46609120Y-17737911D01*
X46646746Y-17861944D01*
X46707846Y-17976254D01*
X46790072Y-18076448D01*
X46890266Y-18158674D01*
X47004576Y-18219774D01*
X47128609Y-18257400D01*
X47165443Y-18261028D01*
X47112861Y-18304181D01*
X46937910Y-18517358D01*
X46807910Y-18760571D01*
X46727857Y-19024472D01*
X46700826Y-19298920D01*
X46727857Y-19573368D01*
X46807910Y-19837269D01*
X46937910Y-20080482D01*
X47112861Y-20293659D01*
X47326038Y-20468610D01*
X47569251Y-20598610D01*
X47833152Y-20678663D01*
X48038823Y-20698920D01*
X48176377Y-20698920D01*
X48382048Y-20678663D01*
X48645949Y-20598610D01*
X48889162Y-20468610D01*
X49102339Y-20293659D01*
X49277290Y-20080482D01*
X49407290Y-19837269D01*
X49487343Y-19573368D01*
X49514374Y-19298920D01*
X49487343Y-19024472D01*
X49407290Y-18760571D01*
X49277290Y-18517358D01*
X49102339Y-18304181D01*
X49049757Y-18261028D01*
X49086591Y-18257400D01*
X49210624Y-18219774D01*
X49324934Y-18158674D01*
X49425128Y-18076448D01*
X49507354Y-17976254D01*
X49568454Y-17861944D01*
X49606080Y-17737911D01*
X49618784Y-17608920D01*
X49615600Y-17027420D01*
X49451100Y-16862920D01*
X48211600Y-16862920D01*
X48211600Y-16882920D01*
X48003600Y-16882920D01*
X48003600Y-16862920D01*
X46764100Y-16862920D01*
X46599600Y-17027420D01*
X46596416Y-17608920D01*
X42129420Y-17608920D01*
X42129420Y-16740624D01*
X42158506Y-16760059D01*
X42331395Y-16831672D01*
X42514933Y-16868180D01*
X42702067Y-16868180D01*
X42885605Y-16831672D01*
X43058494Y-16760059D01*
X43196001Y-16668180D01*
X44110913Y-16668180D01*
X44147740Y-16671807D01*
X44184567Y-16668180D01*
X44184575Y-16668180D01*
X44294766Y-16657327D01*
X44436141Y-16614441D01*
X44566433Y-16544799D01*
X44680635Y-16451075D01*
X44704118Y-16422461D01*
X45217659Y-15908920D01*
X46596416Y-15908920D01*
X46599600Y-16490420D01*
X46764100Y-16654920D01*
X48003600Y-16654920D01*
X48003600Y-15415420D01*
X48211600Y-15415420D01*
X48211600Y-16654920D01*
X49451100Y-16654920D01*
X49615600Y-16490420D01*
X49618784Y-15908920D01*
X49606080Y-15779929D01*
X49568454Y-15655896D01*
X49507354Y-15541586D01*
X49425128Y-15441392D01*
X49324934Y-15359166D01*
X49210624Y-15298066D01*
X49086591Y-15260440D01*
X48957600Y-15247736D01*
X48376100Y-15250920D01*
X48211600Y-15415420D01*
X48003600Y-15415420D01*
X47839100Y-15250920D01*
X47257600Y-15247736D01*
X47128609Y-15260440D01*
X47004576Y-15298066D01*
X46890266Y-15359166D01*
X46790072Y-15441392D01*
X46707846Y-15541586D01*
X46646746Y-15655896D01*
X46609120Y-15779929D01*
X46596416Y-15908920D01*
X45217659Y-15908920D01*
X46155121Y-14971460D01*
X50787286Y-14971460D01*
X51049406Y-15363750D01*
X51404590Y-15718934D01*
X51822242Y-15998000D01*
X52286313Y-16190225D01*
X52527600Y-16238220D01*
X52286313Y-16286215D01*
X51822242Y-16478440D01*
X51404590Y-16757506D01*
X51049406Y-17112690D01*
X50770340Y-17530342D01*
X50578115Y-17994413D01*
X50480120Y-18487067D01*
X50480120Y-18989373D01*
X50578115Y-19482027D01*
X50770340Y-19946098D01*
X51049406Y-20363750D01*
X51404590Y-20718934D01*
X51822242Y-20998000D01*
X52286313Y-21190225D01*
X52778967Y-21288220D01*
X53281273Y-21288220D01*
X53773927Y-21190225D01*
X54237998Y-20998000D01*
X54655650Y-20718934D01*
X55010834Y-20363750D01*
X55289900Y-19946098D01*
X55482125Y-19482027D01*
X55580120Y-18989373D01*
X55580120Y-18487067D01*
X55544627Y-18308627D01*
X57324780Y-18308627D01*
X57324780Y-18810933D01*
X57422775Y-19303587D01*
X57615000Y-19767658D01*
X57894066Y-20185310D01*
X58249250Y-20540494D01*
X58666902Y-20819560D01*
X59130973Y-21011785D01*
X59623627Y-21109780D01*
X60125933Y-21109780D01*
X60618587Y-21011785D01*
X61082658Y-20819560D01*
X61500310Y-20540494D01*
X61636747Y-20404057D01*
X63177581Y-20404057D01*
X63390216Y-20780042D01*
X63851893Y-21027005D01*
X64352879Y-21179153D01*
X64873922Y-21230640D01*
X65394998Y-21179488D01*
X65896081Y-21027662D01*
X66357917Y-20780996D01*
X66359344Y-20780042D01*
X66571979Y-20404057D01*
X64874780Y-18706858D01*
X63177581Y-20404057D01*
X61636747Y-20404057D01*
X61855494Y-20185310D01*
X62134560Y-19767658D01*
X62324494Y-19309117D01*
X62406898Y-19581081D01*
X62653564Y-20042917D01*
X62654518Y-20044344D01*
X63030503Y-20256979D01*
X64727702Y-18559780D01*
X65021858Y-18559780D01*
X66719057Y-20256979D01*
X67095042Y-20044344D01*
X67342005Y-19582667D01*
X67494153Y-19081681D01*
X67545640Y-18560638D01*
X67494488Y-18039562D01*
X67342662Y-17538479D01*
X67095996Y-17076643D01*
X67095042Y-17075216D01*
X66719057Y-16862581D01*
X65021858Y-18559780D01*
X64727702Y-18559780D01*
X63030503Y-16862581D01*
X62654518Y-17075216D01*
X62407555Y-17536893D01*
X62324485Y-17810421D01*
X62134560Y-17351902D01*
X61855494Y-16934250D01*
X61636747Y-16715503D01*
X63177581Y-16715503D01*
X64874780Y-18412702D01*
X66571979Y-16715503D01*
X66359344Y-16339518D01*
X65897667Y-16092555D01*
X65396681Y-15940407D01*
X64875638Y-15888920D01*
X64354562Y-15940072D01*
X63853479Y-16091898D01*
X63391643Y-16338564D01*
X63390216Y-16339518D01*
X63177581Y-16715503D01*
X61636747Y-16715503D01*
X61500310Y-16579066D01*
X61082658Y-16300000D01*
X60618587Y-16107775D01*
X60125933Y-16009780D01*
X59623627Y-16009780D01*
X59130973Y-16107775D01*
X58666902Y-16300000D01*
X58249250Y-16579066D01*
X57894066Y-16934250D01*
X57615000Y-17351902D01*
X57422775Y-17815973D01*
X57324780Y-18308627D01*
X55544627Y-18308627D01*
X55482125Y-17994413D01*
X55289900Y-17530342D01*
X55010834Y-17112690D01*
X54655650Y-16757506D01*
X54237998Y-16478440D01*
X53773927Y-16286215D01*
X53532640Y-16238220D01*
X53773927Y-16190225D01*
X54237998Y-15998000D01*
X54503075Y-15820881D01*
X66963471Y-15820881D01*
X67039599Y-15828379D01*
X67115727Y-15820881D01*
X67115737Y-15820881D01*
X67343452Y-15798453D01*
X67635628Y-15709822D01*
X67904899Y-15565894D01*
X68140917Y-15372199D01*
X68189456Y-15313054D01*
X70351150Y-13151361D01*
X71275430Y-13151361D01*
X71235858Y-13225395D01*
X71190182Y-13375969D01*
X71174759Y-13532560D01*
X71174759Y-14732560D01*
X71190182Y-14889151D01*
X71235858Y-15039725D01*
X71310032Y-15178495D01*
X71409853Y-15300127D01*
X71531485Y-15399948D01*
X71670255Y-15474122D01*
X71751951Y-15498904D01*
X71582681Y-15637821D01*
X71407730Y-15850998D01*
X71277730Y-16094211D01*
X71197677Y-16358112D01*
X71170646Y-16632560D01*
X71197677Y-16907008D01*
X71277730Y-17170909D01*
X71407730Y-17414122D01*
X71582681Y-17627299D01*
X71795858Y-17802250D01*
X71946108Y-17882560D01*
X71795858Y-17962870D01*
X71582681Y-18137821D01*
X71407730Y-18350998D01*
X71277730Y-18594211D01*
X71197677Y-18858112D01*
X71170646Y-19132560D01*
X71197677Y-19407008D01*
X71277730Y-19670909D01*
X71407730Y-19914122D01*
X71582681Y-20127299D01*
X71795858Y-20302250D01*
X72039071Y-20432250D01*
X72302972Y-20512303D01*
X72508643Y-20532560D01*
X72896197Y-20532560D01*
X73101868Y-20512303D01*
X73365769Y-20432250D01*
X73608982Y-20302250D01*
X73822159Y-20127299D01*
X73997110Y-19914122D01*
X74127110Y-19670909D01*
X74207163Y-19407008D01*
X74234194Y-19132560D01*
X74207163Y-18858112D01*
X74127110Y-18594211D01*
X73997110Y-18350998D01*
X73822159Y-18137821D01*
X73608982Y-17962870D01*
X73458732Y-17882560D01*
X73608982Y-17802250D01*
X73822159Y-17627299D01*
X73997110Y-17414122D01*
X74127110Y-17170909D01*
X74207163Y-16907008D01*
X74234194Y-16632560D01*
X74207163Y-16358112D01*
X74127110Y-16094211D01*
X73997110Y-15850998D01*
X73822159Y-15637821D01*
X73652889Y-15498904D01*
X73734585Y-15474122D01*
X73873355Y-15399948D01*
X73994987Y-15300127D01*
X74094808Y-15178495D01*
X74168982Y-15039725D01*
X74214658Y-14889151D01*
X74230081Y-14732560D01*
X74230081Y-13532560D01*
X74214658Y-13375969D01*
X74168982Y-13225395D01*
X74112487Y-13119700D01*
X78847190Y-13119700D01*
X78777118Y-13250795D01*
X78731442Y-13401369D01*
X78716019Y-13557960D01*
X78716019Y-14757960D01*
X78731442Y-14914551D01*
X78777118Y-15065125D01*
X78851292Y-15203895D01*
X78951113Y-15325527D01*
X79072745Y-15425348D01*
X79211515Y-15499522D01*
X79293211Y-15524304D01*
X79123941Y-15663221D01*
X78948990Y-15876398D01*
X78818990Y-16119611D01*
X78738937Y-16383512D01*
X78711906Y-16657960D01*
X78738937Y-16932408D01*
X78818990Y-17196309D01*
X78948990Y-17439522D01*
X79123941Y-17652699D01*
X79337118Y-17827650D01*
X79487368Y-17907960D01*
X79337118Y-17988270D01*
X79123941Y-18163221D01*
X78948990Y-18376398D01*
X78818990Y-18619611D01*
X78738937Y-18883512D01*
X78711906Y-19157960D01*
X78738937Y-19432408D01*
X78818990Y-19696309D01*
X78948990Y-19939522D01*
X79123941Y-20152699D01*
X79337118Y-20327650D01*
X79580331Y-20457650D01*
X79844232Y-20537703D01*
X80049903Y-20557960D01*
X80437457Y-20557960D01*
X80643128Y-20537703D01*
X80907029Y-20457650D01*
X81150242Y-20327650D01*
X81363419Y-20152699D01*
X81538370Y-19939522D01*
X81668370Y-19696309D01*
X81748423Y-19432408D01*
X81775454Y-19157960D01*
X81748423Y-18883512D01*
X81668370Y-18619611D01*
X81538370Y-18376398D01*
X81363419Y-18163221D01*
X81150242Y-17988270D01*
X80999992Y-17907960D01*
X81150242Y-17827650D01*
X81363419Y-17652699D01*
X81538370Y-17439522D01*
X81668370Y-17196309D01*
X81748423Y-16932408D01*
X81775454Y-16657960D01*
X81748423Y-16383512D01*
X81668370Y-16119611D01*
X81538370Y-15876398D01*
X81363419Y-15663221D01*
X81194149Y-15524304D01*
X81275845Y-15499522D01*
X81414615Y-15425348D01*
X81536247Y-15325527D01*
X81636068Y-15203895D01*
X81710242Y-15065125D01*
X81755918Y-14914551D01*
X81771341Y-14757960D01*
X81771341Y-13557960D01*
X81755918Y-13401369D01*
X81710242Y-13250795D01*
X81640170Y-13119700D01*
X86803782Y-13119700D01*
X86752718Y-13215235D01*
X86707042Y-13365809D01*
X86691619Y-13522400D01*
X86691619Y-14722400D01*
X86707042Y-14878991D01*
X86752718Y-15029565D01*
X86826892Y-15168335D01*
X86926713Y-15289967D01*
X87048345Y-15389788D01*
X87187115Y-15463962D01*
X87268811Y-15488744D01*
X87099541Y-15627661D01*
X86924590Y-15840838D01*
X86794590Y-16084051D01*
X86714537Y-16347952D01*
X86687506Y-16622400D01*
X86714537Y-16896848D01*
X86794590Y-17160749D01*
X86924590Y-17403962D01*
X87099541Y-17617139D01*
X87312718Y-17792090D01*
X87462968Y-17872400D01*
X87312718Y-17952710D01*
X87099541Y-18127661D01*
X86924590Y-18340838D01*
X86794590Y-18584051D01*
X86714537Y-18847952D01*
X86687506Y-19122400D01*
X86714537Y-19396848D01*
X86794590Y-19660749D01*
X86924590Y-19903962D01*
X87099541Y-20117139D01*
X87312718Y-20292090D01*
X87555931Y-20422090D01*
X87819832Y-20502143D01*
X88025503Y-20522400D01*
X88413057Y-20522400D01*
X88618728Y-20502143D01*
X88882629Y-20422090D01*
X89125842Y-20292090D01*
X89339019Y-20117139D01*
X89513970Y-19903962D01*
X89643970Y-19660749D01*
X89724023Y-19396848D01*
X89751054Y-19122400D01*
X89724023Y-18847952D01*
X89643970Y-18584051D01*
X89513970Y-18340838D01*
X89339019Y-18127661D01*
X89125842Y-17952710D01*
X88975592Y-17872400D01*
X89125842Y-17792090D01*
X89339019Y-17617139D01*
X89513970Y-17403962D01*
X89643970Y-17160749D01*
X89724023Y-16896848D01*
X89751054Y-16622400D01*
X94840906Y-16622400D01*
X94867937Y-16896848D01*
X94947990Y-17160749D01*
X95077990Y-17403962D01*
X95252941Y-17617139D01*
X95466118Y-17792090D01*
X95616368Y-17872400D01*
X95466118Y-17952710D01*
X95252941Y-18127661D01*
X95077990Y-18340838D01*
X94947990Y-18584051D01*
X94867937Y-18847952D01*
X94840906Y-19122400D01*
X94867937Y-19396848D01*
X94947990Y-19660749D01*
X95077990Y-19903962D01*
X95252941Y-20117139D01*
X95466118Y-20292090D01*
X95709331Y-20422090D01*
X95973232Y-20502143D01*
X96178903Y-20522400D01*
X96566457Y-20522400D01*
X96772128Y-20502143D01*
X97036029Y-20422090D01*
X97279242Y-20292090D01*
X97492419Y-20117139D01*
X97667370Y-19903962D01*
X97797370Y-19660749D01*
X97877423Y-19396848D01*
X97904454Y-19122400D01*
X97877423Y-18847952D01*
X97797370Y-18584051D01*
X97667370Y-18340838D01*
X97492419Y-18127661D01*
X97279242Y-17952710D01*
X97128992Y-17872400D01*
X97279242Y-17792090D01*
X97492419Y-17617139D01*
X97667370Y-17403962D01*
X97797370Y-17160749D01*
X97877423Y-16896848D01*
X97904454Y-16622400D01*
X97877423Y-16347952D01*
X97797370Y-16084051D01*
X97667370Y-15840838D01*
X97492419Y-15627661D01*
X97323149Y-15488744D01*
X97404845Y-15463962D01*
X97543615Y-15389788D01*
X97665247Y-15289967D01*
X97765068Y-15168335D01*
X97839242Y-15029565D01*
X97884918Y-14878991D01*
X97900341Y-14722400D01*
X97900341Y-13522400D01*
X97884918Y-13365809D01*
X97839242Y-13215235D01*
X97765068Y-13076465D01*
X97665247Y-12954833D01*
X97543615Y-12855012D01*
X97404845Y-12780838D01*
X97254271Y-12735162D01*
X97097680Y-12719739D01*
X95647680Y-12719739D01*
X95491089Y-12735162D01*
X95340515Y-12780838D01*
X95201745Y-12855012D01*
X95080113Y-12954833D01*
X94980292Y-13076465D01*
X94906118Y-13215235D01*
X94860442Y-13365809D01*
X94845019Y-13522400D01*
X94845019Y-14722400D01*
X94860442Y-14878991D01*
X94906118Y-15029565D01*
X94980292Y-15168335D01*
X95080113Y-15289967D01*
X95201745Y-15389788D01*
X95340515Y-15463962D01*
X95422211Y-15488744D01*
X95252941Y-15627661D01*
X95077990Y-15840838D01*
X94947990Y-16084051D01*
X94867937Y-16347952D01*
X94840906Y-16622400D01*
X89751054Y-16622400D01*
X89724023Y-16347952D01*
X89643970Y-16084051D01*
X89513970Y-15840838D01*
X89339019Y-15627661D01*
X89169749Y-15488744D01*
X89251445Y-15463962D01*
X89390215Y-15389788D01*
X89511847Y-15289967D01*
X89611668Y-15168335D01*
X89685842Y-15029565D01*
X89731518Y-14878991D01*
X89746941Y-14722400D01*
X89746941Y-13522400D01*
X89731518Y-13365809D01*
X89685842Y-13215235D01*
X89634778Y-13119700D01*
X92761512Y-13119700D01*
X92837640Y-13127198D01*
X92913768Y-13119700D01*
X92913778Y-13119700D01*
X93141493Y-13097272D01*
X93433669Y-13008641D01*
X93702940Y-12864713D01*
X93938958Y-12671018D01*
X93987497Y-12611873D01*
X95758753Y-10840618D01*
X95758757Y-10840613D01*
X96268652Y-10330718D01*
X96357747Y-10348440D01*
X96860053Y-10348440D01*
X97352707Y-10250445D01*
X97816778Y-10058220D01*
X98234430Y-9779154D01*
X98589614Y-9423970D01*
X98868680Y-9006318D01*
X99060905Y-8542247D01*
X99158900Y-8049593D01*
X99158900Y-7547287D01*
X99060905Y-7054633D01*
X98868680Y-6590562D01*
X98589614Y-6172910D01*
X98234430Y-5817726D01*
X97816778Y-5538660D01*
X97358237Y-5348726D01*
X97630201Y-5266322D01*
X98092037Y-5019656D01*
X98093464Y-5018702D01*
X98306099Y-4642717D01*
X96608900Y-2945518D01*
X94911701Y-4642717D01*
X95124336Y-5018702D01*
X95586013Y-5265665D01*
X95859541Y-5348735D01*
X95401022Y-5538660D01*
X94983370Y-5817726D01*
X94628186Y-6172910D01*
X94349120Y-6590562D01*
X94156895Y-7054633D01*
X94058900Y-7547287D01*
X94058900Y-8049593D01*
X94076622Y-8138688D01*
X93566727Y-8648583D01*
X93566722Y-8648587D01*
X92195610Y-10019700D01*
X73022609Y-10019700D01*
X72968104Y-10014332D01*
X72981750Y-10005214D01*
X73336934Y-9650030D01*
X73616000Y-9232378D01*
X73808225Y-8768307D01*
X73906220Y-8275653D01*
X73906220Y-7773347D01*
X73808225Y-7280693D01*
X73616000Y-6816622D01*
X73336934Y-6398970D01*
X72981750Y-6043786D01*
X72564098Y-5764720D01*
X72105557Y-5574786D01*
X72377521Y-5492382D01*
X72839357Y-5245716D01*
X72840784Y-5244762D01*
X73053419Y-4868777D01*
X71356220Y-3171578D01*
X69659021Y-4868777D01*
X69871656Y-5244762D01*
X70333333Y-5491725D01*
X70606861Y-5574795D01*
X70148342Y-5764720D01*
X69730690Y-6043786D01*
X69375506Y-6398970D01*
X69096440Y-6816622D01*
X69031045Y-6974500D01*
X68962717Y-6974500D01*
X68376450Y-6388234D01*
X68343567Y-6348166D01*
X68183684Y-6216953D01*
X68001275Y-6119453D01*
X67803349Y-6059413D01*
X67649091Y-6044220D01*
X67649081Y-6044220D01*
X67597513Y-6039141D01*
X67545945Y-6044220D01*
X65288653Y-6044220D01*
X65766541Y-5899422D01*
X66228377Y-5652756D01*
X66229804Y-5651802D01*
X66442439Y-5275817D01*
X64745240Y-3578618D01*
X63048041Y-5275817D01*
X63260676Y-5651802D01*
X63722353Y-5898765D01*
X64201301Y-6044220D01*
X57598264Y-6044220D01*
X55414189Y-3860146D01*
X55479585Y-3702267D01*
X55577580Y-3209613D01*
X55577580Y-3180387D01*
X57195240Y-3180387D01*
X57195240Y-3682693D01*
X57293235Y-4175347D01*
X57485460Y-4639418D01*
X57764526Y-5057070D01*
X58119710Y-5412254D01*
X58537362Y-5691320D01*
X59001433Y-5883545D01*
X59494087Y-5981540D01*
X59996393Y-5981540D01*
X60489047Y-5883545D01*
X60953118Y-5691320D01*
X61370770Y-5412254D01*
X61725954Y-5057070D01*
X62005020Y-4639418D01*
X62194954Y-4180877D01*
X62277358Y-4452841D01*
X62524024Y-4914677D01*
X62524978Y-4916104D01*
X62900963Y-5128739D01*
X64598162Y-3431540D01*
X64892318Y-3431540D01*
X66589517Y-5128739D01*
X66965502Y-4916104D01*
X67212465Y-4454427D01*
X67364613Y-3953441D01*
X67416100Y-3432398D01*
X67375975Y-3023642D01*
X68685360Y-3023642D01*
X68736512Y-3544718D01*
X68888338Y-4045801D01*
X69135004Y-4507637D01*
X69135958Y-4509064D01*
X69511943Y-4721699D01*
X71209142Y-3024500D01*
X71503298Y-3024500D01*
X73200497Y-4721699D01*
X73576482Y-4509064D01*
X73823445Y-4047387D01*
X73975593Y-3546401D01*
X74027080Y-3025358D01*
X74004493Y-2795260D01*
X75940766Y-2795260D01*
X75967797Y-3069708D01*
X76047850Y-3333609D01*
X76177850Y-3576822D01*
X76352801Y-3789999D01*
X76565978Y-3964950D01*
X76716228Y-4045260D01*
X76565978Y-4125570D01*
X76352801Y-4300521D01*
X76177850Y-4513698D01*
X76047850Y-4756911D01*
X75967797Y-5020812D01*
X75940766Y-5295260D01*
X75967797Y-5569708D01*
X76047850Y-5833609D01*
X76177850Y-6076822D01*
X76352801Y-6289999D01*
X76522071Y-6428916D01*
X76440375Y-6453698D01*
X76301605Y-6527872D01*
X76179973Y-6627693D01*
X76080152Y-6749325D01*
X76005978Y-6888095D01*
X75960302Y-7038669D01*
X75944879Y-7195260D01*
X75944879Y-8395260D01*
X75960302Y-8551851D01*
X76005978Y-8702425D01*
X76080152Y-8841195D01*
X76179973Y-8962827D01*
X76301605Y-9062648D01*
X76440375Y-9136822D01*
X76590949Y-9182498D01*
X76747540Y-9197921D01*
X78197540Y-9197921D01*
X78354131Y-9182498D01*
X78504705Y-9136822D01*
X78643475Y-9062648D01*
X78765107Y-8962827D01*
X78864928Y-8841195D01*
X78939102Y-8702425D01*
X78984778Y-8551851D01*
X79000201Y-8395260D01*
X79000201Y-7195260D01*
X78984778Y-7038669D01*
X78939102Y-6888095D01*
X78864928Y-6749325D01*
X78765107Y-6627693D01*
X78643475Y-6527872D01*
X78504705Y-6453698D01*
X78423009Y-6428916D01*
X78592279Y-6289999D01*
X78767230Y-6076822D01*
X78897230Y-5833609D01*
X78977283Y-5569708D01*
X79004314Y-5295260D01*
X78977283Y-5020812D01*
X78897230Y-4756911D01*
X78767230Y-4513698D01*
X78592279Y-4300521D01*
X78379102Y-4125570D01*
X78228852Y-4045260D01*
X78379102Y-3964950D01*
X78592279Y-3789999D01*
X78767230Y-3576822D01*
X78897230Y-3333609D01*
X78977283Y-3069708D01*
X79004314Y-2795260D01*
X79000812Y-2759700D01*
X84094166Y-2759700D01*
X84121197Y-3034148D01*
X84201250Y-3298049D01*
X84331250Y-3541262D01*
X84506201Y-3754439D01*
X84719378Y-3929390D01*
X84869628Y-4009700D01*
X84719378Y-4090010D01*
X84506201Y-4264961D01*
X84331250Y-4478138D01*
X84201250Y-4721351D01*
X84121197Y-4985252D01*
X84094166Y-5259700D01*
X84121197Y-5534148D01*
X84201250Y-5798049D01*
X84331250Y-6041262D01*
X84506201Y-6254439D01*
X84675471Y-6393356D01*
X84593775Y-6418138D01*
X84455005Y-6492312D01*
X84333373Y-6592133D01*
X84233552Y-6713765D01*
X84159378Y-6852535D01*
X84113702Y-7003109D01*
X84098279Y-7159700D01*
X84098279Y-8359700D01*
X84113702Y-8516291D01*
X84159378Y-8666865D01*
X84233552Y-8805635D01*
X84333373Y-8927267D01*
X84455005Y-9027088D01*
X84593775Y-9101262D01*
X84744349Y-9146938D01*
X84900940Y-9162361D01*
X86350940Y-9162361D01*
X86507531Y-9146938D01*
X86658105Y-9101262D01*
X86796875Y-9027088D01*
X86918507Y-8927267D01*
X87018328Y-8805635D01*
X87092502Y-8666865D01*
X87138178Y-8516291D01*
X87153601Y-8359700D01*
X87153601Y-7159700D01*
X87138178Y-7003109D01*
X87092502Y-6852535D01*
X87018328Y-6713765D01*
X86918507Y-6592133D01*
X86796875Y-6492312D01*
X86658105Y-6418138D01*
X86576409Y-6393356D01*
X86745679Y-6254439D01*
X86920630Y-6041262D01*
X87050630Y-5798049D01*
X87130683Y-5534148D01*
X87157714Y-5259700D01*
X87130683Y-4985252D01*
X87050630Y-4721351D01*
X86920630Y-4478138D01*
X86745679Y-4264961D01*
X86532502Y-4090010D01*
X86382252Y-4009700D01*
X86532502Y-3929390D01*
X86745679Y-3754439D01*
X86920630Y-3541262D01*
X87050630Y-3298049D01*
X87130683Y-3034148D01*
X87157714Y-2759700D01*
X87130683Y-2485252D01*
X87050630Y-2221351D01*
X86920630Y-1978138D01*
X86745679Y-1764961D01*
X86532502Y-1590010D01*
X86289289Y-1460010D01*
X86025388Y-1379957D01*
X85819717Y-1359700D01*
X85432163Y-1359700D01*
X85226492Y-1379957D01*
X84962591Y-1460010D01*
X84719378Y-1590010D01*
X84506201Y-1764961D01*
X84331250Y-1978138D01*
X84201250Y-2221351D01*
X84121197Y-2485252D01*
X84094166Y-2759700D01*
X79000812Y-2759700D01*
X78977283Y-2520812D01*
X78897230Y-2256911D01*
X78767230Y-2013698D01*
X78592279Y-1800521D01*
X78379102Y-1625570D01*
X78135889Y-1495570D01*
X77871988Y-1415517D01*
X77666317Y-1395260D01*
X77278763Y-1395260D01*
X77073092Y-1415517D01*
X76809191Y-1495570D01*
X76565978Y-1625570D01*
X76352801Y-1800521D01*
X76177850Y-2013698D01*
X76047850Y-2256911D01*
X75967797Y-2520812D01*
X75940766Y-2795260D01*
X74004493Y-2795260D01*
X73975928Y-2504282D01*
X73824102Y-2003199D01*
X73577436Y-1541363D01*
X73576482Y-1539936D01*
X73200497Y-1327301D01*
X71503298Y-3024500D01*
X71209142Y-3024500D01*
X69511943Y-1327301D01*
X69135958Y-1539936D01*
X68888995Y-2001613D01*
X68736847Y-2502599D01*
X68685360Y-3023642D01*
X67375975Y-3023642D01*
X67364948Y-2911322D01*
X67213122Y-2410239D01*
X66966456Y-1948403D01*
X66965502Y-1946976D01*
X66589517Y-1734341D01*
X64892318Y-3431540D01*
X64598162Y-3431540D01*
X62900963Y-1734341D01*
X62524978Y-1946976D01*
X62278015Y-2408653D01*
X62194945Y-2682181D01*
X62005020Y-2223662D01*
X61725954Y-1806010D01*
X61507207Y-1587263D01*
X63048041Y-1587263D01*
X64745240Y-3284462D01*
X66442439Y-1587263D01*
X66229804Y-1211278D01*
X65768127Y-964315D01*
X65267141Y-812167D01*
X64746098Y-760680D01*
X64225022Y-811832D01*
X63723939Y-963658D01*
X63262103Y-1210324D01*
X63260676Y-1211278D01*
X63048041Y-1587263D01*
X61507207Y-1587263D01*
X61370770Y-1450826D01*
X60953118Y-1171760D01*
X60489047Y-979535D01*
X59996393Y-881540D01*
X59494087Y-881540D01*
X59001433Y-979535D01*
X58537362Y-1171760D01*
X58119710Y-1450826D01*
X57764526Y-1806010D01*
X57485460Y-2223662D01*
X57293235Y-2687733D01*
X57195240Y-3180387D01*
X55577580Y-3180387D01*
X55577580Y-2707307D01*
X55479585Y-2214653D01*
X55287360Y-1750582D01*
X55008294Y-1332930D01*
X54653110Y-977746D01*
X54235458Y-698680D01*
X53936869Y-575000D01*
X70300502Y-575000D01*
X69873083Y-803284D01*
X69871656Y-804238D01*
X69659021Y-1180223D01*
X71356220Y-2877422D01*
X73053419Y-1180223D01*
X72840784Y-804238D01*
X72412242Y-575000D01*
X90751844Y-575000D01*
X90732538Y-585319D01*
X90648790Y-654050D01*
X90580059Y-737798D01*
X90528988Y-833346D01*
X90497538Y-937021D01*
X90486919Y-1044840D01*
X90486919Y-2744840D01*
X90497538Y-2852659D01*
X90528988Y-2956334D01*
X90580059Y-3051882D01*
X90648790Y-3135630D01*
X90732538Y-3204361D01*
X90828086Y-3255432D01*
X90931761Y-3286882D01*
X91039580Y-3297501D01*
X92739580Y-3297501D01*
X92847399Y-3286882D01*
X92951074Y-3255432D01*
X93046622Y-3204361D01*
X93130370Y-3135630D01*
X93199101Y-3051882D01*
X93250172Y-2956334D01*
X93281622Y-2852659D01*
X93287046Y-2797582D01*
X93938040Y-2797582D01*
X93989192Y-3318658D01*
X94141018Y-3819741D01*
X94387684Y-4281577D01*
X94388638Y-4283004D01*
X94764623Y-4495639D01*
X96461822Y-2798440D01*
X96755978Y-2798440D01*
X98453177Y-4495639D01*
X98829162Y-4283004D01*
X99076125Y-3821327D01*
X99228273Y-3320341D01*
X99279760Y-2799298D01*
X99228608Y-2278222D01*
X99076782Y-1777139D01*
X98830116Y-1315303D01*
X98829162Y-1313876D01*
X98453177Y-1101241D01*
X96755978Y-2798440D01*
X96461822Y-2798440D01*
X94764623Y-1101241D01*
X94388638Y-1313876D01*
X94141675Y-1775553D01*
X93989527Y-2276539D01*
X93938040Y-2797582D01*
X93287046Y-2797582D01*
X93292241Y-2744840D01*
X93292241Y-1044840D01*
X93281622Y-937021D01*
X93250172Y-833346D01*
X93199101Y-737798D01*
X93130370Y-654050D01*
X93046622Y-585319D01*
X93027316Y-575000D01*
X95129927Y-575000D01*
X95125763Y-577224D01*
X95124336Y-578178D01*
X94911701Y-954163D01*
X96608900Y-2651362D01*
X98306099Y-954163D01*
X98093464Y-578178D01*
X98087523Y-575000D01*
X99425000Y-575000D01*
X99425001Y-21425000D01*
X575000Y-21425000D01*
X575000Y-18529300D01*
X4162888Y-18529300D01*
X4188953Y-18793946D01*
X4266148Y-19048422D01*
X4391505Y-19282949D01*
X4560207Y-19488513D01*
X4765771Y-19657215D01*
X5000298Y-19782572D01*
X5254774Y-19859767D01*
X5453099Y-19879300D01*
X5585741Y-19879300D01*
X5784066Y-19859767D01*
X6038542Y-19782572D01*
X6273069Y-19657215D01*
X6478633Y-19488513D01*
X6647335Y-19282949D01*
X6772692Y-19048422D01*
X6789420Y-18993278D01*
X6806148Y-19048422D01*
X6931505Y-19282949D01*
X7100207Y-19488513D01*
X7305771Y-19657215D01*
X7540298Y-19782572D01*
X7794774Y-19859767D01*
X7993099Y-19879300D01*
X8125741Y-19879300D01*
X8324066Y-19859767D01*
X8578542Y-19782572D01*
X8813069Y-19657215D01*
X9018633Y-19488513D01*
X9187335Y-19282949D01*
X9312692Y-19048422D01*
X9329420Y-18993278D01*
X9346148Y-19048422D01*
X9471505Y-19282949D01*
X9640207Y-19488513D01*
X9845771Y-19657215D01*
X10080298Y-19782572D01*
X10334774Y-19859767D01*
X10533099Y-19879300D01*
X10665741Y-19879300D01*
X10864066Y-19859767D01*
X11118542Y-19782572D01*
X11353069Y-19657215D01*
X11558633Y-19488513D01*
X11727335Y-19282949D01*
X11852692Y-19048422D01*
X11869420Y-18993278D01*
X11886148Y-19048422D01*
X12011505Y-19282949D01*
X12180207Y-19488513D01*
X12385771Y-19657215D01*
X12620298Y-19782572D01*
X12874774Y-19859767D01*
X13073099Y-19879300D01*
X13205741Y-19879300D01*
X13404066Y-19859767D01*
X13658542Y-19782572D01*
X13893069Y-19657215D01*
X14098633Y-19488513D01*
X14267335Y-19282949D01*
X14392692Y-19048422D01*
X14409420Y-18993278D01*
X14426148Y-19048422D01*
X14551505Y-19282949D01*
X14720207Y-19488513D01*
X14925771Y-19657215D01*
X15160298Y-19782572D01*
X15414774Y-19859767D01*
X15613099Y-19879300D01*
X15745741Y-19879300D01*
X15944066Y-19859767D01*
X16198542Y-19782572D01*
X16433069Y-19657215D01*
X16638633Y-19488513D01*
X16807335Y-19282949D01*
X16932692Y-19048422D01*
X16949420Y-18993278D01*
X16966148Y-19048422D01*
X17091505Y-19282949D01*
X17260207Y-19488513D01*
X17465771Y-19657215D01*
X17700298Y-19782572D01*
X17954774Y-19859767D01*
X18153099Y-19879300D01*
X18285741Y-19879300D01*
X18484066Y-19859767D01*
X18738542Y-19782572D01*
X18973069Y-19657215D01*
X19178633Y-19488513D01*
X19347335Y-19282949D01*
X19472692Y-19048422D01*
X19489420Y-18993278D01*
X19506148Y-19048422D01*
X19631505Y-19282949D01*
X19800207Y-19488513D01*
X20005771Y-19657215D01*
X20240298Y-19782572D01*
X20494774Y-19859767D01*
X20693099Y-19879300D01*
X20825741Y-19879300D01*
X21024066Y-19859767D01*
X21278542Y-19782572D01*
X21513069Y-19657215D01*
X21718633Y-19488513D01*
X21887335Y-19282949D01*
X22012692Y-19048422D01*
X22029420Y-18993278D01*
X22046148Y-19048422D01*
X22171505Y-19282949D01*
X22340207Y-19488513D01*
X22545771Y-19657215D01*
X22780298Y-19782572D01*
X23034774Y-19859767D01*
X23233099Y-19879300D01*
X23365741Y-19879300D01*
X23564066Y-19859767D01*
X23818542Y-19782572D01*
X24053069Y-19657215D01*
X24258633Y-19488513D01*
X24427335Y-19282949D01*
X24552692Y-19048422D01*
X24569420Y-18993278D01*
X24586148Y-19048422D01*
X24711505Y-19282949D01*
X24880207Y-19488513D01*
X25085771Y-19657215D01*
X25320298Y-19782572D01*
X25574774Y-19859767D01*
X25773099Y-19879300D01*
X25905741Y-19879300D01*
X26104066Y-19859767D01*
X26358542Y-19782572D01*
X26593069Y-19657215D01*
X26798633Y-19488513D01*
X26967335Y-19282949D01*
X27092692Y-19048422D01*
X27109420Y-18993278D01*
X27126148Y-19048422D01*
X27251505Y-19282949D01*
X27420207Y-19488513D01*
X27625771Y-19657215D01*
X27860298Y-19782572D01*
X28114774Y-19859767D01*
X28313099Y-19879300D01*
X28445741Y-19879300D01*
X28644066Y-19859767D01*
X28898542Y-19782572D01*
X29133069Y-19657215D01*
X29338633Y-19488513D01*
X29507335Y-19282949D01*
X29632692Y-19048422D01*
X29649420Y-18993278D01*
X29666148Y-19048422D01*
X29791505Y-19282949D01*
X29960207Y-19488513D01*
X30165771Y-19657215D01*
X30400298Y-19782572D01*
X30654774Y-19859767D01*
X30853099Y-19879300D01*
X30985741Y-19879300D01*
X31184066Y-19859767D01*
X31438542Y-19782572D01*
X31673069Y-19657215D01*
X31878633Y-19488513D01*
X32047335Y-19282949D01*
X32172692Y-19048422D01*
X32189420Y-18993278D01*
X32206148Y-19048422D01*
X32331505Y-19282949D01*
X32500207Y-19488513D01*
X32705771Y-19657215D01*
X32940298Y-19782572D01*
X33194774Y-19859767D01*
X33393099Y-19879300D01*
X33525741Y-19879300D01*
X33724066Y-19859767D01*
X33978542Y-19782572D01*
X34213069Y-19657215D01*
X34418633Y-19488513D01*
X34587335Y-19282949D01*
X34712692Y-19048422D01*
X34729420Y-18993278D01*
X34746148Y-19048422D01*
X34871505Y-19282949D01*
X35040207Y-19488513D01*
X35245771Y-19657215D01*
X35480298Y-19782572D01*
X35734774Y-19859767D01*
X35933099Y-19879300D01*
X36065741Y-19879300D01*
X36264066Y-19859767D01*
X36518542Y-19782572D01*
X36753069Y-19657215D01*
X36958633Y-19488513D01*
X37127335Y-19282949D01*
X37210220Y-19127882D01*
X37211014Y-19130227D01*
X37353774Y-19377840D01*
X37542098Y-19592844D01*
X37768748Y-19766976D01*
X38025015Y-19893545D01*
X38209200Y-19949412D01*
X38435420Y-19818612D01*
X38435420Y-18633300D01*
X38415420Y-18633300D01*
X38415420Y-18425300D01*
X38435420Y-18425300D01*
X38435420Y-17239988D01*
X38209200Y-17109188D01*
X38025015Y-17165055D01*
X37768748Y-17291624D01*
X37542098Y-17465756D01*
X37353774Y-17680760D01*
X37211014Y-17928373D01*
X37210220Y-17930718D01*
X37127335Y-17775651D01*
X36958633Y-17570087D01*
X36753069Y-17401385D01*
X36518542Y-17276028D01*
X36264066Y-17198833D01*
X36065741Y-17179300D01*
X35933099Y-17179300D01*
X35734774Y-17198833D01*
X35480298Y-17276028D01*
X35245771Y-17401385D01*
X35040207Y-17570087D01*
X34871505Y-17775651D01*
X34746148Y-18010178D01*
X34729420Y-18065322D01*
X34712692Y-18010178D01*
X34587335Y-17775651D01*
X34418633Y-17570087D01*
X34213069Y-17401385D01*
X33978542Y-17276028D01*
X33724066Y-17198833D01*
X33525741Y-17179300D01*
X33393099Y-17179300D01*
X33194774Y-17198833D01*
X32940298Y-17276028D01*
X32705771Y-17401385D01*
X32500207Y-17570087D01*
X32331505Y-17775651D01*
X32206148Y-18010178D01*
X32189420Y-18065322D01*
X32172692Y-18010178D01*
X32047335Y-17775651D01*
X31878633Y-17570087D01*
X31673069Y-17401385D01*
X31438542Y-17276028D01*
X31184066Y-17198833D01*
X30985741Y-17179300D01*
X30853099Y-17179300D01*
X30654774Y-17198833D01*
X30400298Y-17276028D01*
X30165771Y-17401385D01*
X29960207Y-17570087D01*
X29791505Y-17775651D01*
X29666148Y-18010178D01*
X29649420Y-18065322D01*
X29632692Y-18010178D01*
X29507335Y-17775651D01*
X29338633Y-17570087D01*
X29133069Y-17401385D01*
X28898542Y-17276028D01*
X28644066Y-17198833D01*
X28445741Y-17179300D01*
X28313099Y-17179300D01*
X28114774Y-17198833D01*
X27860298Y-17276028D01*
X27625771Y-17401385D01*
X27420207Y-17570087D01*
X27251505Y-17775651D01*
X27126148Y-18010178D01*
X27109420Y-18065322D01*
X27092692Y-18010178D01*
X26967335Y-17775651D01*
X26798633Y-17570087D01*
X26593069Y-17401385D01*
X26358542Y-17276028D01*
X26104066Y-17198833D01*
X25905741Y-17179300D01*
X25773099Y-17179300D01*
X25574774Y-17198833D01*
X25320298Y-17276028D01*
X25085771Y-17401385D01*
X24880207Y-17570087D01*
X24711505Y-17775651D01*
X24586148Y-18010178D01*
X24569420Y-18065322D01*
X24552692Y-18010178D01*
X24427335Y-17775651D01*
X24258633Y-17570087D01*
X24053069Y-17401385D01*
X23818542Y-17276028D01*
X23564066Y-17198833D01*
X23365741Y-17179300D01*
X23233099Y-17179300D01*
X23034774Y-17198833D01*
X22780298Y-17276028D01*
X22545771Y-17401385D01*
X22340207Y-17570087D01*
X22171505Y-17775651D01*
X22046148Y-18010178D01*
X22029420Y-18065322D01*
X22012692Y-18010178D01*
X21887335Y-17775651D01*
X21718633Y-17570087D01*
X21513069Y-17401385D01*
X21278542Y-17276028D01*
X21024066Y-17198833D01*
X20825741Y-17179300D01*
X20693099Y-17179300D01*
X20494774Y-17198833D01*
X20240298Y-17276028D01*
X20005771Y-17401385D01*
X19800207Y-17570087D01*
X19631505Y-17775651D01*
X19506148Y-18010178D01*
X19489420Y-18065322D01*
X19472692Y-18010178D01*
X19347335Y-17775651D01*
X19178633Y-17570087D01*
X18973069Y-17401385D01*
X18738542Y-17276028D01*
X18484066Y-17198833D01*
X18285741Y-17179300D01*
X18153099Y-17179300D01*
X17954774Y-17198833D01*
X17700298Y-17276028D01*
X17465771Y-17401385D01*
X17260207Y-17570087D01*
X17091505Y-17775651D01*
X16966148Y-18010178D01*
X16949420Y-18065322D01*
X16932692Y-18010178D01*
X16807335Y-17775651D01*
X16638633Y-17570087D01*
X16433069Y-17401385D01*
X16198542Y-17276028D01*
X15944066Y-17198833D01*
X15745741Y-17179300D01*
X15613099Y-17179300D01*
X15414774Y-17198833D01*
X15160298Y-17276028D01*
X14925771Y-17401385D01*
X14720207Y-17570087D01*
X14551505Y-17775651D01*
X14426148Y-18010178D01*
X14409420Y-18065322D01*
X14392692Y-18010178D01*
X14267335Y-17775651D01*
X14098633Y-17570087D01*
X13893069Y-17401385D01*
X13658542Y-17276028D01*
X13404066Y-17198833D01*
X13205741Y-17179300D01*
X13073099Y-17179300D01*
X12874774Y-17198833D01*
X12620298Y-17276028D01*
X12385771Y-17401385D01*
X12180207Y-17570087D01*
X12011505Y-17775651D01*
X11886148Y-18010178D01*
X11869420Y-18065322D01*
X11852692Y-18010178D01*
X11727335Y-17775651D01*
X11558633Y-17570087D01*
X11353069Y-17401385D01*
X11118542Y-17276028D01*
X10864066Y-17198833D01*
X10665741Y-17179300D01*
X10533099Y-17179300D01*
X10334774Y-17198833D01*
X10080298Y-17276028D01*
X9845771Y-17401385D01*
X9640207Y-17570087D01*
X9471505Y-17775651D01*
X9346148Y-18010178D01*
X9329420Y-18065322D01*
X9312692Y-18010178D01*
X9187335Y-17775651D01*
X9018633Y-17570087D01*
X8813069Y-17401385D01*
X8578542Y-17276028D01*
X8324066Y-17198833D01*
X8125741Y-17179300D01*
X7993099Y-17179300D01*
X7794774Y-17198833D01*
X7540298Y-17276028D01*
X7305771Y-17401385D01*
X7100207Y-17570087D01*
X6931505Y-17775651D01*
X6806148Y-18010178D01*
X6789420Y-18065322D01*
X6772692Y-18010178D01*
X6647335Y-17775651D01*
X6478633Y-17570087D01*
X6273069Y-17401385D01*
X6038542Y-17276028D01*
X5784066Y-17198833D01*
X5585741Y-17179300D01*
X5453099Y-17179300D01*
X5254774Y-17198833D01*
X5000298Y-17276028D01*
X4765771Y-17401385D01*
X4560207Y-17570087D01*
X4391505Y-17775651D01*
X4266148Y-18010178D01*
X4188953Y-18264654D01*
X4162888Y-18529300D01*
X575000Y-18529300D01*
X575000Y-3289300D01*
X4162888Y-3289300D01*
X4188953Y-3553946D01*
X4266148Y-3808422D01*
X4391505Y-4042949D01*
X4560207Y-4248513D01*
X4765771Y-4417215D01*
X5000298Y-4542572D01*
X5254774Y-4619767D01*
X5453099Y-4639300D01*
X5585741Y-4639300D01*
X5784066Y-4619767D01*
X6038542Y-4542572D01*
X6273069Y-4417215D01*
X6478633Y-4248513D01*
X6647335Y-4042949D01*
X6772692Y-3808422D01*
X6789420Y-3753278D01*
X6806148Y-3808422D01*
X6931505Y-4042949D01*
X7100207Y-4248513D01*
X7305771Y-4417215D01*
X7540298Y-4542572D01*
X7794774Y-4619767D01*
X7993099Y-4639300D01*
X8125741Y-4639300D01*
X8324066Y-4619767D01*
X8578542Y-4542572D01*
X8813069Y-4417215D01*
X9018633Y-4248513D01*
X9187335Y-4042949D01*
X9312692Y-3808422D01*
X9329420Y-3753278D01*
X9346148Y-3808422D01*
X9471505Y-4042949D01*
X9640207Y-4248513D01*
X9845771Y-4417215D01*
X10080298Y-4542572D01*
X10334774Y-4619767D01*
X10533099Y-4639300D01*
X10665741Y-4639300D01*
X10864066Y-4619767D01*
X11118542Y-4542572D01*
X11353069Y-4417215D01*
X11558633Y-4248513D01*
X11727335Y-4042949D01*
X11852692Y-3808422D01*
X11869420Y-3753278D01*
X11886148Y-3808422D01*
X12011505Y-4042949D01*
X12180207Y-4248513D01*
X12385771Y-4417215D01*
X12620298Y-4542572D01*
X12874774Y-4619767D01*
X13073099Y-4639300D01*
X13205741Y-4639300D01*
X13404066Y-4619767D01*
X13658542Y-4542572D01*
X13893069Y-4417215D01*
X14098633Y-4248513D01*
X14267335Y-4042949D01*
X14392692Y-3808422D01*
X14409420Y-3753278D01*
X14426148Y-3808422D01*
X14551505Y-4042949D01*
X14720207Y-4248513D01*
X14925771Y-4417215D01*
X15160298Y-4542572D01*
X15414774Y-4619767D01*
X15613099Y-4639300D01*
X15745741Y-4639300D01*
X15944066Y-4619767D01*
X16198542Y-4542572D01*
X16433069Y-4417215D01*
X16638633Y-4248513D01*
X16807335Y-4042949D01*
X16932692Y-3808422D01*
X16949420Y-3753278D01*
X16966148Y-3808422D01*
X17091505Y-4042949D01*
X17260207Y-4248513D01*
X17465771Y-4417215D01*
X17700298Y-4542572D01*
X17954774Y-4619767D01*
X18153099Y-4639300D01*
X18285741Y-4639300D01*
X18484066Y-4619767D01*
X18738542Y-4542572D01*
X18973069Y-4417215D01*
X19178633Y-4248513D01*
X19347335Y-4042949D01*
X19472692Y-3808422D01*
X19489420Y-3753278D01*
X19506148Y-3808422D01*
X19631505Y-4042949D01*
X19800207Y-4248513D01*
X20005771Y-4417215D01*
X20240298Y-4542572D01*
X20494774Y-4619767D01*
X20693099Y-4639300D01*
X20825741Y-4639300D01*
X21024066Y-4619767D01*
X21278542Y-4542572D01*
X21513069Y-4417215D01*
X21718633Y-4248513D01*
X21887335Y-4042949D01*
X22012692Y-3808422D01*
X22029420Y-3753278D01*
X22046148Y-3808422D01*
X22171505Y-4042949D01*
X22340207Y-4248513D01*
X22545771Y-4417215D01*
X22780298Y-4542572D01*
X23034774Y-4619767D01*
X23233099Y-4639300D01*
X23365741Y-4639300D01*
X23564066Y-4619767D01*
X23818542Y-4542572D01*
X24053069Y-4417215D01*
X24258633Y-4248513D01*
X24427335Y-4042949D01*
X24552692Y-3808422D01*
X24569420Y-3753278D01*
X24586148Y-3808422D01*
X24711505Y-4042949D01*
X24880207Y-4248513D01*
X25085771Y-4417215D01*
X25320298Y-4542572D01*
X25574774Y-4619767D01*
X25773099Y-4639300D01*
X25905741Y-4639300D01*
X26104066Y-4619767D01*
X26358542Y-4542572D01*
X26593069Y-4417215D01*
X26798633Y-4248513D01*
X26967335Y-4042949D01*
X27092692Y-3808422D01*
X27109420Y-3753278D01*
X27126148Y-3808422D01*
X27251505Y-4042949D01*
X27420207Y-4248513D01*
X27625771Y-4417215D01*
X27860298Y-4542572D01*
X28114774Y-4619767D01*
X28313099Y-4639300D01*
X28445741Y-4639300D01*
X28644066Y-4619767D01*
X28898542Y-4542572D01*
X29133069Y-4417215D01*
X29338633Y-4248513D01*
X29507335Y-4042949D01*
X29632692Y-3808422D01*
X29649420Y-3753278D01*
X29666148Y-3808422D01*
X29791505Y-4042949D01*
X29960207Y-4248513D01*
X30165771Y-4417215D01*
X30400298Y-4542572D01*
X30654774Y-4619767D01*
X30853099Y-4639300D01*
X30985741Y-4639300D01*
X31184066Y-4619767D01*
X31438542Y-4542572D01*
X31673069Y-4417215D01*
X31878633Y-4248513D01*
X32047335Y-4042949D01*
X32130220Y-3887882D01*
X32131014Y-3890227D01*
X32273774Y-4137840D01*
X32462098Y-4352844D01*
X32688748Y-4526976D01*
X32945015Y-4653545D01*
X33129200Y-4709412D01*
X33355420Y-4578612D01*
X33355420Y-3393300D01*
X33335420Y-3393300D01*
X33335420Y-3185300D01*
X33355420Y-3185300D01*
X33355420Y-1999988D01*
X33563420Y-1999988D01*
X33563420Y-3185300D01*
X33583420Y-3185300D01*
X33583420Y-3393300D01*
X33563420Y-3393300D01*
X33563420Y-4578612D01*
X33789640Y-4709412D01*
X33973825Y-4653545D01*
X34230092Y-4526976D01*
X34456742Y-4352844D01*
X34645066Y-4137840D01*
X34787826Y-3890227D01*
X34788620Y-3887882D01*
X34871505Y-4042949D01*
X35040207Y-4248513D01*
X35245771Y-4417215D01*
X35480298Y-4542572D01*
X35734774Y-4619767D01*
X35933099Y-4639300D01*
X36065741Y-4639300D01*
X36264066Y-4619767D01*
X36518542Y-4542572D01*
X36753069Y-4417215D01*
X36958633Y-4248513D01*
X37127335Y-4042949D01*
X37252692Y-3808422D01*
X37269420Y-3753278D01*
X37286148Y-3808422D01*
X37411505Y-4042949D01*
X37580207Y-4248513D01*
X37785771Y-4417215D01*
X38020298Y-4542572D01*
X38274774Y-4619767D01*
X38473099Y-4639300D01*
X38605741Y-4639300D01*
X38804066Y-4619767D01*
X39058542Y-4542572D01*
X39293069Y-4417215D01*
X39498633Y-4248513D01*
X39667335Y-4042949D01*
X39726759Y-3931774D01*
X39726759Y-4089300D01*
X39737378Y-4197119D01*
X39768828Y-4300794D01*
X39819899Y-4396342D01*
X39888630Y-4480090D01*
X39972378Y-4548821D01*
X40067926Y-4599892D01*
X40171601Y-4631342D01*
X40279420Y-4641961D01*
X41879420Y-4641961D01*
X41987239Y-4631342D01*
X42090914Y-4599892D01*
X42186462Y-4548821D01*
X42270210Y-4480090D01*
X42338941Y-4396342D01*
X42390012Y-4300794D01*
X42421462Y-4197119D01*
X42432081Y-4089300D01*
X42432081Y-2489300D01*
X42421462Y-2381481D01*
X42390012Y-2277806D01*
X42338941Y-2182258D01*
X42270210Y-2098510D01*
X42186462Y-2029779D01*
X42090914Y-1978708D01*
X41987239Y-1947258D01*
X41879420Y-1936639D01*
X40279420Y-1936639D01*
X40171601Y-1947258D01*
X40067926Y-1978708D01*
X39972378Y-2029779D01*
X39888630Y-2098510D01*
X39819899Y-2182258D01*
X39768828Y-2277806D01*
X39737378Y-2381481D01*
X39726759Y-2489300D01*
X39726759Y-2646826D01*
X39667335Y-2535651D01*
X39498633Y-2330087D01*
X39293069Y-2161385D01*
X39058542Y-2036028D01*
X38804066Y-1958833D01*
X38605741Y-1939300D01*
X38473099Y-1939300D01*
X38274774Y-1958833D01*
X38020298Y-2036028D01*
X37785771Y-2161385D01*
X37580207Y-2330087D01*
X37411505Y-2535651D01*
X37286148Y-2770178D01*
X37269420Y-2825322D01*
X37252692Y-2770178D01*
X37127335Y-2535651D01*
X36958633Y-2330087D01*
X36753069Y-2161385D01*
X36518542Y-2036028D01*
X36264066Y-1958833D01*
X36065741Y-1939300D01*
X35933099Y-1939300D01*
X35734774Y-1958833D01*
X35480298Y-2036028D01*
X35245771Y-2161385D01*
X35040207Y-2330087D01*
X34871505Y-2535651D01*
X34788620Y-2690718D01*
X34787826Y-2688373D01*
X34645066Y-2440760D01*
X34456742Y-2225756D01*
X34230092Y-2051624D01*
X33973825Y-1925055D01*
X33789640Y-1869188D01*
X33563420Y-1999988D01*
X33355420Y-1999988D01*
X33129200Y-1869188D01*
X32945015Y-1925055D01*
X32688748Y-2051624D01*
X32462098Y-2225756D01*
X32273774Y-2440760D01*
X32131014Y-2688373D01*
X32130220Y-2690718D01*
X32047335Y-2535651D01*
X31878633Y-2330087D01*
X31673069Y-2161385D01*
X31438542Y-2036028D01*
X31184066Y-1958833D01*
X30985741Y-1939300D01*
X30853099Y-1939300D01*
X30654774Y-1958833D01*
X30400298Y-2036028D01*
X30165771Y-2161385D01*
X29960207Y-2330087D01*
X29791505Y-2535651D01*
X29666148Y-2770178D01*
X29649420Y-2825322D01*
X29632692Y-2770178D01*
X29507335Y-2535651D01*
X29338633Y-2330087D01*
X29133069Y-2161385D01*
X28898542Y-2036028D01*
X28644066Y-1958833D01*
X28445741Y-1939300D01*
X28313099Y-1939300D01*
X28114774Y-1958833D01*
X27860298Y-2036028D01*
X27625771Y-2161385D01*
X27420207Y-2330087D01*
X27251505Y-2535651D01*
X27126148Y-2770178D01*
X27109420Y-2825322D01*
X27092692Y-2770178D01*
X26967335Y-2535651D01*
X26798633Y-2330087D01*
X26593069Y-2161385D01*
X26358542Y-2036028D01*
X26104066Y-1958833D01*
X25905741Y-1939300D01*
X25773099Y-1939300D01*
X25574774Y-1958833D01*
X25320298Y-2036028D01*
X25085771Y-2161385D01*
X24880207Y-2330087D01*
X24711505Y-2535651D01*
X24586148Y-2770178D01*
X24569420Y-2825322D01*
X24552692Y-2770178D01*
X24427335Y-2535651D01*
X24258633Y-2330087D01*
X24053069Y-2161385D01*
X23818542Y-2036028D01*
X23564066Y-1958833D01*
X23365741Y-1939300D01*
X23233099Y-1939300D01*
X23034774Y-1958833D01*
X22780298Y-2036028D01*
X22545771Y-2161385D01*
X22340207Y-2330087D01*
X22171505Y-2535651D01*
X22046148Y-2770178D01*
X22029420Y-2825322D01*
X22012692Y-2770178D01*
X21887335Y-2535651D01*
X21718633Y-2330087D01*
X21513069Y-2161385D01*
X21278542Y-2036028D01*
X21024066Y-1958833D01*
X20825741Y-1939300D01*
X20693099Y-1939300D01*
X20494774Y-1958833D01*
X20240298Y-2036028D01*
X20005771Y-2161385D01*
X19800207Y-2330087D01*
X19631505Y-2535651D01*
X19506148Y-2770178D01*
X19489420Y-2825322D01*
X19472692Y-2770178D01*
X19347335Y-2535651D01*
X19178633Y-2330087D01*
X18973069Y-2161385D01*
X18738542Y-2036028D01*
X18484066Y-1958833D01*
X18285741Y-1939300D01*
X18153099Y-1939300D01*
X17954774Y-1958833D01*
X17700298Y-2036028D01*
X17465771Y-2161385D01*
X17260207Y-2330087D01*
X17091505Y-2535651D01*
X16966148Y-2770178D01*
X16949420Y-2825322D01*
X16932692Y-2770178D01*
X16807335Y-2535651D01*
X16638633Y-2330087D01*
X16433069Y-2161385D01*
X16198542Y-2036028D01*
X15944066Y-1958833D01*
X15745741Y-1939300D01*
X15613099Y-1939300D01*
X15414774Y-1958833D01*
X15160298Y-2036028D01*
X14925771Y-2161385D01*
X14720207Y-2330087D01*
X14551505Y-2535651D01*
X14426148Y-2770178D01*
X14409420Y-2825322D01*
X14392692Y-2770178D01*
X14267335Y-2535651D01*
X14098633Y-2330087D01*
X13893069Y-2161385D01*
X13658542Y-2036028D01*
X13404066Y-1958833D01*
X13205741Y-1939300D01*
X13073099Y-1939300D01*
X12874774Y-1958833D01*
X12620298Y-2036028D01*
X12385771Y-2161385D01*
X12180207Y-2330087D01*
X12011505Y-2535651D01*
X11886148Y-2770178D01*
X11869420Y-2825322D01*
X11852692Y-2770178D01*
X11727335Y-2535651D01*
X11558633Y-2330087D01*
X11353069Y-2161385D01*
X11118542Y-2036028D01*
X10864066Y-1958833D01*
X10665741Y-1939300D01*
X10533099Y-1939300D01*
X10334774Y-1958833D01*
X10080298Y-2036028D01*
X9845771Y-2161385D01*
X9640207Y-2330087D01*
X9471505Y-2535651D01*
X9346148Y-2770178D01*
X9329420Y-2825322D01*
X9312692Y-2770178D01*
X9187335Y-2535651D01*
X9018633Y-2330087D01*
X8813069Y-2161385D01*
X8578542Y-2036028D01*
X8324066Y-1958833D01*
X8125741Y-1939300D01*
X7993099Y-1939300D01*
X7794774Y-1958833D01*
X7540298Y-2036028D01*
X7305771Y-2161385D01*
X7100207Y-2330087D01*
X6931505Y-2535651D01*
X6806148Y-2770178D01*
X6789420Y-2825322D01*
X6772692Y-2770178D01*
X6647335Y-2535651D01*
X6478633Y-2330087D01*
X6273069Y-2161385D01*
X6038542Y-2036028D01*
X5784066Y-1958833D01*
X5585741Y-1939300D01*
X5453099Y-1939300D01*
X5254774Y-1958833D01*
X5000298Y-2036028D01*
X4765771Y-2161385D01*
X4560207Y-2330087D01*
X4391505Y-2535651D01*
X4266148Y-2770178D01*
X4188953Y-3024654D01*
X4162888Y-3289300D01*
X575000Y-3289300D01*
X575000Y-1766200D01*
X46555776Y-1766200D01*
X46558960Y-2347700D01*
X46723460Y-2512200D01*
X47962960Y-2512200D01*
X47962960Y-1272700D01*
X48170960Y-1272700D01*
X48170960Y-2512200D01*
X49410460Y-2512200D01*
X49574960Y-2347700D01*
X49578144Y-1766200D01*
X49565440Y-1637209D01*
X49527814Y-1513176D01*
X49466714Y-1398866D01*
X49384488Y-1298672D01*
X49284294Y-1216446D01*
X49169984Y-1155346D01*
X49045951Y-1117720D01*
X48916960Y-1105016D01*
X48335460Y-1108200D01*
X48170960Y-1272700D01*
X47962960Y-1272700D01*
X47798460Y-1108200D01*
X47216960Y-1105016D01*
X47087969Y-1117720D01*
X46963936Y-1155346D01*
X46849626Y-1216446D01*
X46749432Y-1298672D01*
X46667206Y-1398866D01*
X46606106Y-1513176D01*
X46568480Y-1637209D01*
X46555776Y-1766200D01*
X575000Y-1766200D01*
X575000Y-575000D01*
X52118291Y-575000D01*
X51819702Y-698680D01*
M02*
