G04 #@! TF.GenerationSoftware,KiCad,Pcbnew,(5.1.2)-2*
G04 #@! TF.CreationDate,2020-01-25T22:11:55+00:00*
G04 #@! TF.ProjectId,rowing_steerting,726f7769-6e67-45f7-9374-65657274696e,rev?*
G04 #@! TF.SameCoordinates,Original*
G04 #@! TF.FileFunction,Copper,L1,Top*
G04 #@! TF.FilePolarity,Positive*
%FSLAX46Y46*%
G04 Gerber Fmt 4.6, Leading zero omitted, Abs format (unit mm)*
G04 Created by KiCad (PCBNEW (5.1.2)-2) date 2020-01-25 22:11:55*
%MOMM*%
%LPD*%
G04 APERTURE LIST*
%ADD10R,1.600000X1.600000*%
%ADD11O,1.600000X1.600000*%
%ADD12C,4.000000*%
%ADD13O,1.950000X1.700000*%
%ADD14C,0.100000*%
%ADD15C,1.700000*%
%ADD16R,1.700000X1.700000*%
%ADD17C,1.425000*%
%ADD18O,1.700000X1.700000*%
%ADD19C,0.800000*%
%ADD20C,0.400000*%
%ADD21C,2.000000*%
%ADD22C,0.300000*%
%ADD23C,1.000000*%
G04 APERTURE END LIST*
D10*
X41079420Y-3289300D03*
D11*
X8059420Y-18529300D03*
X38539420Y-3289300D03*
X10599420Y-18529300D03*
X35999420Y-3289300D03*
X13139420Y-18529300D03*
X33459420Y-3289300D03*
X15679420Y-18529300D03*
X30919420Y-3289300D03*
X18219420Y-18529300D03*
X28379420Y-3289300D03*
X20759420Y-18529300D03*
X25839420Y-3289300D03*
X23299420Y-18529300D03*
X23299420Y-3289300D03*
X25839420Y-18529300D03*
X20759420Y-3289300D03*
X28379420Y-18529300D03*
X18219420Y-3289300D03*
X30919420Y-18529300D03*
X15679420Y-3289300D03*
X33459420Y-18529300D03*
X13139420Y-3289300D03*
X35999420Y-18529300D03*
X10599420Y-3289300D03*
X38539420Y-18529300D03*
X8059420Y-3289300D03*
X41079420Y-18529300D03*
X5519420Y-3289300D03*
X5519420Y-18529300D03*
D12*
X71356220Y-3024500D03*
X71356220Y-8024500D03*
X64874780Y-18559780D03*
X59874780Y-18559780D03*
X59592840Y-10612120D03*
X64592840Y-10612120D03*
X64745240Y-3431540D03*
X59745240Y-3431540D03*
X96608900Y-2798440D03*
X96608900Y-7798440D03*
D13*
X77472540Y-2795260D03*
X77472540Y-5295260D03*
D14*
G36*
X78222044Y-6946464D02*
G01*
X78246313Y-6950064D01*
X78270111Y-6956025D01*
X78293211Y-6964290D01*
X78315389Y-6974780D01*
X78336433Y-6987393D01*
X78356138Y-7002007D01*
X78374317Y-7018483D01*
X78390793Y-7036662D01*
X78405407Y-7056367D01*
X78418020Y-7077411D01*
X78428510Y-7099589D01*
X78436775Y-7122689D01*
X78442736Y-7146487D01*
X78446336Y-7170756D01*
X78447540Y-7195260D01*
X78447540Y-8395260D01*
X78446336Y-8419764D01*
X78442736Y-8444033D01*
X78436775Y-8467831D01*
X78428510Y-8490931D01*
X78418020Y-8513109D01*
X78405407Y-8534153D01*
X78390793Y-8553858D01*
X78374317Y-8572037D01*
X78356138Y-8588513D01*
X78336433Y-8603127D01*
X78315389Y-8615740D01*
X78293211Y-8626230D01*
X78270111Y-8634495D01*
X78246313Y-8640456D01*
X78222044Y-8644056D01*
X78197540Y-8645260D01*
X76747540Y-8645260D01*
X76723036Y-8644056D01*
X76698767Y-8640456D01*
X76674969Y-8634495D01*
X76651869Y-8626230D01*
X76629691Y-8615740D01*
X76608647Y-8603127D01*
X76588942Y-8588513D01*
X76570763Y-8572037D01*
X76554287Y-8553858D01*
X76539673Y-8534153D01*
X76527060Y-8513109D01*
X76516570Y-8490931D01*
X76508305Y-8467831D01*
X76502344Y-8444033D01*
X76498744Y-8419764D01*
X76497540Y-8395260D01*
X76497540Y-7195260D01*
X76498744Y-7170756D01*
X76502344Y-7146487D01*
X76508305Y-7122689D01*
X76516570Y-7099589D01*
X76527060Y-7077411D01*
X76539673Y-7056367D01*
X76554287Y-7036662D01*
X76570763Y-7018483D01*
X76588942Y-7002007D01*
X76608647Y-6987393D01*
X76629691Y-6974780D01*
X76651869Y-6964290D01*
X76674969Y-6956025D01*
X76698767Y-6950064D01*
X76723036Y-6946464D01*
X76747540Y-6945260D01*
X78197540Y-6945260D01*
X78222044Y-6946464D01*
X78222044Y-6946464D01*
G37*
D15*
X77472540Y-7795260D03*
D14*
G36*
X88968784Y-13273604D02*
G01*
X88993053Y-13277204D01*
X89016851Y-13283165D01*
X89039951Y-13291430D01*
X89062129Y-13301920D01*
X89083173Y-13314533D01*
X89102878Y-13329147D01*
X89121057Y-13345623D01*
X89137533Y-13363802D01*
X89152147Y-13383507D01*
X89164760Y-13404551D01*
X89175250Y-13426729D01*
X89183515Y-13449829D01*
X89189476Y-13473627D01*
X89193076Y-13497896D01*
X89194280Y-13522400D01*
X89194280Y-14722400D01*
X89193076Y-14746904D01*
X89189476Y-14771173D01*
X89183515Y-14794971D01*
X89175250Y-14818071D01*
X89164760Y-14840249D01*
X89152147Y-14861293D01*
X89137533Y-14880998D01*
X89121057Y-14899177D01*
X89102878Y-14915653D01*
X89083173Y-14930267D01*
X89062129Y-14942880D01*
X89039951Y-14953370D01*
X89016851Y-14961635D01*
X88993053Y-14967596D01*
X88968784Y-14971196D01*
X88944280Y-14972400D01*
X87494280Y-14972400D01*
X87469776Y-14971196D01*
X87445507Y-14967596D01*
X87421709Y-14961635D01*
X87398609Y-14953370D01*
X87376431Y-14942880D01*
X87355387Y-14930267D01*
X87335682Y-14915653D01*
X87317503Y-14899177D01*
X87301027Y-14880998D01*
X87286413Y-14861293D01*
X87273800Y-14840249D01*
X87263310Y-14818071D01*
X87255045Y-14794971D01*
X87249084Y-14771173D01*
X87245484Y-14746904D01*
X87244280Y-14722400D01*
X87244280Y-13522400D01*
X87245484Y-13497896D01*
X87249084Y-13473627D01*
X87255045Y-13449829D01*
X87263310Y-13426729D01*
X87273800Y-13404551D01*
X87286413Y-13383507D01*
X87301027Y-13363802D01*
X87317503Y-13345623D01*
X87335682Y-13329147D01*
X87355387Y-13314533D01*
X87376431Y-13301920D01*
X87398609Y-13291430D01*
X87421709Y-13283165D01*
X87445507Y-13277204D01*
X87469776Y-13273604D01*
X87494280Y-13272400D01*
X88944280Y-13272400D01*
X88968784Y-13273604D01*
X88968784Y-13273604D01*
G37*
D15*
X88219280Y-14122400D03*
D13*
X88219280Y-16622400D03*
X88219280Y-19122400D03*
D14*
G36*
X86375444Y-6910904D02*
G01*
X86399713Y-6914504D01*
X86423511Y-6920465D01*
X86446611Y-6928730D01*
X86468789Y-6939220D01*
X86489833Y-6951833D01*
X86509538Y-6966447D01*
X86527717Y-6982923D01*
X86544193Y-7001102D01*
X86558807Y-7020807D01*
X86571420Y-7041851D01*
X86581910Y-7064029D01*
X86590175Y-7087129D01*
X86596136Y-7110927D01*
X86599736Y-7135196D01*
X86600940Y-7159700D01*
X86600940Y-8359700D01*
X86599736Y-8384204D01*
X86596136Y-8408473D01*
X86590175Y-8432271D01*
X86581910Y-8455371D01*
X86571420Y-8477549D01*
X86558807Y-8498593D01*
X86544193Y-8518298D01*
X86527717Y-8536477D01*
X86509538Y-8552953D01*
X86489833Y-8567567D01*
X86468789Y-8580180D01*
X86446611Y-8590670D01*
X86423511Y-8598935D01*
X86399713Y-8604896D01*
X86375444Y-8608496D01*
X86350940Y-8609700D01*
X84900940Y-8609700D01*
X84876436Y-8608496D01*
X84852167Y-8604896D01*
X84828369Y-8598935D01*
X84805269Y-8590670D01*
X84783091Y-8580180D01*
X84762047Y-8567567D01*
X84742342Y-8552953D01*
X84724163Y-8536477D01*
X84707687Y-8518298D01*
X84693073Y-8498593D01*
X84680460Y-8477549D01*
X84669970Y-8455371D01*
X84661705Y-8432271D01*
X84655744Y-8408473D01*
X84652144Y-8384204D01*
X84650940Y-8359700D01*
X84650940Y-7159700D01*
X84652144Y-7135196D01*
X84655744Y-7110927D01*
X84661705Y-7087129D01*
X84669970Y-7064029D01*
X84680460Y-7041851D01*
X84693073Y-7020807D01*
X84707687Y-7001102D01*
X84724163Y-6982923D01*
X84742342Y-6966447D01*
X84762047Y-6951833D01*
X84783091Y-6939220D01*
X84805269Y-6928730D01*
X84828369Y-6920465D01*
X84852167Y-6914504D01*
X84876436Y-6910904D01*
X84900940Y-6909700D01*
X86350940Y-6909700D01*
X86375444Y-6910904D01*
X86375444Y-6910904D01*
G37*
D15*
X85625940Y-7759700D03*
D13*
X85625940Y-5259700D03*
X85625940Y-2759700D03*
X72702420Y-19132560D03*
X72702420Y-16632560D03*
D14*
G36*
X73451924Y-13283764D02*
G01*
X73476193Y-13287364D01*
X73499991Y-13293325D01*
X73523091Y-13301590D01*
X73545269Y-13312080D01*
X73566313Y-13324693D01*
X73586018Y-13339307D01*
X73604197Y-13355783D01*
X73620673Y-13373962D01*
X73635287Y-13393667D01*
X73647900Y-13414711D01*
X73658390Y-13436889D01*
X73666655Y-13459989D01*
X73672616Y-13483787D01*
X73676216Y-13508056D01*
X73677420Y-13532560D01*
X73677420Y-14732560D01*
X73676216Y-14757064D01*
X73672616Y-14781333D01*
X73666655Y-14805131D01*
X73658390Y-14828231D01*
X73647900Y-14850409D01*
X73635287Y-14871453D01*
X73620673Y-14891158D01*
X73604197Y-14909337D01*
X73586018Y-14925813D01*
X73566313Y-14940427D01*
X73545269Y-14953040D01*
X73523091Y-14963530D01*
X73499991Y-14971795D01*
X73476193Y-14977756D01*
X73451924Y-14981356D01*
X73427420Y-14982560D01*
X71977420Y-14982560D01*
X71952916Y-14981356D01*
X71928647Y-14977756D01*
X71904849Y-14971795D01*
X71881749Y-14963530D01*
X71859571Y-14953040D01*
X71838527Y-14940427D01*
X71818822Y-14925813D01*
X71800643Y-14909337D01*
X71784167Y-14891158D01*
X71769553Y-14871453D01*
X71756940Y-14850409D01*
X71746450Y-14828231D01*
X71738185Y-14805131D01*
X71732224Y-14781333D01*
X71728624Y-14757064D01*
X71727420Y-14732560D01*
X71727420Y-13532560D01*
X71728624Y-13508056D01*
X71732224Y-13483787D01*
X71738185Y-13459989D01*
X71746450Y-13436889D01*
X71756940Y-13414711D01*
X71769553Y-13393667D01*
X71784167Y-13373962D01*
X71800643Y-13355783D01*
X71818822Y-13339307D01*
X71838527Y-13324693D01*
X71859571Y-13312080D01*
X71881749Y-13301590D01*
X71904849Y-13293325D01*
X71928647Y-13287364D01*
X71952916Y-13283764D01*
X71977420Y-13282560D01*
X73427420Y-13282560D01*
X73451924Y-13283764D01*
X73451924Y-13283764D01*
G37*
D15*
X72702420Y-14132560D03*
D14*
G36*
X80993184Y-13309164D02*
G01*
X81017453Y-13312764D01*
X81041251Y-13318725D01*
X81064351Y-13326990D01*
X81086529Y-13337480D01*
X81107573Y-13350093D01*
X81127278Y-13364707D01*
X81145457Y-13381183D01*
X81161933Y-13399362D01*
X81176547Y-13419067D01*
X81189160Y-13440111D01*
X81199650Y-13462289D01*
X81207915Y-13485389D01*
X81213876Y-13509187D01*
X81217476Y-13533456D01*
X81218680Y-13557960D01*
X81218680Y-14757960D01*
X81217476Y-14782464D01*
X81213876Y-14806733D01*
X81207915Y-14830531D01*
X81199650Y-14853631D01*
X81189160Y-14875809D01*
X81176547Y-14896853D01*
X81161933Y-14916558D01*
X81145457Y-14934737D01*
X81127278Y-14951213D01*
X81107573Y-14965827D01*
X81086529Y-14978440D01*
X81064351Y-14988930D01*
X81041251Y-14997195D01*
X81017453Y-15003156D01*
X80993184Y-15006756D01*
X80968680Y-15007960D01*
X79518680Y-15007960D01*
X79494176Y-15006756D01*
X79469907Y-15003156D01*
X79446109Y-14997195D01*
X79423009Y-14988930D01*
X79400831Y-14978440D01*
X79379787Y-14965827D01*
X79360082Y-14951213D01*
X79341903Y-14934737D01*
X79325427Y-14916558D01*
X79310813Y-14896853D01*
X79298200Y-14875809D01*
X79287710Y-14853631D01*
X79279445Y-14830531D01*
X79273484Y-14806733D01*
X79269884Y-14782464D01*
X79268680Y-14757960D01*
X79268680Y-13557960D01*
X79269884Y-13533456D01*
X79273484Y-13509187D01*
X79279445Y-13485389D01*
X79287710Y-13462289D01*
X79298200Y-13440111D01*
X79310813Y-13419067D01*
X79325427Y-13399362D01*
X79341903Y-13381183D01*
X79360082Y-13364707D01*
X79379787Y-13350093D01*
X79400831Y-13337480D01*
X79423009Y-13326990D01*
X79446109Y-13318725D01*
X79469907Y-13312764D01*
X79494176Y-13309164D01*
X79518680Y-13307960D01*
X80968680Y-13307960D01*
X80993184Y-13309164D01*
X80993184Y-13309164D01*
G37*
D15*
X80243680Y-14157960D03*
D13*
X80243680Y-16657960D03*
X80243680Y-19157960D03*
X96372680Y-19122400D03*
X96372680Y-16622400D03*
D14*
G36*
X97122184Y-13273604D02*
G01*
X97146453Y-13277204D01*
X97170251Y-13283165D01*
X97193351Y-13291430D01*
X97215529Y-13301920D01*
X97236573Y-13314533D01*
X97256278Y-13329147D01*
X97274457Y-13345623D01*
X97290933Y-13363802D01*
X97305547Y-13383507D01*
X97318160Y-13404551D01*
X97328650Y-13426729D01*
X97336915Y-13449829D01*
X97342876Y-13473627D01*
X97346476Y-13497896D01*
X97347680Y-13522400D01*
X97347680Y-14722400D01*
X97346476Y-14746904D01*
X97342876Y-14771173D01*
X97336915Y-14794971D01*
X97328650Y-14818071D01*
X97318160Y-14840249D01*
X97305547Y-14861293D01*
X97290933Y-14880998D01*
X97274457Y-14899177D01*
X97256278Y-14915653D01*
X97236573Y-14930267D01*
X97215529Y-14942880D01*
X97193351Y-14953370D01*
X97170251Y-14961635D01*
X97146453Y-14967596D01*
X97122184Y-14971196D01*
X97097680Y-14972400D01*
X95647680Y-14972400D01*
X95623176Y-14971196D01*
X95598907Y-14967596D01*
X95575109Y-14961635D01*
X95552009Y-14953370D01*
X95529831Y-14942880D01*
X95508787Y-14930267D01*
X95489082Y-14915653D01*
X95470903Y-14899177D01*
X95454427Y-14880998D01*
X95439813Y-14861293D01*
X95427200Y-14840249D01*
X95416710Y-14818071D01*
X95408445Y-14794971D01*
X95402484Y-14771173D01*
X95398884Y-14746904D01*
X95397680Y-14722400D01*
X95397680Y-13522400D01*
X95398884Y-13497896D01*
X95402484Y-13473627D01*
X95408445Y-13449829D01*
X95416710Y-13426729D01*
X95427200Y-13404551D01*
X95439813Y-13383507D01*
X95454427Y-13363802D01*
X95470903Y-13345623D01*
X95489082Y-13329147D01*
X95508787Y-13314533D01*
X95529831Y-13301920D01*
X95552009Y-13291430D01*
X95575109Y-13283165D01*
X95598907Y-13277204D01*
X95623176Y-13273604D01*
X95647680Y-13272400D01*
X97097680Y-13272400D01*
X97122184Y-13273604D01*
X97122184Y-13273604D01*
G37*
D15*
X96372680Y-14122400D03*
D16*
X91889580Y-1894840D03*
D14*
G36*
X19099184Y-12390084D02*
G01*
X19123453Y-12393684D01*
X19147251Y-12399645D01*
X19170351Y-12407910D01*
X19192529Y-12418400D01*
X19213573Y-12431013D01*
X19233278Y-12445627D01*
X19251457Y-12462103D01*
X19267933Y-12480282D01*
X19282547Y-12499987D01*
X19295160Y-12521031D01*
X19305650Y-12543209D01*
X19313915Y-12566309D01*
X19319876Y-12590107D01*
X19323476Y-12614376D01*
X19324680Y-12638880D01*
X19324680Y-13888880D01*
X19323476Y-13913384D01*
X19319876Y-13937653D01*
X19313915Y-13961451D01*
X19305650Y-13984551D01*
X19295160Y-14006729D01*
X19282547Y-14027773D01*
X19267933Y-14047478D01*
X19251457Y-14065657D01*
X19233278Y-14082133D01*
X19213573Y-14096747D01*
X19192529Y-14109360D01*
X19170351Y-14119850D01*
X19147251Y-14128115D01*
X19123453Y-14134076D01*
X19099184Y-14137676D01*
X19074680Y-14138880D01*
X18149680Y-14138880D01*
X18125176Y-14137676D01*
X18100907Y-14134076D01*
X18077109Y-14128115D01*
X18054009Y-14119850D01*
X18031831Y-14109360D01*
X18010787Y-14096747D01*
X17991082Y-14082133D01*
X17972903Y-14065657D01*
X17956427Y-14047478D01*
X17941813Y-14027773D01*
X17929200Y-14006729D01*
X17918710Y-13984551D01*
X17910445Y-13961451D01*
X17904484Y-13937653D01*
X17900884Y-13913384D01*
X17899680Y-13888880D01*
X17899680Y-12638880D01*
X17900884Y-12614376D01*
X17904484Y-12590107D01*
X17910445Y-12566309D01*
X17918710Y-12543209D01*
X17929200Y-12521031D01*
X17941813Y-12499987D01*
X17956427Y-12480282D01*
X17972903Y-12462103D01*
X17991082Y-12445627D01*
X18010787Y-12431013D01*
X18031831Y-12418400D01*
X18054009Y-12407910D01*
X18077109Y-12399645D01*
X18100907Y-12393684D01*
X18125176Y-12390084D01*
X18149680Y-12388880D01*
X19074680Y-12388880D01*
X19099184Y-12390084D01*
X19099184Y-12390084D01*
G37*
D17*
X18612180Y-13263880D03*
D14*
G36*
X16124184Y-12390084D02*
G01*
X16148453Y-12393684D01*
X16172251Y-12399645D01*
X16195351Y-12407910D01*
X16217529Y-12418400D01*
X16238573Y-12431013D01*
X16258278Y-12445627D01*
X16276457Y-12462103D01*
X16292933Y-12480282D01*
X16307547Y-12499987D01*
X16320160Y-12521031D01*
X16330650Y-12543209D01*
X16338915Y-12566309D01*
X16344876Y-12590107D01*
X16348476Y-12614376D01*
X16349680Y-12638880D01*
X16349680Y-13888880D01*
X16348476Y-13913384D01*
X16344876Y-13937653D01*
X16338915Y-13961451D01*
X16330650Y-13984551D01*
X16320160Y-14006729D01*
X16307547Y-14027773D01*
X16292933Y-14047478D01*
X16276457Y-14065657D01*
X16258278Y-14082133D01*
X16238573Y-14096747D01*
X16217529Y-14109360D01*
X16195351Y-14119850D01*
X16172251Y-14128115D01*
X16148453Y-14134076D01*
X16124184Y-14137676D01*
X16099680Y-14138880D01*
X15174680Y-14138880D01*
X15150176Y-14137676D01*
X15125907Y-14134076D01*
X15102109Y-14128115D01*
X15079009Y-14119850D01*
X15056831Y-14109360D01*
X15035787Y-14096747D01*
X15016082Y-14082133D01*
X14997903Y-14065657D01*
X14981427Y-14047478D01*
X14966813Y-14027773D01*
X14954200Y-14006729D01*
X14943710Y-13984551D01*
X14935445Y-13961451D01*
X14929484Y-13937653D01*
X14925884Y-13913384D01*
X14924680Y-13888880D01*
X14924680Y-12638880D01*
X14925884Y-12614376D01*
X14929484Y-12590107D01*
X14935445Y-12566309D01*
X14943710Y-12543209D01*
X14954200Y-12521031D01*
X14966813Y-12499987D01*
X14981427Y-12480282D01*
X14997903Y-12462103D01*
X15016082Y-12445627D01*
X15035787Y-12431013D01*
X15056831Y-12418400D01*
X15079009Y-12407910D01*
X15102109Y-12399645D01*
X15125907Y-12393684D01*
X15150176Y-12390084D01*
X15174680Y-12388880D01*
X16099680Y-12388880D01*
X16124184Y-12390084D01*
X16124184Y-12390084D01*
G37*
D17*
X15637180Y-13263880D03*
D14*
G36*
X8356864Y-11422344D02*
G01*
X8381133Y-11425944D01*
X8404931Y-11431905D01*
X8428031Y-11440170D01*
X8450209Y-11450660D01*
X8471253Y-11463273D01*
X8490958Y-11477887D01*
X8509137Y-11494363D01*
X8525613Y-11512542D01*
X8540227Y-11532247D01*
X8552840Y-11553291D01*
X8563330Y-11575469D01*
X8571595Y-11598569D01*
X8577556Y-11622367D01*
X8581156Y-11646636D01*
X8582360Y-11671140D01*
X8582360Y-12921140D01*
X8581156Y-12945644D01*
X8577556Y-12969913D01*
X8571595Y-12993711D01*
X8563330Y-13016811D01*
X8552840Y-13038989D01*
X8540227Y-13060033D01*
X8525613Y-13079738D01*
X8509137Y-13097917D01*
X8490958Y-13114393D01*
X8471253Y-13129007D01*
X8450209Y-13141620D01*
X8428031Y-13152110D01*
X8404931Y-13160375D01*
X8381133Y-13166336D01*
X8356864Y-13169936D01*
X8332360Y-13171140D01*
X7407360Y-13171140D01*
X7382856Y-13169936D01*
X7358587Y-13166336D01*
X7334789Y-13160375D01*
X7311689Y-13152110D01*
X7289511Y-13141620D01*
X7268467Y-13129007D01*
X7248762Y-13114393D01*
X7230583Y-13097917D01*
X7214107Y-13079738D01*
X7199493Y-13060033D01*
X7186880Y-13038989D01*
X7176390Y-13016811D01*
X7168125Y-12993711D01*
X7162164Y-12969913D01*
X7158564Y-12945644D01*
X7157360Y-12921140D01*
X7157360Y-11671140D01*
X7158564Y-11646636D01*
X7162164Y-11622367D01*
X7168125Y-11598569D01*
X7176390Y-11575469D01*
X7186880Y-11553291D01*
X7199493Y-11532247D01*
X7214107Y-11512542D01*
X7230583Y-11494363D01*
X7248762Y-11477887D01*
X7268467Y-11463273D01*
X7289511Y-11450660D01*
X7311689Y-11440170D01*
X7334789Y-11431905D01*
X7358587Y-11425944D01*
X7382856Y-11422344D01*
X7407360Y-11421140D01*
X8332360Y-11421140D01*
X8356864Y-11422344D01*
X8356864Y-11422344D01*
G37*
D17*
X7869860Y-12296140D03*
D14*
G36*
X11331864Y-11422344D02*
G01*
X11356133Y-11425944D01*
X11379931Y-11431905D01*
X11403031Y-11440170D01*
X11425209Y-11450660D01*
X11446253Y-11463273D01*
X11465958Y-11477887D01*
X11484137Y-11494363D01*
X11500613Y-11512542D01*
X11515227Y-11532247D01*
X11527840Y-11553291D01*
X11538330Y-11575469D01*
X11546595Y-11598569D01*
X11552556Y-11622367D01*
X11556156Y-11646636D01*
X11557360Y-11671140D01*
X11557360Y-12921140D01*
X11556156Y-12945644D01*
X11552556Y-12969913D01*
X11546595Y-12993711D01*
X11538330Y-13016811D01*
X11527840Y-13038989D01*
X11515227Y-13060033D01*
X11500613Y-13079738D01*
X11484137Y-13097917D01*
X11465958Y-13114393D01*
X11446253Y-13129007D01*
X11425209Y-13141620D01*
X11403031Y-13152110D01*
X11379931Y-13160375D01*
X11356133Y-13166336D01*
X11331864Y-13169936D01*
X11307360Y-13171140D01*
X10382360Y-13171140D01*
X10357856Y-13169936D01*
X10333587Y-13166336D01*
X10309789Y-13160375D01*
X10286689Y-13152110D01*
X10264511Y-13141620D01*
X10243467Y-13129007D01*
X10223762Y-13114393D01*
X10205583Y-13097917D01*
X10189107Y-13079738D01*
X10174493Y-13060033D01*
X10161880Y-13038989D01*
X10151390Y-13016811D01*
X10143125Y-12993711D01*
X10137164Y-12969913D01*
X10133564Y-12945644D01*
X10132360Y-12921140D01*
X10132360Y-11671140D01*
X10133564Y-11646636D01*
X10137164Y-11622367D01*
X10143125Y-11598569D01*
X10151390Y-11575469D01*
X10161880Y-11553291D01*
X10174493Y-11532247D01*
X10189107Y-11512542D01*
X10205583Y-11494363D01*
X10223762Y-11477887D01*
X10243467Y-11463273D01*
X10264511Y-11450660D01*
X10286689Y-11440170D01*
X10309789Y-11431905D01*
X10333587Y-11425944D01*
X10357856Y-11422344D01*
X10382360Y-11421140D01*
X11307360Y-11421140D01*
X11331864Y-11422344D01*
X11331864Y-11422344D01*
G37*
D17*
X10844860Y-12296140D03*
D14*
G36*
X14633204Y-14973264D02*
G01*
X14657473Y-14976864D01*
X14681271Y-14982825D01*
X14704371Y-14991090D01*
X14726549Y-15001580D01*
X14747593Y-15014193D01*
X14767298Y-15028807D01*
X14785477Y-15045283D01*
X14801953Y-15063462D01*
X14816567Y-15083167D01*
X14829180Y-15104211D01*
X14839670Y-15126389D01*
X14847935Y-15149489D01*
X14853896Y-15173287D01*
X14857496Y-15197556D01*
X14858700Y-15222060D01*
X14858700Y-16472060D01*
X14857496Y-16496564D01*
X14853896Y-16520833D01*
X14847935Y-16544631D01*
X14839670Y-16567731D01*
X14829180Y-16589909D01*
X14816567Y-16610953D01*
X14801953Y-16630658D01*
X14785477Y-16648837D01*
X14767298Y-16665313D01*
X14747593Y-16679927D01*
X14726549Y-16692540D01*
X14704371Y-16703030D01*
X14681271Y-16711295D01*
X14657473Y-16717256D01*
X14633204Y-16720856D01*
X14608700Y-16722060D01*
X13683700Y-16722060D01*
X13659196Y-16720856D01*
X13634927Y-16717256D01*
X13611129Y-16711295D01*
X13588029Y-16703030D01*
X13565851Y-16692540D01*
X13544807Y-16679927D01*
X13525102Y-16665313D01*
X13506923Y-16648837D01*
X13490447Y-16630658D01*
X13475833Y-16610953D01*
X13463220Y-16589909D01*
X13452730Y-16567731D01*
X13444465Y-16544631D01*
X13438504Y-16520833D01*
X13434904Y-16496564D01*
X13433700Y-16472060D01*
X13433700Y-15222060D01*
X13434904Y-15197556D01*
X13438504Y-15173287D01*
X13444465Y-15149489D01*
X13452730Y-15126389D01*
X13463220Y-15104211D01*
X13475833Y-15083167D01*
X13490447Y-15063462D01*
X13506923Y-15045283D01*
X13525102Y-15028807D01*
X13544807Y-15014193D01*
X13565851Y-15001580D01*
X13588029Y-14991090D01*
X13611129Y-14982825D01*
X13634927Y-14976864D01*
X13659196Y-14973264D01*
X13683700Y-14972060D01*
X14608700Y-14972060D01*
X14633204Y-14973264D01*
X14633204Y-14973264D01*
G37*
D17*
X14146200Y-15847060D03*
D14*
G36*
X17608204Y-14973264D02*
G01*
X17632473Y-14976864D01*
X17656271Y-14982825D01*
X17679371Y-14991090D01*
X17701549Y-15001580D01*
X17722593Y-15014193D01*
X17742298Y-15028807D01*
X17760477Y-15045283D01*
X17776953Y-15063462D01*
X17791567Y-15083167D01*
X17804180Y-15104211D01*
X17814670Y-15126389D01*
X17822935Y-15149489D01*
X17828896Y-15173287D01*
X17832496Y-15197556D01*
X17833700Y-15222060D01*
X17833700Y-16472060D01*
X17832496Y-16496564D01*
X17828896Y-16520833D01*
X17822935Y-16544631D01*
X17814670Y-16567731D01*
X17804180Y-16589909D01*
X17791567Y-16610953D01*
X17776953Y-16630658D01*
X17760477Y-16648837D01*
X17742298Y-16665313D01*
X17722593Y-16679927D01*
X17701549Y-16692540D01*
X17679371Y-16703030D01*
X17656271Y-16711295D01*
X17632473Y-16717256D01*
X17608204Y-16720856D01*
X17583700Y-16722060D01*
X16658700Y-16722060D01*
X16634196Y-16720856D01*
X16609927Y-16717256D01*
X16586129Y-16711295D01*
X16563029Y-16703030D01*
X16540851Y-16692540D01*
X16519807Y-16679927D01*
X16500102Y-16665313D01*
X16481923Y-16648837D01*
X16465447Y-16630658D01*
X16450833Y-16610953D01*
X16438220Y-16589909D01*
X16427730Y-16567731D01*
X16419465Y-16544631D01*
X16413504Y-16520833D01*
X16409904Y-16496564D01*
X16408700Y-16472060D01*
X16408700Y-15222060D01*
X16409904Y-15197556D01*
X16413504Y-15173287D01*
X16419465Y-15149489D01*
X16427730Y-15126389D01*
X16438220Y-15104211D01*
X16450833Y-15083167D01*
X16465447Y-15063462D01*
X16481923Y-15045283D01*
X16500102Y-15028807D01*
X16519807Y-15014193D01*
X16540851Y-15001580D01*
X16563029Y-14991090D01*
X16586129Y-14982825D01*
X16609927Y-14976864D01*
X16634196Y-14973264D01*
X16658700Y-14972060D01*
X17583700Y-14972060D01*
X17608204Y-14973264D01*
X17608204Y-14973264D01*
G37*
D17*
X17121200Y-15847060D03*
D14*
G36*
X11367424Y-14556704D02*
G01*
X11391693Y-14560304D01*
X11415491Y-14566265D01*
X11438591Y-14574530D01*
X11460769Y-14585020D01*
X11481813Y-14597633D01*
X11501518Y-14612247D01*
X11519697Y-14628723D01*
X11536173Y-14646902D01*
X11550787Y-14666607D01*
X11563400Y-14687651D01*
X11573890Y-14709829D01*
X11582155Y-14732929D01*
X11588116Y-14756727D01*
X11591716Y-14780996D01*
X11592920Y-14805500D01*
X11592920Y-16055500D01*
X11591716Y-16080004D01*
X11588116Y-16104273D01*
X11582155Y-16128071D01*
X11573890Y-16151171D01*
X11563400Y-16173349D01*
X11550787Y-16194393D01*
X11536173Y-16214098D01*
X11519697Y-16232277D01*
X11501518Y-16248753D01*
X11481813Y-16263367D01*
X11460769Y-16275980D01*
X11438591Y-16286470D01*
X11415491Y-16294735D01*
X11391693Y-16300696D01*
X11367424Y-16304296D01*
X11342920Y-16305500D01*
X10417920Y-16305500D01*
X10393416Y-16304296D01*
X10369147Y-16300696D01*
X10345349Y-16294735D01*
X10322249Y-16286470D01*
X10300071Y-16275980D01*
X10279027Y-16263367D01*
X10259322Y-16248753D01*
X10241143Y-16232277D01*
X10224667Y-16214098D01*
X10210053Y-16194393D01*
X10197440Y-16173349D01*
X10186950Y-16151171D01*
X10178685Y-16128071D01*
X10172724Y-16104273D01*
X10169124Y-16080004D01*
X10167920Y-16055500D01*
X10167920Y-14805500D01*
X10169124Y-14780996D01*
X10172724Y-14756727D01*
X10178685Y-14732929D01*
X10186950Y-14709829D01*
X10197440Y-14687651D01*
X10210053Y-14666607D01*
X10224667Y-14646902D01*
X10241143Y-14628723D01*
X10259322Y-14612247D01*
X10279027Y-14597633D01*
X10300071Y-14585020D01*
X10322249Y-14574530D01*
X10345349Y-14566265D01*
X10369147Y-14560304D01*
X10393416Y-14556704D01*
X10417920Y-14555500D01*
X11342920Y-14555500D01*
X11367424Y-14556704D01*
X11367424Y-14556704D01*
G37*
D17*
X10880420Y-15430500D03*
D14*
G36*
X8392424Y-14556704D02*
G01*
X8416693Y-14560304D01*
X8440491Y-14566265D01*
X8463591Y-14574530D01*
X8485769Y-14585020D01*
X8506813Y-14597633D01*
X8526518Y-14612247D01*
X8544697Y-14628723D01*
X8561173Y-14646902D01*
X8575787Y-14666607D01*
X8588400Y-14687651D01*
X8598890Y-14709829D01*
X8607155Y-14732929D01*
X8613116Y-14756727D01*
X8616716Y-14780996D01*
X8617920Y-14805500D01*
X8617920Y-16055500D01*
X8616716Y-16080004D01*
X8613116Y-16104273D01*
X8607155Y-16128071D01*
X8598890Y-16151171D01*
X8588400Y-16173349D01*
X8575787Y-16194393D01*
X8561173Y-16214098D01*
X8544697Y-16232277D01*
X8526518Y-16248753D01*
X8506813Y-16263367D01*
X8485769Y-16275980D01*
X8463591Y-16286470D01*
X8440491Y-16294735D01*
X8416693Y-16300696D01*
X8392424Y-16304296D01*
X8367920Y-16305500D01*
X7442920Y-16305500D01*
X7418416Y-16304296D01*
X7394147Y-16300696D01*
X7370349Y-16294735D01*
X7347249Y-16286470D01*
X7325071Y-16275980D01*
X7304027Y-16263367D01*
X7284322Y-16248753D01*
X7266143Y-16232277D01*
X7249667Y-16214098D01*
X7235053Y-16194393D01*
X7222440Y-16173349D01*
X7211950Y-16151171D01*
X7203685Y-16128071D01*
X7197724Y-16104273D01*
X7194124Y-16080004D01*
X7192920Y-16055500D01*
X7192920Y-14805500D01*
X7194124Y-14780996D01*
X7197724Y-14756727D01*
X7203685Y-14732929D01*
X7211950Y-14709829D01*
X7222440Y-14687651D01*
X7235053Y-14666607D01*
X7249667Y-14646902D01*
X7266143Y-14628723D01*
X7284322Y-14612247D01*
X7304027Y-14597633D01*
X7325071Y-14585020D01*
X7347249Y-14574530D01*
X7370349Y-14566265D01*
X7394147Y-14560304D01*
X7418416Y-14556704D01*
X7442920Y-14555500D01*
X8367920Y-14555500D01*
X8392424Y-14556704D01*
X8392424Y-14556704D01*
G37*
D17*
X7905420Y-15430500D03*
D12*
X53030120Y-13738220D03*
X53030120Y-18738220D03*
X53027580Y-2958460D03*
X53027580Y-7958460D03*
D14*
G36*
X31685764Y-8205704D02*
G01*
X31710033Y-8209304D01*
X31733831Y-8215265D01*
X31756931Y-8223530D01*
X31779109Y-8234020D01*
X31800153Y-8246633D01*
X31819858Y-8261247D01*
X31838037Y-8277723D01*
X31854513Y-8295902D01*
X31869127Y-8315607D01*
X31881740Y-8336651D01*
X31892230Y-8358829D01*
X31900495Y-8381929D01*
X31906456Y-8405727D01*
X31910056Y-8429996D01*
X31911260Y-8454500D01*
X31911260Y-9379500D01*
X31910056Y-9404004D01*
X31906456Y-9428273D01*
X31900495Y-9452071D01*
X31892230Y-9475171D01*
X31881740Y-9497349D01*
X31869127Y-9518393D01*
X31854513Y-9538098D01*
X31838037Y-9556277D01*
X31819858Y-9572753D01*
X31800153Y-9587367D01*
X31779109Y-9599980D01*
X31756931Y-9610470D01*
X31733831Y-9618735D01*
X31710033Y-9624696D01*
X31685764Y-9628296D01*
X31661260Y-9629500D01*
X30411260Y-9629500D01*
X30386756Y-9628296D01*
X30362487Y-9624696D01*
X30338689Y-9618735D01*
X30315589Y-9610470D01*
X30293411Y-9599980D01*
X30272367Y-9587367D01*
X30252662Y-9572753D01*
X30234483Y-9556277D01*
X30218007Y-9538098D01*
X30203393Y-9518393D01*
X30190780Y-9497349D01*
X30180290Y-9475171D01*
X30172025Y-9452071D01*
X30166064Y-9428273D01*
X30162464Y-9404004D01*
X30161260Y-9379500D01*
X30161260Y-8454500D01*
X30162464Y-8429996D01*
X30166064Y-8405727D01*
X30172025Y-8381929D01*
X30180290Y-8358829D01*
X30190780Y-8336651D01*
X30203393Y-8315607D01*
X30218007Y-8295902D01*
X30234483Y-8277723D01*
X30252662Y-8261247D01*
X30272367Y-8246633D01*
X30293411Y-8234020D01*
X30315589Y-8223530D01*
X30338689Y-8215265D01*
X30362487Y-8209304D01*
X30386756Y-8205704D01*
X30411260Y-8204500D01*
X31661260Y-8204500D01*
X31685764Y-8205704D01*
X31685764Y-8205704D01*
G37*
D17*
X31036260Y-8917000D03*
D14*
G36*
X31685764Y-5230704D02*
G01*
X31710033Y-5234304D01*
X31733831Y-5240265D01*
X31756931Y-5248530D01*
X31779109Y-5259020D01*
X31800153Y-5271633D01*
X31819858Y-5286247D01*
X31838037Y-5302723D01*
X31854513Y-5320902D01*
X31869127Y-5340607D01*
X31881740Y-5361651D01*
X31892230Y-5383829D01*
X31900495Y-5406929D01*
X31906456Y-5430727D01*
X31910056Y-5454996D01*
X31911260Y-5479500D01*
X31911260Y-6404500D01*
X31910056Y-6429004D01*
X31906456Y-6453273D01*
X31900495Y-6477071D01*
X31892230Y-6500171D01*
X31881740Y-6522349D01*
X31869127Y-6543393D01*
X31854513Y-6563098D01*
X31838037Y-6581277D01*
X31819858Y-6597753D01*
X31800153Y-6612367D01*
X31779109Y-6624980D01*
X31756931Y-6635470D01*
X31733831Y-6643735D01*
X31710033Y-6649696D01*
X31685764Y-6653296D01*
X31661260Y-6654500D01*
X30411260Y-6654500D01*
X30386756Y-6653296D01*
X30362487Y-6649696D01*
X30338689Y-6643735D01*
X30315589Y-6635470D01*
X30293411Y-6624980D01*
X30272367Y-6612367D01*
X30252662Y-6597753D01*
X30234483Y-6581277D01*
X30218007Y-6563098D01*
X30203393Y-6543393D01*
X30190780Y-6522349D01*
X30180290Y-6500171D01*
X30172025Y-6477071D01*
X30166064Y-6453273D01*
X30162464Y-6429004D01*
X30161260Y-6404500D01*
X30161260Y-5479500D01*
X30162464Y-5454996D01*
X30166064Y-5430727D01*
X30172025Y-5406929D01*
X30180290Y-5383829D01*
X30190780Y-5361651D01*
X30203393Y-5340607D01*
X30218007Y-5320902D01*
X30234483Y-5302723D01*
X30252662Y-5286247D01*
X30272367Y-5271633D01*
X30293411Y-5259020D01*
X30315589Y-5248530D01*
X30338689Y-5240265D01*
X30362487Y-5234304D01*
X30386756Y-5230704D01*
X30411260Y-5229500D01*
X31661260Y-5229500D01*
X31685764Y-5230704D01*
X31685764Y-5230704D01*
G37*
D17*
X31036260Y-5942000D03*
D14*
G36*
X29133064Y-5253564D02*
G01*
X29157333Y-5257164D01*
X29181131Y-5263125D01*
X29204231Y-5271390D01*
X29226409Y-5281880D01*
X29247453Y-5294493D01*
X29267158Y-5309107D01*
X29285337Y-5325583D01*
X29301813Y-5343762D01*
X29316427Y-5363467D01*
X29329040Y-5384511D01*
X29339530Y-5406689D01*
X29347795Y-5429789D01*
X29353756Y-5453587D01*
X29357356Y-5477856D01*
X29358560Y-5502360D01*
X29358560Y-6427360D01*
X29357356Y-6451864D01*
X29353756Y-6476133D01*
X29347795Y-6499931D01*
X29339530Y-6523031D01*
X29329040Y-6545209D01*
X29316427Y-6566253D01*
X29301813Y-6585958D01*
X29285337Y-6604137D01*
X29267158Y-6620613D01*
X29247453Y-6635227D01*
X29226409Y-6647840D01*
X29204231Y-6658330D01*
X29181131Y-6666595D01*
X29157333Y-6672556D01*
X29133064Y-6676156D01*
X29108560Y-6677360D01*
X27858560Y-6677360D01*
X27834056Y-6676156D01*
X27809787Y-6672556D01*
X27785989Y-6666595D01*
X27762889Y-6658330D01*
X27740711Y-6647840D01*
X27719667Y-6635227D01*
X27699962Y-6620613D01*
X27681783Y-6604137D01*
X27665307Y-6585958D01*
X27650693Y-6566253D01*
X27638080Y-6545209D01*
X27627590Y-6523031D01*
X27619325Y-6499931D01*
X27613364Y-6476133D01*
X27609764Y-6451864D01*
X27608560Y-6427360D01*
X27608560Y-5502360D01*
X27609764Y-5477856D01*
X27613364Y-5453587D01*
X27619325Y-5429789D01*
X27627590Y-5406689D01*
X27638080Y-5384511D01*
X27650693Y-5363467D01*
X27665307Y-5343762D01*
X27681783Y-5325583D01*
X27699962Y-5309107D01*
X27719667Y-5294493D01*
X27740711Y-5281880D01*
X27762889Y-5271390D01*
X27785989Y-5263125D01*
X27809787Y-5257164D01*
X27834056Y-5253564D01*
X27858560Y-5252360D01*
X29108560Y-5252360D01*
X29133064Y-5253564D01*
X29133064Y-5253564D01*
G37*
D17*
X28483560Y-5964860D03*
D14*
G36*
X29133064Y-8228564D02*
G01*
X29157333Y-8232164D01*
X29181131Y-8238125D01*
X29204231Y-8246390D01*
X29226409Y-8256880D01*
X29247453Y-8269493D01*
X29267158Y-8284107D01*
X29285337Y-8300583D01*
X29301813Y-8318762D01*
X29316427Y-8338467D01*
X29329040Y-8359511D01*
X29339530Y-8381689D01*
X29347795Y-8404789D01*
X29353756Y-8428587D01*
X29357356Y-8452856D01*
X29358560Y-8477360D01*
X29358560Y-9402360D01*
X29357356Y-9426864D01*
X29353756Y-9451133D01*
X29347795Y-9474931D01*
X29339530Y-9498031D01*
X29329040Y-9520209D01*
X29316427Y-9541253D01*
X29301813Y-9560958D01*
X29285337Y-9579137D01*
X29267158Y-9595613D01*
X29247453Y-9610227D01*
X29226409Y-9622840D01*
X29204231Y-9633330D01*
X29181131Y-9641595D01*
X29157333Y-9647556D01*
X29133064Y-9651156D01*
X29108560Y-9652360D01*
X27858560Y-9652360D01*
X27834056Y-9651156D01*
X27809787Y-9647556D01*
X27785989Y-9641595D01*
X27762889Y-9633330D01*
X27740711Y-9622840D01*
X27719667Y-9610227D01*
X27699962Y-9595613D01*
X27681783Y-9579137D01*
X27665307Y-9560958D01*
X27650693Y-9541253D01*
X27638080Y-9520209D01*
X27627590Y-9498031D01*
X27619325Y-9474931D01*
X27613364Y-9451133D01*
X27609764Y-9426864D01*
X27608560Y-9402360D01*
X27608560Y-8477360D01*
X27609764Y-8452856D01*
X27613364Y-8428587D01*
X27619325Y-8404789D01*
X27627590Y-8381689D01*
X27638080Y-8359511D01*
X27650693Y-8338467D01*
X27665307Y-8318762D01*
X27681783Y-8300583D01*
X27699962Y-8284107D01*
X27719667Y-8269493D01*
X27740711Y-8256880D01*
X27762889Y-8246390D01*
X27785989Y-8238125D01*
X27809787Y-8232164D01*
X27834056Y-8228564D01*
X27858560Y-8227360D01*
X29108560Y-8227360D01*
X29133064Y-8228564D01*
X29133064Y-8228564D01*
G37*
D17*
X28483560Y-8939860D03*
D14*
G36*
X26521944Y-5218004D02*
G01*
X26546213Y-5221604D01*
X26570011Y-5227565D01*
X26593111Y-5235830D01*
X26615289Y-5246320D01*
X26636333Y-5258933D01*
X26656038Y-5273547D01*
X26674217Y-5290023D01*
X26690693Y-5308202D01*
X26705307Y-5327907D01*
X26717920Y-5348951D01*
X26728410Y-5371129D01*
X26736675Y-5394229D01*
X26742636Y-5418027D01*
X26746236Y-5442296D01*
X26747440Y-5466800D01*
X26747440Y-6391800D01*
X26746236Y-6416304D01*
X26742636Y-6440573D01*
X26736675Y-6464371D01*
X26728410Y-6487471D01*
X26717920Y-6509649D01*
X26705307Y-6530693D01*
X26690693Y-6550398D01*
X26674217Y-6568577D01*
X26656038Y-6585053D01*
X26636333Y-6599667D01*
X26615289Y-6612280D01*
X26593111Y-6622770D01*
X26570011Y-6631035D01*
X26546213Y-6636996D01*
X26521944Y-6640596D01*
X26497440Y-6641800D01*
X25247440Y-6641800D01*
X25222936Y-6640596D01*
X25198667Y-6636996D01*
X25174869Y-6631035D01*
X25151769Y-6622770D01*
X25129591Y-6612280D01*
X25108547Y-6599667D01*
X25088842Y-6585053D01*
X25070663Y-6568577D01*
X25054187Y-6550398D01*
X25039573Y-6530693D01*
X25026960Y-6509649D01*
X25016470Y-6487471D01*
X25008205Y-6464371D01*
X25002244Y-6440573D01*
X24998644Y-6416304D01*
X24997440Y-6391800D01*
X24997440Y-5466800D01*
X24998644Y-5442296D01*
X25002244Y-5418027D01*
X25008205Y-5394229D01*
X25016470Y-5371129D01*
X25026960Y-5348951D01*
X25039573Y-5327907D01*
X25054187Y-5308202D01*
X25070663Y-5290023D01*
X25088842Y-5273547D01*
X25108547Y-5258933D01*
X25129591Y-5246320D01*
X25151769Y-5235830D01*
X25174869Y-5227565D01*
X25198667Y-5221604D01*
X25222936Y-5218004D01*
X25247440Y-5216800D01*
X26497440Y-5216800D01*
X26521944Y-5218004D01*
X26521944Y-5218004D01*
G37*
D17*
X25872440Y-5929300D03*
D14*
G36*
X26521944Y-8193004D02*
G01*
X26546213Y-8196604D01*
X26570011Y-8202565D01*
X26593111Y-8210830D01*
X26615289Y-8221320D01*
X26636333Y-8233933D01*
X26656038Y-8248547D01*
X26674217Y-8265023D01*
X26690693Y-8283202D01*
X26705307Y-8302907D01*
X26717920Y-8323951D01*
X26728410Y-8346129D01*
X26736675Y-8369229D01*
X26742636Y-8393027D01*
X26746236Y-8417296D01*
X26747440Y-8441800D01*
X26747440Y-9366800D01*
X26746236Y-9391304D01*
X26742636Y-9415573D01*
X26736675Y-9439371D01*
X26728410Y-9462471D01*
X26717920Y-9484649D01*
X26705307Y-9505693D01*
X26690693Y-9525398D01*
X26674217Y-9543577D01*
X26656038Y-9560053D01*
X26636333Y-9574667D01*
X26615289Y-9587280D01*
X26593111Y-9597770D01*
X26570011Y-9606035D01*
X26546213Y-9611996D01*
X26521944Y-9615596D01*
X26497440Y-9616800D01*
X25247440Y-9616800D01*
X25222936Y-9615596D01*
X25198667Y-9611996D01*
X25174869Y-9606035D01*
X25151769Y-9597770D01*
X25129591Y-9587280D01*
X25108547Y-9574667D01*
X25088842Y-9560053D01*
X25070663Y-9543577D01*
X25054187Y-9525398D01*
X25039573Y-9505693D01*
X25026960Y-9484649D01*
X25016470Y-9462471D01*
X25008205Y-9439371D01*
X25002244Y-9415573D01*
X24998644Y-9391304D01*
X24997440Y-9366800D01*
X24997440Y-8441800D01*
X24998644Y-8417296D01*
X25002244Y-8393027D01*
X25008205Y-8369229D01*
X25016470Y-8346129D01*
X25026960Y-8323951D01*
X25039573Y-8302907D01*
X25054187Y-8283202D01*
X25070663Y-8265023D01*
X25088842Y-8248547D01*
X25108547Y-8233933D01*
X25129591Y-8221320D01*
X25151769Y-8210830D01*
X25174869Y-8202565D01*
X25198667Y-8196604D01*
X25222936Y-8193004D01*
X25247440Y-8191800D01*
X26497440Y-8191800D01*
X26521944Y-8193004D01*
X26521944Y-8193004D01*
G37*
D17*
X25872440Y-8904300D03*
D18*
X48066960Y-5156200D03*
D16*
X48066960Y-2616200D03*
X48107600Y-9580880D03*
D18*
X48107600Y-12120880D03*
D16*
X48107600Y-16758920D03*
D18*
X48107600Y-19298920D03*
D19*
X8300720Y-9398000D03*
X5476240Y-14272260D03*
X20817840Y-13342620D03*
X42608500Y-15918180D03*
D20*
X13729640Y-15430500D02*
X14146200Y-15847060D01*
X10880420Y-15430500D02*
X13729640Y-15430500D01*
X13139420Y-17843500D02*
X13139420Y-18529300D01*
X14056360Y-16926560D02*
X13139420Y-17843500D01*
X14146200Y-15847060D02*
X14056360Y-15936900D01*
X14056360Y-15936900D02*
X14056360Y-16926560D01*
X7869860Y-12296140D02*
X7869860Y-9828860D01*
X7869860Y-9828860D02*
X8300720Y-9398000D01*
X6634480Y-15430500D02*
X5476240Y-14272260D01*
X7905420Y-15430500D02*
X6634480Y-15430500D01*
D21*
X64874780Y-10894060D02*
X64592840Y-10612120D01*
X64874780Y-18559780D02*
X64874780Y-10894060D01*
X64592840Y-3583940D02*
X64745240Y-3431540D01*
X64592840Y-10612120D02*
X64592840Y-3583940D01*
D20*
X49700180Y-7988300D02*
X48107600Y-9580880D01*
X49700180Y-3571240D02*
X49700180Y-7988300D01*
X48066960Y-2616200D02*
X48745140Y-2616200D01*
X48745140Y-2616200D02*
X49700180Y-3571240D01*
D21*
X87959560Y-11447780D02*
X96608900Y-2798440D01*
X67871340Y-10558780D02*
X68795900Y-11483340D01*
X64592840Y-10612120D02*
X64646180Y-10558780D01*
X64646180Y-10558780D02*
X67871340Y-10558780D01*
X87924000Y-11483340D02*
X87959560Y-11447780D01*
X68795900Y-11483340D02*
X87924000Y-11483340D01*
D20*
X15679420Y-13306120D02*
X15637180Y-13263880D01*
X15679420Y-18529300D02*
X15679420Y-13306120D01*
X14669440Y-12296140D02*
X15637180Y-13263880D01*
X10844860Y-12296140D02*
X14669440Y-12296140D01*
D22*
X30919420Y-5825160D02*
X31036260Y-5942000D01*
D20*
X30919420Y-3289300D02*
X30919420Y-5825160D01*
D22*
X28379420Y-5860720D02*
X28483560Y-5964860D01*
D20*
X28379420Y-3289300D02*
X28379420Y-5860720D01*
D22*
X25839420Y-5896280D02*
X25872440Y-5929300D01*
D20*
X25839420Y-3289300D02*
X25839420Y-5896280D01*
X90739580Y-1894840D02*
X91889580Y-1894840D01*
X89353199Y-508459D02*
X90739580Y-1894840D01*
X15000781Y-508459D02*
X89353199Y-508459D01*
X13139420Y-3289300D02*
X13139420Y-2369820D01*
X13139420Y-2369820D02*
X15000781Y-508459D01*
X20817840Y-13342620D02*
X18690920Y-13342620D01*
X18690920Y-13342620D02*
X18612180Y-13263880D01*
X43677840Y-9545320D02*
X48066960Y-5156200D01*
X31036260Y-8917000D02*
X31664580Y-9545320D01*
X31664580Y-9545320D02*
X43677840Y-9545320D01*
X43888660Y-12120880D02*
X48107600Y-12120880D01*
X28483560Y-9752360D02*
X29079160Y-10347960D01*
X28483560Y-8939860D02*
X28483560Y-9752360D01*
X29079160Y-10347960D02*
X42115740Y-10347960D01*
X42115740Y-10347960D02*
X43888660Y-12120880D01*
X25872440Y-8904300D02*
X25872440Y-9716800D01*
X46167040Y-18620740D02*
X46845220Y-19298920D01*
X46167040Y-15450820D02*
X46167040Y-18620740D01*
X41887140Y-11170920D02*
X46167040Y-15450820D01*
X25872440Y-9716800D02*
X27326560Y-11170920D01*
X27326560Y-11170920D02*
X41887140Y-11170920D01*
X46845220Y-19298920D02*
X48107600Y-19298920D01*
D21*
X53509540Y-19217640D02*
X53030120Y-18738220D01*
X59745240Y-10459720D02*
X59592840Y-10612120D01*
X59745240Y-3431540D02*
X59745240Y-10459720D01*
X59592840Y-18277840D02*
X59874780Y-18559780D01*
X59592840Y-10612120D02*
X59592840Y-18277840D01*
X59660780Y-18773780D02*
X59874780Y-18559780D01*
X53208560Y-18559780D02*
X53030120Y-18738220D01*
X59874780Y-18559780D02*
X53208560Y-18559780D01*
D20*
X17121200Y-15847060D02*
X42537380Y-15847060D01*
X42537380Y-15847060D02*
X42608500Y-15918180D01*
D22*
X85590380Y-2795260D02*
X85625940Y-2759700D01*
D23*
X77472540Y-2795260D02*
X85590380Y-2795260D01*
D22*
X85590380Y-5295260D02*
X85625940Y-5259700D01*
D23*
X77472540Y-5295260D02*
X85590380Y-5295260D01*
D22*
X85590380Y-7795260D02*
X85625940Y-7759700D01*
D23*
X77472540Y-7795260D02*
X85590380Y-7795260D01*
X89294280Y-13888720D02*
X96372680Y-13888720D01*
X88219280Y-13888720D02*
X89294280Y-13888720D01*
X88183720Y-13924280D02*
X88219280Y-13888720D01*
X80243680Y-13924280D02*
X88183720Y-13924280D01*
X72727820Y-13924280D02*
X72702420Y-13898880D01*
X80243680Y-13924280D02*
X72727820Y-13924280D01*
X89494280Y-16622400D02*
X96372680Y-16622400D01*
X88219280Y-16622400D02*
X89494280Y-16622400D01*
X80279240Y-16622400D02*
X80243680Y-16657960D01*
X88219280Y-16622400D02*
X80279240Y-16622400D01*
X72727820Y-16657960D02*
X72702420Y-16632560D01*
X80243680Y-16657960D02*
X72727820Y-16657960D01*
X88219280Y-19122400D02*
X96372680Y-19122400D01*
X88183720Y-19157960D02*
X88219280Y-19122400D01*
X80243680Y-19157960D02*
X88183720Y-19157960D01*
X72727820Y-19157960D02*
X72702420Y-19132560D01*
X80243680Y-19157960D02*
X72727820Y-19157960D01*
M02*
