G04 #@! TF.GenerationSoftware,KiCad,Pcbnew,(5.1.2)-2*
G04 #@! TF.CreationDate,2020-01-25T22:11:55+00:00*
G04 #@! TF.ProjectId,rowing_steerting,726f7769-6e67-45f7-9374-65657274696e,rev?*
G04 #@! TF.SameCoordinates,Original*
G04 #@! TF.FileFunction,Soldermask,Bot*
G04 #@! TF.FilePolarity,Negative*
%FSLAX46Y46*%
G04 Gerber Fmt 4.6, Leading zero omitted, Abs format (unit mm)*
G04 Created by KiCad (PCBNEW (5.1.2)-2) date 2020-01-25 22:11:55*
%MOMM*%
%LPD*%
G04 APERTURE LIST*
%ADD10C,0.100000*%
G04 APERTURE END LIST*
D10*
G36*
X53628374Y-16766038D02*
G01*
X54001631Y-16920646D01*
X54001633Y-16920647D01*
X54337556Y-17145104D01*
X54623236Y-17430784D01*
X54796849Y-17690613D01*
X54847694Y-17766709D01*
X55002302Y-18139966D01*
X55081120Y-18536213D01*
X55081120Y-18940227D01*
X55002302Y-19336474D01*
X54867900Y-19660949D01*
X54847693Y-19709733D01*
X54623236Y-20045656D01*
X54337556Y-20331336D01*
X54001633Y-20555793D01*
X54001632Y-20555794D01*
X54001631Y-20555794D01*
X53628374Y-20710402D01*
X53232127Y-20789220D01*
X52828113Y-20789220D01*
X52431866Y-20710402D01*
X52058609Y-20555794D01*
X52058608Y-20555794D01*
X52058607Y-20555793D01*
X51722684Y-20331336D01*
X51437004Y-20045656D01*
X51212547Y-19709733D01*
X51192340Y-19660949D01*
X51057938Y-19336474D01*
X50979120Y-18940227D01*
X50979120Y-18536213D01*
X51057938Y-18139966D01*
X51212546Y-17766709D01*
X51263392Y-17690613D01*
X51437004Y-17430784D01*
X51722684Y-17145104D01*
X52058607Y-16920647D01*
X52058609Y-16920646D01*
X52431866Y-16766038D01*
X52828113Y-16687220D01*
X53232127Y-16687220D01*
X53628374Y-16766038D01*
X53628374Y-16766038D01*
G37*
G36*
X65473034Y-16587598D02*
G01*
X65846291Y-16742206D01*
X65846293Y-16742207D01*
X66182216Y-16966664D01*
X66467896Y-17252344D01*
X66672771Y-17558960D01*
X66692354Y-17588269D01*
X66846962Y-17961526D01*
X66925780Y-18357773D01*
X66925780Y-18761787D01*
X66846962Y-19158034D01*
X66715444Y-19475547D01*
X66692353Y-19531293D01*
X66467896Y-19867216D01*
X66182216Y-20152896D01*
X65846293Y-20377353D01*
X65846292Y-20377354D01*
X65846291Y-20377354D01*
X65473034Y-20531962D01*
X65076787Y-20610780D01*
X64672773Y-20610780D01*
X64276526Y-20531962D01*
X63903269Y-20377354D01*
X63903268Y-20377354D01*
X63903267Y-20377353D01*
X63567344Y-20152896D01*
X63281664Y-19867216D01*
X63057207Y-19531293D01*
X63034116Y-19475547D01*
X62902598Y-19158034D01*
X62823780Y-18761787D01*
X62823780Y-18357773D01*
X62902598Y-17961526D01*
X63057206Y-17588269D01*
X63076790Y-17558960D01*
X63281664Y-17252344D01*
X63567344Y-16966664D01*
X63903267Y-16742207D01*
X63903269Y-16742206D01*
X64276526Y-16587598D01*
X64672773Y-16508780D01*
X65076787Y-16508780D01*
X65473034Y-16587598D01*
X65473034Y-16587598D01*
G37*
G36*
X60473034Y-16587598D02*
G01*
X60846291Y-16742206D01*
X60846293Y-16742207D01*
X61182216Y-16966664D01*
X61467896Y-17252344D01*
X61672771Y-17558960D01*
X61692354Y-17588269D01*
X61846962Y-17961526D01*
X61925780Y-18357773D01*
X61925780Y-18761787D01*
X61846962Y-19158034D01*
X61715444Y-19475547D01*
X61692353Y-19531293D01*
X61467896Y-19867216D01*
X61182216Y-20152896D01*
X60846293Y-20377353D01*
X60846292Y-20377354D01*
X60846291Y-20377354D01*
X60473034Y-20531962D01*
X60076787Y-20610780D01*
X59672773Y-20610780D01*
X59276526Y-20531962D01*
X58903269Y-20377354D01*
X58903268Y-20377354D01*
X58903267Y-20377353D01*
X58567344Y-20152896D01*
X58281664Y-19867216D01*
X58057207Y-19531293D01*
X58034116Y-19475547D01*
X57902598Y-19158034D01*
X57823780Y-18761787D01*
X57823780Y-18357773D01*
X57902598Y-17961526D01*
X58057206Y-17588269D01*
X58076790Y-17558960D01*
X58281664Y-17252344D01*
X58567344Y-16966664D01*
X58903267Y-16742207D01*
X58903269Y-16742206D01*
X59276526Y-16587598D01*
X59672773Y-16508780D01*
X60076787Y-16508780D01*
X60473034Y-16587598D01*
X60473034Y-16587598D01*
G37*
G36*
X48218042Y-18404438D02*
G01*
X48284227Y-18410957D01*
X48454066Y-18462477D01*
X48610591Y-18546142D01*
X48646329Y-18575472D01*
X48747786Y-18658734D01*
X48831048Y-18760191D01*
X48860378Y-18795929D01*
X48860379Y-18795931D01*
X48937508Y-18940227D01*
X48944043Y-18952454D01*
X48995563Y-19122293D01*
X49012959Y-19298920D01*
X48995563Y-19475547D01*
X48944043Y-19645386D01*
X48860378Y-19801911D01*
X48831048Y-19837649D01*
X48747786Y-19939106D01*
X48648578Y-20020523D01*
X48610591Y-20051698D01*
X48454066Y-20135363D01*
X48284227Y-20186883D01*
X48218042Y-20193402D01*
X48151860Y-20199920D01*
X48063340Y-20199920D01*
X47997158Y-20193402D01*
X47930973Y-20186883D01*
X47761134Y-20135363D01*
X47604609Y-20051698D01*
X47566622Y-20020523D01*
X47467414Y-19939106D01*
X47384152Y-19837649D01*
X47354822Y-19801911D01*
X47271157Y-19645386D01*
X47219637Y-19475547D01*
X47202241Y-19298920D01*
X47219637Y-19122293D01*
X47271157Y-18952454D01*
X47277693Y-18940227D01*
X47354821Y-18795931D01*
X47354822Y-18795929D01*
X47384152Y-18760191D01*
X47467414Y-18658734D01*
X47568871Y-18575472D01*
X47604609Y-18546142D01*
X47761134Y-18462477D01*
X47930973Y-18410957D01*
X47997158Y-18404438D01*
X48063340Y-18397920D01*
X48151860Y-18397920D01*
X48218042Y-18404438D01*
X48218042Y-18404438D01*
G37*
G36*
X80479123Y-18263479D02*
G01*
X80545307Y-18269997D01*
X80715146Y-18321517D01*
X80871671Y-18405182D01*
X80907409Y-18434512D01*
X81008866Y-18517774D01*
X81092128Y-18619231D01*
X81121458Y-18654969D01*
X81205123Y-18811494D01*
X81256643Y-18981333D01*
X81274039Y-19157960D01*
X81256643Y-19334587D01*
X81205123Y-19504426D01*
X81121458Y-19660951D01*
X81092128Y-19696689D01*
X81008866Y-19798146D01*
X80907409Y-19881408D01*
X80871671Y-19910738D01*
X80715146Y-19994403D01*
X80545307Y-20045923D01*
X80486661Y-20051699D01*
X80412940Y-20058960D01*
X80074420Y-20058960D01*
X80000699Y-20051699D01*
X79942053Y-20045923D01*
X79772214Y-19994403D01*
X79615689Y-19910738D01*
X79579951Y-19881408D01*
X79478494Y-19798146D01*
X79395232Y-19696689D01*
X79365902Y-19660951D01*
X79282237Y-19504426D01*
X79230717Y-19334587D01*
X79213321Y-19157960D01*
X79230717Y-18981333D01*
X79282237Y-18811494D01*
X79365902Y-18654969D01*
X79395232Y-18619231D01*
X79478494Y-18517774D01*
X79579951Y-18434512D01*
X79615689Y-18405182D01*
X79772214Y-18321517D01*
X79942053Y-18269997D01*
X80008237Y-18263479D01*
X80074420Y-18256960D01*
X80412940Y-18256960D01*
X80479123Y-18263479D01*
X80479123Y-18263479D01*
G37*
G36*
X72937862Y-18238078D02*
G01*
X73004047Y-18244597D01*
X73173886Y-18296117D01*
X73330411Y-18379782D01*
X73361361Y-18405182D01*
X73467606Y-18492374D01*
X73550868Y-18593831D01*
X73580198Y-18629569D01*
X73663863Y-18786094D01*
X73715383Y-18955933D01*
X73732779Y-19132560D01*
X73715383Y-19309187D01*
X73697546Y-19367987D01*
X73663862Y-19479028D01*
X73622030Y-19557289D01*
X73580198Y-19635551D01*
X73550868Y-19671289D01*
X73467606Y-19772746D01*
X73366149Y-19856008D01*
X73330411Y-19885338D01*
X73173886Y-19969003D01*
X73004047Y-20020523D01*
X72937863Y-20027041D01*
X72871680Y-20033560D01*
X72533160Y-20033560D01*
X72466978Y-20027042D01*
X72400793Y-20020523D01*
X72230954Y-19969003D01*
X72074429Y-19885338D01*
X72038691Y-19856008D01*
X71937234Y-19772746D01*
X71853972Y-19671289D01*
X71824642Y-19635551D01*
X71782809Y-19557288D01*
X71740978Y-19479028D01*
X71707294Y-19367987D01*
X71689457Y-19309187D01*
X71672061Y-19132560D01*
X71689457Y-18955933D01*
X71740977Y-18786094D01*
X71824642Y-18629569D01*
X71853972Y-18593831D01*
X71937234Y-18492374D01*
X72043479Y-18405182D01*
X72074429Y-18379782D01*
X72230954Y-18296117D01*
X72400793Y-18244597D01*
X72466978Y-18238078D01*
X72533160Y-18231560D01*
X72871680Y-18231560D01*
X72937862Y-18238078D01*
X72937862Y-18238078D01*
G37*
G36*
X96608122Y-18227918D02*
G01*
X96674307Y-18234437D01*
X96844146Y-18285957D01*
X97000671Y-18369622D01*
X97035152Y-18397920D01*
X97137866Y-18482214D01*
X97221128Y-18583671D01*
X97250458Y-18619409D01*
X97334123Y-18775934D01*
X97385643Y-18945773D01*
X97403039Y-19122400D01*
X97385643Y-19299027D01*
X97334123Y-19468866D01*
X97250458Y-19625391D01*
X97221276Y-19660949D01*
X97137866Y-19762586D01*
X97036409Y-19845848D01*
X97000671Y-19875178D01*
X96844146Y-19958843D01*
X96674307Y-20010363D01*
X96608122Y-20016882D01*
X96541940Y-20023400D01*
X96203420Y-20023400D01*
X96137238Y-20016882D01*
X96071053Y-20010363D01*
X95901214Y-19958843D01*
X95744689Y-19875178D01*
X95708951Y-19845848D01*
X95607494Y-19762586D01*
X95524084Y-19660949D01*
X95494902Y-19625391D01*
X95411237Y-19468866D01*
X95359717Y-19299027D01*
X95342321Y-19122400D01*
X95359717Y-18945773D01*
X95411237Y-18775934D01*
X95494902Y-18619409D01*
X95524232Y-18583671D01*
X95607494Y-18482214D01*
X95710208Y-18397920D01*
X95744689Y-18369622D01*
X95901214Y-18285957D01*
X96071053Y-18234437D01*
X96137238Y-18227918D01*
X96203420Y-18221400D01*
X96541940Y-18221400D01*
X96608122Y-18227918D01*
X96608122Y-18227918D01*
G37*
G36*
X88454722Y-18227918D02*
G01*
X88520907Y-18234437D01*
X88690746Y-18285957D01*
X88847271Y-18369622D01*
X88881752Y-18397920D01*
X88984466Y-18482214D01*
X89067728Y-18583671D01*
X89097058Y-18619409D01*
X89180723Y-18775934D01*
X89232243Y-18945773D01*
X89249639Y-19122400D01*
X89232243Y-19299027D01*
X89180723Y-19468866D01*
X89097058Y-19625391D01*
X89067876Y-19660949D01*
X88984466Y-19762586D01*
X88883009Y-19845848D01*
X88847271Y-19875178D01*
X88690746Y-19958843D01*
X88520907Y-20010363D01*
X88454722Y-20016882D01*
X88388540Y-20023400D01*
X88050020Y-20023400D01*
X87983838Y-20016882D01*
X87917653Y-20010363D01*
X87747814Y-19958843D01*
X87591289Y-19875178D01*
X87555551Y-19845848D01*
X87454094Y-19762586D01*
X87370684Y-19660949D01*
X87341502Y-19625391D01*
X87257837Y-19468866D01*
X87206317Y-19299027D01*
X87188921Y-19122400D01*
X87206317Y-18945773D01*
X87257837Y-18775934D01*
X87341502Y-18619409D01*
X87370832Y-18583671D01*
X87454094Y-18482214D01*
X87556808Y-18397920D01*
X87591289Y-18369622D01*
X87747814Y-18285957D01*
X87917653Y-18234437D01*
X87983838Y-18227918D01*
X88050020Y-18221400D01*
X88388540Y-18221400D01*
X88454722Y-18227918D01*
X88454722Y-18227918D01*
G37*
G36*
X33626243Y-17690613D02*
G01*
X33786662Y-17739276D01*
X33837985Y-17766709D01*
X33934498Y-17818296D01*
X34064079Y-17924641D01*
X34170424Y-18054222D01*
X34170425Y-18054224D01*
X34249444Y-18202058D01*
X34298107Y-18362477D01*
X34314537Y-18529300D01*
X34298107Y-18696123D01*
X34249444Y-18856542D01*
X34204714Y-18940226D01*
X34170424Y-19004378D01*
X34064079Y-19133959D01*
X33934498Y-19240304D01*
X33934496Y-19240305D01*
X33786662Y-19319324D01*
X33626243Y-19367987D01*
X33501224Y-19380300D01*
X33417616Y-19380300D01*
X33292597Y-19367987D01*
X33132178Y-19319324D01*
X32984344Y-19240305D01*
X32984342Y-19240304D01*
X32854761Y-19133959D01*
X32748416Y-19004378D01*
X32714126Y-18940226D01*
X32669396Y-18856542D01*
X32620733Y-18696123D01*
X32604303Y-18529300D01*
X32620733Y-18362477D01*
X32669396Y-18202058D01*
X32748415Y-18054224D01*
X32748416Y-18054222D01*
X32854761Y-17924641D01*
X32984342Y-17818296D01*
X33080855Y-17766709D01*
X33132178Y-17739276D01*
X33292597Y-17690613D01*
X33417616Y-17678300D01*
X33501224Y-17678300D01*
X33626243Y-17690613D01*
X33626243Y-17690613D01*
G37*
G36*
X5686243Y-17690613D02*
G01*
X5846662Y-17739276D01*
X5897985Y-17766709D01*
X5994498Y-17818296D01*
X6124079Y-17924641D01*
X6230424Y-18054222D01*
X6230425Y-18054224D01*
X6309444Y-18202058D01*
X6358107Y-18362477D01*
X6374537Y-18529300D01*
X6358107Y-18696123D01*
X6309444Y-18856542D01*
X6264714Y-18940226D01*
X6230424Y-19004378D01*
X6124079Y-19133959D01*
X5994498Y-19240304D01*
X5994496Y-19240305D01*
X5846662Y-19319324D01*
X5686243Y-19367987D01*
X5561224Y-19380300D01*
X5477616Y-19380300D01*
X5352597Y-19367987D01*
X5192178Y-19319324D01*
X5044344Y-19240305D01*
X5044342Y-19240304D01*
X4914761Y-19133959D01*
X4808416Y-19004378D01*
X4774126Y-18940226D01*
X4729396Y-18856542D01*
X4680733Y-18696123D01*
X4664303Y-18529300D01*
X4680733Y-18362477D01*
X4729396Y-18202058D01*
X4808415Y-18054224D01*
X4808416Y-18054222D01*
X4914761Y-17924641D01*
X5044342Y-17818296D01*
X5140855Y-17766709D01*
X5192178Y-17739276D01*
X5352597Y-17690613D01*
X5477616Y-17678300D01*
X5561224Y-17678300D01*
X5686243Y-17690613D01*
X5686243Y-17690613D01*
G37*
G36*
X41246243Y-17690613D02*
G01*
X41406662Y-17739276D01*
X41457985Y-17766709D01*
X41554498Y-17818296D01*
X41684079Y-17924641D01*
X41790424Y-18054222D01*
X41790425Y-18054224D01*
X41869444Y-18202058D01*
X41918107Y-18362477D01*
X41934537Y-18529300D01*
X41918107Y-18696123D01*
X41869444Y-18856542D01*
X41824714Y-18940226D01*
X41790424Y-19004378D01*
X41684079Y-19133959D01*
X41554498Y-19240304D01*
X41554496Y-19240305D01*
X41406662Y-19319324D01*
X41246243Y-19367987D01*
X41121224Y-19380300D01*
X41037616Y-19380300D01*
X40912597Y-19367987D01*
X40752178Y-19319324D01*
X40604344Y-19240305D01*
X40604342Y-19240304D01*
X40474761Y-19133959D01*
X40368416Y-19004378D01*
X40334126Y-18940226D01*
X40289396Y-18856542D01*
X40240733Y-18696123D01*
X40224303Y-18529300D01*
X40240733Y-18362477D01*
X40289396Y-18202058D01*
X40368415Y-18054224D01*
X40368416Y-18054222D01*
X40474761Y-17924641D01*
X40604342Y-17818296D01*
X40700855Y-17766709D01*
X40752178Y-17739276D01*
X40912597Y-17690613D01*
X41037616Y-17678300D01*
X41121224Y-17678300D01*
X41246243Y-17690613D01*
X41246243Y-17690613D01*
G37*
G36*
X38706243Y-17690613D02*
G01*
X38866662Y-17739276D01*
X38917985Y-17766709D01*
X39014498Y-17818296D01*
X39144079Y-17924641D01*
X39250424Y-18054222D01*
X39250425Y-18054224D01*
X39329444Y-18202058D01*
X39378107Y-18362477D01*
X39394537Y-18529300D01*
X39378107Y-18696123D01*
X39329444Y-18856542D01*
X39284714Y-18940226D01*
X39250424Y-19004378D01*
X39144079Y-19133959D01*
X39014498Y-19240304D01*
X39014496Y-19240305D01*
X38866662Y-19319324D01*
X38706243Y-19367987D01*
X38581224Y-19380300D01*
X38497616Y-19380300D01*
X38372597Y-19367987D01*
X38212178Y-19319324D01*
X38064344Y-19240305D01*
X38064342Y-19240304D01*
X37934761Y-19133959D01*
X37828416Y-19004378D01*
X37794126Y-18940226D01*
X37749396Y-18856542D01*
X37700733Y-18696123D01*
X37684303Y-18529300D01*
X37700733Y-18362477D01*
X37749396Y-18202058D01*
X37828415Y-18054224D01*
X37828416Y-18054222D01*
X37934761Y-17924641D01*
X38064342Y-17818296D01*
X38160855Y-17766709D01*
X38212178Y-17739276D01*
X38372597Y-17690613D01*
X38497616Y-17678300D01*
X38581224Y-17678300D01*
X38706243Y-17690613D01*
X38706243Y-17690613D01*
G37*
G36*
X36166243Y-17690613D02*
G01*
X36326662Y-17739276D01*
X36377985Y-17766709D01*
X36474498Y-17818296D01*
X36604079Y-17924641D01*
X36710424Y-18054222D01*
X36710425Y-18054224D01*
X36789444Y-18202058D01*
X36838107Y-18362477D01*
X36854537Y-18529300D01*
X36838107Y-18696123D01*
X36789444Y-18856542D01*
X36744714Y-18940226D01*
X36710424Y-19004378D01*
X36604079Y-19133959D01*
X36474498Y-19240304D01*
X36474496Y-19240305D01*
X36326662Y-19319324D01*
X36166243Y-19367987D01*
X36041224Y-19380300D01*
X35957616Y-19380300D01*
X35832597Y-19367987D01*
X35672178Y-19319324D01*
X35524344Y-19240305D01*
X35524342Y-19240304D01*
X35394761Y-19133959D01*
X35288416Y-19004378D01*
X35254126Y-18940226D01*
X35209396Y-18856542D01*
X35160733Y-18696123D01*
X35144303Y-18529300D01*
X35160733Y-18362477D01*
X35209396Y-18202058D01*
X35288415Y-18054224D01*
X35288416Y-18054222D01*
X35394761Y-17924641D01*
X35524342Y-17818296D01*
X35620855Y-17766709D01*
X35672178Y-17739276D01*
X35832597Y-17690613D01*
X35957616Y-17678300D01*
X36041224Y-17678300D01*
X36166243Y-17690613D01*
X36166243Y-17690613D01*
G37*
G36*
X31086243Y-17690613D02*
G01*
X31246662Y-17739276D01*
X31297985Y-17766709D01*
X31394498Y-17818296D01*
X31524079Y-17924641D01*
X31630424Y-18054222D01*
X31630425Y-18054224D01*
X31709444Y-18202058D01*
X31758107Y-18362477D01*
X31774537Y-18529300D01*
X31758107Y-18696123D01*
X31709444Y-18856542D01*
X31664714Y-18940226D01*
X31630424Y-19004378D01*
X31524079Y-19133959D01*
X31394498Y-19240304D01*
X31394496Y-19240305D01*
X31246662Y-19319324D01*
X31086243Y-19367987D01*
X30961224Y-19380300D01*
X30877616Y-19380300D01*
X30752597Y-19367987D01*
X30592178Y-19319324D01*
X30444344Y-19240305D01*
X30444342Y-19240304D01*
X30314761Y-19133959D01*
X30208416Y-19004378D01*
X30174126Y-18940226D01*
X30129396Y-18856542D01*
X30080733Y-18696123D01*
X30064303Y-18529300D01*
X30080733Y-18362477D01*
X30129396Y-18202058D01*
X30208415Y-18054224D01*
X30208416Y-18054222D01*
X30314761Y-17924641D01*
X30444342Y-17818296D01*
X30540855Y-17766709D01*
X30592178Y-17739276D01*
X30752597Y-17690613D01*
X30877616Y-17678300D01*
X30961224Y-17678300D01*
X31086243Y-17690613D01*
X31086243Y-17690613D01*
G37*
G36*
X28546243Y-17690613D02*
G01*
X28706662Y-17739276D01*
X28757985Y-17766709D01*
X28854498Y-17818296D01*
X28984079Y-17924641D01*
X29090424Y-18054222D01*
X29090425Y-18054224D01*
X29169444Y-18202058D01*
X29218107Y-18362477D01*
X29234537Y-18529300D01*
X29218107Y-18696123D01*
X29169444Y-18856542D01*
X29124714Y-18940226D01*
X29090424Y-19004378D01*
X28984079Y-19133959D01*
X28854498Y-19240304D01*
X28854496Y-19240305D01*
X28706662Y-19319324D01*
X28546243Y-19367987D01*
X28421224Y-19380300D01*
X28337616Y-19380300D01*
X28212597Y-19367987D01*
X28052178Y-19319324D01*
X27904344Y-19240305D01*
X27904342Y-19240304D01*
X27774761Y-19133959D01*
X27668416Y-19004378D01*
X27634126Y-18940226D01*
X27589396Y-18856542D01*
X27540733Y-18696123D01*
X27524303Y-18529300D01*
X27540733Y-18362477D01*
X27589396Y-18202058D01*
X27668415Y-18054224D01*
X27668416Y-18054222D01*
X27774761Y-17924641D01*
X27904342Y-17818296D01*
X28000855Y-17766709D01*
X28052178Y-17739276D01*
X28212597Y-17690613D01*
X28337616Y-17678300D01*
X28421224Y-17678300D01*
X28546243Y-17690613D01*
X28546243Y-17690613D01*
G37*
G36*
X23466243Y-17690613D02*
G01*
X23626662Y-17739276D01*
X23677985Y-17766709D01*
X23774498Y-17818296D01*
X23904079Y-17924641D01*
X24010424Y-18054222D01*
X24010425Y-18054224D01*
X24089444Y-18202058D01*
X24138107Y-18362477D01*
X24154537Y-18529300D01*
X24138107Y-18696123D01*
X24089444Y-18856542D01*
X24044714Y-18940226D01*
X24010424Y-19004378D01*
X23904079Y-19133959D01*
X23774498Y-19240304D01*
X23774496Y-19240305D01*
X23626662Y-19319324D01*
X23466243Y-19367987D01*
X23341224Y-19380300D01*
X23257616Y-19380300D01*
X23132597Y-19367987D01*
X22972178Y-19319324D01*
X22824344Y-19240305D01*
X22824342Y-19240304D01*
X22694761Y-19133959D01*
X22588416Y-19004378D01*
X22554126Y-18940226D01*
X22509396Y-18856542D01*
X22460733Y-18696123D01*
X22444303Y-18529300D01*
X22460733Y-18362477D01*
X22509396Y-18202058D01*
X22588415Y-18054224D01*
X22588416Y-18054222D01*
X22694761Y-17924641D01*
X22824342Y-17818296D01*
X22920855Y-17766709D01*
X22972178Y-17739276D01*
X23132597Y-17690613D01*
X23257616Y-17678300D01*
X23341224Y-17678300D01*
X23466243Y-17690613D01*
X23466243Y-17690613D01*
G37*
G36*
X20926243Y-17690613D02*
G01*
X21086662Y-17739276D01*
X21137985Y-17766709D01*
X21234498Y-17818296D01*
X21364079Y-17924641D01*
X21470424Y-18054222D01*
X21470425Y-18054224D01*
X21549444Y-18202058D01*
X21598107Y-18362477D01*
X21614537Y-18529300D01*
X21598107Y-18696123D01*
X21549444Y-18856542D01*
X21504714Y-18940226D01*
X21470424Y-19004378D01*
X21364079Y-19133959D01*
X21234498Y-19240304D01*
X21234496Y-19240305D01*
X21086662Y-19319324D01*
X20926243Y-19367987D01*
X20801224Y-19380300D01*
X20717616Y-19380300D01*
X20592597Y-19367987D01*
X20432178Y-19319324D01*
X20284344Y-19240305D01*
X20284342Y-19240304D01*
X20154761Y-19133959D01*
X20048416Y-19004378D01*
X20014126Y-18940226D01*
X19969396Y-18856542D01*
X19920733Y-18696123D01*
X19904303Y-18529300D01*
X19920733Y-18362477D01*
X19969396Y-18202058D01*
X20048415Y-18054224D01*
X20048416Y-18054222D01*
X20154761Y-17924641D01*
X20284342Y-17818296D01*
X20380855Y-17766709D01*
X20432178Y-17739276D01*
X20592597Y-17690613D01*
X20717616Y-17678300D01*
X20801224Y-17678300D01*
X20926243Y-17690613D01*
X20926243Y-17690613D01*
G37*
G36*
X18386243Y-17690613D02*
G01*
X18546662Y-17739276D01*
X18597985Y-17766709D01*
X18694498Y-17818296D01*
X18824079Y-17924641D01*
X18930424Y-18054222D01*
X18930425Y-18054224D01*
X19009444Y-18202058D01*
X19058107Y-18362477D01*
X19074537Y-18529300D01*
X19058107Y-18696123D01*
X19009444Y-18856542D01*
X18964714Y-18940226D01*
X18930424Y-19004378D01*
X18824079Y-19133959D01*
X18694498Y-19240304D01*
X18694496Y-19240305D01*
X18546662Y-19319324D01*
X18386243Y-19367987D01*
X18261224Y-19380300D01*
X18177616Y-19380300D01*
X18052597Y-19367987D01*
X17892178Y-19319324D01*
X17744344Y-19240305D01*
X17744342Y-19240304D01*
X17614761Y-19133959D01*
X17508416Y-19004378D01*
X17474126Y-18940226D01*
X17429396Y-18856542D01*
X17380733Y-18696123D01*
X17364303Y-18529300D01*
X17380733Y-18362477D01*
X17429396Y-18202058D01*
X17508415Y-18054224D01*
X17508416Y-18054222D01*
X17614761Y-17924641D01*
X17744342Y-17818296D01*
X17840855Y-17766709D01*
X17892178Y-17739276D01*
X18052597Y-17690613D01*
X18177616Y-17678300D01*
X18261224Y-17678300D01*
X18386243Y-17690613D01*
X18386243Y-17690613D01*
G37*
G36*
X15846243Y-17690613D02*
G01*
X16006662Y-17739276D01*
X16057985Y-17766709D01*
X16154498Y-17818296D01*
X16284079Y-17924641D01*
X16390424Y-18054222D01*
X16390425Y-18054224D01*
X16469444Y-18202058D01*
X16518107Y-18362477D01*
X16534537Y-18529300D01*
X16518107Y-18696123D01*
X16469444Y-18856542D01*
X16424714Y-18940226D01*
X16390424Y-19004378D01*
X16284079Y-19133959D01*
X16154498Y-19240304D01*
X16154496Y-19240305D01*
X16006662Y-19319324D01*
X15846243Y-19367987D01*
X15721224Y-19380300D01*
X15637616Y-19380300D01*
X15512597Y-19367987D01*
X15352178Y-19319324D01*
X15204344Y-19240305D01*
X15204342Y-19240304D01*
X15074761Y-19133959D01*
X14968416Y-19004378D01*
X14934126Y-18940226D01*
X14889396Y-18856542D01*
X14840733Y-18696123D01*
X14824303Y-18529300D01*
X14840733Y-18362477D01*
X14889396Y-18202058D01*
X14968415Y-18054224D01*
X14968416Y-18054222D01*
X15074761Y-17924641D01*
X15204342Y-17818296D01*
X15300855Y-17766709D01*
X15352178Y-17739276D01*
X15512597Y-17690613D01*
X15637616Y-17678300D01*
X15721224Y-17678300D01*
X15846243Y-17690613D01*
X15846243Y-17690613D01*
G37*
G36*
X13306243Y-17690613D02*
G01*
X13466662Y-17739276D01*
X13517985Y-17766709D01*
X13614498Y-17818296D01*
X13744079Y-17924641D01*
X13850424Y-18054222D01*
X13850425Y-18054224D01*
X13929444Y-18202058D01*
X13978107Y-18362477D01*
X13994537Y-18529300D01*
X13978107Y-18696123D01*
X13929444Y-18856542D01*
X13884714Y-18940226D01*
X13850424Y-19004378D01*
X13744079Y-19133959D01*
X13614498Y-19240304D01*
X13614496Y-19240305D01*
X13466662Y-19319324D01*
X13306243Y-19367987D01*
X13181224Y-19380300D01*
X13097616Y-19380300D01*
X12972597Y-19367987D01*
X12812178Y-19319324D01*
X12664344Y-19240305D01*
X12664342Y-19240304D01*
X12534761Y-19133959D01*
X12428416Y-19004378D01*
X12394126Y-18940226D01*
X12349396Y-18856542D01*
X12300733Y-18696123D01*
X12284303Y-18529300D01*
X12300733Y-18362477D01*
X12349396Y-18202058D01*
X12428415Y-18054224D01*
X12428416Y-18054222D01*
X12534761Y-17924641D01*
X12664342Y-17818296D01*
X12760855Y-17766709D01*
X12812178Y-17739276D01*
X12972597Y-17690613D01*
X13097616Y-17678300D01*
X13181224Y-17678300D01*
X13306243Y-17690613D01*
X13306243Y-17690613D01*
G37*
G36*
X10766243Y-17690613D02*
G01*
X10926662Y-17739276D01*
X10977985Y-17766709D01*
X11074498Y-17818296D01*
X11204079Y-17924641D01*
X11310424Y-18054222D01*
X11310425Y-18054224D01*
X11389444Y-18202058D01*
X11438107Y-18362477D01*
X11454537Y-18529300D01*
X11438107Y-18696123D01*
X11389444Y-18856542D01*
X11344714Y-18940226D01*
X11310424Y-19004378D01*
X11204079Y-19133959D01*
X11074498Y-19240304D01*
X11074496Y-19240305D01*
X10926662Y-19319324D01*
X10766243Y-19367987D01*
X10641224Y-19380300D01*
X10557616Y-19380300D01*
X10432597Y-19367987D01*
X10272178Y-19319324D01*
X10124344Y-19240305D01*
X10124342Y-19240304D01*
X9994761Y-19133959D01*
X9888416Y-19004378D01*
X9854126Y-18940226D01*
X9809396Y-18856542D01*
X9760733Y-18696123D01*
X9744303Y-18529300D01*
X9760733Y-18362477D01*
X9809396Y-18202058D01*
X9888415Y-18054224D01*
X9888416Y-18054222D01*
X9994761Y-17924641D01*
X10124342Y-17818296D01*
X10220855Y-17766709D01*
X10272178Y-17739276D01*
X10432597Y-17690613D01*
X10557616Y-17678300D01*
X10641224Y-17678300D01*
X10766243Y-17690613D01*
X10766243Y-17690613D01*
G37*
G36*
X8226243Y-17690613D02*
G01*
X8386662Y-17739276D01*
X8437985Y-17766709D01*
X8534498Y-17818296D01*
X8664079Y-17924641D01*
X8770424Y-18054222D01*
X8770425Y-18054224D01*
X8849444Y-18202058D01*
X8898107Y-18362477D01*
X8914537Y-18529300D01*
X8898107Y-18696123D01*
X8849444Y-18856542D01*
X8804714Y-18940226D01*
X8770424Y-19004378D01*
X8664079Y-19133959D01*
X8534498Y-19240304D01*
X8534496Y-19240305D01*
X8386662Y-19319324D01*
X8226243Y-19367987D01*
X8101224Y-19380300D01*
X8017616Y-19380300D01*
X7892597Y-19367987D01*
X7732178Y-19319324D01*
X7584344Y-19240305D01*
X7584342Y-19240304D01*
X7454761Y-19133959D01*
X7348416Y-19004378D01*
X7314126Y-18940226D01*
X7269396Y-18856542D01*
X7220733Y-18696123D01*
X7204303Y-18529300D01*
X7220733Y-18362477D01*
X7269396Y-18202058D01*
X7348415Y-18054224D01*
X7348416Y-18054222D01*
X7454761Y-17924641D01*
X7584342Y-17818296D01*
X7680855Y-17766709D01*
X7732178Y-17739276D01*
X7892597Y-17690613D01*
X8017616Y-17678300D01*
X8101224Y-17678300D01*
X8226243Y-17690613D01*
X8226243Y-17690613D01*
G37*
G36*
X26006243Y-17690613D02*
G01*
X26166662Y-17739276D01*
X26217985Y-17766709D01*
X26314498Y-17818296D01*
X26444079Y-17924641D01*
X26550424Y-18054222D01*
X26550425Y-18054224D01*
X26629444Y-18202058D01*
X26678107Y-18362477D01*
X26694537Y-18529300D01*
X26678107Y-18696123D01*
X26629444Y-18856542D01*
X26584714Y-18940226D01*
X26550424Y-19004378D01*
X26444079Y-19133959D01*
X26314498Y-19240304D01*
X26314496Y-19240305D01*
X26166662Y-19319324D01*
X26006243Y-19367987D01*
X25881224Y-19380300D01*
X25797616Y-19380300D01*
X25672597Y-19367987D01*
X25512178Y-19319324D01*
X25364344Y-19240305D01*
X25364342Y-19240304D01*
X25234761Y-19133959D01*
X25128416Y-19004378D01*
X25094126Y-18940226D01*
X25049396Y-18856542D01*
X25000733Y-18696123D01*
X24984303Y-18529300D01*
X25000733Y-18362477D01*
X25049396Y-18202058D01*
X25128415Y-18054224D01*
X25128416Y-18054222D01*
X25234761Y-17924641D01*
X25364342Y-17818296D01*
X25460855Y-17766709D01*
X25512178Y-17739276D01*
X25672597Y-17690613D01*
X25797616Y-17678300D01*
X25881224Y-17678300D01*
X26006243Y-17690613D01*
X26006243Y-17690613D01*
G37*
G36*
X49008600Y-17659920D02*
G01*
X47206600Y-17659920D01*
X47206600Y-15857920D01*
X49008600Y-15857920D01*
X49008600Y-17659920D01*
X49008600Y-17659920D01*
G37*
G36*
X80479122Y-15763478D02*
G01*
X80545307Y-15769997D01*
X80715146Y-15821517D01*
X80871671Y-15905182D01*
X80907409Y-15934512D01*
X81008866Y-16017774D01*
X81092128Y-16119231D01*
X81121458Y-16154969D01*
X81205123Y-16311494D01*
X81256643Y-16481333D01*
X81274039Y-16657960D01*
X81256643Y-16834587D01*
X81205123Y-17004426D01*
X81121458Y-17160951D01*
X81092128Y-17196689D01*
X81008866Y-17298146D01*
X80907409Y-17381408D01*
X80871671Y-17410738D01*
X80715146Y-17494403D01*
X80545307Y-17545923D01*
X80479122Y-17552442D01*
X80412940Y-17558960D01*
X80074420Y-17558960D01*
X80008238Y-17552442D01*
X79942053Y-17545923D01*
X79772214Y-17494403D01*
X79615689Y-17410738D01*
X79579951Y-17381408D01*
X79478494Y-17298146D01*
X79395232Y-17196689D01*
X79365902Y-17160951D01*
X79282237Y-17004426D01*
X79230717Y-16834587D01*
X79213321Y-16657960D01*
X79230717Y-16481333D01*
X79282237Y-16311494D01*
X79365902Y-16154969D01*
X79395232Y-16119231D01*
X79478494Y-16017774D01*
X79579951Y-15934512D01*
X79615689Y-15905182D01*
X79772214Y-15821517D01*
X79942053Y-15769997D01*
X80008238Y-15763478D01*
X80074420Y-15756960D01*
X80412940Y-15756960D01*
X80479122Y-15763478D01*
X80479122Y-15763478D01*
G37*
G36*
X72937862Y-15738078D02*
G01*
X73004047Y-15744597D01*
X73173886Y-15796117D01*
X73330411Y-15879782D01*
X73361361Y-15905182D01*
X73467606Y-15992374D01*
X73550868Y-16093831D01*
X73580198Y-16129569D01*
X73663863Y-16286094D01*
X73715383Y-16455933D01*
X73732779Y-16632560D01*
X73715383Y-16809187D01*
X73663863Y-16979026D01*
X73580198Y-17135551D01*
X73550868Y-17171289D01*
X73467606Y-17272746D01*
X73366149Y-17356008D01*
X73330411Y-17385338D01*
X73173886Y-17469003D01*
X73004047Y-17520523D01*
X72937863Y-17527041D01*
X72871680Y-17533560D01*
X72533160Y-17533560D01*
X72466977Y-17527041D01*
X72400793Y-17520523D01*
X72230954Y-17469003D01*
X72074429Y-17385338D01*
X72038691Y-17356008D01*
X71937234Y-17272746D01*
X71853972Y-17171289D01*
X71824642Y-17135551D01*
X71740977Y-16979026D01*
X71689457Y-16809187D01*
X71672061Y-16632560D01*
X71689457Y-16455933D01*
X71740977Y-16286094D01*
X71824642Y-16129569D01*
X71853972Y-16093831D01*
X71937234Y-15992374D01*
X72043479Y-15905182D01*
X72074429Y-15879782D01*
X72230954Y-15796117D01*
X72400793Y-15744597D01*
X72466978Y-15738078D01*
X72533160Y-15731560D01*
X72871680Y-15731560D01*
X72937862Y-15738078D01*
X72937862Y-15738078D01*
G37*
G36*
X96608122Y-15727918D02*
G01*
X96674307Y-15734437D01*
X96844146Y-15785957D01*
X97000671Y-15869622D01*
X97036409Y-15898952D01*
X97137866Y-15982214D01*
X97221128Y-16083671D01*
X97250458Y-16119409D01*
X97334123Y-16275934D01*
X97385643Y-16445773D01*
X97403039Y-16622400D01*
X97385643Y-16799027D01*
X97334123Y-16968866D01*
X97250458Y-17125391D01*
X97234280Y-17145104D01*
X97137866Y-17262586D01*
X97036409Y-17345848D01*
X97000671Y-17375178D01*
X96844146Y-17458843D01*
X96674307Y-17510363D01*
X96608123Y-17516881D01*
X96541940Y-17523400D01*
X96203420Y-17523400D01*
X96137237Y-17516881D01*
X96071053Y-17510363D01*
X95901214Y-17458843D01*
X95744689Y-17375178D01*
X95708951Y-17345848D01*
X95607494Y-17262586D01*
X95511080Y-17145104D01*
X95494902Y-17125391D01*
X95411237Y-16968866D01*
X95359717Y-16799027D01*
X95342321Y-16622400D01*
X95359717Y-16445773D01*
X95411237Y-16275934D01*
X95494902Y-16119409D01*
X95524232Y-16083671D01*
X95607494Y-15982214D01*
X95708951Y-15898952D01*
X95744689Y-15869622D01*
X95901214Y-15785957D01*
X96071053Y-15734437D01*
X96137238Y-15727918D01*
X96203420Y-15721400D01*
X96541940Y-15721400D01*
X96608122Y-15727918D01*
X96608122Y-15727918D01*
G37*
G36*
X88454722Y-15727918D02*
G01*
X88520907Y-15734437D01*
X88690746Y-15785957D01*
X88847271Y-15869622D01*
X88883009Y-15898952D01*
X88984466Y-15982214D01*
X89067728Y-16083671D01*
X89097058Y-16119409D01*
X89180723Y-16275934D01*
X89232243Y-16445773D01*
X89249639Y-16622400D01*
X89232243Y-16799027D01*
X89180723Y-16968866D01*
X89097058Y-17125391D01*
X89080880Y-17145104D01*
X88984466Y-17262586D01*
X88883009Y-17345848D01*
X88847271Y-17375178D01*
X88690746Y-17458843D01*
X88520907Y-17510363D01*
X88454723Y-17516881D01*
X88388540Y-17523400D01*
X88050020Y-17523400D01*
X87983837Y-17516881D01*
X87917653Y-17510363D01*
X87747814Y-17458843D01*
X87591289Y-17375178D01*
X87555551Y-17345848D01*
X87454094Y-17262586D01*
X87357680Y-17145104D01*
X87341502Y-17125391D01*
X87257837Y-16968866D01*
X87206317Y-16799027D01*
X87188921Y-16622400D01*
X87206317Y-16445773D01*
X87257837Y-16275934D01*
X87341502Y-16119409D01*
X87370832Y-16083671D01*
X87454094Y-15982214D01*
X87555551Y-15898952D01*
X87591289Y-15869622D01*
X87747814Y-15785957D01*
X87917653Y-15734437D01*
X87983838Y-15727918D01*
X88050020Y-15721400D01*
X88388540Y-15721400D01*
X88454722Y-15727918D01*
X88454722Y-15727918D01*
G37*
G36*
X53628374Y-11766038D02*
G01*
X54001631Y-11920646D01*
X54001633Y-11920647D01*
X54337556Y-12145104D01*
X54623236Y-12430784D01*
X54843924Y-12761066D01*
X54847694Y-12766709D01*
X55002302Y-13139966D01*
X55081120Y-13536213D01*
X55081120Y-13940227D01*
X55002302Y-14336474D01*
X54847694Y-14709731D01*
X54847693Y-14709733D01*
X54623236Y-15045656D01*
X54337556Y-15331336D01*
X54001633Y-15555793D01*
X54001632Y-15555794D01*
X54001631Y-15555794D01*
X53628374Y-15710402D01*
X53232127Y-15789220D01*
X52828113Y-15789220D01*
X52431866Y-15710402D01*
X52058609Y-15555794D01*
X52058608Y-15555794D01*
X52058607Y-15555793D01*
X51722684Y-15331336D01*
X51437004Y-15045656D01*
X51212547Y-14709733D01*
X51212546Y-14709731D01*
X51057938Y-14336474D01*
X50979120Y-13940227D01*
X50979120Y-13536213D01*
X51057938Y-13139966D01*
X51212546Y-12766709D01*
X51216317Y-12761066D01*
X51437004Y-12430784D01*
X51722684Y-12145104D01*
X52058607Y-11920647D01*
X52058609Y-11920646D01*
X52431866Y-11766038D01*
X52828113Y-11687220D01*
X53232127Y-11687220D01*
X53628374Y-11766038D01*
X53628374Y-11766038D01*
G37*
G36*
X81127280Y-13260949D02*
G01*
X81160332Y-13270975D01*
X81190783Y-13287252D01*
X81217479Y-13309161D01*
X81239388Y-13335857D01*
X81255665Y-13366308D01*
X81265691Y-13399360D01*
X81269680Y-13439863D01*
X81269680Y-14876057D01*
X81265691Y-14916560D01*
X81255665Y-14949612D01*
X81239388Y-14980063D01*
X81217479Y-15006759D01*
X81190783Y-15028668D01*
X81160332Y-15044945D01*
X81127280Y-15054971D01*
X81086777Y-15058960D01*
X79400583Y-15058960D01*
X79360080Y-15054971D01*
X79327028Y-15044945D01*
X79296577Y-15028668D01*
X79269881Y-15006759D01*
X79247972Y-14980063D01*
X79231695Y-14949612D01*
X79221669Y-14916560D01*
X79217680Y-14876057D01*
X79217680Y-13439863D01*
X79221669Y-13399360D01*
X79231695Y-13366308D01*
X79247972Y-13335857D01*
X79269881Y-13309161D01*
X79296577Y-13287252D01*
X79327028Y-13270975D01*
X79360080Y-13260949D01*
X79400583Y-13256960D01*
X81086777Y-13256960D01*
X81127280Y-13260949D01*
X81127280Y-13260949D01*
G37*
G36*
X73586020Y-13235549D02*
G01*
X73619072Y-13245575D01*
X73649523Y-13261852D01*
X73676219Y-13283761D01*
X73698128Y-13310457D01*
X73714405Y-13340908D01*
X73724431Y-13373960D01*
X73728420Y-13414463D01*
X73728420Y-14850657D01*
X73724431Y-14891160D01*
X73714405Y-14924212D01*
X73698128Y-14954663D01*
X73676219Y-14981359D01*
X73649523Y-15003268D01*
X73619072Y-15019545D01*
X73586020Y-15029571D01*
X73545517Y-15033560D01*
X71859323Y-15033560D01*
X71818820Y-15029571D01*
X71785768Y-15019545D01*
X71755317Y-15003268D01*
X71728621Y-14981359D01*
X71706712Y-14954663D01*
X71690435Y-14924212D01*
X71680409Y-14891160D01*
X71676420Y-14850657D01*
X71676420Y-13414463D01*
X71680409Y-13373960D01*
X71690435Y-13340908D01*
X71706712Y-13310457D01*
X71728621Y-13283761D01*
X71755317Y-13261852D01*
X71785768Y-13245575D01*
X71818820Y-13235549D01*
X71859323Y-13231560D01*
X73545517Y-13231560D01*
X73586020Y-13235549D01*
X73586020Y-13235549D01*
G37*
G36*
X97256280Y-13225389D02*
G01*
X97289332Y-13235415D01*
X97319783Y-13251692D01*
X97346479Y-13273601D01*
X97368388Y-13300297D01*
X97384665Y-13330748D01*
X97394691Y-13363800D01*
X97398680Y-13404303D01*
X97398680Y-14840497D01*
X97394691Y-14881000D01*
X97384665Y-14914052D01*
X97368388Y-14944503D01*
X97346479Y-14971199D01*
X97319783Y-14993108D01*
X97289332Y-15009385D01*
X97256280Y-15019411D01*
X97215777Y-15023400D01*
X95529583Y-15023400D01*
X95489080Y-15019411D01*
X95456028Y-15009385D01*
X95425577Y-14993108D01*
X95398881Y-14971199D01*
X95376972Y-14944503D01*
X95360695Y-14914052D01*
X95350669Y-14881000D01*
X95346680Y-14840497D01*
X95346680Y-13404303D01*
X95350669Y-13363800D01*
X95360695Y-13330748D01*
X95376972Y-13300297D01*
X95398881Y-13273601D01*
X95425577Y-13251692D01*
X95456028Y-13235415D01*
X95489080Y-13225389D01*
X95529583Y-13221400D01*
X97215777Y-13221400D01*
X97256280Y-13225389D01*
X97256280Y-13225389D01*
G37*
G36*
X89102880Y-13225389D02*
G01*
X89135932Y-13235415D01*
X89166383Y-13251692D01*
X89193079Y-13273601D01*
X89214988Y-13300297D01*
X89231265Y-13330748D01*
X89241291Y-13363800D01*
X89245280Y-13404303D01*
X89245280Y-14840497D01*
X89241291Y-14881000D01*
X89231265Y-14914052D01*
X89214988Y-14944503D01*
X89193079Y-14971199D01*
X89166383Y-14993108D01*
X89135932Y-15009385D01*
X89102880Y-15019411D01*
X89062377Y-15023400D01*
X87376183Y-15023400D01*
X87335680Y-15019411D01*
X87302628Y-15009385D01*
X87272177Y-14993108D01*
X87245481Y-14971199D01*
X87223572Y-14944503D01*
X87207295Y-14914052D01*
X87197269Y-14881000D01*
X87193280Y-14840497D01*
X87193280Y-13404303D01*
X87197269Y-13363800D01*
X87207295Y-13330748D01*
X87223572Y-13300297D01*
X87245481Y-13273601D01*
X87272177Y-13251692D01*
X87302628Y-13235415D01*
X87335680Y-13225389D01*
X87376183Y-13221400D01*
X89062377Y-13221400D01*
X89102880Y-13225389D01*
X89102880Y-13225389D01*
G37*
G36*
X48218043Y-11226399D02*
G01*
X48284227Y-11232917D01*
X48454066Y-11284437D01*
X48610591Y-11368102D01*
X48646329Y-11397432D01*
X48747786Y-11480694D01*
X48831048Y-11582151D01*
X48860378Y-11617889D01*
X48944043Y-11774414D01*
X48995563Y-11944253D01*
X49012959Y-12120880D01*
X48995563Y-12297507D01*
X48944043Y-12467346D01*
X48860378Y-12623871D01*
X48831048Y-12659609D01*
X48747786Y-12761066D01*
X48646329Y-12844328D01*
X48610591Y-12873658D01*
X48454066Y-12957323D01*
X48284227Y-13008843D01*
X48218043Y-13015361D01*
X48151860Y-13021880D01*
X48063340Y-13021880D01*
X47997158Y-13015362D01*
X47930973Y-13008843D01*
X47761134Y-12957323D01*
X47604609Y-12873658D01*
X47568871Y-12844328D01*
X47467414Y-12761066D01*
X47384152Y-12659609D01*
X47354822Y-12623871D01*
X47271157Y-12467346D01*
X47219637Y-12297507D01*
X47202241Y-12120880D01*
X47219637Y-11944253D01*
X47271157Y-11774414D01*
X47354822Y-11617889D01*
X47384152Y-11582151D01*
X47467414Y-11480694D01*
X47568871Y-11397432D01*
X47604609Y-11368102D01*
X47761134Y-11284437D01*
X47930973Y-11232917D01*
X47997157Y-11226399D01*
X48063340Y-11219880D01*
X48151860Y-11219880D01*
X48218043Y-11226399D01*
X48218043Y-11226399D01*
G37*
G36*
X60191094Y-8639938D02*
G01*
X60504973Y-8769951D01*
X60564353Y-8794547D01*
X60900276Y-9019004D01*
X61185956Y-9304684D01*
X61393980Y-9616013D01*
X61410414Y-9640609D01*
X61565022Y-10013866D01*
X61643840Y-10410113D01*
X61643840Y-10814127D01*
X61565022Y-11210374D01*
X61499689Y-11368101D01*
X61410413Y-11583633D01*
X61185956Y-11919556D01*
X60900276Y-12205236D01*
X60564353Y-12429693D01*
X60564352Y-12429694D01*
X60564351Y-12429694D01*
X60191094Y-12584302D01*
X59794847Y-12663120D01*
X59390833Y-12663120D01*
X58994586Y-12584302D01*
X58621329Y-12429694D01*
X58621328Y-12429694D01*
X58621327Y-12429693D01*
X58285404Y-12205236D01*
X57999724Y-11919556D01*
X57775267Y-11583633D01*
X57685991Y-11368101D01*
X57620658Y-11210374D01*
X57541840Y-10814127D01*
X57541840Y-10410113D01*
X57620658Y-10013866D01*
X57775266Y-9640609D01*
X57791701Y-9616013D01*
X57999724Y-9304684D01*
X58285404Y-9019004D01*
X58621327Y-8794547D01*
X58680707Y-8769951D01*
X58994586Y-8639938D01*
X59390833Y-8561120D01*
X59794847Y-8561120D01*
X60191094Y-8639938D01*
X60191094Y-8639938D01*
G37*
G36*
X65191094Y-8639938D02*
G01*
X65504973Y-8769951D01*
X65564353Y-8794547D01*
X65900276Y-9019004D01*
X66185956Y-9304684D01*
X66393980Y-9616013D01*
X66410414Y-9640609D01*
X66565022Y-10013866D01*
X66643840Y-10410113D01*
X66643840Y-10814127D01*
X66565022Y-11210374D01*
X66499689Y-11368101D01*
X66410413Y-11583633D01*
X66185956Y-11919556D01*
X65900276Y-12205236D01*
X65564353Y-12429693D01*
X65564352Y-12429694D01*
X65564351Y-12429694D01*
X65191094Y-12584302D01*
X64794847Y-12663120D01*
X64390833Y-12663120D01*
X63994586Y-12584302D01*
X63621329Y-12429694D01*
X63621328Y-12429694D01*
X63621327Y-12429693D01*
X63285404Y-12205236D01*
X62999724Y-11919556D01*
X62775267Y-11583633D01*
X62685991Y-11368101D01*
X62620658Y-11210374D01*
X62541840Y-10814127D01*
X62541840Y-10410113D01*
X62620658Y-10013866D01*
X62775266Y-9640609D01*
X62791701Y-9616013D01*
X62999724Y-9304684D01*
X63285404Y-9019004D01*
X63621327Y-8794547D01*
X63680707Y-8769951D01*
X63994586Y-8639938D01*
X64390833Y-8561120D01*
X64794847Y-8561120D01*
X65191094Y-8639938D01*
X65191094Y-8639938D01*
G37*
G36*
X49008600Y-10481880D02*
G01*
X47206600Y-10481880D01*
X47206600Y-8679880D01*
X49008600Y-8679880D01*
X49008600Y-10481880D01*
X49008600Y-10481880D01*
G37*
G36*
X71954474Y-6052318D02*
G01*
X72323863Y-6205324D01*
X72327733Y-6206927D01*
X72663656Y-6431384D01*
X72949336Y-6717064D01*
X73162884Y-7036660D01*
X73173794Y-7052989D01*
X73328402Y-7426246D01*
X73407220Y-7822493D01*
X73407220Y-8226507D01*
X73328402Y-8622754D01*
X73201148Y-8929973D01*
X73173793Y-8996013D01*
X72949336Y-9331936D01*
X72663656Y-9617616D01*
X72327733Y-9842073D01*
X72327732Y-9842074D01*
X72327731Y-9842074D01*
X71954474Y-9996682D01*
X71558227Y-10075500D01*
X71154213Y-10075500D01*
X70757966Y-9996682D01*
X70384709Y-9842074D01*
X70384708Y-9842074D01*
X70384707Y-9842073D01*
X70048784Y-9617616D01*
X69763104Y-9331936D01*
X69538647Y-8996013D01*
X69511292Y-8929973D01*
X69384038Y-8622754D01*
X69305220Y-8226507D01*
X69305220Y-7822493D01*
X69384038Y-7426246D01*
X69538646Y-7052989D01*
X69549557Y-7036660D01*
X69763104Y-6717064D01*
X70048784Y-6431384D01*
X70384707Y-6206927D01*
X70388577Y-6205324D01*
X70757966Y-6052318D01*
X71154213Y-5973500D01*
X71558227Y-5973500D01*
X71954474Y-6052318D01*
X71954474Y-6052318D01*
G37*
G36*
X53625834Y-5986278D02*
G01*
X53976921Y-6131703D01*
X53999093Y-6140887D01*
X54335016Y-6365344D01*
X54620696Y-6651024D01*
X54835939Y-6973157D01*
X54845154Y-6986949D01*
X54999762Y-7360206D01*
X55078580Y-7756453D01*
X55078580Y-8160467D01*
X54999762Y-8556714D01*
X54901249Y-8794546D01*
X54845153Y-8929973D01*
X54620696Y-9265896D01*
X54335016Y-9551576D01*
X53999093Y-9776033D01*
X53999092Y-9776034D01*
X53999091Y-9776034D01*
X53625834Y-9930642D01*
X53229587Y-10009460D01*
X52825573Y-10009460D01*
X52429326Y-9930642D01*
X52056069Y-9776034D01*
X52056068Y-9776034D01*
X52056067Y-9776033D01*
X51720144Y-9551576D01*
X51434464Y-9265896D01*
X51210007Y-8929973D01*
X51153911Y-8794546D01*
X51055398Y-8556714D01*
X50976580Y-8160467D01*
X50976580Y-7756453D01*
X51055398Y-7360206D01*
X51210006Y-6986949D01*
X51219222Y-6973157D01*
X51434464Y-6651024D01*
X51720144Y-6365344D01*
X52056067Y-6140887D01*
X52078239Y-6131703D01*
X52429326Y-5986278D01*
X52825573Y-5907460D01*
X53229587Y-5907460D01*
X53625834Y-5986278D01*
X53625834Y-5986278D01*
G37*
G36*
X97207154Y-5826258D02*
G01*
X97580411Y-5980866D01*
X97580413Y-5980867D01*
X97883260Y-6183223D01*
X97916336Y-6205324D01*
X98202016Y-6491004D01*
X98426474Y-6826929D01*
X98581082Y-7200186D01*
X98659900Y-7596433D01*
X98659900Y-8000447D01*
X98581082Y-8396694D01*
X98462803Y-8682245D01*
X98426473Y-8769953D01*
X98202016Y-9105876D01*
X97916336Y-9391556D01*
X97580413Y-9616013D01*
X97580412Y-9616014D01*
X97580411Y-9616014D01*
X97207154Y-9770622D01*
X96810907Y-9849440D01*
X96406893Y-9849440D01*
X96010646Y-9770622D01*
X95637389Y-9616014D01*
X95637388Y-9616014D01*
X95637387Y-9616013D01*
X95301464Y-9391556D01*
X95015784Y-9105876D01*
X94791327Y-8769953D01*
X94754997Y-8682245D01*
X94636718Y-8396694D01*
X94557900Y-8000447D01*
X94557900Y-7596433D01*
X94636718Y-7200186D01*
X94791326Y-6826929D01*
X95015784Y-6491004D01*
X95301464Y-6205324D01*
X95334540Y-6183223D01*
X95637387Y-5980867D01*
X95637389Y-5980866D01*
X96010646Y-5826258D01*
X96406893Y-5747440D01*
X96810907Y-5747440D01*
X97207154Y-5826258D01*
X97207154Y-5826258D01*
G37*
G36*
X78356140Y-6898249D02*
G01*
X78389192Y-6908275D01*
X78419643Y-6924552D01*
X78446339Y-6946461D01*
X78468248Y-6973157D01*
X78484525Y-7003608D01*
X78494551Y-7036660D01*
X78498540Y-7077163D01*
X78498540Y-8513357D01*
X78494551Y-8553860D01*
X78484525Y-8586912D01*
X78468248Y-8617363D01*
X78446339Y-8644059D01*
X78419643Y-8665968D01*
X78389192Y-8682245D01*
X78356140Y-8692271D01*
X78315637Y-8696260D01*
X76629443Y-8696260D01*
X76588940Y-8692271D01*
X76555888Y-8682245D01*
X76525437Y-8665968D01*
X76498741Y-8644059D01*
X76476832Y-8617363D01*
X76460555Y-8586912D01*
X76450529Y-8553860D01*
X76446540Y-8513357D01*
X76446540Y-7077163D01*
X76450529Y-7036660D01*
X76460555Y-7003608D01*
X76476832Y-6973157D01*
X76498741Y-6946461D01*
X76525437Y-6924552D01*
X76555888Y-6908275D01*
X76588940Y-6898249D01*
X76629443Y-6894260D01*
X78315637Y-6894260D01*
X78356140Y-6898249D01*
X78356140Y-6898249D01*
G37*
G36*
X86509540Y-6862689D02*
G01*
X86542592Y-6872715D01*
X86573043Y-6888992D01*
X86599739Y-6910901D01*
X86621648Y-6937597D01*
X86637925Y-6968048D01*
X86647951Y-7001100D01*
X86651940Y-7041603D01*
X86651940Y-8477797D01*
X86647951Y-8518300D01*
X86637925Y-8551352D01*
X86621648Y-8581803D01*
X86599739Y-8608499D01*
X86573043Y-8630408D01*
X86542592Y-8646685D01*
X86509540Y-8656711D01*
X86469037Y-8660700D01*
X84782843Y-8660700D01*
X84742340Y-8656711D01*
X84709288Y-8646685D01*
X84678837Y-8630408D01*
X84652141Y-8608499D01*
X84630232Y-8581803D01*
X84613955Y-8551352D01*
X84603929Y-8518300D01*
X84599940Y-8477797D01*
X84599940Y-7041603D01*
X84603929Y-7001100D01*
X84613955Y-6968048D01*
X84630232Y-6937597D01*
X84652141Y-6910901D01*
X84678837Y-6888992D01*
X84709288Y-6872715D01*
X84742340Y-6862689D01*
X84782843Y-6858700D01*
X86469037Y-6858700D01*
X86509540Y-6862689D01*
X86509540Y-6862689D01*
G37*
G36*
X77707983Y-4400779D02*
G01*
X77774167Y-4407297D01*
X77944006Y-4458817D01*
X78100531Y-4542482D01*
X78136269Y-4571812D01*
X78237726Y-4655074D01*
X78320988Y-4756531D01*
X78350318Y-4792269D01*
X78350319Y-4792271D01*
X78424281Y-4930642D01*
X78433983Y-4948794D01*
X78485503Y-5118633D01*
X78502899Y-5295260D01*
X78485503Y-5471887D01*
X78433983Y-5641726D01*
X78350318Y-5798251D01*
X78327333Y-5826258D01*
X78237726Y-5935446D01*
X78136269Y-6018708D01*
X78100531Y-6048038D01*
X77944006Y-6131703D01*
X77774167Y-6183223D01*
X77707982Y-6189742D01*
X77641800Y-6196260D01*
X77303280Y-6196260D01*
X77237097Y-6189741D01*
X77170913Y-6183223D01*
X77001074Y-6131703D01*
X76844549Y-6048038D01*
X76808811Y-6018708D01*
X76707354Y-5935446D01*
X76617747Y-5826258D01*
X76594762Y-5798251D01*
X76511097Y-5641726D01*
X76459577Y-5471887D01*
X76442181Y-5295260D01*
X76459577Y-5118633D01*
X76511097Y-4948794D01*
X76520800Y-4930642D01*
X76594761Y-4792271D01*
X76594762Y-4792269D01*
X76624092Y-4756531D01*
X76707354Y-4655074D01*
X76808811Y-4571812D01*
X76844549Y-4542482D01*
X77001074Y-4458817D01*
X77170913Y-4407297D01*
X77237097Y-4400779D01*
X77303280Y-4394260D01*
X77641800Y-4394260D01*
X77707983Y-4400779D01*
X77707983Y-4400779D01*
G37*
G36*
X85861383Y-4365219D02*
G01*
X85927567Y-4371737D01*
X86097406Y-4423257D01*
X86253931Y-4506922D01*
X86289669Y-4536252D01*
X86391126Y-4619514D01*
X86474388Y-4720971D01*
X86503718Y-4756709D01*
X86587383Y-4913234D01*
X86638903Y-5083073D01*
X86656299Y-5259700D01*
X86638903Y-5436327D01*
X86587383Y-5606166D01*
X86503718Y-5762691D01*
X86476066Y-5796385D01*
X86391126Y-5899886D01*
X86292450Y-5980866D01*
X86253931Y-6012478D01*
X86097406Y-6096143D01*
X85927567Y-6147663D01*
X85861382Y-6154182D01*
X85795200Y-6160700D01*
X85456680Y-6160700D01*
X85390497Y-6154181D01*
X85324313Y-6147663D01*
X85154474Y-6096143D01*
X84997949Y-6012478D01*
X84959430Y-5980866D01*
X84860754Y-5899886D01*
X84775814Y-5796385D01*
X84748162Y-5762691D01*
X84664497Y-5606166D01*
X84612977Y-5436327D01*
X84595581Y-5259700D01*
X84612977Y-5083073D01*
X84664497Y-4913234D01*
X84748162Y-4756709D01*
X84777492Y-4720971D01*
X84860754Y-4619514D01*
X84962211Y-4536252D01*
X84997949Y-4506922D01*
X85154474Y-4423257D01*
X85324313Y-4371737D01*
X85390498Y-4365218D01*
X85456680Y-4358700D01*
X85795200Y-4358700D01*
X85861383Y-4365219D01*
X85861383Y-4365219D01*
G37*
G36*
X48177403Y-4261719D02*
G01*
X48243587Y-4268237D01*
X48413426Y-4319757D01*
X48569951Y-4403422D01*
X48594120Y-4423257D01*
X48707146Y-4516014D01*
X48789212Y-4616013D01*
X48819738Y-4653209D01*
X48903403Y-4809734D01*
X48954923Y-4979573D01*
X48972319Y-5156200D01*
X48954923Y-5332827D01*
X48903403Y-5502666D01*
X48819738Y-5659191D01*
X48790408Y-5694929D01*
X48707146Y-5796386D01*
X48605689Y-5879648D01*
X48569951Y-5908978D01*
X48413426Y-5992643D01*
X48243587Y-6044163D01*
X48177403Y-6050681D01*
X48111220Y-6057200D01*
X48022700Y-6057200D01*
X47956517Y-6050681D01*
X47890333Y-6044163D01*
X47720494Y-5992643D01*
X47563969Y-5908978D01*
X47528231Y-5879648D01*
X47426774Y-5796386D01*
X47343512Y-5694929D01*
X47314182Y-5659191D01*
X47230517Y-5502666D01*
X47178997Y-5332827D01*
X47161601Y-5156200D01*
X47178997Y-4979573D01*
X47230517Y-4809734D01*
X47314182Y-4653209D01*
X47344708Y-4616013D01*
X47426774Y-4516014D01*
X47539800Y-4423257D01*
X47563969Y-4403422D01*
X47720494Y-4319757D01*
X47890333Y-4268237D01*
X47956517Y-4261719D01*
X48022700Y-4255200D01*
X48111220Y-4255200D01*
X48177403Y-4261719D01*
X48177403Y-4261719D01*
G37*
G36*
X65343494Y-1459358D02*
G01*
X65716751Y-1613966D01*
X65716753Y-1613967D01*
X66052676Y-1838424D01*
X66338356Y-2124104D01*
X66556523Y-2450613D01*
X66562814Y-2460029D01*
X66717422Y-2833286D01*
X66796240Y-3229533D01*
X66796240Y-3633547D01*
X66717422Y-4029794D01*
X66567575Y-4391556D01*
X66562813Y-4403053D01*
X66338356Y-4738976D01*
X66052676Y-5024656D01*
X65716753Y-5249113D01*
X65716752Y-5249114D01*
X65716751Y-5249114D01*
X65343494Y-5403722D01*
X64947247Y-5482540D01*
X64543233Y-5482540D01*
X64146986Y-5403722D01*
X63773729Y-5249114D01*
X63773728Y-5249114D01*
X63773727Y-5249113D01*
X63437804Y-5024656D01*
X63152124Y-4738976D01*
X62927667Y-4403053D01*
X62922905Y-4391556D01*
X62773058Y-4029794D01*
X62694240Y-3633547D01*
X62694240Y-3229533D01*
X62773058Y-2833286D01*
X62927666Y-2460029D01*
X62933958Y-2450613D01*
X63152124Y-2124104D01*
X63437804Y-1838424D01*
X63773727Y-1613967D01*
X63773729Y-1613966D01*
X64146986Y-1459358D01*
X64543233Y-1380540D01*
X64947247Y-1380540D01*
X65343494Y-1459358D01*
X65343494Y-1459358D01*
G37*
G36*
X60343494Y-1459358D02*
G01*
X60716751Y-1613966D01*
X60716753Y-1613967D01*
X61052676Y-1838424D01*
X61338356Y-2124104D01*
X61556523Y-2450613D01*
X61562814Y-2460029D01*
X61717422Y-2833286D01*
X61796240Y-3229533D01*
X61796240Y-3633547D01*
X61717422Y-4029794D01*
X61567575Y-4391556D01*
X61562813Y-4403053D01*
X61338356Y-4738976D01*
X61052676Y-5024656D01*
X60716753Y-5249113D01*
X60716752Y-5249114D01*
X60716751Y-5249114D01*
X60343494Y-5403722D01*
X59947247Y-5482540D01*
X59543233Y-5482540D01*
X59146986Y-5403722D01*
X58773729Y-5249114D01*
X58773728Y-5249114D01*
X58773727Y-5249113D01*
X58437804Y-5024656D01*
X58152124Y-4738976D01*
X57927667Y-4403053D01*
X57922905Y-4391556D01*
X57773058Y-4029794D01*
X57694240Y-3633547D01*
X57694240Y-3229533D01*
X57773058Y-2833286D01*
X57927666Y-2460029D01*
X57933958Y-2450613D01*
X58152124Y-2124104D01*
X58437804Y-1838424D01*
X58773727Y-1613967D01*
X58773729Y-1613966D01*
X59146986Y-1459358D01*
X59543233Y-1380540D01*
X59947247Y-1380540D01*
X60343494Y-1459358D01*
X60343494Y-1459358D01*
G37*
G36*
X71954474Y-1052318D02*
G01*
X72323863Y-1205324D01*
X72327733Y-1206927D01*
X72663656Y-1431384D01*
X72949336Y-1717064D01*
X73166774Y-2042482D01*
X73173794Y-2052989D01*
X73328402Y-2426246D01*
X73407220Y-2822493D01*
X73407220Y-3226507D01*
X73328402Y-3622754D01*
X73201148Y-3929973D01*
X73173793Y-3996013D01*
X72949336Y-4331936D01*
X72663656Y-4617616D01*
X72327733Y-4842073D01*
X72327732Y-4842074D01*
X72327731Y-4842074D01*
X71954474Y-4996682D01*
X71558227Y-5075500D01*
X71154213Y-5075500D01*
X70757966Y-4996682D01*
X70384709Y-4842074D01*
X70384708Y-4842074D01*
X70384707Y-4842073D01*
X70048784Y-4617616D01*
X69763104Y-4331936D01*
X69538647Y-3996013D01*
X69511292Y-3929973D01*
X69384038Y-3622754D01*
X69305220Y-3226507D01*
X69305220Y-2822493D01*
X69384038Y-2426246D01*
X69538646Y-2052989D01*
X69545667Y-2042482D01*
X69763104Y-1717064D01*
X70048784Y-1431384D01*
X70384707Y-1206927D01*
X70388577Y-1205324D01*
X70757966Y-1052318D01*
X71154213Y-973500D01*
X71558227Y-973500D01*
X71954474Y-1052318D01*
X71954474Y-1052318D01*
G37*
G36*
X53625834Y-986278D02*
G01*
X53999091Y-1140886D01*
X53999093Y-1140887D01*
X54335016Y-1365344D01*
X54620696Y-1651024D01*
X54826358Y-1958818D01*
X54845154Y-1986949D01*
X54999762Y-2360206D01*
X55078580Y-2756453D01*
X55078580Y-3160467D01*
X54999762Y-3556714D01*
X54845154Y-3929971D01*
X54845153Y-3929973D01*
X54620696Y-4265896D01*
X54335016Y-4551576D01*
X53999093Y-4776033D01*
X53999092Y-4776034D01*
X53999091Y-4776034D01*
X53625834Y-4930642D01*
X53229587Y-5009460D01*
X52825573Y-5009460D01*
X52429326Y-4930642D01*
X52056069Y-4776034D01*
X52056068Y-4776034D01*
X52056067Y-4776033D01*
X51720144Y-4551576D01*
X51434464Y-4265896D01*
X51210007Y-3929973D01*
X51210006Y-3929971D01*
X51055398Y-3556714D01*
X50976580Y-3160467D01*
X50976580Y-2756453D01*
X51055398Y-2360206D01*
X51210006Y-1986949D01*
X51228803Y-1958818D01*
X51434464Y-1651024D01*
X51720144Y-1365344D01*
X52056067Y-1140887D01*
X52056069Y-1140886D01*
X52429326Y-986278D01*
X52825573Y-907460D01*
X53229587Y-907460D01*
X53625834Y-986278D01*
X53625834Y-986278D01*
G37*
G36*
X97207154Y-826258D02*
G01*
X97580411Y-980866D01*
X97580413Y-980867D01*
X97687348Y-1052319D01*
X97916336Y-1205324D01*
X98202016Y-1491004D01*
X98426474Y-1826929D01*
X98581082Y-2200186D01*
X98659900Y-2596433D01*
X98659900Y-3000447D01*
X98581082Y-3396694D01*
X98482974Y-3633547D01*
X98426473Y-3769953D01*
X98202016Y-4105876D01*
X97916336Y-4391556D01*
X97580413Y-4616013D01*
X97580412Y-4616014D01*
X97580411Y-4616014D01*
X97207154Y-4770622D01*
X96810907Y-4849440D01*
X96406893Y-4849440D01*
X96010646Y-4770622D01*
X95637389Y-4616014D01*
X95637388Y-4616014D01*
X95637387Y-4616013D01*
X95301464Y-4391556D01*
X95015784Y-4105876D01*
X94791327Y-3769953D01*
X94734826Y-3633547D01*
X94636718Y-3396694D01*
X94557900Y-3000447D01*
X94557900Y-2596433D01*
X94636718Y-2200186D01*
X94791326Y-1826929D01*
X95015784Y-1491004D01*
X95301464Y-1205324D01*
X95530452Y-1052319D01*
X95637387Y-980867D01*
X95637389Y-980866D01*
X96010646Y-826258D01*
X96406893Y-747440D01*
X96810907Y-747440D01*
X97207154Y-826258D01*
X97207154Y-826258D01*
G37*
G36*
X38706243Y-2450613D02*
G01*
X38866662Y-2499276D01*
X38999326Y-2570186D01*
X39014498Y-2578296D01*
X39144079Y-2684641D01*
X39250424Y-2814222D01*
X39250425Y-2814224D01*
X39329444Y-2962058D01*
X39378107Y-3122477D01*
X39394537Y-3289300D01*
X39378107Y-3456123D01*
X39329444Y-3616542D01*
X39312809Y-3647663D01*
X39250424Y-3764378D01*
X39144079Y-3893959D01*
X39014498Y-4000304D01*
X39014496Y-4000305D01*
X38866662Y-4079324D01*
X38706243Y-4127987D01*
X38581224Y-4140300D01*
X38497616Y-4140300D01*
X38372597Y-4127987D01*
X38212178Y-4079324D01*
X38064344Y-4000305D01*
X38064342Y-4000304D01*
X37934761Y-3893959D01*
X37828416Y-3764378D01*
X37766031Y-3647663D01*
X37749396Y-3616542D01*
X37700733Y-3456123D01*
X37684303Y-3289300D01*
X37700733Y-3122477D01*
X37749396Y-2962058D01*
X37828415Y-2814224D01*
X37828416Y-2814222D01*
X37934761Y-2684641D01*
X38064342Y-2578296D01*
X38079514Y-2570186D01*
X38212178Y-2499276D01*
X38372597Y-2450613D01*
X38497616Y-2438300D01*
X38581224Y-2438300D01*
X38706243Y-2450613D01*
X38706243Y-2450613D01*
G37*
G36*
X5686243Y-2450613D02*
G01*
X5846662Y-2499276D01*
X5979326Y-2570186D01*
X5994498Y-2578296D01*
X6124079Y-2684641D01*
X6230424Y-2814222D01*
X6230425Y-2814224D01*
X6309444Y-2962058D01*
X6358107Y-3122477D01*
X6374537Y-3289300D01*
X6358107Y-3456123D01*
X6309444Y-3616542D01*
X6292809Y-3647663D01*
X6230424Y-3764378D01*
X6124079Y-3893959D01*
X5994498Y-4000304D01*
X5994496Y-4000305D01*
X5846662Y-4079324D01*
X5686243Y-4127987D01*
X5561224Y-4140300D01*
X5477616Y-4140300D01*
X5352597Y-4127987D01*
X5192178Y-4079324D01*
X5044344Y-4000305D01*
X5044342Y-4000304D01*
X4914761Y-3893959D01*
X4808416Y-3764378D01*
X4746031Y-3647663D01*
X4729396Y-3616542D01*
X4680733Y-3456123D01*
X4664303Y-3289300D01*
X4680733Y-3122477D01*
X4729396Y-2962058D01*
X4808415Y-2814224D01*
X4808416Y-2814222D01*
X4914761Y-2684641D01*
X5044342Y-2578296D01*
X5059514Y-2570186D01*
X5192178Y-2499276D01*
X5352597Y-2450613D01*
X5477616Y-2438300D01*
X5561224Y-2438300D01*
X5686243Y-2450613D01*
X5686243Y-2450613D01*
G37*
G36*
X10766243Y-2450613D02*
G01*
X10926662Y-2499276D01*
X11059326Y-2570186D01*
X11074498Y-2578296D01*
X11204079Y-2684641D01*
X11310424Y-2814222D01*
X11310425Y-2814224D01*
X11389444Y-2962058D01*
X11438107Y-3122477D01*
X11454537Y-3289300D01*
X11438107Y-3456123D01*
X11389444Y-3616542D01*
X11372809Y-3647663D01*
X11310424Y-3764378D01*
X11204079Y-3893959D01*
X11074498Y-4000304D01*
X11074496Y-4000305D01*
X10926662Y-4079324D01*
X10766243Y-4127987D01*
X10641224Y-4140300D01*
X10557616Y-4140300D01*
X10432597Y-4127987D01*
X10272178Y-4079324D01*
X10124344Y-4000305D01*
X10124342Y-4000304D01*
X9994761Y-3893959D01*
X9888416Y-3764378D01*
X9826031Y-3647663D01*
X9809396Y-3616542D01*
X9760733Y-3456123D01*
X9744303Y-3289300D01*
X9760733Y-3122477D01*
X9809396Y-2962058D01*
X9888415Y-2814224D01*
X9888416Y-2814222D01*
X9994761Y-2684641D01*
X10124342Y-2578296D01*
X10139514Y-2570186D01*
X10272178Y-2499276D01*
X10432597Y-2450613D01*
X10557616Y-2438300D01*
X10641224Y-2438300D01*
X10766243Y-2450613D01*
X10766243Y-2450613D01*
G37*
G36*
X13306243Y-2450613D02*
G01*
X13466662Y-2499276D01*
X13599326Y-2570186D01*
X13614498Y-2578296D01*
X13744079Y-2684641D01*
X13850424Y-2814222D01*
X13850425Y-2814224D01*
X13929444Y-2962058D01*
X13978107Y-3122477D01*
X13994537Y-3289300D01*
X13978107Y-3456123D01*
X13929444Y-3616542D01*
X13912809Y-3647663D01*
X13850424Y-3764378D01*
X13744079Y-3893959D01*
X13614498Y-4000304D01*
X13614496Y-4000305D01*
X13466662Y-4079324D01*
X13306243Y-4127987D01*
X13181224Y-4140300D01*
X13097616Y-4140300D01*
X12972597Y-4127987D01*
X12812178Y-4079324D01*
X12664344Y-4000305D01*
X12664342Y-4000304D01*
X12534761Y-3893959D01*
X12428416Y-3764378D01*
X12366031Y-3647663D01*
X12349396Y-3616542D01*
X12300733Y-3456123D01*
X12284303Y-3289300D01*
X12300733Y-3122477D01*
X12349396Y-2962058D01*
X12428415Y-2814224D01*
X12428416Y-2814222D01*
X12534761Y-2684641D01*
X12664342Y-2578296D01*
X12679514Y-2570186D01*
X12812178Y-2499276D01*
X12972597Y-2450613D01*
X13097616Y-2438300D01*
X13181224Y-2438300D01*
X13306243Y-2450613D01*
X13306243Y-2450613D01*
G37*
G36*
X15846243Y-2450613D02*
G01*
X16006662Y-2499276D01*
X16139326Y-2570186D01*
X16154498Y-2578296D01*
X16284079Y-2684641D01*
X16390424Y-2814222D01*
X16390425Y-2814224D01*
X16469444Y-2962058D01*
X16518107Y-3122477D01*
X16534537Y-3289300D01*
X16518107Y-3456123D01*
X16469444Y-3616542D01*
X16452809Y-3647663D01*
X16390424Y-3764378D01*
X16284079Y-3893959D01*
X16154498Y-4000304D01*
X16154496Y-4000305D01*
X16006662Y-4079324D01*
X15846243Y-4127987D01*
X15721224Y-4140300D01*
X15637616Y-4140300D01*
X15512597Y-4127987D01*
X15352178Y-4079324D01*
X15204344Y-4000305D01*
X15204342Y-4000304D01*
X15074761Y-3893959D01*
X14968416Y-3764378D01*
X14906031Y-3647663D01*
X14889396Y-3616542D01*
X14840733Y-3456123D01*
X14824303Y-3289300D01*
X14840733Y-3122477D01*
X14889396Y-2962058D01*
X14968415Y-2814224D01*
X14968416Y-2814222D01*
X15074761Y-2684641D01*
X15204342Y-2578296D01*
X15219514Y-2570186D01*
X15352178Y-2499276D01*
X15512597Y-2450613D01*
X15637616Y-2438300D01*
X15721224Y-2438300D01*
X15846243Y-2450613D01*
X15846243Y-2450613D01*
G37*
G36*
X18386243Y-2450613D02*
G01*
X18546662Y-2499276D01*
X18679326Y-2570186D01*
X18694498Y-2578296D01*
X18824079Y-2684641D01*
X18930424Y-2814222D01*
X18930425Y-2814224D01*
X19009444Y-2962058D01*
X19058107Y-3122477D01*
X19074537Y-3289300D01*
X19058107Y-3456123D01*
X19009444Y-3616542D01*
X18992809Y-3647663D01*
X18930424Y-3764378D01*
X18824079Y-3893959D01*
X18694498Y-4000304D01*
X18694496Y-4000305D01*
X18546662Y-4079324D01*
X18386243Y-4127987D01*
X18261224Y-4140300D01*
X18177616Y-4140300D01*
X18052597Y-4127987D01*
X17892178Y-4079324D01*
X17744344Y-4000305D01*
X17744342Y-4000304D01*
X17614761Y-3893959D01*
X17508416Y-3764378D01*
X17446031Y-3647663D01*
X17429396Y-3616542D01*
X17380733Y-3456123D01*
X17364303Y-3289300D01*
X17380733Y-3122477D01*
X17429396Y-2962058D01*
X17508415Y-2814224D01*
X17508416Y-2814222D01*
X17614761Y-2684641D01*
X17744342Y-2578296D01*
X17759514Y-2570186D01*
X17892178Y-2499276D01*
X18052597Y-2450613D01*
X18177616Y-2438300D01*
X18261224Y-2438300D01*
X18386243Y-2450613D01*
X18386243Y-2450613D01*
G37*
G36*
X20926243Y-2450613D02*
G01*
X21086662Y-2499276D01*
X21219326Y-2570186D01*
X21234498Y-2578296D01*
X21364079Y-2684641D01*
X21470424Y-2814222D01*
X21470425Y-2814224D01*
X21549444Y-2962058D01*
X21598107Y-3122477D01*
X21614537Y-3289300D01*
X21598107Y-3456123D01*
X21549444Y-3616542D01*
X21532809Y-3647663D01*
X21470424Y-3764378D01*
X21364079Y-3893959D01*
X21234498Y-4000304D01*
X21234496Y-4000305D01*
X21086662Y-4079324D01*
X20926243Y-4127987D01*
X20801224Y-4140300D01*
X20717616Y-4140300D01*
X20592597Y-4127987D01*
X20432178Y-4079324D01*
X20284344Y-4000305D01*
X20284342Y-4000304D01*
X20154761Y-3893959D01*
X20048416Y-3764378D01*
X19986031Y-3647663D01*
X19969396Y-3616542D01*
X19920733Y-3456123D01*
X19904303Y-3289300D01*
X19920733Y-3122477D01*
X19969396Y-2962058D01*
X20048415Y-2814224D01*
X20048416Y-2814222D01*
X20154761Y-2684641D01*
X20284342Y-2578296D01*
X20299514Y-2570186D01*
X20432178Y-2499276D01*
X20592597Y-2450613D01*
X20717616Y-2438300D01*
X20801224Y-2438300D01*
X20926243Y-2450613D01*
X20926243Y-2450613D01*
G37*
G36*
X23466243Y-2450613D02*
G01*
X23626662Y-2499276D01*
X23759326Y-2570186D01*
X23774498Y-2578296D01*
X23904079Y-2684641D01*
X24010424Y-2814222D01*
X24010425Y-2814224D01*
X24089444Y-2962058D01*
X24138107Y-3122477D01*
X24154537Y-3289300D01*
X24138107Y-3456123D01*
X24089444Y-3616542D01*
X24072809Y-3647663D01*
X24010424Y-3764378D01*
X23904079Y-3893959D01*
X23774498Y-4000304D01*
X23774496Y-4000305D01*
X23626662Y-4079324D01*
X23466243Y-4127987D01*
X23341224Y-4140300D01*
X23257616Y-4140300D01*
X23132597Y-4127987D01*
X22972178Y-4079324D01*
X22824344Y-4000305D01*
X22824342Y-4000304D01*
X22694761Y-3893959D01*
X22588416Y-3764378D01*
X22526031Y-3647663D01*
X22509396Y-3616542D01*
X22460733Y-3456123D01*
X22444303Y-3289300D01*
X22460733Y-3122477D01*
X22509396Y-2962058D01*
X22588415Y-2814224D01*
X22588416Y-2814222D01*
X22694761Y-2684641D01*
X22824342Y-2578296D01*
X22839514Y-2570186D01*
X22972178Y-2499276D01*
X23132597Y-2450613D01*
X23257616Y-2438300D01*
X23341224Y-2438300D01*
X23466243Y-2450613D01*
X23466243Y-2450613D01*
G37*
G36*
X26006243Y-2450613D02*
G01*
X26166662Y-2499276D01*
X26299326Y-2570186D01*
X26314498Y-2578296D01*
X26444079Y-2684641D01*
X26550424Y-2814222D01*
X26550425Y-2814224D01*
X26629444Y-2962058D01*
X26678107Y-3122477D01*
X26694537Y-3289300D01*
X26678107Y-3456123D01*
X26629444Y-3616542D01*
X26612809Y-3647663D01*
X26550424Y-3764378D01*
X26444079Y-3893959D01*
X26314498Y-4000304D01*
X26314496Y-4000305D01*
X26166662Y-4079324D01*
X26006243Y-4127987D01*
X25881224Y-4140300D01*
X25797616Y-4140300D01*
X25672597Y-4127987D01*
X25512178Y-4079324D01*
X25364344Y-4000305D01*
X25364342Y-4000304D01*
X25234761Y-3893959D01*
X25128416Y-3764378D01*
X25066031Y-3647663D01*
X25049396Y-3616542D01*
X25000733Y-3456123D01*
X24984303Y-3289300D01*
X25000733Y-3122477D01*
X25049396Y-2962058D01*
X25128415Y-2814224D01*
X25128416Y-2814222D01*
X25234761Y-2684641D01*
X25364342Y-2578296D01*
X25379514Y-2570186D01*
X25512178Y-2499276D01*
X25672597Y-2450613D01*
X25797616Y-2438300D01*
X25881224Y-2438300D01*
X26006243Y-2450613D01*
X26006243Y-2450613D01*
G37*
G36*
X28546243Y-2450613D02*
G01*
X28706662Y-2499276D01*
X28839326Y-2570186D01*
X28854498Y-2578296D01*
X28984079Y-2684641D01*
X29090424Y-2814222D01*
X29090425Y-2814224D01*
X29169444Y-2962058D01*
X29218107Y-3122477D01*
X29234537Y-3289300D01*
X29218107Y-3456123D01*
X29169444Y-3616542D01*
X29152809Y-3647663D01*
X29090424Y-3764378D01*
X28984079Y-3893959D01*
X28854498Y-4000304D01*
X28854496Y-4000305D01*
X28706662Y-4079324D01*
X28546243Y-4127987D01*
X28421224Y-4140300D01*
X28337616Y-4140300D01*
X28212597Y-4127987D01*
X28052178Y-4079324D01*
X27904344Y-4000305D01*
X27904342Y-4000304D01*
X27774761Y-3893959D01*
X27668416Y-3764378D01*
X27606031Y-3647663D01*
X27589396Y-3616542D01*
X27540733Y-3456123D01*
X27524303Y-3289300D01*
X27540733Y-3122477D01*
X27589396Y-2962058D01*
X27668415Y-2814224D01*
X27668416Y-2814222D01*
X27774761Y-2684641D01*
X27904342Y-2578296D01*
X27919514Y-2570186D01*
X28052178Y-2499276D01*
X28212597Y-2450613D01*
X28337616Y-2438300D01*
X28421224Y-2438300D01*
X28546243Y-2450613D01*
X28546243Y-2450613D01*
G37*
G36*
X31086243Y-2450613D02*
G01*
X31246662Y-2499276D01*
X31379326Y-2570186D01*
X31394498Y-2578296D01*
X31524079Y-2684641D01*
X31630424Y-2814222D01*
X31630425Y-2814224D01*
X31709444Y-2962058D01*
X31758107Y-3122477D01*
X31774537Y-3289300D01*
X31758107Y-3456123D01*
X31709444Y-3616542D01*
X31692809Y-3647663D01*
X31630424Y-3764378D01*
X31524079Y-3893959D01*
X31394498Y-4000304D01*
X31394496Y-4000305D01*
X31246662Y-4079324D01*
X31086243Y-4127987D01*
X30961224Y-4140300D01*
X30877616Y-4140300D01*
X30752597Y-4127987D01*
X30592178Y-4079324D01*
X30444344Y-4000305D01*
X30444342Y-4000304D01*
X30314761Y-3893959D01*
X30208416Y-3764378D01*
X30146031Y-3647663D01*
X30129396Y-3616542D01*
X30080733Y-3456123D01*
X30064303Y-3289300D01*
X30080733Y-3122477D01*
X30129396Y-2962058D01*
X30208415Y-2814224D01*
X30208416Y-2814222D01*
X30314761Y-2684641D01*
X30444342Y-2578296D01*
X30459514Y-2570186D01*
X30592178Y-2499276D01*
X30752597Y-2450613D01*
X30877616Y-2438300D01*
X30961224Y-2438300D01*
X31086243Y-2450613D01*
X31086243Y-2450613D01*
G37*
G36*
X33626243Y-2450613D02*
G01*
X33786662Y-2499276D01*
X33919326Y-2570186D01*
X33934498Y-2578296D01*
X34064079Y-2684641D01*
X34170424Y-2814222D01*
X34170425Y-2814224D01*
X34249444Y-2962058D01*
X34298107Y-3122477D01*
X34314537Y-3289300D01*
X34298107Y-3456123D01*
X34249444Y-3616542D01*
X34232809Y-3647663D01*
X34170424Y-3764378D01*
X34064079Y-3893959D01*
X33934498Y-4000304D01*
X33934496Y-4000305D01*
X33786662Y-4079324D01*
X33626243Y-4127987D01*
X33501224Y-4140300D01*
X33417616Y-4140300D01*
X33292597Y-4127987D01*
X33132178Y-4079324D01*
X32984344Y-4000305D01*
X32984342Y-4000304D01*
X32854761Y-3893959D01*
X32748416Y-3764378D01*
X32686031Y-3647663D01*
X32669396Y-3616542D01*
X32620733Y-3456123D01*
X32604303Y-3289300D01*
X32620733Y-3122477D01*
X32669396Y-2962058D01*
X32748415Y-2814224D01*
X32748416Y-2814222D01*
X32854761Y-2684641D01*
X32984342Y-2578296D01*
X32999514Y-2570186D01*
X33132178Y-2499276D01*
X33292597Y-2450613D01*
X33417616Y-2438300D01*
X33501224Y-2438300D01*
X33626243Y-2450613D01*
X33626243Y-2450613D01*
G37*
G36*
X36166243Y-2450613D02*
G01*
X36326662Y-2499276D01*
X36459326Y-2570186D01*
X36474498Y-2578296D01*
X36604079Y-2684641D01*
X36710424Y-2814222D01*
X36710425Y-2814224D01*
X36789444Y-2962058D01*
X36838107Y-3122477D01*
X36854537Y-3289300D01*
X36838107Y-3456123D01*
X36789444Y-3616542D01*
X36772809Y-3647663D01*
X36710424Y-3764378D01*
X36604079Y-3893959D01*
X36474498Y-4000304D01*
X36474496Y-4000305D01*
X36326662Y-4079324D01*
X36166243Y-4127987D01*
X36041224Y-4140300D01*
X35957616Y-4140300D01*
X35832597Y-4127987D01*
X35672178Y-4079324D01*
X35524344Y-4000305D01*
X35524342Y-4000304D01*
X35394761Y-3893959D01*
X35288416Y-3764378D01*
X35226031Y-3647663D01*
X35209396Y-3616542D01*
X35160733Y-3456123D01*
X35144303Y-3289300D01*
X35160733Y-3122477D01*
X35209396Y-2962058D01*
X35288415Y-2814224D01*
X35288416Y-2814222D01*
X35394761Y-2684641D01*
X35524342Y-2578296D01*
X35539514Y-2570186D01*
X35672178Y-2499276D01*
X35832597Y-2450613D01*
X35957616Y-2438300D01*
X36041224Y-2438300D01*
X36166243Y-2450613D01*
X36166243Y-2450613D01*
G37*
G36*
X41930420Y-4140300D02*
G01*
X40228420Y-4140300D01*
X40228420Y-2438300D01*
X41930420Y-2438300D01*
X41930420Y-4140300D01*
X41930420Y-4140300D01*
G37*
G36*
X8226243Y-2450613D02*
G01*
X8386662Y-2499276D01*
X8519326Y-2570186D01*
X8534498Y-2578296D01*
X8664079Y-2684641D01*
X8770424Y-2814222D01*
X8770425Y-2814224D01*
X8849444Y-2962058D01*
X8898107Y-3122477D01*
X8914537Y-3289300D01*
X8898107Y-3456123D01*
X8849444Y-3616542D01*
X8832809Y-3647663D01*
X8770424Y-3764378D01*
X8664079Y-3893959D01*
X8534498Y-4000304D01*
X8534496Y-4000305D01*
X8386662Y-4079324D01*
X8226243Y-4127987D01*
X8101224Y-4140300D01*
X8017616Y-4140300D01*
X7892597Y-4127987D01*
X7732178Y-4079324D01*
X7584344Y-4000305D01*
X7584342Y-4000304D01*
X7454761Y-3893959D01*
X7348416Y-3764378D01*
X7286031Y-3647663D01*
X7269396Y-3616542D01*
X7220733Y-3456123D01*
X7204303Y-3289300D01*
X7220733Y-3122477D01*
X7269396Y-2962058D01*
X7348415Y-2814224D01*
X7348416Y-2814222D01*
X7454761Y-2684641D01*
X7584342Y-2578296D01*
X7599514Y-2570186D01*
X7732178Y-2499276D01*
X7892597Y-2450613D01*
X8017616Y-2438300D01*
X8101224Y-2438300D01*
X8226243Y-2450613D01*
X8226243Y-2450613D01*
G37*
G36*
X77707982Y-1900778D02*
G01*
X77774167Y-1907297D01*
X77944006Y-1958817D01*
X78100531Y-2042482D01*
X78136269Y-2071812D01*
X78237726Y-2155074D01*
X78320988Y-2256531D01*
X78350318Y-2292269D01*
X78433983Y-2448794D01*
X78485503Y-2618633D01*
X78502899Y-2795260D01*
X78485503Y-2971887D01*
X78433983Y-3141726D01*
X78350318Y-3298251D01*
X78320988Y-3333989D01*
X78237726Y-3435446D01*
X78138107Y-3517200D01*
X78100531Y-3548038D01*
X78022268Y-3589871D01*
X77960747Y-3622755D01*
X77944006Y-3631703D01*
X77774167Y-3683223D01*
X77707982Y-3689742D01*
X77641800Y-3696260D01*
X77303280Y-3696260D01*
X77237098Y-3689742D01*
X77170913Y-3683223D01*
X77001074Y-3631703D01*
X76984334Y-3622755D01*
X76922812Y-3589871D01*
X76844549Y-3548038D01*
X76806973Y-3517200D01*
X76707354Y-3435446D01*
X76624092Y-3333989D01*
X76594762Y-3298251D01*
X76511097Y-3141726D01*
X76459577Y-2971887D01*
X76442181Y-2795260D01*
X76459577Y-2618633D01*
X76511097Y-2448794D01*
X76594762Y-2292269D01*
X76624092Y-2256531D01*
X76707354Y-2155074D01*
X76808811Y-2071812D01*
X76844549Y-2042482D01*
X77001074Y-1958817D01*
X77170913Y-1907297D01*
X77237097Y-1900779D01*
X77303280Y-1894260D01*
X77641800Y-1894260D01*
X77707982Y-1900778D01*
X77707982Y-1900778D01*
G37*
G36*
X85861383Y-1865219D02*
G01*
X85927567Y-1871737D01*
X86097406Y-1923257D01*
X86253931Y-2006922D01*
X86289669Y-2036252D01*
X86391126Y-2119514D01*
X86474388Y-2220971D01*
X86503718Y-2256709D01*
X86587383Y-2413234D01*
X86638903Y-2583073D01*
X86656299Y-2759700D01*
X86638903Y-2936327D01*
X86587383Y-3106166D01*
X86503718Y-3262691D01*
X86481880Y-3289300D01*
X86391126Y-3399886D01*
X86289669Y-3483148D01*
X86253931Y-3512478D01*
X86097406Y-3596143D01*
X85927567Y-3647663D01*
X85861383Y-3654181D01*
X85795200Y-3660700D01*
X85456680Y-3660700D01*
X85390498Y-3654182D01*
X85324313Y-3647663D01*
X85154474Y-3596143D01*
X84997949Y-3512478D01*
X84962211Y-3483148D01*
X84860754Y-3399886D01*
X84770000Y-3289300D01*
X84748162Y-3262691D01*
X84664497Y-3106166D01*
X84612977Y-2936327D01*
X84595581Y-2759700D01*
X84612977Y-2583073D01*
X84664497Y-2413234D01*
X84748162Y-2256709D01*
X84777492Y-2220971D01*
X84860754Y-2119514D01*
X84962211Y-2036252D01*
X84997949Y-2006922D01*
X85154474Y-1923257D01*
X85324313Y-1871737D01*
X85390497Y-1865219D01*
X85456680Y-1858700D01*
X85795200Y-1858700D01*
X85861383Y-1865219D01*
X85861383Y-1865219D01*
G37*
G36*
X48967960Y-3517200D02*
G01*
X47165960Y-3517200D01*
X47165960Y-1715200D01*
X48967960Y-1715200D01*
X48967960Y-3517200D01*
X48967960Y-3517200D01*
G37*
G36*
X92790580Y-2795840D02*
G01*
X90988580Y-2795840D01*
X90988580Y-993840D01*
X92790580Y-993840D01*
X92790580Y-2795840D01*
X92790580Y-2795840D01*
G37*
M02*
